<?xml version="1.0" encoding="utf-8" ?>
<svg baseProfile="full" height="300mm" version="1.1" viewBox="0,0,200,300" width="200mm" xmlns="http://www.w3.org/2000/svg" xmlns:ev="http://www.w3.org/2001/xml-events" xmlns:xlink="http://www.w3.org/1999/xlink"><defs /><rect fill="#222222" height="300" width="200" x="0" y="0" /><text fill="#FFFFFF" style="font-size:12px; font-family:Arial; font-weight:bold;" x="10" y="20">Over 3km Runs</text><text fill="#FFFFFF" style="font-size:4px; font-family:Arial" x="10" y="280">ATHLETE</text><text fill="#FFFFFF" style="font-size:9px; font-family:Arial" x="10" y="290">SunHao</text><text fill="#FFFFFF" style="font-size:4px; font-family:Arial" x="120" y="280">STATISTICS</text><text fill="#FFFFFF" style="font-size:3px; font-family:Arial" x="120" y="285">Number: 10</text><text fill="#FFFFFF" style="font-size:3px; font-family:Arial" x="120" y="290">Weekly: 2.0</text><text fill="#FFFFFF" style="font-size:3px; font-family:Arial" x="141" y="285">Total: 49.3 km</text><text fill="#FFFFFF" style="font-size:3px; font-family:Arial" x="141" y="290">Avg: 4.9 km</text><text fill="#FFFFFF" style="font-size:3px; font-family:Arial" x="167" y="285">Min: 3.2 km</text><text fill="#FFFFFF" style="font-size:3px; font-family:Arial" x="167" y="290">Max: 7.0 km</text><polyline fill="none" points="13.224843858508393,46.49653945892351 13.03747397637926,46.58352103785728 13.0,46.80097490694607 13.299791811034083,47.540317225968465 13.524635669542477,48.06220514376764 14.199167244834825,49.19296009052778 14.461485079722479,49.75833643070655 14.648854961851612,50.32371201526257 15.2859125607647,51.45446091800113 15.32338653691113,51.845873295591446 15.473282442661002,52.23728531092638 15.810548230307177,52.585206798568834 15.848022206686437,53.06359837681521 16.222761970944703,53.75943970694789 16.335183900082484,54.10735994274728 16.597501734970137,54.41178991436027 17.122137404279783,55.58601775331772 17.64677307428792,56.803732070024125 18.096460791071877,58.10842209190014 18.508674531476572,59.28263967175735 18.99583622487262,60.587322049657814 19.370575988665223,61.80502197286114 19.85773768206127,63.066207484545885 20.269951422465965,64.32738923703437 20.56974323373288,65.50158955849474 20.68216516310349,65.71903370501241 20.907009021379054,65.84950013915659 20.71963913948275,65.71903370501241 21.056904927128926,65.67554488469614 22.03122831368819,65.32763416101807 23.305343511281535,64.67530078312848 24.46703677996993,64.10994437558111 25.403886190149933,63.67505431725294 26.00346981245093,63.41412006766768 26.228313670959324,63.24016381177353 27.39000693941489,62.80527285957942 28.027064538327977,62.54433807355235 29.188757806783542,61.935489613970276 30.350451075471938,61.37012954551028 31.099930603755638,61.065704580396414 31.474670367781073,60.84825804250431 32.59888965985738,60.32638589598355 32.97362942388281,60.108938978170045 34.17279666871764,59.630555365933105 35.25954198464751,59.152171212714165 36.45870922948234,58.586807425221195 36.8334489937406,58.54331787175033 37.88272033305839,58.021442882250994 39.194309507263824,57.586546565959 39.49410131853074,57.412587914266624 39.75641915318556,57.456077583832666 40.8806384454947,56.97769097215496 41.14295628038235,56.89071152996621 40.61832061060704,56.803732070024125 40.43095072847791,56.58628334195237 40.20610686996952,56.49930381952436 40.018736988073215,56.41232427911018 40.20610686996952,56.58628334195237 40.39347675209865,56.58628334195237 40.46842470509,56.84722180230892 40.730742539744824,56.84722180230892 40.99306037463248,56.93420125331613 41.480222067795694,56.93420125331613 41.66759194992483,57.108160101633985 41.81748785544187,57.36909824013128 42.04233171395026,57.586546565959 42.267175572458655,57.67352586489869 42.82928521861322,58.847744651691755 43.46634281752631,59.891491948859766 43.99097848706879,60.93523667103727 44.553088133223355,62.022468018869404 45.19014573190361,63.41412006766768 45.48993754340336,64.24041130588739 45.86467730719596,64.97972315136576 46.35183900059201,66.11043288692599 46.876474670367315,67.32811691547977 47.32616238715127,68.6762630022713 47.7383761277888,69.89393964703777 48.1131158915814,71.15510104931309 48.5253296319861,72.59021117628436 48.78764746687375,73.28602039479301 48.86259541963227,73.50346054107649 49.42470506578684,73.32950843300205 49.761970853665844,73.41648449594504 50.24913254659623,73.28602039479301 50.84871616913006,73.15555625356501 51.93546148505993,72.4162586928287 52.53504510759376,72.1988179878681 53.43442054116167,72.11184167466126 53.696738376049325,72.02486534364289 54.89590562111698,71.89440081338398 56.17002081894316,71.50300698154024 56.31991672422737,71.89440081338398 56.13254684233107,71.4160305254045 56.20749479532242,71.6769598403771 55.945176960434765,71.85091262776405 54.67106176260859,72.1988179878681 53.20957668265328,72.54672306205612 51.78556557931006,72.93811592855491 50.586398334475234,73.15555625356501 49.53712699515745,73.37299646667088 49.274809160036966,73.1990443051036 48.90006939624436,71.9813771713234 48.86259541963227,71.6769598403771 48.450381679227576,70.45928832661593 48.07564191543497,69.19812485063449 47.588480222038925,67.89346902316902 47.513532269280404,67.58904875130975 47.663428174797446,67.45858285349095 48.18806384457275,67.45858285349095 48.71269951434806,67.71951460899436 49.274809160036966,68.63277448597364 48.75017349049449,67.84998042622465 48.375433726469055,67.54556012310786 47.47605829266831,67.45858285349095 47.25121443415992,67.24113960092654 46.7640527409967,65.9799665332248 46.27689104760066,64.80576753919013 45.75225537805818,63.58807625185 45.11519777914509,62.239913953322684 44.85287994449027,61.37012954551028 44.25329632172361,60.282896521297516 43.61623872281052,59.021702713449486 43.1665510062594,58.19540128362132 43.129077029880136,57.89097403429332 43.27897293539718,57.76050514608505 43.878556557931006,57.84748440934345 45.22761970828287,58.54331787175033 45.414989590412006,58.67378651860054 45.90215128380805,58.80425512517104 45.71478140191175,59.32612914923811 45.78972935443744,59.80451310565695 46.38931297697127,60.84825804250431 47.06384455226362,62.15293559295242 47.81332408031449,63.45760912026162 48.48785565583967,64.37087819597218 49.162387230899185,64.84925644891337 50.21165857021697,65.41461186873494 50.73629424022511,65.67554488469614 51.29840388591401,65.89298894169042 51.63566967379302,66.06694410677301 52.83483691862784,66.50183170681703 54.0340041636955,66.93671885979711 54.93337959749624,66.93671885979711 55.60791117278859,66.76276405231329 56.46981262997724,66.45834296697285 57.6689798750449,66.19741043375689 58.83067314350046,65.89298894169042 59.692574600921944,65.80601133216987 59.91741845943034,65.89298894169042 61.15405968064442,65.63205605981057 62.54059680760838,65.45810071588494 63.47744621778838,65.28414530039299 64.07702984032221,64.63181185544818 64.67661346262321,63.41412006766768 64.97640527389012,62.935740192071535 65.23872310877778,62.71829461536254 65.61346287303604,62.63131635339232 65.8383067313116,62.28340312669752 65.87578070769086,61.71804352311301 65.98820263706148,61.54408656997839 66.06315058982,60.15242837072583 66.13809854257852,59.76102367747808 66.28799444809556,59.41310809054994 66.40041637746617,58.63029697409365 66.73768216511235,57.282118878589245 66.96252602362074,56.673262846743455 67.0,55.71648731196183 66.85010409425013,55.238098733418155 66.32546842470765,54.97715928067919 64.78903539199382,55.107629027130315 63.40249826502986,55.36856839936809 62.20333101996221,55.49903802515473 60.85426786937751,55.58601775331772 60.44205412897281,55.67299746355275 59.99236641218886,55.62950761074899 59.24288688390516,55.67299746355275 58.86814711987972,55.71648731196183 58.38098542671651,55.71648731196183 57.556557945907116,55.93393648718484 57.10687022889033,56.107895746739814 55.870229007676244,56.368834502151 54.63358778622933,56.76024233340286 54.25884802220389,56.84722180230892 55.34559333790094,56.62977309644339 56.61970853572711,56.19487534984364 57.78140180441551,55.84695683052996 59.31783483689651,55.759977156005334 60.10478834132664,55.67299746355275 60.517002081731334,55.71648731196183 60.92921582213603,55.58601775331772 62.27827897272073,55.54252789146267 63.25260235927999,55.412058279063785 63.589868146926165,55.412058279063785 64.45176960434765,55.238098733418155 65.72588480194099,55.107629027130315 66.47536433022469,55.281588626501616 66.73768216511235,55.54252789146267 66.88757807062939,56.455814051500056 66.85010409425013,57.412587914266624 66.5877862595953,58.28238045753096 66.40041637746617,58.67378651860054 66.17557251895778,59.93498136362177 66.02567661344074,61.239661730010994 65.91325468407013,62.06595721462509 66.06315058982,61.84851119091036 66.02567661344074,61.45710806665011 66.13809854257852,60.23940714227501 66.21304649556987,59.891491948859766 66.32546842470765,59.58706591973896 66.43789035384543,58.71727605871274 66.62526023597457,58.412849184765946 66.73768216511235,57.84748440934345 66.36294240108691,59.36961862212047 66.10062456619926,60.54383270195103 65.98820263706148,61.84851119091036 65.80083275493234,62.32689229564858 65.53851492004469,62.63131635339232 65.3136710615363,62.76178373969742 64.3018736988306,62.89225108575192 62.877862595254555,63.37063101044623 61.60374739766121,63.19667473665322 61.341429562773556,63.19667473665322 60.96668979874812,62.97922929408378 60.96668979874812,62.71829461536254 62.128383067203686,62.19642477532034 62.65301873697899,62.022468018869404 63.514920194167644,61.28315100623877 64.00208188756369,60.587322049657814 64.33934767497703,59.021702713449486 64.52671755710617,57.84748440934345 64.45176960434765,57.456077583832666 64.3018736988306,57.32560856160126 63.664816099917516,57.108160101633985 62.802914642496035,57.32560856160126 62.31575294909999,57.586546565959 61.378903539152816,57.8039947799989 60.02984038856812,57.89097403429332 58.75572519074194,57.9344636547612 58.38098542671651,58.064932489272906 57.89382373332046,58.10842209190014 57.481609993148595,58.36935961351264 57.06939625251107,58.32587003769004 55.83275503106415,58.71727605871274 54.483691880479455,58.978213204653 53.621790423290804,59.10868171736365 52.64746703673154,59.065192217647564 52.197779319947585,58.978213204653 50.92366412212141,59.239150189765496 50.548924358095974,59.36961862212047 50.21165857021697,59.41310809054994 49.836918806191534,59.58706591973896 49.42470506578684,59.674044807528844 49.087439278140664,59.93498136362177 48.90006939624436,60.32638589598355 48.97501734900288,60.80476872160216 49.31228313664906,61.02221528167138 49.61207494791597,61.37012954551028 49.986814711941406,61.63106505552423 50.28660652320832,61.978978818660835 51.410825815284625,62.76178373969742 51.86051353206858,62.89225108575192 53.13462872989476,63.501098168606404 54.2213740455918,63.935988405835815 54.70853573898785,64.02296639955603 55.68285912531428,64.06645538969315 57.21929215802811,63.71854334315867 57.74392782780342,63.45760912026162 58.231089520966634,63.37063101044623 58.64330326160416,63.15318565716734 60.06731436494738,62.80527285957942 60.40458015259355,62.76178373969742 60.74184594023973,62.58782721569878 61.15405968064442,62.54433807355235 62.61554476059973,61.89200040468131 62.99028452462517,61.67455429158872 63.40249826502986,61.28315100623877 63.96460791118443,60.36987526604207 64.26439972221851,59.065192217647564 64.45176960434765,58.021442882250994 64.26439972221851,57.586546565959 63.7772380290553,57.36909824013128 62.31575294909999,57.63003621765529 60.74184594023973,57.8039947799989 59.692574600921944,57.97795327071799 58.980569049250335,58.021442882250994 58.04371963907033,58.23889087277348 57.63150589866564,58.28238045753096 56.65718251187354,58.499828313913895 56.35739070083946,58.63029697409365 54.85843164450489,58.891234173876 53.35947258840315,59.065192217647564 52.31020124908537,58.978213204653 50.84871616913006,59.19566070343717 50.36155447596684,59.36961862212047 49.874392782803625,59.41310809054994 49.42470506578684,59.58706591973896 49.01249132538214,59.84800252947025 48.82512144325301,60.282896521297516 48.90006939624436,60.630811393028125 49.31228313664906,61.109193874464836 50.24913254659623,62.022468018869404 50.88619014550932,62.54433807355235 51.7480916029308,62.97922929408378 52.872310895239934,63.45760912026162 54.0340041636955,63.935988405835815 54.483691880479455,64.15343335678335 54.85843164450489,64.10994437558111 55.57043719640933,64.19692233353271 56.35739070083946,64.02296639955603 57.21929215802811,63.76203236458241 58.41845940309577,63.32714194859727 59.28036086051725,62.97922929408378 60.14226231793873,62.97922929408378 61.60374739766121,63.32714194859727 62.54059680760838,63.37063101044623 63.14018043014221,63.28365288247005 63.92713393457234,62.935740192071535 64.52671755710617,62.935740192071535 64.82650936837308,63.022718391468516 64.56419153348543,63.97947740502423 63.92713393457234,64.89274535412551" stroke="#4dd2ff" stroke-linecap="round" stroke-linejoin="round" stroke-width="0.5"><title>2024-06-29 6.8km</title><desc>9223370317186179507</desc></polyline><polyline fill="none" points="73.38596491224598,42.40869166087941 73.35087719291914,42.693748564692214 73.63157894730102,43.63036266140989 73.77192982460838,43.87469640932977 74.05263157887384,44.93347424225067 74.15789473685436,45.34069573204033 73.98245614022017,45.82936096735648 73.7017543859547,46.155137455876684 73.14035087707452,46.52163568526157 73.0,46.92885554250097 73.35087719291914,47.37679690186633 73.91228070156649,48.313399925566046 74.40350877179299,49.331444178678794 75.03508771921042,50.43092903334764 75.63157894730102,51.44896784450975 75.73684210516512,51.73401824285975 75.98245614022017,52.34483983411337 76.57894736831076,53.36287372664083 77.10526315774769,54.50306858032127 77.70175438583829,55.52109692644444 78.19298245594837,56.70200653036591 78.68421052617487,57.80147092821426 78.96491228067316,58.290120792371454 79.10526315774769,58.860211538587464 79.70175438583829,59.91894931936986 80.2280701752752,61.09984581367462 80.7192982455017,62.19929800616228 81.17543859640136,63.33946742740227 81.63157894730102,64.60179403037182 82.08771929820068,65.82339659082936 82.47368421044666,67.04499538437813 82.89473684201948,68.26659041128005 83.21052631561179,69.16242437029723 83.28070175426546,69.73249947145814 83.38596491224598,70.0989758890064 83.80701754370239,70.38401286830776 84.1228070174111,70.34329331232584 85.17543859640136,69.77321909010061 86.33333333325572,69.20314404761302 87.35087719291914,68.7145076439192 88.26315789460205,68.26659041128005 89.45614035089966,67.73723302877625 90.50877192965709,67.24859481706517 91.63157894730102,66.71923607433564 92.19298245594837,66.5563563189935 93.21052631561179,66.02699665128603 94.2280701752752,65.49763627629727 94.8245614033658,65.25331586477114 95.14035087707452,65.04971540658153 96.47368421044666,64.4389134044759 97.63157894730102,63.9502711246605 98.64912280696444,63.461628242221195 98.96491228067316,63.38018770315102 100.15789473685436,62.76938312701532 101.5263157893205,62.48434066909249 102.68421052617487,62.11785720766056 102.96491228067316,62.036416392365936 103.17543859640136,62.11785720766056 103.28070175426546,62.40289992920589 104.017543859547,63.50234850536799 104.64912280696444,64.56107388017699 104.85964912280906,64.92755508149276 105.38596491224598,65.98627664748346 105.91228070156649,67.08571527936147 106.40350877179299,68.14443107802072 106.92982456134632,69.20314404761302 107.35087719291914,70.30257375224028 107.84210526314564,71.44271985304658 108.33333333325572,72.9493364537193 108.75438596482854,74.00803658351651 109.14035087707452,75.02601480972953 109.38596491224598,75.75895751302596 109.87719298247248,76.0847093902994 110.26315789471846,77.18411999903037 110.36842105258256,77.4284330533701 110.54385964910034,77.59130833914969 110.7894736842718,77.59130833914969 111.07017543842085,77.46915188105777 111.84210526314564,77.30627654498676 112.96491228067316,76.6547745311691 114.15789473685436,76.247585228557 115.3157894735923,76.0847093902994 116.47368421056308,75.79967651228071 116.8245614033658,75.71823850949295 117.03508771921042,76.00327144603943 118.26315789471846,75.55536245368421 118.47368421044666,75.27032919487101 118.33333333325572,74.9038575606537 118.36842105258256,74.49666645855177 119.38596491224598,73.96731740012183 120.43859649111982,73.35652914620005 120.85964912280906,72.66430132003734 121.03508771921042,71.97207228455227 121.0,71.64631702579209 120.8245614033658,71.32056149913114 120.47368421044666,71.07624467849382 119.98245614022017,70.91336671425961 119.77192982460838,70.75048868311569 119.91228070179932,70.5468910500058 120.1228070174111,70.42473241998232 121.3157894735923,70.34329331232584 122.43859649111982,70.18041504680878 123.35087719291914,70.0175367143238 123.63157894730102,69.85465831495821 124.08771929820068,69.44746202335227 124.7192982455017,68.42946946353186 124.96491228067316,67.94083210572717 125.59649122797418,67.45219414521125 125.84210526314564,66.96355558198411 126.01754385966342,65.82339659082936 126.1228070174111,65.17187569395173 126.08771929820068,64.84611484385096 126.29824561381247,63.787390230747405 126.7192982455017,62.647222098719794 126.75438596482854,62.19929800616228 127.0,61.30344830173999 126.92982456134632,60.936963747866685 126.75438596482854,60.65191997156944 126.4035087719094,60.52975829030038 125.45614035089966,60.52975829030038 124.2280701752752,60.69264052360086 123.56140350876376,60.8148021545785 123.21052631561179,60.77408161506173 121.98245614022017,60.936963747866685 121.7017543859547,60.97768427064875 120.50877192965709,60.97768427064875 119.31578947370872,61.01840478912345 118.43859649111982,61.18128682146198 117.14035087707452,61.58849160920363 116.89473684201948,61.79209384624846 115.7017543859547,62.036416392365936 115.07017543865368,62.11785720766056 114.85964912280906,62.19929800616228 113.73684210516512,62.280738787929295 112.36842105258256,62.443620301171904 111.1052631578641,62.76938312701532 110.85964912280906,62.81010346135008 110.85964912280906,62.81010346135008" stroke="#4dd2ff" stroke-linecap="round" stroke-linejoin="round" stroke-width="0.5"><title>2024-06-26 3.2km</title><desc>9223370317445915207</desc></polyline><polyline fill="none" points="134.62352941185236,43.71840002932004 133.81176470592618,43.71840002932004 133.24705882370472,42.489541212969925 133.4941176471766,41.67029989633011 133.52941176481545,42.32569308448001 133.317647058866,42.4076171569468 133.17647058831062,42.57146525196731 133.03529411775526,43.14493305332144 133.45882352942135,43.882247585221194 133.45882352942135,44.53763713478111 133.5647058825707,44.988216824800475 133.9882352942368,45.438796005240874 134.0941176470369,45.684566252457444 133.77647058828734,46.053221339243464 133.5647058825707,46.58572252903832 133.28235294111073,46.66764572574175 133.0705882353941,46.9543767819996 133.0,47.32303069368936 133.03529411775526,48.18322182830889 133.4941176471766,48.63379739571246 134.05882352951448,49.49398570047924 134.58823529421352,50.6409005515452 134.72941176476888,51.00955105270259 135.3294117647456,51.62396779641858 135.92941176483873,52.93472035016748 136.0705882355105,53.303368728928035 136.28235294134356,53.63105589049519 136.67058823548723,54.040664463536814 136.9176470588427,54.61411575830425 137.12941176479217,54.85988034631009 137.37647058826406,55.59717320068739 137.62352941185236,55.88389783131424 138.18823529419024,57.153675858076895 138.1529411765514,57.399438879685476 138.4000000002561,57.68616221341654 138.43529411766212,57.93192490658839 138.96470588247757,58.792093139432836 139.03529411763884,59.365537596546346 139.14117647067178,59.61129925400019 139.38823529426008,59.857060759852175 139.45882352953777,60.10282211427693 139.95294117659796,61.126826126128435 140.37647058838047,62.19178750703577 140.80000000016298,63.297705928533105 141.22352941182908,64.48554081458133 141.71764705888927,65.67337216006126 142.03529411775526,66.57448323260178 142.10588235314935,66.90215948113473 142.2470588235883,67.188875977532 142.28235294134356,67.47559226764133 142.7411764707649,68.66341470056796 143.05882352951448,69.76931516235345 143.3058823531028,70.58849871103303 143.44705882354174,70.91617165895877 143.9764705883572,71.03904894503648 145.24705882370472,70.46562128610094 146.3058823531028,70.01507040380966 147.32941176486202,69.44164127134718 147.57647058845032,69.27780422492651 148.14117647067178,69.03204852872295 148.38823529414367,68.86821131390752 148.70588235300966,68.82725199960987 149.20000000006985,68.58149602575577 149.30588235298637,68.41765862566535 150.36470588250086,68.0080648305593 151.63529411773197,67.51655172073515 152.72941176476888,66.98407850106014 153.8941176471999,66.41064500730135 155.05882352951448,65.87817030990846 156.22352941182908,65.34569490115973 157.49411764729302,64.89513823023299 158.76470588240772,64.32170173051418 159.04705882351846,64.15786257904256 159.4000000001397,64.07594297800097 159.61176470608916,63.95306354487548 159.8941176471999,63.91210372545174 160.60000000020955,63.62538487149868 160.91764705907553,63.5844250182563 162.2235294119455,63.05194654449588 162.78823529416695,62.88810687101795 163.00000000011642,62.76522707159165 163.3176470589824,62.88810687101795 163.70588235312607,63.5844250182563 164.20000000006985,64.11690278057358 164.7294117648853,65.30473522478133 165.29411764722317,66.28776629420463 165.61176470597275,66.77928091958165 166.10588235303294,68.04902422896703 166.6352941178484,69.11396711098496 167.09411764715333,70.219866322499 167.65882352960762,71.57151674674242 168.0823529412737,72.71836805692874 168.54117647069506,73.98809244349832 169.00000000023283,75.17589546559611 169.38823529426008,76.44561202242039 169.5647058825707,76.8551971456618 170.12941176479217,77.05998954936513 170.4117647059029,78.04299162243842 170.5529411766911,78.24778341577621 170.8000000002794,78.3297001036699 172.00000000011642,78.0839499894937 172.45882352953777,77.67436612921301 173.34117647062521,77.22382339663454 174.43529411766212,77.10094801755622 175.21176470594946,76.93711411976255 176.34117647074163,76.60944612225285 176.58823529432993,76.56848760365392 176.83529411780182,76.56848760365392 177.01176470611244,76.77328015468083 177.32941176486202,76.69136314690695 177.5764705883339,76.69136314690695 178.00000000023283,76.44561202242039 178.28235294134356,76.36369494727114 178.38823529426008,76.15890218579443 178.28235294134356,75.54452326981118 178.28235294134356,75.29877143821795 179.34117647074163,74.93014340667287 180.25882352958433,74.3567213465285 180.8235294119222,73.74233965223539 181.00000000011642,72.75932697133976 180.92941176495515,72.43165553876315 180.78823529416695,72.14494281439693 180.61176470608916,71.85822988368454 180.36470588238444,71.73535285016987 180.01176470611244,71.61247577887843 179.83529411791824,71.40768057582318 181.03529411787167,71.0800080319168 182.27058823546395,70.95713075847016 183.29411764710676,70.79329433507519 183.78823529428337,70.670416973182 184.35294117673766,70.01507040380966 184.95294117671438,68.86821131390752 185.4823529414134,68.45861798201804 185.7294117648853,68.17190239910269 185.9764705883572,67.39367334864801 186.11764705902897,66.12392795097549 186.22352941182908,65.9191299273516 186.32941176486202,65.0589770784718 186.68235294136684,63.74826440552715 186.8941176471999,62.88810687101795 187.0,62.6013872801268 186.964705882594,61.74122727004578 186.85882352956105,61.45450685409014 186.29411764722317,61.126826126128435 185.12941176490858,61.24970643068082 183.78823529428337,61.41354677785421 182.87058823544066,61.57738705765223 181.74117647088133,61.618347117095254 180.54117647069506,61.659307172347326 179.65882352960762,61.70026722326293 179.4117647060193,61.782187312695896 178.84705882368144,61.782187312695896 177.61176470608916,62.02794747968437 176.4117647060193,62.396587446302874 175.60000000020955,62.6833071843721 174.43529411766212,62.88810687101795 173.3058823531028,63.09290645242436 172.0705882355105,63.25674604176311 170.8000000002794,63.62538487149868 169.70588235300966,63.95306354487548 168.40000000002328,64.28074194892542 167.65882352960762,64.52650057512801 167.2352941178251,64.89513823023299 167.09411764715333,65.42761424113996 167.2352941178251,65.9191299273516 167.76470588264056,66.94311899319291 168.36470588261727,67.96710542787332 169.0705882355105,69.19588567639585 169.7411764707649,69.97411120735342 170.5529411766911,70.46562128610094 171.4000000001397,71.03904894503648 172.52941176481545,71.61247577887843 173.37647058838047,71.77631186548388 173.87058823544066,72.10398383680149 175.1411764707882,72.34973763857852 176.44705882354174,72.10398383680149 177.7529411765281,71.73535285016987 178.95294117648154,71.44863962481031 179.83529411791824,71.32576246510143 180.61176470608916,71.1619261931628 180.8941176471999,71.1619261931628 182.20000000006985,70.9980898538488 183.04705882375129,70.91617165895877 183.8235294119222,70.62945784418844 184.17647058842704,70.2608254935767 184.77647058840375,69.15492639577133 185.62352941185236,68.2128617806884 185.83529411780182,68.0080648305593 186.01176470599603,67.35271388289402 186.01176470599603,67.02503800479462 186.18823529430665,65.67337216006126 186.22352941182908,65.18185617064591 186.61176470597275,63.87114390177885 186.92941176483873,62.56042732181959 187.0,61.9869874624419 186.92941176483873,61.659307172347326 186.68235294136684,61.29066652385518 186.40000000002328,61.16778623184655 185.02352941187564,61.29066652385518 183.68235294136684,61.45450685409014 182.83529411780182,61.659307172347326 182.58823529421352,61.618347117095254 182.3058823531028,61.74122727004578 181.17647058831062,61.70026722326293 179.94117647071835,61.82314735100954 179.69411764724646,61.782187312695896 179.20000000018626,61.782187312695896 178.91764705907553,61.90506741515128 178.63529411773197,61.86410738521954 177.82352941203862,62.02794747968437 177.36470588250086,62.06890749288141 176.37647058838047,62.396587446302874 176.12941176490858,62.396587446302874 175.91764705907553,62.56042732181959 174.7529411765281,62.806187009002315 173.37647058838047,63.05194654449588 171.96470588247757,63.215786150773056 170.87058823555708,63.54346516093938 170.58823529421352,63.54346516093938 170.0588235296309,63.78922424186021 169.24705882370472,64.0349831712083 168.964705882594,63.994023360166466 167.9058823529631,64.32170173051418 167.44705882377457,64.56746033151285 167.27058823546395,64.77225904967054 167.164705882431,65.34569490115973 167.20000000006985,65.71433179843007 167.69411764724646,66.53352368265041 167.9764705883572,67.10695699960343 168.18823529430665,67.39367334864801 168.29411764722317,67.7623083514627 168.85882352956105,68.78629268115037 169.317647058866,69.48260052251862 169.317647058866,69.48260052251862" stroke="#4dd2ff" stroke-linecap="round" stroke-linejoin="round" stroke-width="0.5"><title>2024-06-25 4.9km</title><desc>9223370317535602707</desc></polyline><polyline fill="none" points="14.817475728224963,107.10108616942307 15.062135922256857,106.85770094007603 14.817475728224963,107.10108616942307 13.664077669847757,106.12754435132956 13.629126213723794,105.03230693473597 13.419417475815862,104.9106137008057 13.34951456298586,105.19456452166196 13.209708737907931,105.35682204170735 13.13980582531076,105.72190121826134 13.24466019414831,106.77657249692129 13.384466019459069,106.93882936649607 13.629126213723794,107.50672788463999 13.594174757367,107.79067683717585 13.664077669847757,108.11518967567827 14.118446601903997,108.9264706040558 14.083495145663619,109.45380231289892 13.943689320469275,109.6971859409532 13.209708737907931,110.06226110152784 13.034951456356794,110.26508048904361 13.0,110.58959129248979 13.559223301010206,111.76594071756699 13.768932038801722,112.41495958881569 14.083495145663619,112.73946862420416 14.53786407771986,113.26679523740313 14.922330097062513,114.11862904689042 15.69126213598065,115.17327788242255 15.970873786369339,115.61947461802629 16.075728155323304,115.9439810180047 16.250485436874442,116.18736064285622 16.32038834958803,116.47130334877875 16.949514563078992,117.6476352395548 17.43883495137561,118.62114863505121 17.998058252502233,119.87859988311538 18.452427184442058,120.73041941967676 18.522330097155645,121.1766098717635 18.697087378706783,121.50111170171294 18.976699029211886,121.78505058411974 19.046601941692643,122.10955191383255 19.046601941692643,122.43405297672143 19.221359223360196,122.59630340800504 19.466019417508505,123.12361684915959 19.990291262161918,124.09711673553102 20.479611650574952,125.35455053427722 21.038834951352328,126.57141813758062 21.423300970927812,127.62603369198041 21.84271844662726,128.7617703677679 22.227184465969913,129.81638006863068 22.61165048542898,131.07379564386792 23.03106796112843,132.20952239749022 23.415533980471082,133.58861477536266 23.555339805898257,133.83198351832107 23.765048543689772,133.99422926356783 24.044660194194876,133.99422926356783 24.708737864159048,133.58861477536266 25.897087378660217,133.0613153175509 27.015533980564214,132.41233040223597 28.203883495065384,131.88502937273006 29.21747572813183,131.47941271681339 29.46213592228014,131.43885102833156 30.405825242633,130.9521104407322 31.62912621360738,130.38424566327012 32.712621359271,129.8975037750497 33.06213592237327,129.69469447765732 33.37669902900234,129.57300884931465 34.390291262068786,129.04570402597892 35.43883495137561,128.55896048684372 35.96310679614544,128.31558849205612 36.277669903007336,128.31558849205612 36.766990291303955,127.99109226567089 37.78058252425399,127.54490951861953 39.03883495146874,127.01760198536795 40.192233009729534,126.6119803263864 41.24077669903636,126.2874826991756 42.25436893198639,125.88186028972268 42.848543689236976,125.80073575783172 43.128155339858495,125.39511284825858 43.65242718439549,125.27342589391628 44.526213592267595,125.19230123708257 45.81941747572273,124.7866777019517 47.07766990293749,124.50274097934016 47.601941747707315,124.38105374999577 48.37087378650904,124.21880405244883 48.650485436897725,124.21880405244883 49.76893203891814,123.85374198917998 51.16699029132724,123.61036709262407 52.3902912621852,123.36699204595061 53.64854368939996,123.2047419314622 54.13786407769658,123.08305430185283 54.59223300975282,123.08305430185283 55.151456310763024,122.88024150228011 56.26990291278344,122.79911635344615 57.07378640782554,122.63686600534129 58.332038835040294,122.55574080644874 58.89126213581767,122.55574080644874 60.07961165055167,122.39349035837222 60.84854368946981,122.39349035837222 62.14174757292494,122.31236510936287 63.46990291250404,122.23123984364793 64.79805825243238,122.23123984364793 65.6019417475909,122.27180247861543 65.98640776693355,122.19067720457679 66.79029126209207,122.27180247861543 67.0,122.43405297672143 66.89514563104603,122.67742859866121 67.0,122.96136663472862 66.9650485436432,123.16417939233361 66.47572815534659,123.2047419314622 66.40582524274942,123.44811707807821 66.54563106782734,123.69149207469309 66.54563106782734,123.89430445732432 66.30097087379545,124.13767917864607 66.12621359224431,124.05655428816681 65.11262135929428,124.01599183675717 64.02912621363066,124.17824161768658 62.910679611726664,124.34049133191002 61.65242718451191,124.54330338083673 60.289320388343185,124.66499056018074 59.97475728148129,124.70555294500082 59.695145630976185,124.66499056018074 58.43689320399426,124.7866777019517 57.21359223301988,125.03005187303643 56.93398058251478,125.19230123708257 55.67572815541644,125.47623746353202 54.34757281560451,125.80073575783172 53.12427184463013,126.04410930353333 51.90097087377217,126.16579602006823 50.64271844655741,126.40916934062261 49.38446601945907,126.81479120801669 48.30097087379545,127.05816412833519 47.77669902914204,127.17985053220764 47.04271844658069,127.58547160745366 46.90291262138635,127.78828198855626 46.867961165029556,128.07221634718007 46.867961165029556,128.35615050166962 47.49708737875335,129.57300884931465 47.601941747707315,129.85694192384835 48.1961165049579,130.91154869805905 48.895145631046034,132.0067142881744 49.3145631068619,132.53401515513542 50.18834951450117,133.22356137962197 51.376699029118754,133.83198351832107 52.46019417478237,134.31872055391432 53.54368932044599,134.7648956424964 54.662135922466405,135.0893862992234 55.95533980592154,135.00826365995454 57.03883495146874,134.68377293663798 58.22718446608633,134.4404047189746 59.45048543694429,134.19703635119367 60.60388349508867,134.07535211119102 61.86213592230342,133.91310639918083 62.770873786415905,133.83198351832107 63.085436893161386,133.71029916557018 63.574757281458005,133.42636886346736 63.95922330103349,132.9801922615734 64.44854368944652,131.96615265400033 64.76310679607559,131.47941271681339 65.18252427177504,131.27660423249472 65.39223300968297,131.07379564386792 65.74174757278524,129.8975037750497 65.84660194173921,128.7212083999475 65.88155339797959,128.11277838182286 66.26601941755507,126.89591553140781 66.54563106782734,126.04410930353333 66.54563106782734,125.39511284825858 66.65048543689772,125.15173890226288 66.68543689325452,124.54330338083673 66.4407766989898,124.299928909546 66.16116504848469,124.09711673553102 65.84660194173921,124.05655428816681 64.65825242723804,124.25936648302013 64.09902912622783,124.299928909546 63.50485436897725,124.42161616394878 63.19029126211535,124.42161616394878 61.96699029125739,124.66499056018074 60.91844660195056,124.66499056018074 59.76504854368977,124.7866777019517 58.54174757283181,124.82724007425713 57.28349514561705,125.11117656339775 56.025242718402296,125.43567515801988 54.766990291303955,125.80073575783172 53.54368932044599,126.04410930353333 52.21553398051765,126.24692047701683 50.85242718446534,126.49029374754173 49.803883495158516,126.85535337182228 49.20970873790793,126.89591553140781 48.51067961170338,127.05816412833519 47.35728155344259,127.50434742565267 47.112621359177865,127.58547160745366 46.93786407762673,127.82884405233199 46.90291262138635,128.11277838182286 47.28737864084542,129.1673898169247 47.601941747707315,129.65413260576315 47.706796116544865,130.10031296807574 47.706796116544865,130.10031296807574" stroke="#4dd2ff" stroke-linecap="round" stroke-linejoin="round" stroke-width="0.5"><title>2024-06-18 4.3km</title><desc>9223370318140349607</desc></polyline><polyline fill="none" points="73.0,107.14274620983633 73.33914863923565,107.66754761416814 73.75366364279762,108.80461510259192 73.82903000689112,109.06701486057136 74.39427773910575,110.20407860865816 74.88415910652839,111.4286054004624 74.99720865301788,111.69100354018155 75.37404047464952,112.17206637587515 75.37404047464952,112.4781969882024 75.41172365657985,112.74059448056505 75.637822749326,112.95925893392996 75.97697138856165,113.83391562348697 76.35380320996046,114.57737239592825 76.99441730626859,115.7581540113315 77.55966503848322,116.93893234973075 77.97418004181236,118.20717210022849 78.46406140970066,119.3004791958083 78.91625959519297,120.52497980752378 79.21772505226545,121.66201293448103 79.59455687366426,122.79904302296927 79.70760641992092,123.19262965326197 79.85833914857358,123.49875233627972 80.19748778780922,124.50458245835034 80.23517096997239,124.81070419744356 80.5743196089752,125.07309408427682 80.98883461253718,125.11682571633719 81.29030006960966,125.02936244776356 81.47871598042548,124.89816751106991 82.38311235164292,124.41711906384444 82.75994417304173,124.32965565135237 83.96580600133166,123.71741126061534 85.05861828336492,123.10516598899267 85.51081646885723,122.93023860681569 86.18911374732852,122.75531115266494 86.52826238656417,122.53665173376794 87.80949057918042,122.01186866997159 88.45010467548855,121.74947689534747 88.86461967905052,121.39962094408111 90.18353105382994,120.78737233727588 90.37194696441293,120.69990817882353 90.56036287499592,120.56871190710808 91.27634333563037,120.39378348211176 91.46475924644619,120.43751559508382 91.72854152135551,121.049764705298 92.67062107450329,120.69990817882353 93.34891835297458,120.39378348211176 93.72575017437339,120.26258711601258 94.06489881384186,120.04392641599406 94.85624563833699,119.73780124733457 95.19539427757263,119.56287248071749 95.6099092811346,119.4316758584464 96.7780879274942,118.95062123096432 98.13468248443678,118.42583374411333 98.39846475911327,118.20717210022849 99.4159106768202,117.85731323627988 99.71737613389269,117.90104561008047 100.32030704827048,117.63865130022168 101.71458478691056,117.28879196877824 102.24214933696203,117.02639728150098 102.50593161187135,116.98266481782775 102.84508025133982,117.11386219525593 103.3349616189953,118.20717210022849 103.86252616881393,119.25674696595524 104.57850662944838,120.48124770351569 105.10607117926702,121.70574491709704 105.63363572931848,122.79904302296927 106.16120027913712,123.97980182169704 106.65108164679259,125.16055734385736 106.87718073977157,125.90399432499544 107.0655966505874,126.16638353766757 107.5177948360797,127.43459578423062 108.0830425680615,128.92146050106385 108.42219120729715,130.1459334254032 108.83670621062629,131.32667183681042 109.2135380320251,132.68233041692292 109.43963712500408,132.85725379019277 109.74110258207656,132.85725379019277 110.87159804604016,132.59486870348337 111.21074668527581,132.20129076993908 112.41660851356573,131.67651962582022 113.58478715992533,131.5015957673022 114.86601535230875,131.28294084302615 115.73272854159586,131.02055478550028 116.56175854848698,131.19547884183703 117.57920446619391,130.8018996141618 117.72993719484657,130.62697539594956 117.57920446619391,129.7523532269115 117.7676203767769,129.62115974639892 118.14445219817571,129.53369740370545 118.4459176552482,129.3150414681877 118.74738311232068,129.22757906248444 119.91556175844744,128.3966853118327 120.25471039791591,128.00310349540086 120.4431263084989,127.56578993881703 120.51849267282523,127.08474450765061 120.40544312633574,126.47250408117543 120.02861130493693,126.03518895150046 119.23726448020898,125.6853365242423 119.31263084430248,125.42294701494393 120.59385903715156,125.24802058562636 121.98813677602448,125.07309408427682 122.81716678291559,124.985630806681 123.34473133296706,124.81070419744356 123.60851360787638,124.63577751643606 124.39986043260433,123.41128873502021 124.85205861832947,122.62411551480182 125.49267271463759,122.23052835851558 125.83182135387324,121.39962094408111 125.83182135387324,120.74364026030526 125.98255408229306,119.6066046791384 126.17096999310888,118.9943534922495 126.28401953959838,118.81942441980937 126.62316817860119,117.4199892518518 126.96231681783684,115.93308434225037 127.0,115.32082786911633 126.84926727134734,115.01469930220628 126.66085136076435,114.79603590525221 126.39706908585504,114.6211051067512 124.88974180049263,114.6211051067512 123.6838799722027,114.88350127753802 122.6287508723326,115.14589728647843 121.42288904404268,115.23336258687777 120.17934403358959,115.32082786911633 119.42568039079197,115.32082786911633 118.93579902290367,115.23336258687777 117.54152128403075,115.40829313354334 116.6371249128133,115.62695621579769 115.73272854159586,116.02054948089062 114.41381716681644,116.4141423816036 113.20795533852652,116.63280494700302 112.37892533140257,116.76400243229 111.81367759942077,116.76400243229 110.64549895306118,116.98266481782775 109.7034193999134,117.0701297405758 109.13817166769877,117.33252440101933 108.83670621062629,117.3762568286329 107.55547801801004,117.76984847540734 106.23656664346345,118.07597505999729 105.78436845773831,118.2946367712866 105.59595254692249,118.55703067642753 105.48290300066583,119.08181800143211 105.97278436855413,120.26258711601258 106.68876482895575,121.48708495884784 107.44242847175337,122.71157927784952 108.23377529671416,123.67367948475294 108.94975575711578,124.32965565135237 110.08025122107938,124.85443585642497 111.36147941369563,125.51041020266712 112.52965806005523,125.99145741388202 113.62247034185566,126.4287725884933 114.90369853447191,126.51623556946288 116.147243544925,126.16638353766757 117.42847173754126,125.86026277387282 117.6922540126834,125.86026277387282 118.29518492659554,125.64160495065153 118.67201674799435,125.55414178990759 119.91556175844744,125.7727996580652 119.68946266570129,125.59787337249145 119.84019539435394,125.72906809335109 120.02861130493693,125.81653121829731 120.36775994417258,126.16638353766757 120.51849267282523,126.47250408117543 120.51849267282523,126.47250408117543" stroke="#4dd2ff" stroke-linecap="round" stroke-linejoin="round" stroke-width="0.5"><title>2024-06-17 3.4km</title><desc>9223370318224643007</desc></polyline><polyline fill="none" points="134.193758127396,105.4531683261448 134.36931079323404,105.37167037805193 133.9830949284369,105.1271764334233 133.3862158646807,105.00492940441472 133.3159947983222,105.249423424626 133.17555266572163,105.49391729384661 133.14044213260058,105.98290458013071 133.24577373208012,106.22739799699048 133.17555266572163,106.4718912631215 133.5968790636398,107.61285784395295 133.70221066311933,107.9388476923341 134.08842652791645,108.59082658501575 134.1235370610375,108.87606701324694 134.0533159947954,109.40579869263456 133.912873861962,109.56879291302175 133.70221066311933,109.60954145767028 133.10533159947954,110.01702667374047 133.03511053312104,110.30226607565419 133.0,110.669002147828 133.17555266572163,111.15798304986674 133.49154746404383,111.4432216307614 133.66710012988187,111.72846000641584 133.94798439531587,111.89145327176084 134.5097529257182,112.86941145628225 134.82574772415683,113.68437476697727 134.82574772415683,113.92886343348073 135.21196358895395,114.62158050297876 135.80884265259374,115.35504431583104 136.3706111832289,116.57748098802404 136.89726918074302,117.51467988378135 137.38881664490327,118.57411944540218 137.73992197646294,119.14458572887816 138.30169050698169,120.32626327589969 138.40702210646123,120.4892530060024 138.44213263969868,120.77448487229412 138.65279583865777,121.3042006509786 138.93368010397535,121.71167384518776 139.00390117021743,122.28213561337907 139.39011703501455,122.68960780245834 139.88166449929122,123.70828644247376 140.44343302980997,124.88995038552093 140.93498049408663,126.11235765437596 141.25097529252525,126.886546975089 141.672301690327,128.027454797033 141.84785435628146,128.3534278574225 142.19895968784112,129.41283845243743 142.5500650194008,130.6759781538567 142.97139141743537,131.77612880826928 143.32249674887862,132.998514843639 143.42782834835816,133.5282142884389 143.77893368003424,133.8134367732273 144.30559167743195,133.77269071657793 145.53446033794899,133.16149936357397 146.48244473338127,132.87627640971914 147.1846553965006,132.55030706821708 148.4486345902551,131.9391138308565 149.53706111817155,131.2871733388165 150.625487646088,130.83896362880478 151.60858257452492,130.30926059072954 152.87256176851224,129.7388103736739 153.6098829646362,129.372091943369 153.85565669694915,129.16835933559923 154.87386215862352,128.7201472299348 155.89206762018148,128.27193461745628 156.98049414821435,127.82372149833827 157.6827048114501,127.45700129651232 158.03381014289334,127.37550787226064 159.01690507133026,126.92729373954353 160.10533159936313,126.47907910007052 161.26397919363808,126.11235765437596 161.86085825739428,125.94937023636885 162.1066319894744,125.78638275130652 162.7035110532306,125.62339519930538 163.01950585166924,125.66414209350478 163.5812743823044,126.27534500544425 163.8270481142681,126.35683865583269 164.1781534459442,126.27534500544425 164.52925877750386,126.31609183279215 165.02080624178052,126.47907910007052 165.26657997386064,126.47907910007052 166.24967490229756,126.96804049986531 167.0221066317754,127.29401443136157 167.23276983073447,127.33476115390658 167.0923276982503,127.90521483035991 167.0923276982503,128.14969472616212 167.30299089709297,128.7201472299348 167.8998699609656,129.6980638980749 168.4967490247218,130.83896362880478 169.05851755512413,131.81687507021707 169.79583875148091,132.67254560271977 170.95448634575587,133.40597601784975 172.04291287367232,133.89492887398228 173.13133940158878,134.3431351292238 174.14954486326315,134.75059492138098 175.02730819222052,134.99507059561438 176.36150845244993,134.75059492138098 177.48504551360384,134.38388112722896 178.74902470724192,134.13940507598454 179.97789336787537,133.89492887398228 180.25877763319295,133.8134367732273 181.38231469434686,133.6911985905317 182.85695708694402,133.5282142884389 183.41872561757918,133.48746820239467 183.94538361486048,133.2022454830294 184.54226267861668,132.42806849619956 184.75292587757576,131.8983675815398 185.0689206761308,131.49090485769557 185.77113133925013,131.0019490364648 186.01690507144667,130.51299261217355 186.08712613780517,130.14627489814302 186.08712613780517,129.82030331194983 186.15734720404726,129.53507795420592 186.22756827040575,128.59790747679654 186.43823146936484,127.5384947041166 186.719115734566,126.6828130899521 186.96488946664613,125.4604075801617 187.0,124.8084564335586 186.92977893340867,124.48248045824585 186.719115734566,124.23799830081407 186.4031209362438,124.03426305452012 185.27958387508988,124.03426305452012 183.98049414821435,124.1565042148577 182.71651495434344,124.40098642252269 181.97919375798665,124.56397447720519 180.8907672300702,124.64546847948804 180.3641092326725,124.64546847948804 180.1534460337134,124.56397447720519 178.81924577360041,124.64546847948804 177.59037711308338,124.93069735527388 176.50195058516692,125.21592602570308 175.378413524013,125.5011544910958 174.21976592973806,125.82712962877122 172.88556566962507,126.07161080618971 172.07802340690978,126.11235765437596 170.88426527951378,126.43833228960284 169.76072821835987,126.84580020641442 169.51495448627975,126.886546975089 168.25097529240884,127.17177423840621 167.72431729512755,127.29401443136157 167.47854356304742,127.37550787226064 167.19765929761343,127.82372149833827 167.16254876449239,128.0682014443155 167.72431729512755,129.16835933559923 168.3563068920048,130.18702132749604 168.95318595564459,131.36866595904576 169.76072821835987,132.38732229705784 170.18205461639445,132.79478409941657 171.44603381003253,133.40597601784975 172.18335500650574,133.8134367732273 173.34200260066427,134.26164312052424 174.53576072806027,134.75059492138098 175.5890767229721,134.83208682958502 176.85305591661017,134.54686507763108 178.18725617683958,134.18015109494445 179.34590377111454,133.9356749181461 180.64499349787366,133.6911985905317 181.83875162526965,133.5282142884389 183.13784135237802,133.40597601784975 183.91027308197226,133.16149936357397 184.2613784134155,132.87627640971914 184.9284785434138,131.73538254218874 185.8062418724876,130.87970998694072 186.15734720404726,129.57582444645232 186.2626788035268,128.43492108065402 186.57867360196542,127.09028075553942 186.7893368009245,126.51982590637635 186.92977893340867,126.35683865583269 186.92977893340867,125.4604075801617 187.0,124.60472148042754 186.8595578671666,124.31949237006484 186.33289986976888,124.07501011210843 185.10403120936826,123.95276892665424 184.36671001289506,124.03426305452012 183.24317295174114,124.31949237006484 182.2249674901832,124.64546847948804 181.90897269162815,124.56397447720519 181.3472041611094,124.68621547421208 179.94278283475433,124.64546847948804 179.27568270475604,124.60472148042754 178.81924577360041,124.72696246483247 178.53836150828283,124.72696246483247 177.3797139141243,124.97144432071946 176.7828348503681,125.05293823918328 175.94018205441535,125.41966066489113 174.74642392701935,125.66414209350478 173.76332899858244,125.94937023636885 172.42912873858586,126.19385133837932 171.0598179452354,126.47907910007052 169.72561768512242,126.92729373954353 169.30429128743708,126.92729373954353" stroke="#4dd2ff" stroke-linecap="round" stroke-linejoin="round" stroke-width="0.5"><title>2024-06-16 4.3km</title><desc>9223370318313038607</desc></polyline><polyline fill="none" points="17.598296971060336,155.4496011172887 16.447031719377264,155.22691056446638 17.070633730618283,155.05989258986665 15.67952155135572,154.55883835651912 16.063276635250077,153.445382845297 15.391705238260329,154.11345642688684 15.199827696196735,153.0 15.391705238260329,153.50105567532592 15.151858310680836,153.33403716853354 14.959980768617243,153.61240131797967 14.864041997818276,154.11345642688684 15.439674623776227,154.89287456357852 15.583582780323923,155.22691056446638 15.775460322154686,156.45170747168595 16.063276635250077,157.0641048864345 16.063276635250077,157.2867946837796 16.399062333628535,157.5094843893894 16.495001104660332,157.73217400355497 16.447031719377264,158.23322530061705 15.439674623776227,159.5136876203469 15.007950154365972,159.62503202678636 14.76810322678648,159.95906510867644 14.912011383334175,160.90549105533864 15.727490936638787,162.07460317661753 16.734848032472655,162.7983379866928 17.358450043713674,163.9674460219103 17.694235742092133,164.91386496339692 18.461745910346508,165.91595380473882 19.229256078135222,167.58609775308287 19.421133620198816,167.97579726658296 20.332551944535226,169.36757895426126 21.1000621127896,171.0933832799201 21.819602895295247,172.59649869520217 22.3472661357373,173.7655855785706 22.587113063316792,173.98826850851765 22.92289876169525,175.15735238755587 23.21071507455781,175.380034745147 23.30665384582244,175.76972865045536 23.30665384582244,176.15942227531923 23.402592616854236,176.49344515928533 23.690408929949626,176.71612696739612 24.50588848325424,178.441907876404 25.225429265759885,180.27902344620088 25.801061891950667,181.78211336844834 26.376694517675787,183.22952935111243 27.048265914898366,185.01095909648575 27.623898540856317,186.7367135749082 28.15156178129837,188.23978557588998 28.43937809439376,189.29750040941872 29.06298010586761,190.9119032783783 29.206888262415305,191.69126845843857 29.446735189994797,192.19228833913803 29.68658211734146,192.5263013355434 29.92642904468812,192.6376389550278 30.21424535778351,192.3592948631267 31.7492656938266,191.63559955422534 33.0924084878061,190.96757225715555 34.72336759488098,190.13253697694745 36.01854100334458,189.57584607508034 36.35432670172304,189.35316955397138 36.69011240056716,189.29750040941872 38.12919396534562,188.57380100956652 38.80076536233537,188.18411631684285 39.13655106094666,188.12844705220778 40.81547955330461,187.23773803876247 42.11065296176821,186.56970531743718 43.6936426833272,186.06868023547577 45.08475486282259,185.4006460722303 46.66774458438158,184.67694146547 46.95556089724414,184.454262930376 48.58652000455186,183.73055705905426 49.68981587095186,183.39653863856802 49.97763218381442,183.1738595770439 50.36138726794161,183.11818979744567 50.64920358080417,182.8955106214853 52.328132073394954,182.28314241557382 54.150968722533435,181.72644344577566 55.685989058576524,181.11407391791 56.64537676842883,182.28314241557382 57.173040008870885,182.67283135390608 58.13242771895602,184.28725396905793 58.995876658009365,185.90167177200783 59.18775419984013,186.23568864766276 60.0512031391263,187.96143922378542 60.530896993819624,188.9634854219621 60.77074392139912,189.57584607508034 61.442315318621695,191.19024811428972 61.92200917331502,192.13661948643858 61.92200917331502,192.41496369295055 62.305764257442206,192.97165167680942 62.929366269148886,194.5303749879822 63.50499889487401,196.14476226008264 64.03266213554889,197.75914472038858 64.51235599047504,199.3178542543901 64.89611107460223,200.98789520643186 65.23189677298069,202.37959206628148 65.18392738746479,202.71359878056683 64.08063152106479,202.88060206058435 63.7448458224535,202.6579310092493 62.20982548641041,202.71359878056683 61.442315318621695,202.93626980908448 60.96262146346271,203.1589407461579 59.47557051293552,203.43727928842418 57.94055017689243,203.38161159149604 56.45349922636524,203.88262065890012 55.30223397444934,204.0496235783794 53.815183023922145,204.0496235783794 53.191581012448296,204.27229405764956 52.08828514581546,204.77330230129883 50.64920358080417,204.88463740365114 48.87433631741442,204.66196717618732 47.67510167998262,204.82896985526895 45.75632625981234,205.38564508093987 44.22130592376925,205.8866522948374 42.44643866061233,205.55264753702795 41.77486726338975,205.8866522948374 40.719540782272816,205.55264753702795 40.33578569837846,205.7753173984238 39.66421430138871,205.71964994171867 38.80076536233537,205.8866522948374 38.51294904923998,206.10932201897958 38.56091843475588,206.554661192582 38.27310212189332,206.72166328819003 37.88934703776613,206.72166328819003 36.162449159892276,206.8886653324007 34.48352066730149,207.0 33.38022480090149,207.0 32.99646971700713,206.8886653324007 32.18099016346969,206.05365459655877 32.08505139220506,204.88463740365114 31.7492656938266,203.7712853506673 31.7972350793425,202.71359878056683 31.46144938073121,201.2662348644226 30.981755525572225,199.70753093704116 30.933786140289158,198.87250913085882 30.454092285130173,197.36946663603885 29.97439843043685,195.58807753724977 29.782520888140425,194.8643865424092 29.92642904468812,194.19636322750011 30.406122899847105,193.6396765023237 31.845204464858398,192.9159829042037 32.228959548752755,192.8046453417628 32.564745247364044,192.58197014813777 32.9005309457425,192.58197014813777 34.051796197891235,191.85827513673576 35.34696960635483,191.30158600857249 35.77869407599792,191.02324122999562 37.31371441180818,190.3552131774486 38.99264290439896,189.46450782584725 40.52766324020922,188.79647785110865 42.11065296176821,187.96143922378542 43.453795755747706,187.2934073949582 45.08475486282259,186.56970531743718 46.71571396966465,185.79033276758855 48.346673076972365,185.1222982610343 49.64184648543596,184.50993257277878 50.69717296632007,184.23158430372132 50.98498927941546,184.00890558562241 51.22483620676212,184.06457527371822 52.951734085101634,183.34086888172897 54.05502995150164,182.8955106214853 55.82989721512422,182.33881228102837 56.45349922636524,182.17180266731884 56.45349922636524,182.17180266731884" stroke="#4dd2ff" stroke-linecap="round" stroke-linejoin="round" stroke-width="0.5"><title>2024-06-15 3.6km</title><desc>9223370318394354007</desc></polyline></svg>