<?xml version="1.0" encoding="utf-8" ?>
<svg baseProfile="full" height="300mm" version="1.1" viewBox="0,0,200,300" width="200mm" xmlns="http://www.w3.org/2000/svg" xmlns:ev="http://www.w3.org/2001/xml-events" xmlns:xlink="http://www.w3.org/1999/xlink"><defs /><rect fill="#222222" height="300" width="200" x="0" y="0" /><text fill="#FFFFFF" style="font-size:12px; font-family:Arial; font-weight:bold;" x="10" y="20">Over 3km Runs</text><text fill="#FFFFFF" style="font-size:4px; font-family:Arial" x="10" y="280">ATHLETE</text><text fill="#FFFFFF" style="font-size:9px; font-family:Arial" x="10" y="290">SunHao</text><text fill="#FFFFFF" style="font-size:4px; font-family:Arial" x="120" y="280">STATISTICS</text><text fill="#FFFFFF" style="font-size:3px; font-family:Arial" x="120" y="285">Number: 11</text><text fill="#FFFFFF" style="font-size:3px; font-family:Arial" x="120" y="290">Weekly: 1.8</text><text fill="#FFFFFF" style="font-size:3px; font-family:Arial" x="141" y="285">Total: 53.7 km</text><text fill="#FFFFFF" style="font-size:3px; font-family:Arial" x="141" y="290">Avg: 4.9 km</text><text fill="#FFFFFF" style="font-size:3px; font-family:Arial" x="167" y="285">Min: 3.2 km</text><text fill="#FFFFFF" style="font-size:3px; font-family:Arial" x="167" y="290">Max: 7.0 km</text><polyline fill="none" points="15.062135922373272,42.4974497652438 14.817475728224963,42.2135002289142 14.502912621363066,42.61914236121811 14.118446601903997,42.82196327095153 14.04854368942324,42.61914236121811 13.978640776709653,41.80785767963971 13.629126213607378,41.402214713190915 14.118446601903997,40.95600696868496 13.139805825194344,39.82020315981936 13.0,40.10415441854275 13.279611650505103,41.199393073737156 13.45436893205624,41.36165039383923 13.803883495158516,42.33519291240373 13.83883495151531,42.82196327095153 13.978640776709653,43.268168905429775 14.013592233066447,43.592681777168764 14.328155339811929,44.120014624582836 14.537864077603444,44.20114269244368 14.712621359270997,44.36339877807768 14.328155339811929,44.89073059547809 13.978640776709653,45.13411427353276 13.279611650505103,45.90482826347579 13.314563106745481,46.107647484284826 13.209708737791516,46.26990278591984 13.629126213607378,46.9594870734727 14.328155339811929,47.689633829082595 14.537864077603444,48.13583395894966 14.817475728224963,48.33865203312598 14.992233009659685,48.70372430377756 15.23689320392441,48.98766916966997 15.446601941715926,49.63668523868546 15.866019417415373,50.407390434178524 15.970873786252923,50.650770709558856 16.180582524160855,50.89415083476342 16.32038834958803,51.13753080982133 16.53009708749596,51.98935954057379 17.159223300986923,52.88174957191222 17.403883495135233,53.08456520666368 17.858252427075058,54.260893832630245 18.03300970874261,54.54483469968545 18.312621359247714,55.11271582078189 18.452427184325643,55.27496741959476 18.522330097155645,55.55890755701694 18.801941747544333,56.12678721896373 18.871844660141505,56.41072674343013 19.081553398049437,56.775791546009714 19.151456310530193,57.05973060344695 19.431067961268127,57.34366945680813 19.46601941739209,57.95210916851647 19.67572815530002,58.19548479045625 20.16504854359664,59.20954826648813 20.724271844606847,60.42642099809018 21.248543689376675,61.52160324816941 21.772815533913672,62.81959309030208 22.227184465969913,63.99589269704302 22.576699029072188,65.21275066945236 22.99611650488805,66.307919636718 23.380582524230704,67.44364720731392 23.73009708733298,68.57937150934595 23.869902912643738,69.14723243468325 23.83495145617053,69.43116259097587 24.04466019407846,70.0801450383733 24.07961165055167,70.3640745235025 24.289320388343185,70.60744249101845 24.219417475746013,71.21586175324046 24.32427184469998,71.58091286022682 24.74368932028301,72.79774744517636 24.98834951466415,73.85233438402065 25.163106796098873,74.70411408500513 25.47766990296077,74.8257967493264 25.862135922303423,76.12374283486861 25.96699029125739,76.40766797203105 25.932038834900595,76.6510322127724 26.281553398119286,77.94897229570779 26.281553398119286,78.23289611988002 26.38640776707325,78.51681973971426 26.2116504854057,78.71962220029673 26.14174757269211,79.24690811010078 26.17669902916532,79.57139139680658 26.561165048507974,80.05811582645401 27.0854368932778,80.17979684020975 28.308737863902934,80.09867616859265 28.97281553398352,80.13923650651122 30.161165048601106,79.97699512992403 30.475728155346587,79.93643477529986 30.615533980424516,79.65251217668992 30.615533980424516,79.28746853547636 30.825242718332447,79.32802895680652 31.139805825194344,79.24690811010078 32.293203883455135,79.20634768047603 32.607766990200616,79.28746853547636 33.796116504701786,79.00354547001189 34.739805825287476,79.08466636671801 35.264077669824474,79.00354547001189 35.82330097083468,78.80074315535603 36.97669902909547,78.43569872630178 37.500970873748884,78.31401717485278 38.654368932009675,78.43569872630178 39.49320388340857,78.55738024009042 40.332038835040294,78.51681973971426 41.13592233019881,78.19233558597625 41.380582524230704,78.15177504793974 41.62524271849543,77.98953285449534 42.70873786404263,77.94897229570779 43.372815534006804,77.90841173267108 44.631067961105146,77.54336647834862 45.05048543692101,77.3405634133378 46.41359223308973,77.42168465183931 47.74174757266883,76.93495697062463 48.23106796119828,76.81327495659934 49.17475728155114,76.93495697062463 49.41941747581586,77.05663894716417 50.537864077603444,76.73215359303867 50.78252427186817,76.69159290497191 50.29320388357155,75.47477032564348 50.08349514566362,75.02860110657639 50.04854368919041,74.74467497738078 49.66407766984776,73.69009042298421 49.31456310674548,72.5949419416138 48.895145631046034,71.49979042125051 48.895145631046034,71.25642300397158 49.62912621360738,71.25642300397158 49.943689320236444,71.37810673133936 50.50291262147948,72.10820830767625 51.06213592225686,72.87886961750337 51.41165048535913,73.20335813969723 52.320388349471614,73.60896841745125 53.33398058253806,73.48728537786519 54.62718446587678,73.1222360341635 54.9067961164983,73.1222360341635 55.955339805805124,73.60896841745125 56.689320388482884,73.81177339996793 58.01747572806198,73.77121241172426 59.100970873842016,73.3656023008516 59.834951456286944,73.04111391198239 60.56893203873187,72.51381971099181 60.91844660183415,72.10820830767625 61.12815533974208,71.25642300397158 61.023300970788114,70.56688117343583 60.42912621353753,70.0801450383733 59.90485436900053,69.83677674570936 60.14951456314884,69.67453113381634 60.84854368935339,69.67453113381634 62.10679611656815,69.47172402526485 63.2951456309529,69.3094782634289 63.81941747572273,69.0661094954703 64.41359223297331,68.33600229115109 64.79805825231597,67.64645535804448 65.18252427177504,67.11915394911193 65.77669902914204,66.71353700134205 66.16116504848469,65.45612181373872 66.30097087367903,64.1581406435289 66.3708737862762,63.590272538975114 66.54563106794376,62.73846885020612 66.7203883494949,62.251723059715005 66.75533980573528,61.88666332280263 66.93009708740283,61.602727738325484 67.0,60.62923275519279 66.96504854352679,60.34529626605217 66.79029126209207,59.939672355743824 66.51067961158697,59.69629780948162 65.95145631057676,59.61517292732606 64.65825242712162,59.77742267481517 63.39999999990687,59.98023476553499 61.932038834900595,60.14248436302296 60.499029126251116,60.14248436302296 59.90485436900053,60.30473389374674 59.310679611517116,60.34529626605217 58.99611650465522,60.26417151733767 58.01747572806198,60.466983357822755 56.93398058251478,60.91316904005362 56.23495145619381,61.156542835757136 54.9067961164983,61.27822967746761 54.24271844653413,61.359354217740474 53.92815533967223,61.481040996848606 53.40388349513523,61.44047874127864 53.08932038838975,61.56216549532837 51.90097087388858,61.80553889097064 51.27184466016479,61.96778773798724 50.398058252525516,62.13003651818144 49.943689320236444,62.41397172320285 48.790291262208484,62.73846885020612 48.58058252430055,62.73846885020612 48.37087378639262,62.81959309030208 48.16116504848469,62.81959309030208 47.881553398096,62.860155204107286 47.42718446603976,63.14408988377545 47.18252427177504,63.671396604098845 47.217475728248246,63.95533070003148 47.67184466018807,64.92881747818319 48.266019417438656,65.90230185506516 48.86019417468924,66.99746890860843 49.62912621360738,68.05207134693046 50.188349514617585,68.61993303106283 50.887378640822135,69.02554801953374 51.935922330012545,69.51228545536287 52.425242718309164,69.79621534902253 53.613592233043164,70.24239048338495 54.277669903007336,70.48575852593058 55.53592232998926,70.72912641847506 55.92038834944833,70.68856511352351 57.24854368926026,70.28295183429145 58.54174757283181,69.91789952659747 59.66019417485222,69.71509254298871 60.95339805830736,69.55284688121174 62.071844660211354,69.3500397101161 62.386407766956836,69.3094782634289 63.015533980564214,69.3094782634289 63.64466019417159,69.18779389819247 64.168932038825,68.82274057745235 64.693203883362,67.97094818257028 64.83300970878918,67.56533211018541 65.84660194185562,66.38904314304818 66.12621359224431,65.3749981156434 66.05631067953072,65.09106504110969 66.19611650484148,64.40151243805303 66.19611650484148,64.1581406435289 66.30097087367903,63.87420669346466 66.30097087367903,63.87420669346466" stroke="#4dd2ff" stroke-linecap="round" stroke-linejoin="round" stroke-width="0.5"><title>2024-07-02 4.3km</title><desc>9223370316930743707</desc></polyline><polyline fill="none" points="73.2248438585084,46.49653945892351 73.03747397637926,46.58352103785728 73.0,46.80097490694607 73.29979181103408,47.540317225968465 73.52463566954248,48.06220514376764 74.19916724483483,49.19296009052778 74.46148507972248,49.75833643070655 74.64885496185161,50.32371201526257 75.2859125607647,51.45446091800113 75.32338653691113,51.845873295591446 75.473282442661,52.23728531092638 75.81054823030718,52.585206798568834 75.84802220668644,53.06359837681521 76.2227619709447,53.75943970694789 76.33518390008248,54.10735994274728 76.59750173497014,54.41178991436027 77.12213740427978,55.58601775331772 77.64677307428792,56.803732070024125 78.09646079107188,58.10842209190014 78.50867453147657,59.28263967175735 78.99583622487262,60.587322049657814 79.37057598866522,61.80502197286114 79.85773768206127,63.066207484545885 80.26995142246597,64.32738923703437 80.56974323373288,65.50158955849474 80.68216516310349,65.71903370501241 80.90700902137905,65.84950013915659 80.71963913948275,65.71903370501241 81.05690492712893,65.67554488469614 82.03122831368819,65.32763416101807 83.30534351128154,64.67530078312848 84.46703677996993,64.10994437558111 85.40388619014993,63.67505431725294 86.00346981245093,63.41412006766768 86.22831367095932,63.24016381177353 87.39000693941489,62.80527285957942 88.02706453832798,62.54433807355235 89.18875780678354,61.935489613970276 90.35045107547194,61.37012954551028 91.09993060375564,61.065704580396414 91.47467036778107,60.84825804250431 92.59888965985738,60.32638589598355 92.97362942388281,60.108938978170045 94.17279666871764,59.630555365933105 95.25954198464751,59.152171212714165 96.45870922948234,58.586807425221195 96.8334489937406,58.54331787175033 97.88272033305839,58.021442882250994 99.19430950726382,57.586546565959 99.49410131853074,57.412587914266624 99.75641915318556,57.456077583832666 100.8806384454947,56.97769097215496 101.14295628038235,56.89071152996621 100.61832061060704,56.803732070024125 100.43095072847791,56.58628334195237 100.20610686996952,56.49930381952436 100.01873698807321,56.41232427911018 100.20610686996952,56.58628334195237 100.39347675209865,56.58628334195237 100.46842470509,56.84722180230892 100.73074253974482,56.84722180230892 100.99306037463248,56.93420125331613 101.4802220677957,56.93420125331613 101.66759194992483,57.108160101633985 101.81748785544187,57.36909824013128 102.04233171395026,57.586546565959 102.26717557245865,57.67352586489869 102.82928521861322,58.847744651691755 103.46634281752631,59.891491948859766 103.99097848706879,60.93523667103727 104.55308813322335,62.022468018869404 105.19014573190361,63.41412006766768 105.48993754340336,64.24041130588739 105.86467730719596,64.97972315136576 106.35183900059201,66.11043288692599 106.87647467036732,67.32811691547977 107.32616238715127,68.6762630022713 107.7383761277888,69.89393964703777 108.1131158915814,71.15510104931309 108.5253296319861,72.59021117628436 108.78764746687375,73.28602039479301 108.86259541963227,73.50346054107649 109.42470506578684,73.32950843300205 109.76197085366584,73.41648449594504 110.24913254659623,73.28602039479301 110.84871616913006,73.15555625356501 111.93546148505993,72.4162586928287 112.53504510759376,72.1988179878681 113.43442054116167,72.11184167466126 113.69673837604932,72.02486534364289 114.89590562111698,71.89440081338398 116.17002081894316,71.50300698154024 116.31991672422737,71.89440081338398 116.13254684233107,71.4160305254045 116.20749479532242,71.6769598403771 115.94517696043476,71.85091262776405 114.67106176260859,72.1988179878681 113.20957668265328,72.54672306205612 111.78556557931006,72.93811592855491 110.58639833447523,73.15555625356501 109.53712699515745,73.37299646667088 109.27480916003697,73.1990443051036 108.90006939624436,71.9813771713234 108.86259541963227,71.6769598403771 108.45038167922758,70.45928832661593 108.07564191543497,69.19812485063449 107.58848022203892,67.89346902316902 107.5135322692804,67.58904875130975 107.66342817479745,67.45858285349095 108.18806384457275,67.45858285349095 108.71269951434806,67.71951460899436 109.27480916003697,68.63277448597364 108.75017349049449,67.84998042622465 108.37543372646905,67.54556012310786 107.47605829266831,67.45858285349095 107.25121443415992,67.24113960092654 106.7640527409967,65.9799665332248 106.27689104760066,64.80576753919013 105.75225537805818,63.58807625185 105.11519777914509,62.239913953322684 104.85287994449027,61.37012954551028 104.25329632172361,60.282896521297516 103.61623872281052,59.021702713449486 103.1665510062594,58.19540128362132 103.12907702988014,57.89097403429332 103.27897293539718,57.76050514608505 103.878556557931,57.84748440934345 105.22761970828287,58.54331787175033 105.414989590412,58.67378651860054 105.90215128380805,58.80425512517104 105.71478140191175,59.32612914923811 105.78972935443744,59.80451310565695 106.38931297697127,60.84825804250431 107.06384455226362,62.15293559295242 107.81332408031449,63.45760912026162 108.48785565583967,64.37087819597218 109.16238723089918,64.84925644891337 110.21165857021697,65.41461186873494 110.7362942402251,65.67554488469614 111.29840388591401,65.89298894169042 111.63566967379302,66.06694410677301 112.83483691862784,66.50183170681703 114.0340041636955,66.93671885979711 114.93337959749624,66.93671885979711 115.60791117278859,66.76276405231329 116.46981262997724,66.45834296697285 117.6689798750449,66.19741043375689 118.83067314350046,65.89298894169042 119.69257460092194,65.80601133216987 119.91741845943034,65.89298894169042 121.15405968064442,65.63205605981057 122.54059680760838,65.45810071588494 123.47744621778838,65.28414530039299 124.07702984032221,64.63181185544818 124.67661346262321,63.41412006766768 124.97640527389012,62.935740192071535 125.23872310877778,62.71829461536254 125.61346287303604,62.63131635339232 125.8383067313116,62.28340312669752 125.87578070769086,61.71804352311301 125.98820263706148,61.54408656997839 126.06315058982,60.15242837072583 126.13809854257852,59.76102367747808 126.28799444809556,59.41310809054994 126.40041637746617,58.63029697409365 126.73768216511235,57.282118878589245 126.96252602362074,56.673262846743455 127.0,55.71648731196183 126.85010409425013,55.238098733418155 126.32546842470765,54.97715928067919 124.78903539199382,55.107629027130315 123.40249826502986,55.36856839936809 122.2033310199622,55.49903802515473 120.85426786937751,55.58601775331772 120.44205412897281,55.67299746355275 119.99236641218886,55.62950761074899 119.24288688390516,55.67299746355275 118.86814711987972,55.71648731196183 118.3809854267165,55.71648731196183 117.55655794590712,55.93393648718484 117.10687022889033,56.107895746739814 115.87022900767624,56.368834502151 114.63358778622933,56.76024233340286 114.25884802220389,56.84722180230892 115.34559333790094,56.62977309644339 116.61970853572711,56.19487534984364 117.78140180441551,55.84695683052996 119.31783483689651,55.759977156005334 120.10478834132664,55.67299746355275 120.51700208173133,55.71648731196183 120.92921582213603,55.58601775331772 122.27827897272073,55.54252789146267 123.25260235927999,55.412058279063785 123.58986814692616,55.412058279063785 124.45176960434765,55.238098733418155 125.72588480194099,55.107629027130315 126.47536433022469,55.281588626501616 126.73768216511235,55.54252789146267 126.88757807062939,56.455814051500056 126.85010409425013,57.412587914266624 126.5877862595953,58.28238045753096 126.40041637746617,58.67378651860054 126.17557251895778,59.93498136362177 126.02567661344074,61.239661730010994 125.91325468407013,62.06595721462509 126.06315058982,61.84851119091036 126.02567661344074,61.45710806665011 126.13809854257852,60.23940714227501 126.21304649556987,59.891491948859766 126.32546842470765,59.58706591973896 126.43789035384543,58.71727605871274 126.62526023597457,58.412849184765946 126.73768216511235,57.84748440934345 126.36294240108691,59.36961862212047 126.10062456619926,60.54383270195103 125.98820263706148,61.84851119091036 125.80083275493234,62.32689229564858 125.53851492004469,62.63131635339232 125.3136710615363,62.76178373969742 124.3018736988306,62.89225108575192 122.87786259525456,63.37063101044623 121.60374739766121,63.19667473665322 121.34142956277356,63.19667473665322 120.96668979874812,62.97922929408378 120.96668979874812,62.71829461536254 122.12838306720369,62.19642477532034 122.65301873697899,62.022468018869404 123.51492019416764,61.28315100623877 124.00208188756369,60.587322049657814 124.33934767497703,59.021702713449486 124.52671755710617,57.84748440934345 124.45176960434765,57.456077583832666 124.3018736988306,57.32560856160126 123.66481609991752,57.108160101633985 122.80291464249603,57.32560856160126 122.31575294909999,57.586546565959 121.37890353915282,57.8039947799989 120.02984038856812,57.89097403429332 118.75572519074194,57.9344636547612 118.3809854267165,58.064932489272906 117.89382373332046,58.10842209190014 117.4816099931486,58.36935961351264 117.06939625251107,58.32587003769004 115.83275503106415,58.71727605871274 114.48369188047945,58.978213204653 113.6217904232908,59.10868171736365 112.64746703673154,59.065192217647564 112.19777931994759,58.978213204653 110.92366412212141,59.239150189765496 110.54892435809597,59.36961862212047 110.21165857021697,59.41310809054994 109.83691880619153,59.58706591973896 109.42470506578684,59.674044807528844 109.08743927814066,59.93498136362177 108.90006939624436,60.32638589598355 108.97501734900288,60.80476872160216 109.31228313664906,61.02221528167138 109.61207494791597,61.37012954551028 109.9868147119414,61.63106505552423 110.28660652320832,61.978978818660835 111.41082581528462,62.76178373969742 111.86051353206858,62.89225108575192 113.13462872989476,63.501098168606404 114.2213740455918,63.935988405835815 114.70853573898785,64.02296639955603 115.68285912531428,64.06645538969315 117.21929215802811,63.71854334315867 117.74392782780342,63.45760912026162 118.23108952096663,63.37063101044623 118.64330326160416,63.15318565716734 120.06731436494738,62.80527285957942 120.40458015259355,62.76178373969742 120.74184594023973,62.58782721569878 121.15405968064442,62.54433807355235 122.61554476059973,61.89200040468131 122.99028452462517,61.67455429158872 123.40249826502986,61.28315100623877 123.96460791118443,60.36987526604207 124.26439972221851,59.065192217647564 124.45176960434765,58.021442882250994 124.26439972221851,57.586546565959 123.7772380290553,57.36909824013128 122.31575294909999,57.63003621765529 120.74184594023973,57.8039947799989 119.69257460092194,57.97795327071799 118.98056904925033,58.021442882250994 118.04371963907033,58.23889087277348 117.63150589866564,58.28238045753096 116.65718251187354,58.499828313913895 116.35739070083946,58.63029697409365 114.85843164450489,58.891234173876 113.35947258840315,59.065192217647564 112.31020124908537,58.978213204653 110.84871616913006,59.19566070343717 110.36155447596684,59.36961862212047 109.87439278280362,59.41310809054994 109.42470506578684,59.58706591973896 109.01249132538214,59.84800252947025 108.82512144325301,60.282896521297516 108.90006939624436,60.630811393028125 109.31228313664906,61.109193874464836 110.24913254659623,62.022468018869404 110.88619014550932,62.54433807355235 111.7480916029308,62.97922929408378 112.87231089523993,63.45760912026162 114.0340041636955,63.935988405835815 114.48369188047945,64.15343335678335 114.85843164450489,64.10994437558111 115.57043719640933,64.19692233353271 116.35739070083946,64.02296639955603 117.21929215802811,63.76203236458241 118.41845940309577,63.32714194859727 119.28036086051725,62.97922929408378 120.14226231793873,62.97922929408378 121.60374739766121,63.32714194859727 122.54059680760838,63.37063101044623 123.14018043014221,63.28365288247005 123.92713393457234,62.935740192071535 124.52671755710617,62.935740192071535 124.82650936837308,63.022718391468516 124.56419153348543,63.97947740502423 123.92713393457234,64.89274535412551" stroke="#4dd2ff" stroke-linecap="round" stroke-linejoin="round" stroke-width="0.5"><title>2024-06-29 6.8km</title><desc>9223370317186179507</desc></polyline><polyline fill="none" points="133.38596491224598,42.40869166087941 133.35087719291914,42.693748564692214 133.63157894730102,43.63036266140989 133.77192982460838,43.87469640932977 134.05263157887384,44.93347424225067 134.15789473685436,45.34069573204033 133.98245614022017,45.82936096735648 133.7017543859547,46.155137455876684 133.14035087707452,46.52163568526157 133.0,46.92885554250097 133.35087719291914,47.37679690186633 133.9122807015665,48.313399925566046 134.40350877179299,49.331444178678794 135.03508771921042,50.43092903334764 135.63157894730102,51.44896784450975 135.73684210516512,51.73401824285975 135.98245614022017,52.34483983411337 136.57894736831076,53.36287372664083 137.1052631577477,54.50306858032127 137.70175438583829,55.52109692644444 138.19298245594837,56.70200653036591 138.68421052617487,57.80147092821426 138.96491228067316,58.290120792371454 139.1052631577477,58.860211538587464 139.70175438583829,59.91894931936986 140.2280701752752,61.09984581367462 140.7192982455017,62.19929800616228 141.17543859640136,63.33946742740227 141.63157894730102,64.60179403037182 142.08771929820068,65.82339659082936 142.47368421044666,67.04499538437813 142.89473684201948,68.26659041128005 143.2105263156118,69.16242437029723 143.28070175426546,69.73249947145814 143.38596491224598,70.0989758890064 143.8070175437024,70.38401286830776 144.1228070174111,70.34329331232584 145.17543859640136,69.77321909010061 146.33333333325572,69.20314404761302 147.35087719291914,68.7145076439192 148.26315789460205,68.26659041128005 149.45614035089966,67.73723302877625 150.5087719296571,67.24859481706517 151.63157894730102,66.71923607433564 152.19298245594837,66.5563563189935 153.2105263156118,66.02699665128603 154.2280701752752,65.49763627629727 154.8245614033658,65.25331586477114 155.14035087707452,65.04971540658153 156.47368421044666,64.4389134044759 157.63157894730102,63.9502711246605 158.64912280696444,63.461628242221195 158.96491228067316,63.38018770315102 160.15789473685436,62.76938312701532 161.5263157893205,62.48434066909249 162.68421052617487,62.11785720766056 162.96491228067316,62.036416392365936 163.17543859640136,62.11785720766056 163.28070175426546,62.40289992920589 164.017543859547,63.50234850536799 164.64912280696444,64.56107388017699 164.85964912280906,64.92755508149276 165.38596491224598,65.98627664748346 165.9122807015665,67.08571527936147 166.40350877179299,68.14443107802072 166.92982456134632,69.20314404761302 167.35087719291914,70.30257375224028 167.84210526314564,71.44271985304658 168.33333333325572,72.9493364537193 168.75438596482854,74.00803658351651 169.14035087707452,75.02601480972953 169.38596491224598,75.75895751302596 169.87719298247248,76.0847093902994 170.26315789471846,77.18411999903037 170.36842105258256,77.4284330533701 170.54385964910034,77.59130833914969 170.7894736842718,77.59130833914969 171.07017543842085,77.46915188105777 171.84210526314564,77.30627654498676 172.96491228067316,76.6547745311691 174.15789473685436,76.247585228557 175.3157894735923,76.0847093902994 176.47368421056308,75.79967651228071 176.8245614033658,75.71823850949295 177.03508771921042,76.00327144603943 178.26315789471846,75.55536245368421 178.47368421044666,75.27032919487101 178.33333333325572,74.9038575606537 178.36842105258256,74.49666645855177 179.38596491224598,73.96731740012183 180.43859649111982,73.35652914620005 180.85964912280906,72.66430132003734 181.03508771921042,71.97207228455227 181.0,71.64631702579209 180.8245614033658,71.32056149913114 180.47368421044666,71.07624467849382 179.98245614022017,70.91336671425961 179.77192982460838,70.75048868311569 179.91228070179932,70.5468910500058 180.1228070174111,70.42473241998232 181.3157894735923,70.34329331232584 182.43859649111982,70.18041504680878 183.35087719291914,70.0175367143238 183.63157894730102,69.85465831495821 184.08771929820068,69.44746202335227 184.7192982455017,68.42946946353186 184.96491228067316,67.94083210572717 185.59649122797418,67.45219414521125 185.84210526314564,66.96355558198411 186.01754385966342,65.82339659082936 186.1228070174111,65.17187569395173 186.08771929820068,64.84611484385096 186.29824561381247,63.787390230747405 186.7192982455017,62.647222098719794 186.75438596482854,62.19929800616228 187.0,61.30344830173999 186.92982456134632,60.936963747866685 186.75438596482854,60.65191997156944 186.4035087719094,60.52975829030038 185.45614035089966,60.52975829030038 184.2280701752752,60.69264052360086 183.56140350876376,60.8148021545785 183.2105263156118,60.77408161506173 181.98245614022017,60.936963747866685 181.7017543859547,60.97768427064875 180.5087719296571,60.97768427064875 179.31578947370872,61.01840478912345 178.43859649111982,61.18128682146198 177.14035087707452,61.58849160920363 176.89473684201948,61.79209384624846 175.7017543859547,62.036416392365936 175.07017543865368,62.11785720766056 174.85964912280906,62.19929800616228 173.73684210516512,62.280738787929295 172.36842105258256,62.443620301171904 171.1052631578641,62.76938312701532 170.85964912280906,62.81010346135008 170.85964912280906,62.81010346135008" stroke="#4dd2ff" stroke-linecap="round" stroke-linejoin="round" stroke-width="0.5"><title>2024-06-26 3.2km</title><desc>9223370317445915207</desc></polyline><polyline fill="none" points="14.62352941185236,103.71840002932004 13.81176470592618,103.71840002932004 13.24705882370472,102.48954121296993 13.494117647176608,101.6702998963301 13.52941176481545,102.32569308448001 13.317647058865987,102.4076171569468 13.176470588310622,102.57146525196731 13.035294117755257,103.14493305332144 13.458823529421352,103.8822475852212 13.458823529421352,104.53763713478111 13.564705882570706,104.98821682480047 13.988235294236802,105.43879600524087 14.09411764703691,105.68456625245744 13.776470588287339,106.05322133924346 13.564705882570706,106.58572252903832 13.28235294111073,106.66764572574175 13.070588235394098,106.9543767819996 13.0,107.32303069368936 13.035294117755257,108.18322182830889 13.494117647176608,108.63379739571246 14.058823529514484,109.49398570047924 14.588235294213519,110.6409005515452 14.729411764768884,111.00955105270259 15.3294117647456,111.62396779641858 15.929411764838733,112.93472035016748 16.070588235510513,113.30336872892804 16.28235294134356,113.63105589049519 16.67058823548723,114.04066446353681 16.917647058842704,114.61411575830425 17.129411764792167,114.85988034631009 17.376470588264056,115.5971732006874 17.62352941185236,115.88389783131424 18.188235294190235,117.1536758580769 18.152941176551394,117.39943887968548 18.400000000256114,117.68616221341654 18.435294117662124,117.93192490658839 18.964705882477574,118.79209313943284 19.03529411763884,119.36553759654635 19.14117647067178,119.61129925400019 19.388235294260085,119.85706075985217 19.458823529537767,120.10282211427693 19.95294117659796,121.12682612612844 20.37647058838047,122.19178750703577 20.80000000016298,123.2977059285331 21.223529411829077,124.48554081458133 21.71764705888927,125.67337216006126 22.035294117755257,126.57448323260178 22.105882353149354,126.90215948113473 22.247058823588304,127.188875977532 22.28235294134356,127.47559226764133 22.741176470764913,128.66341470056796 23.058823529514484,129.76931516235345 23.30588235310279,130.58849871103303 23.447058823541738,130.91617165895877 23.976470588357188,131.03904894503648 25.24705882370472,130.46562128610094 26.30588235310279,130.01507040380966 27.329411764862016,129.44164127134718 27.57647058845032,129.2778042249265 28.14117647067178,129.03204852872295 28.38823529414367,128.86821131390752 28.705882353009656,128.82725199960987 29.20000000006985,128.58149602575577 29.305882352986373,128.41765862566535 30.364705882500857,128.0080648305593 31.635294117731974,127.51655172073515 32.729411764768884,126.98407850106014 33.89411764719989,126.41064500730135 35.058823529514484,125.87817030990846 36.22352941182908,125.34569490115973 37.494117647293024,124.89513823023299 38.764705882407725,124.32170173051418 39.047058823518455,124.15786257904256 39.4000000001397,124.07594297800097 39.61176470608916,123.95306354487548 39.89411764719989,123.91210372545174 40.60000000020955,123.62538487149868 40.917647059075534,123.5844250182563 42.22352941194549,123.05194654449588 42.78823529416695,122.88810687101795 43.000000000116415,122.76522707159165 43.3176470589824,122.88810687101795 43.70588235312607,123.5844250182563 44.20000000006985,124.11690278057358 44.7294117648853,125.30473522478133 45.294117647223175,126.28776629420463 45.611764705972746,126.77928091958165 46.10588235303294,128.04902422896703 46.63529411784839,129.11396711098496 47.094117647153325,130.219866322499 47.658823529607616,131.57151674674242 48.08235294127371,132.71836805692874 48.54117647069506,133.98809244349832 49.00000000023283,135.1758954655961 49.388235294260085,136.4456120224204 49.564705882570706,136.8551971456618 50.12941176479217,137.05998954936513 50.4117647059029,138.04299162243842 50.55294117669109,138.2477834157762 50.8000000002794,138.3297001036699 52.000000000116415,138.0839499894937 52.45882352953777,137.674366129213 53.341176470625214,137.22382339663454 54.435294117662124,137.10094801755622 55.21176470594946,136.93711411976255 56.34117647074163,136.60944612225285 56.588235294329934,136.56848760365392 56.83529411780182,136.56848760365392 57.011764706112444,136.77328015468083 57.329411764862016,136.69136314690695 57.576470588333905,136.69136314690695 58.00000000023283,136.4456120224204 58.28235294134356,136.36369494727114 58.388235294260085,136.15890218579443 58.28235294134356,135.54452326981118 58.28235294134356,135.29877143821795 59.34117647074163,134.93014340667287 60.25882352958433,134.3567213465285 60.82352941192221,133.7423396522354 61.000000000116415,132.75932697133976 60.92941176495515,132.43165553876315 60.78823529416695,132.14494281439693 60.61176470608916,131.85822988368454 60.36470588238444,131.73535285016987 60.011764706112444,131.61247577887843 59.83529411791824,131.40768057582318 61.03529411787167,131.0800080319168 62.27058823546395,130.95713075847016 63.29411764710676,130.7932943350752 63.78823529428337,130.670416973182 64.35294117673766,130.01507040380966 64.95294117671438,128.86821131390752 65.48235294141341,128.45861798201804 65.7294117648853,128.1719023991027 65.97647058835719,127.39367334864801 66.11764705902897,126.12392795097549 66.22352941182908,125.9191299273516 66.32941176486202,125.0589770784718 66.68235294136684,123.74826440552715 66.89411764719989,122.88810687101795 67.0,122.6013872801268 66.96470588259399,121.74122727004578 66.85882352956105,121.45450685409014 66.29411764722317,121.12682612612844 65.12941176490858,121.24970643068082 63.78823529428337,121.41354677785421 62.870588235440664,121.57738705765223 61.74117647088133,121.61834711709525 60.54117647069506,121.65930717234733 59.658823529607616,121.70026722326293 59.41176470601931,121.7821873126959 58.84705882368144,121.7821873126959 57.61176470608916,122.02794747968437 56.41176470601931,122.39658744630287 55.60000000020955,122.6833071843721 54.435294117662124,122.88810687101795 53.30588235310279,123.09290645242436 52.07058823551051,123.25674604176311 50.8000000002794,123.62538487149868 49.705882353009656,123.95306354487548 48.40000000002328,124.28074194892542 47.658823529607616,124.52650057512801 47.235294117825106,124.89513823023299 47.094117647153325,125.42761424113996 47.235294117825106,125.9191299273516 47.764705882640556,126.94311899319291 48.36470588261727,127.96710542787332 49.07058823551051,129.19588567639585 49.74117647076491,129.97411120735342 50.55294117669109,130.46562128610094 51.4000000001397,131.03904894503648 52.52941176481545,131.61247577887843 53.37647058838047,131.77631186548388 53.870588235440664,132.1039838368015 55.141176470788196,132.34973763857852 56.44705882354174,132.1039838368015 57.75294117652811,131.73535285016987 58.952941176481545,131.4486396248103 59.83529411791824,131.32576246510143 60.61176470608916,131.1619261931628 60.89411764719989,131.1619261931628 62.20000000006985,130.9980898538488 63.047058823751286,130.91617165895877 63.82352941192221,130.62945784418844 64.17647058842704,130.2608254935767 64.77647058840375,129.15492639577133 65.62352941185236,128.2128617806884 65.83529411780182,128.0080648305593 66.01176470599603,127.35271388289402 66.01176470599603,127.02503800479462 66.18823529430665,125.67337216006126 66.22352941182908,125.18185617064591 66.61176470597275,123.87114390177885 66.92941176483873,122.56042732181959 67.0,121.9869874624419 66.92941176483873,121.65930717234733 66.68235294136684,121.29066652385518 66.40000000002328,121.16778623184655 65.02352941187564,121.29066652385518 63.682352941366844,121.45450685409014 62.83529411780182,121.65930717234733 62.58823529421352,121.61834711709525 62.30588235310279,121.74122727004578 61.17647058831062,121.70026722326293 59.94117647071835,121.82314735100954 59.69411764724646,121.7821873126959 59.200000000186265,121.7821873126959 58.917647059075534,121.90506741515128 58.63529411773197,121.86410738521954 57.823529412038624,122.02794747968437 57.36470588250086,122.06890749288141 56.37647058838047,122.39658744630287 56.12941176490858,122.39658744630287 55.917647059075534,122.56042732181959 54.75294117652811,122.80618700900231 53.37647058838047,123.05194654449588 51.964705882477574,123.21578615077306 50.87058823555708,123.54346516093938 50.58823529421352,123.54346516093938 50.0588235296309,123.78922424186021 49.24705882370472,124.0349831712083 48.96470588259399,123.99402336016647 47.90588235296309,124.32170173051418 47.44705882377457,124.56746033151285 47.27058823546395,124.77225904967054 47.16470588243101,125.34569490115973 47.20000000006985,125.71433179843007 47.69411764724646,126.53352368265041 47.97647058835719,127.10695699960343 48.18823529430665,127.39367334864801 48.294117647223175,127.7623083514627 48.85882352956105,128.78629268115037 49.31764705886599,129.48260052251862 49.31764705886599,129.48260052251862" stroke="#4dd2ff" stroke-linecap="round" stroke-linejoin="round" stroke-width="0.5"><title>2024-06-25 4.9km</title><desc>9223370317535602707</desc></polyline><polyline fill="none" points="74.81747572822496,107.10108616942307 75.06213592225686,106.85770094007603 74.81747572822496,107.10108616942307 73.66407766984776,106.12754435132956 73.6291262137238,105.03230693473597 73.41941747581586,104.9106137008057 73.34951456298586,105.19456452166196 73.20970873790793,105.35682204170735 73.13980582531076,105.72190121826134 73.24466019414831,106.77657249692129 73.38446601945907,106.93882936649607 73.6291262137238,107.50672788463999 73.594174757367,107.79067683717585 73.66407766984776,108.11518967567827 74.118446601904,108.9264706040558 74.08349514566362,109.45380231289892 73.94368932046928,109.6971859409532 73.20970873790793,110.06226110152784 73.0349514563568,110.26508048904361 73.0,110.58959129248979 73.5592233010102,111.76594071756699 73.76893203880172,112.41495958881569 74.08349514566362,112.73946862420416 74.53786407771986,113.26679523740313 74.92233009706251,114.11862904689042 75.69126213598065,115.17327788242255 75.97087378636934,115.61947461802629 76.0757281553233,115.9439810180047 76.25048543687444,116.18736064285622 76.32038834958803,116.47130334877875 76.94951456307899,117.6476352395548 77.43883495137561,118.62114863505121 77.99805825250223,119.87859988311538 78.45242718444206,120.73041941967676 78.52233009715565,121.1766098717635 78.69708737870678,121.50111170171294 78.97669902921189,121.78505058411974 79.04660194169264,122.10955191383255 79.04660194169264,122.43405297672143 79.2213592233602,122.59630340800504 79.4660194175085,123.12361684915959 79.99029126216192,124.09711673553102 80.47961165057495,125.35455053427722 81.03883495135233,126.57141813758062 81.42330097092781,127.62603369198041 81.84271844662726,128.7617703677679 82.22718446596991,129.81638006863068 82.61165048542898,131.07379564386792 83.03106796112843,132.20952239749022 83.41553398047108,133.58861477536266 83.55533980589826,133.83198351832107 83.76504854368977,133.99422926356783 84.04466019419488,133.99422926356783 84.70873786415905,133.58861477536266 85.89708737866022,133.0613153175509 87.01553398056421,132.41233040223597 88.20388349506538,131.88502937273006 89.21747572813183,131.47941271681339 89.46213592228014,131.43885102833156 90.405825242633,130.9521104407322 91.62912621360738,130.38424566327012 92.712621359271,129.8975037750497 93.06213592237327,129.69469447765732 93.37669902900234,129.57300884931465 94.39029126206879,129.04570402597892 95.43883495137561,128.55896048684372 95.96310679614544,128.31558849205612 96.27766990300734,128.31558849205612 96.76699029130396,127.99109226567089 97.78058252425399,127.54490951861953 99.03883495146874,127.01760198536795 100.19223300972953,126.6119803263864 101.24077669903636,126.2874826991756 102.25436893198639,125.88186028972268 102.84854368923698,125.80073575783172 103.1281553398585,125.39511284825858 103.65242718439549,125.27342589391628 104.5262135922676,125.19230123708257 105.81941747572273,124.7866777019517 107.07766990293749,124.50274097934016 107.60194174770731,124.38105374999577 108.37087378650904,124.21880405244883 108.65048543689772,124.21880405244883 109.76893203891814,123.85374198917998 111.16699029132724,123.61036709262407 112.3902912621852,123.36699204595061 113.64854368939996,123.2047419314622 114.13786407769658,123.08305430185283 114.59223300975282,123.08305430185283 115.15145631076302,122.88024150228011 116.26990291278344,122.79911635344615 117.07378640782554,122.63686600534129 118.3320388350403,122.55574080644874 118.89126213581767,122.55574080644874 120.07961165055167,122.39349035837222 120.8485436894698,122.39349035837222 122.14174757292494,122.31236510936287 123.46990291250404,122.23123984364793 124.79805825243238,122.23123984364793 125.6019417475909,122.27180247861543 125.98640776693355,122.19067720457679 126.79029126209207,122.27180247861543 127.0,122.43405297672143 126.89514563104603,122.67742859866121 127.0,122.96136663472862 126.9650485436432,123.16417939233361 126.47572815534659,123.2047419314622 126.40582524274942,123.44811707807821 126.54563106782734,123.69149207469309 126.54563106782734,123.89430445732432 126.30097087379545,124.13767917864607 126.12621359224431,124.05655428816681 125.11262135929428,124.01599183675717 124.02912621363066,124.17824161768658 122.91067961172666,124.34049133191002 121.65242718451191,124.54330338083673 120.28932038834319,124.66499056018074 119.97475728148129,124.70555294500082 119.69514563097619,124.66499056018074 118.43689320399426,124.7866777019517 117.21359223301988,125.03005187303643 116.93398058251478,125.19230123708257 115.67572815541644,125.47623746353202 114.34757281560451,125.80073575783172 113.12427184463013,126.04410930353333 111.90097087377217,126.16579602006823 110.64271844655741,126.40916934062261 109.38446601945907,126.81479120801669 108.30097087379545,127.05816412833519 107.77669902914204,127.17985053220764 107.0427184465807,127.58547160745366 106.90291262138635,127.78828198855626 106.86796116502956,128.07221634718007 106.86796116502956,128.35615050166962 107.49708737875335,129.57300884931465 107.60194174770731,129.85694192384835 108.1961165049579,130.91154869805905 108.89514563104603,132.0067142881744 109.3145631068619,132.53401515513542 110.18834951450117,133.22356137962197 111.37669902911875,133.83198351832107 112.46019417478237,134.31872055391432 113.54368932044599,134.7648956424964 114.6621359224664,135.0893862992234 115.95533980592154,135.00826365995454 117.03883495146874,134.68377293663798 118.22718446608633,134.4404047189746 119.45048543694429,134.19703635119367 120.60388349508867,134.07535211119102 121.86213592230342,133.91310639918083 122.7708737864159,133.83198351832107 123.08543689316139,133.71029916557018 123.574757281458,133.42636886346736 123.95922330103349,132.9801922615734 124.44854368944652,131.96615265400033 124.76310679607559,131.47941271681339 125.18252427177504,131.27660423249472 125.39223300968297,131.07379564386792 125.74174757278524,129.8975037750497 125.84660194173921,128.7212083999475 125.88155339797959,128.11277838182286 126.26601941755507,126.89591553140781 126.54563106782734,126.04410930353333 126.54563106782734,125.39511284825858 126.65048543689772,125.15173890226288 126.68543689325452,124.54330338083673 126.4407766989898,124.299928909546 126.16116504848469,124.09711673553102 125.84660194173921,124.05655428816681 124.65825242723804,124.25936648302013 124.09902912622783,124.299928909546 123.50485436897725,124.42161616394878 123.19029126211535,124.42161616394878 121.96699029125739,124.66499056018074 120.91844660195056,124.66499056018074 119.76504854368977,124.7866777019517 118.54174757283181,124.82724007425713 117.28349514561705,125.11117656339775 116.0252427184023,125.43567515801988 114.76699029130396,125.80073575783172 113.54368932044599,126.04410930353333 112.21553398051765,126.24692047701683 110.85242718446534,126.49029374754173 109.80388349515852,126.85535337182228 109.20970873790793,126.89591553140781 108.51067961170338,127.05816412833519 107.35728155344259,127.50434742565267 107.11262135917787,127.58547160745366 106.93786407762673,127.82884405233199 106.90291262138635,128.11277838182286 107.28737864084542,129.1673898169247 107.60194174770731,129.65413260576315 107.70679611654487,130.10031296807574 107.70679611654487,130.10031296807574" stroke="#4dd2ff" stroke-linecap="round" stroke-linejoin="round" stroke-width="0.5"><title>2024-06-18 4.3km</title><desc>9223370318140349607</desc></polyline><polyline fill="none" points="133.0,107.14274620983633 133.33914863923565,107.66754761416814 133.75366364279762,108.80461510259192 133.82903000689112,109.06701486057136 134.39427773910575,110.20407860865816 134.8841591065284,111.4286054004624 134.99720865301788,111.69100354018155 135.37404047464952,112.17206637587515 135.37404047464952,112.4781969882024 135.41172365657985,112.74059448056505 135.637822749326,112.95925893392996 135.97697138856165,113.83391562348697 136.35380320996046,114.57737239592825 136.9944173062686,115.7581540113315 137.55966503848322,116.93893234973075 137.97418004181236,118.20717210022849 138.46406140970066,119.3004791958083 138.91625959519297,120.52497980752378 139.21772505226545,121.66201293448103 139.59455687366426,122.79904302296927 139.70760641992092,123.19262965326197 139.85833914857358,123.49875233627972 140.19748778780922,124.50458245835034 140.2351709699724,124.81070419744356 140.5743196089752,125.07309408427682 140.98883461253718,125.11682571633719 141.29030006960966,125.02936244776356 141.47871598042548,124.89816751106991 142.38311235164292,124.41711906384444 142.75994417304173,124.32965565135237 143.96580600133166,123.71741126061534 145.05861828336492,123.10516598899267 145.51081646885723,122.93023860681569 146.18911374732852,122.75531115266494 146.52826238656417,122.53665173376794 147.80949057918042,122.01186866997159 148.45010467548855,121.74947689534747 148.86461967905052,121.39962094408111 150.18353105382994,120.78737233727588 150.37194696441293,120.69990817882353 150.56036287499592,120.56871190710808 151.27634333563037,120.39378348211176 151.4647592464462,120.43751559508382 151.7285415213555,121.049764705298 152.6706210745033,120.69990817882353 153.34891835297458,120.39378348211176 153.7257501743734,120.26258711601258 154.06489881384186,120.04392641599406 154.856245638337,119.73780124733457 155.19539427757263,119.56287248071749 155.6099092811346,119.4316758584464 156.7780879274942,118.95062123096432 158.13468248443678,118.42583374411333 158.39846475911327,118.20717210022849 159.4159106768202,117.85731323627988 159.71737613389269,117.90104561008047 160.32030704827048,117.63865130022168 161.71458478691056,117.28879196877824 162.24214933696203,117.02639728150098 162.50593161187135,116.98266481782775 162.84508025133982,117.11386219525593 163.3349616189953,118.20717210022849 163.86252616881393,119.25674696595524 164.57850662944838,120.48124770351569 165.10607117926702,121.70574491709704 165.63363572931848,122.79904302296927 166.16120027913712,123.97980182169704 166.6510816467926,125.16055734385736 166.87718073977157,125.90399432499544 167.0655966505874,126.16638353766757 167.5177948360797,127.43459578423062 168.0830425680615,128.92146050106385 168.42219120729715,130.1459334254032 168.8367062106263,131.32667183681042 169.2135380320251,132.68233041692292 169.43963712500408,132.85725379019277 169.74110258207656,132.85725379019277 170.87159804604016,132.59486870348337 171.2107466852758,132.20129076993908 172.41660851356573,131.67651962582022 173.58478715992533,131.5015957673022 174.86601535230875,131.28294084302615 175.73272854159586,131.02055478550028 176.56175854848698,131.19547884183703 177.57920446619391,130.8018996141618 177.72993719484657,130.62697539594956 177.57920446619391,129.7523532269115 177.7676203767769,129.62115974639892 178.1444521981757,129.53369740370545 178.4459176552482,129.3150414681877 178.74738311232068,129.22757906248444 179.91556175844744,128.3966853118327 180.25471039791591,128.00310349540086 180.4431263084989,127.56578993881703 180.51849267282523,127.08474450765061 180.40544312633574,126.47250408117543 180.02861130493693,126.03518895150046 179.23726448020898,125.6853365242423 179.31263084430248,125.42294701494393 180.59385903715156,125.24802058562636 181.98813677602448,125.07309408427682 182.8171667829156,124.985630806681 183.34473133296706,124.81070419744356 183.60851360787638,124.63577751643606 184.39986043260433,123.41128873502021 184.85205861832947,122.62411551480182 185.4926727146376,122.23052835851558 185.83182135387324,121.39962094408111 185.83182135387324,120.74364026030526 185.98255408229306,119.6066046791384 186.17096999310888,118.9943534922495 186.28401953959838,118.81942441980937 186.6231681786012,117.4199892518518 186.96231681783684,115.93308434225037 187.0,115.32082786911633 186.84926727134734,115.01469930220628 186.66085136076435,114.79603590525221 186.39706908585504,114.6211051067512 184.88974180049263,114.6211051067512 183.6838799722027,114.88350127753802 182.6287508723326,115.14589728647843 181.42288904404268,115.23336258687777 180.1793440335896,115.32082786911633 179.42568039079197,115.32082786911633 178.93579902290367,115.23336258687777 177.54152128403075,115.40829313354334 176.6371249128133,115.62695621579769 175.73272854159586,116.02054948089062 174.41381716681644,116.4141423816036 173.20795533852652,116.63280494700302 172.37892533140257,116.76400243229 171.81367759942077,116.76400243229 170.64549895306118,116.98266481782775 169.7034193999134,117.0701297405758 169.13817166769877,117.33252440101933 168.8367062106263,117.3762568286329 167.55547801801004,117.76984847540734 166.23656664346345,118.07597505999729 165.7843684577383,118.2946367712866 165.5959525469225,118.55703067642753 165.48290300066583,119.08181800143211 165.97278436855413,120.26258711601258 166.68876482895575,121.48708495884784 167.44242847175337,122.71157927784952 168.23377529671416,123.67367948475294 168.94975575711578,124.32965565135237 170.08025122107938,124.85443585642497 171.36147941369563,125.51041020266712 172.52965806005523,125.99145741388202 173.62247034185566,126.4287725884933 174.9036985344719,126.51623556946288 176.147243544925,126.16638353766757 177.42847173754126,125.86026277387282 177.6922540126834,125.86026277387282 178.29518492659554,125.64160495065153 178.67201674799435,125.55414178990759 179.91556175844744,125.7727996580652 179.68946266570129,125.59787337249145 179.84019539435394,125.72906809335109 180.02861130493693,125.81653121829731 180.36775994417258,126.16638353766757 180.51849267282523,126.47250408117543 180.51849267282523,126.47250408117543" stroke="#4dd2ff" stroke-linecap="round" stroke-linejoin="round" stroke-width="0.5"><title>2024-06-17 3.4km</title><desc>9223370318224643007</desc></polyline><polyline fill="none" points="14.193758127395995,165.4531683261448 14.369310793234035,165.37167037805193 13.983094928436913,165.1271764334233 13.386215864680707,165.00492940441472 13.315994798322208,165.249423424626 13.175552665721625,165.4939172938466 13.140442132600583,165.9829045801307 13.245773732080124,166.22739799699048 13.175552665721625,166.4718912631215 13.59687906363979,167.61285784395295 13.702210663119331,167.9388476923341 14.088426527916454,168.59082658501575 14.123537061037496,168.87606701324694 14.053315994795412,169.40579869263456 13.912873861961998,169.56879291302175 13.702210663119331,169.60954145767028 13.105331599479541,170.01702667374047 13.035110533121042,170.3022660756542 13.0,170.669002147828 13.175552665721625,171.15798304986674 13.491547464043833,171.4432216307614 13.667100129881874,171.72846000641584 13.94798439531587,171.89145327176084 14.509752925718203,172.86941145628225 14.825747724156827,173.68437476697727 14.825747724156827,173.92886343348073 15.21196358895395,174.62158050297876 15.80884265259374,175.35504431583104 16.370611183228903,176.57748098802404 16.897269180743024,177.51467988378135 17.388816644903272,178.57411944540218 17.739921976462938,179.14458572887816 18.301690506981686,180.3262632758997 18.407022106461227,180.4892530060024 18.442132639698684,180.77448487229412 18.652795838657767,181.3042006509786 18.933680103975348,181.71167384518776 19.003901170217432,182.28213561337907 19.390117035014555,182.68960780245834 19.88166449929122,183.70828644247376 20.443433029809967,184.88995038552093 20.93498049408663,186.11235765437596 21.250975292525254,186.886546975089 21.672301690327004,188.027454797033 21.84785435628146,188.3534278574225 22.198959687841125,189.41283845243743 22.55006501940079,190.6759781538567 22.97139141743537,191.77612880826928 23.32249674887862,192.998514843639 23.42782834835816,193.5282142884389 23.778933680034243,193.8134367732273 24.30559167743195,193.77269071657793 25.534460337948985,193.16149936357397 26.48244473338127,192.87627640971914 27.184655396500602,192.55030706821708 28.448634590255097,191.9391138308565 29.53706111817155,191.2871733388165 30.625487646088004,190.83896362880478 31.608582574524917,190.30926059072954 32.87256176851224,189.7388103736739 33.6098829646362,189.372091943369 33.855656696949154,189.16835933559923 34.873862158623524,188.7201472299348 35.89206762018148,188.27193461745628 36.98049414821435,187.82372149833827 37.682704811450094,187.45700129651232 38.033810142893344,187.37550787226064 39.01690507133026,186.92729373954353 40.105331599363126,186.47907910007052 41.26397919363808,186.11235765437596 41.860858257394284,185.94937023636885 42.10663198947441,185.78638275130652 42.70351105323061,185.62339519930538 43.01950585166924,185.66414209350478 43.5812743823044,186.27534500544425 43.82704811426811,186.3568386558327 44.17815344594419,186.27534500544425 44.529258777503856,186.31609183279215 45.02080624178052,186.47907910007052 45.266579973860644,186.47907910007052 46.249674902297556,186.9680404998653 47.02210663177539,187.29401443136157 47.23276983073447,187.33476115390658 47.0923276982503,187.9052148303599 47.0923276982503,188.14969472616212 47.30299089709297,188.7201472299348 47.89986996096559,189.6980638980749 48.496749024721794,190.83896362880478 49.058517555124126,191.81687507021707 49.795838751480915,192.67254560271977 50.95448634575587,193.40597601784975 52.04291287367232,193.89492887398228 53.131339401588775,194.3431351292238 54.149544863263145,194.75059492138098 55.02730819222052,194.99507059561438 56.361508452449925,194.75059492138098 57.485045513603836,194.38388112722896 58.749024707241915,194.13940507598454 59.97789336787537,193.89492887398228 60.25877763319295,193.8134367732273 61.38231469434686,193.6911985905317 62.85695708694402,193.5282142884389 63.418725617579184,193.48746820239467 63.945383614860475,193.2022454830294 64.54226267861668,192.42806849619956 64.75292587757576,191.8983675815398 65.0689206761308,191.49090485769557 65.77113133925013,191.0019490364648 66.01690507144667,190.51299261217355 66.08712613780517,190.14627489814302 66.08712613780517,189.82030331194983 66.15734720404726,189.53507795420592 66.22756827040575,188.59790747679654 66.43823146936484,187.5384947041166 66.719115734566,186.6828130899521 66.96488946664613,185.4604075801617 67.0,184.8084564335586 66.92977893340867,184.48248045824585 66.719115734566,184.23799830081407 66.4031209362438,184.03426305452012 65.27958387508988,184.03426305452012 63.98049414821435,184.1565042148577 62.71651495434344,184.4009864225227 61.97919375798665,184.5639744772052 60.890767230070196,184.64546847948804 60.36410923267249,184.64546847948804 60.15344603371341,184.5639744772052 58.819245773600414,184.64546847948804 57.59037711308338,184.93069735527388 56.501950585166924,185.21592602570308 55.37841352401301,185.5011544910958 54.21976592973806,185.82712962877122 52.885565669625066,186.0716108061897 52.07802340690978,186.11235765437596 50.884265279513784,186.43833228960284 49.76072821835987,186.84580020641442 49.51495448627975,186.886546975089 48.25097529240884,187.17177423840621 47.72431729512755,187.29401443136157 47.478543563047424,187.37550787226064 47.19765929761343,187.82372149833827 47.162548764492385,188.0682014443155 47.72431729512755,189.16835933559923 48.356306892004795,190.18702132749604 48.953185955644585,191.36866595904576 49.76072821835987,192.38732229705784 50.18205461639445,192.79478409941657 51.44603381003253,193.40597601784975 52.183355006505735,193.8134367732273 53.34200260066427,194.26164312052424 54.53576072806027,194.75059492138098 55.589076722972095,194.83208682958502 56.853055916610174,194.54686507763108 58.18725617683958,194.18015109494445 59.345903771114536,193.9356749181461 60.64499349787366,193.6911985905317 61.83875162526965,193.5282142884389 63.13784135237802,193.40597601784975 63.910273081972264,193.16149936357397 64.26137841341551,192.87627640971914 64.9284785434138,191.73538254218874 65.80624187248759,190.87970998694072 66.15734720404726,189.57582444645232 66.2626788035268,188.43492108065402 66.57867360196542,187.09028075553942 66.7893368009245,186.51982590637635 66.92977893340867,186.3568386558327 66.92977893340867,185.4604075801617 67.0,184.60472148042754 66.85955786716659,184.31949237006484 66.33289986976888,184.07501011210843 65.10403120936826,183.95276892665424 64.36671001289506,184.03426305452012 63.243172951741144,184.31949237006484 62.22496749018319,184.64546847948804 61.90897269162815,184.5639744772052 61.3472041611094,184.68621547421208 59.942782834754325,184.64546847948804 59.275682704756036,184.60472148042754 58.819245773600414,184.72696246483247 58.53836150828283,184.72696246483247 57.379713914124295,184.97144432071946 56.78283485036809,185.05293823918328 55.940182054415345,185.41966066489113 54.74642392701935,185.66414209350478 53.76332899858244,185.94937023636885 52.42912873858586,186.19385133837932 51.05981794523541,186.47907910007052 49.725617685122415,186.92729373954353 49.30429128743708,186.92729373954353" stroke="#4dd2ff" stroke-linecap="round" stroke-linejoin="round" stroke-width="0.5"><title>2024-06-16 4.3km</title><desc>9223370318313038607</desc></polyline><polyline fill="none" points="77.59829697106034,155.4496011172887 76.44703171937726,155.22691056446638 77.07063373061828,155.05989258986665 75.67952155135572,154.55883835651912 76.06327663525008,153.445382845297 75.39170523826033,154.11345642688684 75.19982769619673,153.0 75.39170523826033,153.50105567532592 75.15185831068084,153.33403716853354 74.95998076861724,153.61240131797967 74.86404199781828,154.11345642688684 75.43967462377623,154.89287456357852 75.58358278032392,155.22691056446638 75.77546032215469,156.45170747168595 76.06327663525008,157.0641048864345 76.06327663525008,157.2867946837796 76.39906233362854,157.5094843893894 76.49500110466033,157.73217400355497 76.44703171937726,158.23322530061705 75.43967462377623,159.5136876203469 75.00795015436597,159.62503202678636 74.76810322678648,159.95906510867644 74.91201138333417,160.90549105533864 75.72749093663879,162.07460317661753 76.73484803247266,162.7983379866928 77.35845004371367,163.9674460219103 77.69423574209213,164.91386496339692 78.46174591034651,165.91595380473882 79.22925607813522,167.58609775308287 79.42113362019882,167.97579726658296 80.33255194453523,169.36757895426126 81.1000621127896,171.0933832799201 81.81960289529525,172.59649869520217 82.3472661357373,173.7655855785706 82.58711306331679,173.98826850851765 82.92289876169525,175.15735238755587 83.21071507455781,175.380034745147 83.30665384582244,175.76972865045536 83.30665384582244,176.15942227531923 83.40259261685424,176.49344515928533 83.69040892994963,176.71612696739612 84.50588848325424,178.441907876404 85.22542926575989,180.27902344620088 85.80106189195067,181.78211336844834 86.37669451767579,183.22952935111243 87.04826591489837,185.01095909648575 87.62389854085632,186.7367135749082 88.15156178129837,188.23978557588998 88.43937809439376,189.29750040941872 89.06298010586761,190.9119032783783 89.2068882624153,191.69126845843857 89.4467351899948,192.19228833913803 89.68658211734146,192.5263013355434 89.92642904468812,192.6376389550278 90.21424535778351,192.3592948631267 91.7492656938266,191.63559955422534 93.0924084878061,190.96757225715555 94.72336759488098,190.13253697694745 96.01854100334458,189.57584607508034 96.35432670172304,189.35316955397138 96.69011240056716,189.29750040941872 98.12919396534562,188.57380100956652 98.80076536233537,188.18411631684285 99.13655106094666,188.12844705220778 100.81547955330461,187.23773803876247 102.11065296176821,186.56970531743718 103.6936426833272,186.06868023547577 105.08475486282259,185.4006460722303 106.66774458438158,184.67694146547 106.95556089724414,184.454262930376 108.58652000455186,183.73055705905426 109.68981587095186,183.39653863856802 109.97763218381442,183.1738595770439 110.36138726794161,183.11818979744567 110.64920358080417,182.8955106214853 112.32813207339495,182.28314241557382 114.15096872253343,181.72644344577566 115.68598905857652,181.11407391791 116.64537676842883,182.28314241557382 117.17304000887088,182.67283135390608 118.13242771895602,184.28725396905793 118.99587665800937,185.90167177200783 119.18775419984013,186.23568864766276 120.0512031391263,187.96143922378542 120.53089699381962,188.9634854219621 120.77074392139912,189.57584607508034 121.4423153186217,191.19024811428972 121.92200917331502,192.13661948643858 121.92200917331502,192.41496369295055 122.3057642574422,192.97165167680942 122.92936626914889,194.5303749879822 123.504998894874,196.14476226008264 124.03266213554889,197.75914472038858 124.51235599047504,199.3178542543901 124.89611107460223,200.98789520643186 125.23189677298069,202.37959206628148 125.18392738746479,202.71359878056683 124.08063152106479,202.88060206058435 123.7448458224535,202.6579310092493 122.20982548641041,202.71359878056683 121.4423153186217,202.93626980908448 120.96262146346271,203.1589407461579 119.47557051293552,203.43727928842418 117.94055017689243,203.38161159149604 116.45349922636524,203.88262065890012 115.30223397444934,204.0496235783794 113.81518302392215,204.0496235783794 113.1915810124483,204.27229405764956 112.08828514581546,204.77330230129883 110.64920358080417,204.88463740365114 108.87433631741442,204.66196717618732 107.67510167998262,204.82896985526895 105.75632625981234,205.38564508093987 104.22130592376925,205.8866522948374 102.44643866061233,205.55264753702795 101.77486726338975,205.8866522948374 100.71954078227282,205.55264753702795 100.33578569837846,205.7753173984238 99.66421430138871,205.71964994171867 98.80076536233537,205.8866522948374 98.51294904923998,206.10932201897958 98.56091843475588,206.554661192582 98.27310212189332,206.72166328819003 97.88934703776613,206.72166328819003 96.16244915989228,206.8886653324007 94.48352066730149,207.0 93.38022480090149,207.0 92.99646971700713,206.8886653324007 92.18099016346969,206.05365459655877 92.08505139220506,204.88463740365114 91.7492656938266,203.7712853506673 91.7972350793425,202.71359878056683 91.46144938073121,201.2662348644226 90.98175552557223,199.70753093704116 90.93378614028916,198.87250913085882 90.45409228513017,197.36946663603885 89.97439843043685,195.58807753724977 89.78252088814043,194.8643865424092 89.92642904468812,194.19636322750011 90.4061228998471,193.6396765023237 91.8452044648584,192.9159829042037 92.22895954875275,192.8046453417628 92.56474524736404,192.58197014813777 92.9005309457425,192.58197014813777 94.05179619789124,191.85827513673576 95.34696960635483,191.30158600857249 95.77869407599792,191.02324122999562 97.31371441180818,190.3552131774486 98.99264290439896,189.46450782584725 100.52766324020922,188.79647785110865 102.11065296176821,187.96143922378542 103.4537957557477,187.2934073949582 105.08475486282259,186.56970531743718 106.71571396966465,185.79033276758855 108.34667307697237,185.1222982610343 109.64184648543596,184.50993257277878 110.69717296632007,184.23158430372132 110.98498927941546,184.00890558562241 111.22483620676212,184.06457527371822 112.95173408510163,183.34086888172897 114.05502995150164,182.8955106214853 115.82989721512422,182.33881228102837 116.45349922636524,182.17180266731884 116.45349922636524,182.17180266731884" stroke="#4dd2ff" stroke-linecap="round" stroke-linejoin="round" stroke-width="0.5"><title>2024-06-15 3.6km</title><desc>9223370318394354007</desc></polyline></svg>