<?xml version="1.0" encoding="utf-8" ?>
<svg baseProfile="full" height="300mm" version="1.1" viewBox="0,0,200,300" width="200mm" xmlns="http://www.w3.org/2000/svg" xmlns:ev="http://www.w3.org/2001/xml-events" xmlns:xlink="http://www.w3.org/1999/xlink"><defs /><rect fill="#222222" height="300" width="200" x="0" y="0" /><text fill="#FFFFFF" style="font-size:12px; font-family:Arial; font-weight:bold;" x="10" y="20">Over 3km Runs</text><text fill="#FFFFFF" style="font-size:4px; font-family:Arial" x="10" y="280">ATHLETE</text><text fill="#FFFFFF" style="font-size:9px; font-family:Arial" x="10" y="290">SunHao</text><text fill="#FFFFFF" style="font-size:4px; font-family:Arial" x="120" y="280">STATISTICS</text><text fill="#FFFFFF" style="font-size:3px; font-family:Arial" x="120" y="285">Number: 12</text><text fill="#FFFFFF" style="font-size:3px; font-family:Arial" x="120" y="290">Weekly: 2.0</text><text fill="#FFFFFF" style="font-size:3px; font-family:Arial" x="141" y="285">Total: 57.0 km</text><text fill="#FFFFFF" style="font-size:3px; font-family:Arial" x="141" y="290">Avg: 4.7 km</text><text fill="#FFFFFF" style="font-size:3px; font-family:Arial" x="167" y="285">Min: 3.2 km</text><text fill="#FFFFFF" style="font-size:3px; font-family:Arial" x="167" y="290">Max: 7.0 km</text><polyline fill="none" points="13.837209302233532,46.984356068249326 13.697674418566748,47.105813525035046 14.046511627850123,49.25155575142708 13.348837209283374,48.36087171829422 13.941860465100035,47.429699893225916 13.732558139483444,47.30824253641185 13.488372092833742,47.348728326236596 13.348837209283374,47.9155289461778 13.139534883666784,47.87504321473534 13.17441860458348,48.15844324789941 13.244186046533287,48.36087171829422 13.209302325500175,47.83455747918924 13.313953488250263,47.55115721275797 13.697674418566748,47.105813525035046 14.081395348766819,47.105813525035046 14.325581395300105,47.30824253641185 14.290697674266994,47.51067144377157 14.081395348766819,47.389214111841284 14.186046511633322,47.55115721275797 14.360465116333216,47.63212873812881 14.430232558050193,47.30824253641185 14.709302325500175,47.47018567062332 14.883720930083655,47.713100247085094 14.918604651116766,47.9155289461778 15.546511627966538,48.84669962245971 16.1395348837832,49.49446922907373 16.244186046533287,49.77786809686222 16.662790697650053,50.38515069839195 16.697674418450333,50.66854892519768 15.825581395300105,51.07340318130446 15.441860465100035,51.07340318130446 15.232558139483444,51.235344767192146 14.499999999883585,51.437771655764664 13.80232558120042,51.964081079437165 13.418604651116766,52.368934003665345 13.139534883666784,52.571360309637384 13.0,52.77378651156323 13.069767441716976,53.05718301949673 13.38372093020007,53.178638603392756 13.418604651116766,53.4215496587276 13.523255813866854,53.70494570050505 14.220930232433602,54.51464755341294 14.395348837017082,54.75755778464372 14.848837209283374,55.89113688268117 15.232558139483444,56.41744035479496 15.337209302349947,56.700834240735276 15.755813953350298,57.34859092859551 16.244186046533287,58.48216256863088 16.872093023266643,59.53476188442437 17.465116279083304,60.708811648451956 17.569767441716976,61.0731712084671 17.779069767333567,61.39704608984175 18.267441860283725,62.40915337766637 18.82558139541652,63.42125806468539 18.96511627896689,63.86658330299542 19.17441860458348,64.02851962836576 19.24418604641687,64.27142399171134 19.1395348837832,64.55481222621165 19.279069767333567,64.71674826869275 19.767441860516556,65.97175034022075 20.32558139541652,67.06481340245227 20.81395348836668,68.23884071985958 21.30232558143325,69.41286453779321 21.755813953350298,70.5464014551253 22.24418604641687,71.96331801425549 22.69767441856675,73.25878012203611 23.116279069683515,74.47327197849518 23.430232558166608,75.5663114473573 23.53488372080028,76.01162295410177 24.09302325581666,76.21403710884624 25.209302325500175,75.68776009007706 26.15116279060021,75.16148236810113 27.12790697661694,74.79713584092679 27.651162790716626,74.51375497583649 28.104651162750088,74.35182296132552 29.255813953466713,73.74457731394796 30.406976744066924,73.17781386512797 31.348837209283374,72.77298233099282 31.97674418601673,72.40863359445939 32.290697674266994,72.32766716278275 32.56976744183339,72.12525101081701 32.84883720916696,72.0442845208745 33.23255813959986,71.76090167509392 34.45348837203346,71.27510203642305 35.74418604641687,70.66785164567409 36.7558139533503,70.18205065885559 37.732558139483444,69.77721604556427 38.70930232561659,69.41286453779321 39.26744186040014,69.291413960309 40.52325581398327,68.72464410349494 40.97674418601673,68.64367691442021 41.918604651116766,68.27932435800903 42.72093023255002,68.03642246648087 43.03488372103311,67.7935204251553 43.767441860516556,67.51013452091138 44.081395348883234,67.59110194296227 44.74418604653329,67.42916708238772 46.034883720916696,67.02432963936008 47.116279069683515,66.70045938546536 48.40697674418334,66.41707269480685 49.593023255700245,66.17416965478333 50.81395348836668,65.93126646487508 52.0,65.64787922077812 53.25581395346671,65.40497570633306 54.72093023266643,65.20255599671509 55.45348837214988,65.08110412082169 56.325581395532936,65.04062015394447 56.74418604641687,64.95965220764629 57.93023255816661,64.83820025686873 59.18604651174974,64.75723226889386 59.500000000116415,64.75723226889386 60.68604651174974,64.6357802557468 61.87209302338306,64.59529624300194 63.09302325581666,64.55481222621165 64.24418604653329,64.47384418002912 65.60465116275009,64.51432820525952 65.91860465123318,64.43336015072418 66.51162790693343,64.55481222621165 66.72093023255002,64.47384418002912 66.8953488371335,63.94755147406249 66.8953488371335,63.70464691094821 67.0,63.3807739270851 66.9651162790833,62.328184890473494 66.82558139541652,61.84237361693522 66.82558139541652,60.708811648451956 66.79069767438341,60.2229983775469 66.82558139541652,59.93960702608456 66.61627906979993,58.64410110801691 66.37209302326664,57.47004518887843 66.05813953501638,56.37695549719501 65.709302325733,55.202892819361296 65.46511627919972,54.312222246284364 65.01162790693343,53.13815341301961 64.45348837214988,51.964081079437165 64.24418604653329,51.51874238217715 64.06976744194981,50.992432363389526 63.616279069683515,50.26369425305165 63.267441860516556,49.453983659885125 62.95348837214988,49.00864212404122 62.46511627919972,48.03698611582513 61.90697674418334,46.984356068249326 61.80232558143325,46.660469333670335 61.523255813866854,46.296096438891254 60.75581395346671,45.72929348796606 59.74418604653329,45.32443373778369 59.01162790693343,45.04103166502318 58.802325581316836,44.83860148812528 58.558139534899965,44.15033810847672 58.03488372080028,43.78596289115376 57.47674418601673,43.90742133441381 57.30232558143325,44.02887974018813 57.54651162796654,43.826449043059256 56.813953488483094,44.393254732800415 55.941860465100035,44.717143332149135 55.66279069765005,45.04103166502318 55.41860465123318,45.20297573154676 54.61627906979993,45.486377687804634 54.16279069765005,45.89123727136757 53.6046511628665,45.931723206915194 53.360465116333216,46.09366690722527 53.22093023266643,46.296096438891254 53.22093023266643,46.296096438891254" stroke="#4dd2ff" stroke-linecap="round" stroke-linejoin="round" stroke-width="0.5"><title>2024-07-03 3.3km</title><desc>9223370316842663807</desc></polyline><polyline fill="none" points="75.06213592237327,42.4974497652438 74.81747572822496,42.2135002289142 74.50291262136307,42.61914236121811 74.118446601904,42.82196327095153 74.04854368942324,42.61914236121811 73.97864077670965,41.80785767963971 73.62912621360738,41.402214713190915 74.118446601904,40.95600696868496 73.13980582519434,39.82020315981936 73.0,40.10415441854275 73.2796116505051,41.199393073737156 73.45436893205624,41.36165039383923 73.80388349515852,42.33519291240373 73.83883495151531,42.82196327095153 73.97864077670965,43.268168905429775 74.01359223306645,43.592681777168764 74.32815533981193,44.120014624582836 74.53786407760344,44.20114269244368 74.712621359271,44.36339877807768 74.32815533981193,44.89073059547809 73.97864077670965,45.13411427353276 73.2796116505051,45.90482826347579 73.31456310674548,46.107647484284826 73.20970873779152,46.26990278591984 73.62912621360738,46.9594870734727 74.32815533981193,47.689633829082595 74.53786407760344,48.13583395894966 74.81747572822496,48.33865203312598 74.99223300965969,48.70372430377756 75.23689320392441,48.98766916966997 75.44660194171593,49.63668523868546 75.86601941741537,50.407390434178524 75.97087378625292,50.650770709558856 76.18058252416085,50.89415083476342 76.32038834958803,51.13753080982133 76.53009708749596,51.98935954057379 77.15922330098692,52.88174957191222 77.40388349513523,53.08456520666368 77.85825242707506,54.260893832630245 78.03300970874261,54.54483469968545 78.31262135924771,55.11271582078189 78.45242718432564,55.27496741959476 78.52233009715565,55.55890755701694 78.80194174754433,56.12678721896373 78.8718446601415,56.41072674343013 79.08155339804944,56.775791546009714 79.1514563105302,57.05973060344695 79.43106796126813,57.34366945680813 79.46601941739209,57.95210916851647 79.67572815530002,58.19548479045625 80.16504854359664,59.20954826648813 80.72427184460685,60.42642099809018 81.24854368937667,61.52160324816941 81.77281553391367,62.81959309030208 82.22718446596991,63.99589269704302 82.57669902907219,65.21275066945236 82.99611650488805,66.307919636718 83.3805825242307,67.44364720731392 83.73009708733298,68.57937150934595 83.86990291264374,69.14723243468325 83.83495145617053,69.43116259097587 84.04466019407846,70.0801450383733 84.07961165055167,70.3640745235025 84.28932038834319,70.60744249101845 84.21941747574601,71.21586175324046 84.32427184469998,71.58091286022682 84.74368932028301,72.79774744517636 84.98834951466415,73.85233438402065 85.16310679609887,74.70411408500513 85.47766990296077,74.8257967493264 85.86213592230342,76.12374283486861 85.96699029125739,76.40766797203105 85.9320388349006,76.6510322127724 86.28155339811929,77.94897229570779 86.28155339811929,78.23289611988002 86.38640776707325,78.51681973971426 86.2116504854057,78.71962220029673 86.14174757269211,79.24690811010078 86.17669902916532,79.57139139680658 86.56116504850797,80.05811582645401 87.0854368932778,80.17979684020975 88.30873786390293,80.09867616859265 88.97281553398352,80.13923650651122 90.1611650486011,79.97699512992403 90.47572815534659,79.93643477529986 90.61553398042452,79.65251217668992 90.61553398042452,79.28746853547636 90.82524271833245,79.32802895680652 91.13980582519434,79.24690811010078 92.29320388345513,79.20634768047603 92.60776699020062,79.28746853547636 93.79611650470179,79.00354547001189 94.73980582528748,79.08466636671801 95.26407766982447,79.00354547001189 95.82330097083468,78.80074315535603 96.97669902909547,78.43569872630178 97.50097087374888,78.31401717485278 98.65436893200967,78.43569872630178 99.49320388340857,78.55738024009042 100.3320388350403,78.51681973971426 101.13592233019881,78.19233558597625 101.3805825242307,78.15177504793974 101.62524271849543,77.98953285449534 102.70873786404263,77.94897229570779 103.3728155340068,77.90841173267108 104.63106796110515,77.54336647834862 105.05048543692101,77.3405634133378 106.41359223308973,77.42168465183931 107.74174757266883,76.93495697062463 108.23106796119828,76.81327495659934 109.17475728155114,76.93495697062463 109.41941747581586,77.05663894716417 110.53786407760344,76.73215359303867 110.78252427186817,76.69159290497191 110.29320388357155,75.47477032564348 110.08349514566362,75.02860110657639 110.04854368919041,74.74467497738078 109.66407766984776,73.69009042298421 109.31456310674548,72.5949419416138 108.89514563104603,71.49979042125051 108.89514563104603,71.25642300397158 109.62912621360738,71.25642300397158 109.94368932023644,71.37810673133936 110.50291262147948,72.10820830767625 111.06213592225686,72.87886961750337 111.41165048535913,73.20335813969723 112.32038834947161,73.60896841745125 113.33398058253806,73.48728537786519 114.62718446587678,73.1222360341635 114.9067961164983,73.1222360341635 115.95533980580512,73.60896841745125 116.68932038848288,73.81177339996793 118.01747572806198,73.77121241172426 119.10097087384202,73.3656023008516 119.83495145628694,73.04111391198239 120.56893203873187,72.51381971099181 120.91844660183415,72.10820830767625 121.12815533974208,71.25642300397158 121.02330097078811,70.56688117343583 120.42912621353753,70.0801450383733 119.90485436900053,69.83677674570936 120.14951456314884,69.67453113381634 120.84854368935339,69.67453113381634 122.10679611656815,69.47172402526485 123.2951456309529,69.3094782634289 123.81941747572273,69.0661094954703 124.41359223297331,68.33600229115109 124.79805825231597,67.64645535804448 125.18252427177504,67.11915394911193 125.77669902914204,66.71353700134205 126.16116504848469,65.45612181373872 126.30097087367903,64.1581406435289 126.3708737862762,63.590272538975114 126.54563106794376,62.73846885020612 126.7203883494949,62.251723059715005 126.75533980573528,61.88666332280263 126.93009708740283,61.602727738325484 127.0,60.62923275519279 126.96504854352679,60.34529626605217 126.79029126209207,59.939672355743824 126.51067961158697,59.69629780948162 125.95145631057676,59.61517292732606 124.65825242712162,59.77742267481517 123.39999999990687,59.98023476553499 121.9320388349006,60.14248436302296 120.49902912625112,60.14248436302296 119.90485436900053,60.30473389374674 119.31067961151712,60.34529626605217 118.99611650465522,60.26417151733767 118.01747572806198,60.466983357822755 116.93398058251478,60.91316904005362 116.23495145619381,61.156542835757136 114.9067961164983,61.27822967746761 114.24271844653413,61.359354217740474 113.92815533967223,61.481040996848606 113.40388349513523,61.44047874127864 113.08932038838975,61.56216549532837 111.90097087388858,61.80553889097064 111.27184466016479,61.96778773798724 110.39805825252552,62.13003651818144 109.94368932023644,62.41397172320285 108.79029126220848,62.73846885020612 108.58058252430055,62.73846885020612 108.37087378639262,62.81959309030208 108.16116504848469,62.81959309030208 107.881553398096,62.860155204107286 107.42718446603976,63.14408988377545 107.18252427177504,63.671396604098845 107.21747572824825,63.95533070003148 107.67184466018807,64.92881747818319 108.26601941743866,65.90230185506516 108.86019417468924,66.99746890860843 109.62912621360738,68.05207134693046 110.18834951461758,68.61993303106283 110.88737864082213,69.02554801953374 111.93592233001254,69.51228545536287 112.42524271830916,69.79621534902253 113.61359223304316,70.24239048338495 114.27766990300734,70.48575852593058 115.53592232998926,70.72912641847506 115.92038834944833,70.68856511352351 117.24854368926026,70.28295183429145 118.54174757283181,69.91789952659747 119.66019417485222,69.71509254298871 120.95339805830736,69.55284688121174 122.07184466021135,69.3500397101161 122.38640776695684,69.3094782634289 123.01553398056421,69.3094782634289 123.64466019417159,69.18779389819247 124.168932038825,68.82274057745235 124.693203883362,67.97094818257028 124.83300970878918,67.56533211018541 125.84660194185562,66.38904314304818 126.12621359224431,65.3749981156434 126.05631067953072,65.09106504110969 126.19611650484148,64.40151243805303 126.19611650484148,64.1581406435289 126.30097087367903,63.87420669346466 126.30097087367903,63.87420669346466" stroke="#4dd2ff" stroke-linecap="round" stroke-linejoin="round" stroke-width="0.5"><title>2024-07-02 4.3km</title><desc>9223370316930743707</desc></polyline><polyline fill="none" points="133.2248438585084,46.49653945892351 133.03747397637926,46.58352103785728 133.0,46.80097490694607 133.29979181103408,47.540317225968465 133.52463566954248,48.06220514376764 134.19916724483483,49.19296009052778 134.46148507972248,49.75833643070655 134.6488549618516,50.32371201526257 135.2859125607647,51.45446091800113 135.32338653691113,51.845873295591446 135.473282442661,52.23728531092638 135.81054823030718,52.585206798568834 135.84802220668644,53.06359837681521 136.2227619709447,53.75943970694789 136.33518390008248,54.10735994274728 136.59750173497014,54.41178991436027 137.12213740427978,55.58601775331772 137.64677307428792,56.803732070024125 138.09646079107188,58.10842209190014 138.50867453147657,59.28263967175735 138.99583622487262,60.587322049657814 139.37057598866522,61.80502197286114 139.85773768206127,63.066207484545885 140.26995142246597,64.32738923703437 140.56974323373288,65.50158955849474 140.6821651631035,65.71903370501241 140.90700902137905,65.84950013915659 140.71963913948275,65.71903370501241 141.05690492712893,65.67554488469614 142.0312283136882,65.32763416101807 143.30534351128154,64.67530078312848 144.46703677996993,64.10994437558111 145.40388619014993,63.67505431725294 146.00346981245093,63.41412006766768 146.22831367095932,63.24016381177353 147.3900069394149,62.80527285957942 148.02706453832798,62.54433807355235 149.18875780678354,61.935489613970276 150.35045107547194,61.37012954551028 151.09993060375564,61.065704580396414 151.47467036778107,60.84825804250431 152.59888965985738,60.32638589598355 152.9736294238828,60.108938978170045 154.17279666871764,59.630555365933105 155.2595419846475,59.152171212714165 156.45870922948234,58.586807425221195 156.8334489937406,58.54331787175033 157.8827203330584,58.021442882250994 159.19430950726382,57.586546565959 159.49410131853074,57.412587914266624 159.75641915318556,57.456077583832666 160.8806384454947,56.97769097215496 161.14295628038235,56.89071152996621 160.61832061060704,56.803732070024125 160.4309507284779,56.58628334195237 160.20610686996952,56.49930381952436 160.01873698807321,56.41232427911018 160.20610686996952,56.58628334195237 160.39347675209865,56.58628334195237 160.46842470509,56.84722180230892 160.73074253974482,56.84722180230892 160.99306037463248,56.93420125331613 161.4802220677957,56.93420125331613 161.66759194992483,57.108160101633985 161.81748785544187,57.36909824013128 162.04233171395026,57.586546565959 162.26717557245865,57.67352586489869 162.82928521861322,58.847744651691755 163.4663428175263,59.891491948859766 163.9909784870688,60.93523667103727 164.55308813322335,62.022468018869404 165.1901457319036,63.41412006766768 165.48993754340336,64.24041130588739 165.86467730719596,64.97972315136576 166.351839000592,66.11043288692599 166.87647467036732,67.32811691547977 167.32616238715127,68.6762630022713 167.7383761277888,69.89393964703777 168.1131158915814,71.15510104931309 168.5253296319861,72.59021117628436 168.78764746687375,73.28602039479301 168.86259541963227,73.50346054107649 169.42470506578684,73.32950843300205 169.76197085366584,73.41648449594504 170.24913254659623,73.28602039479301 170.84871616913006,73.15555625356501 171.93546148505993,72.4162586928287 172.53504510759376,72.1988179878681 173.43442054116167,72.11184167466126 173.69673837604932,72.02486534364289 174.89590562111698,71.89440081338398 176.17002081894316,71.50300698154024 176.31991672422737,71.89440081338398 176.13254684233107,71.4160305254045 176.20749479532242,71.6769598403771 175.94517696043476,71.85091262776405 174.6710617626086,72.1988179878681 173.20957668265328,72.54672306205612 171.78556557931006,72.93811592855491 170.58639833447523,73.15555625356501 169.53712699515745,73.37299646667088 169.27480916003697,73.1990443051036 168.90006939624436,71.9813771713234 168.86259541963227,71.6769598403771 168.45038167922758,70.45928832661593 168.07564191543497,69.19812485063449 167.58848022203892,67.89346902316902 167.5135322692804,67.58904875130975 167.66342817479745,67.45858285349095 168.18806384457275,67.45858285349095 168.71269951434806,67.71951460899436 169.27480916003697,68.63277448597364 168.7501734904945,67.84998042622465 168.37543372646905,67.54556012310786 167.4760582926683,67.45858285349095 167.25121443415992,67.24113960092654 166.7640527409967,65.9799665332248 166.27689104760066,64.80576753919013 165.75225537805818,63.58807625185 165.1151977791451,62.239913953322684 164.85287994449027,61.37012954551028 164.2532963217236,60.282896521297516 163.61623872281052,59.021702713449486 163.1665510062594,58.19540128362132 163.12907702988014,57.89097403429332 163.27897293539718,57.76050514608505 163.878556557931,57.84748440934345 165.22761970828287,58.54331787175033 165.414989590412,58.67378651860054 165.90215128380805,58.80425512517104 165.71478140191175,59.32612914923811 165.78972935443744,59.80451310565695 166.38931297697127,60.84825804250431 167.06384455226362,62.15293559295242 167.8133240803145,63.45760912026162 168.48785565583967,64.37087819597218 169.16238723089918,64.84925644891337 170.21165857021697,65.41461186873494 170.7362942402251,65.67554488469614 171.298403885914,65.89298894169042 171.63566967379302,66.06694410677301 172.83483691862784,66.50183170681703 174.0340041636955,66.93671885979711 174.93337959749624,66.93671885979711 175.6079111727886,66.76276405231329 176.46981262997724,66.45834296697285 177.6689798750449,66.19741043375689 178.83067314350046,65.89298894169042 179.69257460092194,65.80601133216987 179.91741845943034,65.89298894169042 181.15405968064442,65.63205605981057 182.54059680760838,65.45810071588494 183.47744621778838,65.28414530039299 184.0770298403222,64.63181185544818 184.6766134626232,63.41412006766768 184.97640527389012,62.935740192071535 185.23872310877778,62.71829461536254 185.61346287303604,62.63131635339232 185.8383067313116,62.28340312669752 185.87578070769086,61.71804352311301 185.98820263706148,61.54408656997839 186.06315058982,60.15242837072583 186.13809854257852,59.76102367747808 186.28799444809556,59.41310809054994 186.40041637746617,58.63029697409365 186.73768216511235,57.282118878589245 186.96252602362074,56.673262846743455 187.0,55.71648731196183 186.85010409425013,55.238098733418155 186.32546842470765,54.97715928067919 184.78903539199382,55.107629027130315 183.40249826502986,55.36856839936809 182.2033310199622,55.49903802515473 180.8542678693775,55.58601775331772 180.4420541289728,55.67299746355275 179.99236641218886,55.62950761074899 179.24288688390516,55.67299746355275 178.86814711987972,55.71648731196183 178.3809854267165,55.71648731196183 177.55655794590712,55.93393648718484 177.10687022889033,56.107895746739814 175.87022900767624,56.368834502151 174.63358778622933,56.76024233340286 174.2588480222039,56.84722180230892 175.34559333790094,56.62977309644339 176.6197085357271,56.19487534984364 177.7814018044155,55.84695683052996 179.3178348368965,55.759977156005334 180.10478834132664,55.67299746355275 180.51700208173133,55.71648731196183 180.92921582213603,55.58601775331772 182.27827897272073,55.54252789146267 183.25260235928,55.412058279063785 183.58986814692616,55.412058279063785 184.45176960434765,55.238098733418155 185.725884801941,55.107629027130315 186.4753643302247,55.281588626501616 186.73768216511235,55.54252789146267 186.8875780706294,56.455814051500056 186.85010409425013,57.412587914266624 186.5877862595953,58.28238045753096 186.40041637746617,58.67378651860054 186.17557251895778,59.93498136362177 186.02567661344074,61.239661730010994 185.91325468407013,62.06595721462509 186.06315058982,61.84851119091036 186.02567661344074,61.45710806665011 186.13809854257852,60.23940714227501 186.21304649556987,59.891491948859766 186.32546842470765,59.58706591973896 186.43789035384543,58.71727605871274 186.62526023597457,58.412849184765946 186.73768216511235,57.84748440934345 186.3629424010869,59.36961862212047 186.10062456619926,60.54383270195103 185.98820263706148,61.84851119091036 185.80083275493234,62.32689229564858 185.5385149200447,62.63131635339232 185.3136710615363,62.76178373969742 184.3018736988306,62.89225108575192 182.87786259525456,63.37063101044623 181.6037473976612,63.19667473665322 181.34142956277356,63.19667473665322 180.96668979874812,62.97922929408378 180.96668979874812,62.71829461536254 182.12838306720369,62.19642477532034 182.653018736979,62.022468018869404 183.51492019416764,61.28315100623877 184.0020818875637,60.587322049657814 184.33934767497703,59.021702713449486 184.52671755710617,57.84748440934345 184.45176960434765,57.456077583832666 184.3018736988306,57.32560856160126 183.66481609991752,57.108160101633985 182.80291464249603,57.32560856160126 182.3157529491,57.586546565959 181.37890353915282,57.8039947799989 180.02984038856812,57.89097403429332 178.75572519074194,57.9344636547612 178.3809854267165,58.064932489272906 177.89382373332046,58.10842209190014 177.4816099931486,58.36935961351264 177.06939625251107,58.32587003769004 175.83275503106415,58.71727605871274 174.48369188047945,58.978213204653 173.6217904232908,59.10868171736365 172.64746703673154,59.065192217647564 172.19777931994759,58.978213204653 170.9236641221214,59.239150189765496 170.54892435809597,59.36961862212047 170.21165857021697,59.41310809054994 169.83691880619153,59.58706591973896 169.42470506578684,59.674044807528844 169.08743927814066,59.93498136362177 168.90006939624436,60.32638589598355 168.97501734900288,60.80476872160216 169.31228313664906,61.02221528167138 169.61207494791597,61.37012954551028 169.9868147119414,61.63106505552423 170.28660652320832,61.978978818660835 171.41082581528462,62.76178373969742 171.86051353206858,62.89225108575192 173.13462872989476,63.501098168606404 174.2213740455918,63.935988405835815 174.70853573898785,64.02296639955603 175.68285912531428,64.06645538969315 177.2192921580281,63.71854334315867 177.74392782780342,63.45760912026162 178.23108952096663,63.37063101044623 178.64330326160416,63.15318565716734 180.06731436494738,62.80527285957942 180.40458015259355,62.76178373969742 180.74184594023973,62.58782721569878 181.15405968064442,62.54433807355235 182.61554476059973,61.89200040468131 182.99028452462517,61.67455429158872 183.40249826502986,61.28315100623877 183.96460791118443,60.36987526604207 184.2643997222185,59.065192217647564 184.45176960434765,58.021442882250994 184.2643997222185,57.586546565959 183.7772380290553,57.36909824013128 182.3157529491,57.63003621765529 180.74184594023973,57.8039947799989 179.69257460092194,57.97795327071799 178.98056904925033,58.021442882250994 178.04371963907033,58.23889087277348 177.63150589866564,58.28238045753096 176.65718251187354,58.499828313913895 176.35739070083946,58.63029697409365 174.8584316445049,58.891234173876 173.35947258840315,59.065192217647564 172.31020124908537,58.978213204653 170.84871616913006,59.19566070343717 170.36155447596684,59.36961862212047 169.87439278280362,59.41310809054994 169.42470506578684,59.58706591973896 169.01249132538214,59.84800252947025 168.825121443253,60.282896521297516 168.90006939624436,60.630811393028125 169.31228313664906,61.109193874464836 170.24913254659623,62.022468018869404 170.88619014550932,62.54433807355235 171.7480916029308,62.97922929408378 172.87231089523993,63.45760912026162 174.0340041636955,63.935988405835815 174.48369188047945,64.15343335678335 174.8584316445049,64.10994437558111 175.57043719640933,64.19692233353271 176.35739070083946,64.02296639955603 177.2192921580281,63.76203236458241 178.41845940309577,63.32714194859727 179.28036086051725,62.97922929408378 180.14226231793873,62.97922929408378 181.6037473976612,63.32714194859727 182.54059680760838,63.37063101044623 183.1401804301422,63.28365288247005 183.92713393457234,62.935740192071535 184.52671755710617,62.935740192071535 184.82650936837308,63.022718391468516 184.56419153348543,63.97947740502423 183.92713393457234,64.89274535412551" stroke="#4dd2ff" stroke-linecap="round" stroke-linejoin="round" stroke-width="0.5"><title>2024-06-29 6.8km</title><desc>9223370317186179507</desc></polyline><polyline fill="none" points="13.385964912245981,102.40869166087941 13.350877192919143,102.69374856469221 13.631578947301023,103.63036266140989 13.771929824608378,103.87469640932977 14.052631578873843,104.93347424225067 14.15789473685436,105.34069573204033 13.982456140220165,105.82936096735648 13.7017543859547,106.15513745587668 13.140350877074525,106.52163568526157 13.0,106.92885554250097 13.350877192919143,107.37679690186633 13.912280701566488,108.31339992556605 14.403508771792985,109.3314441786788 15.035087719210424,110.43092903334764 15.631578947301023,111.44896784450975 15.736842105165124,111.73401824285975 15.982456140220165,112.34483983411337 16.578947368310764,113.36287372664083 17.105263157747686,114.50306858032127 17.701754385838285,115.52109692644444 18.192982455948368,116.7020065303659 18.684210526174866,117.80147092821426 18.96491228067316,118.29012079237145 19.105263157747686,118.86021153858746 19.701754385838285,119.91894931936986 20.228070175275207,121.09984581367462 20.719298245501705,122.19929800616228 21.175438596401364,123.33946742740227 21.631578947301023,124.60179403037182 22.087719298200682,125.82339659082936 22.473684210446663,127.04499538437813 22.894736842019483,128.26659041128005 23.210526315611787,129.16242437029723 23.280701754265465,129.73249947145814 23.38596491224598,130.0989758890064 23.807017543702386,130.38401286830776 24.122807017411105,130.34329331232584 25.175438596401364,129.7732190901006 26.333333333255723,129.20314404761302 27.350877192919143,128.7145076439192 28.263157894602045,128.26659041128005 29.45614035089966,127.73723302877625 30.508771929657087,127.24859481706517 31.631578947301023,126.71923607433564 32.19298245594837,126.5563563189935 33.21052631561179,126.02699665128603 34.22807017527521,125.49763627629727 34.824561403365806,125.25331586477114 35.140350877074525,125.04971540658153 36.47368421044666,124.4389134044759 37.63157894730102,123.9502711246605 38.64912280696444,123.4616282422212 38.96491228067316,123.38018770315102 40.15789473685436,122.76938312701532 41.526315789320506,122.48434066909249 42.684210526174866,122.11785720766056 42.96491228067316,122.03641639236594 43.175438596401364,122.11785720766056 43.280701754265465,122.40289992920589 44.017543859547004,123.50234850536799 44.64912280696444,124.56107388017699 44.85964912280906,124.92755508149276 45.38596491224598,125.98627664748346 45.91228070156649,127.08571527936147 46.403508771792985,128.14443107802072 46.92982456134632,129.20314404761302 47.35087719291914,130.30257375224028 47.84210526314564,131.44271985304658 48.33333333325572,132.9493364537193 48.75438596482854,134.0080365835165 49.140350877074525,135.02601480972953 49.38596491224598,135.75895751302596 49.87719298247248,136.0847093902994 50.26315789471846,137.18411999903037 50.36842105258256,137.4284330533701 50.54385964910034,137.5913083391497 50.7894736842718,137.5913083391497 51.07017543842085,137.46915188105777 51.84210526314564,137.30627654498676 52.96491228067316,136.6547745311691 54.15789473685436,136.247585228557 55.315789473592304,136.0847093902994 56.47368421056308,135.7996765122807 56.824561403365806,135.71823850949295 57.03508771921042,136.00327144603943 58.26315789471846,135.5553624536842 58.47368421044666,135.270329194871 58.33333333325572,134.9038575606537 58.36842105258256,134.49666645855177 59.38596491224598,133.96731740012183 60.438596491119824,133.35652914620005 60.85964912280906,132.66430132003734 61.03508771921042,131.97207228455227 61.0,131.6463170257921 60.824561403365806,131.32056149913114 60.47368421044666,131.07624467849382 59.982456140220165,130.9133667142596 59.77192982460838,130.7504886831157 59.91228070179932,130.5468910500058 60.122807017411105,130.42473241998232 61.315789473592304,130.34329331232584 62.438596491119824,130.18041504680878 63.35087719291914,130.0175367143238 63.63157894730102,129.85465831495821 64.08771929820068,129.44746202335227 64.7192982455017,128.42946946353186 64.96491228067316,127.94083210572717 65.59649122797418,127.45219414521125 65.84210526314564,126.96355558198411 66.01754385966342,125.82339659082936 66.1228070174111,125.17187569395173 66.08771929820068,124.84611484385096 66.29824561381247,123.7873902307474 66.7192982455017,122.6472220987198 66.75438596482854,122.19929800616228 67.0,121.30344830173999 66.92982456134632,120.93696374786668 66.75438596482854,120.65191997156944 66.4035087719094,120.52975829030038 65.45614035089966,120.52975829030038 64.2280701752752,120.69264052360086 63.56140350876376,120.8148021545785 63.21052631561179,120.77408161506173 61.982456140220165,120.93696374786668 61.7017543859547,120.97768427064875 60.50877192965709,120.97768427064875 59.31578947370872,121.01840478912345 58.438596491119824,121.18128682146198 57.140350877074525,121.58849160920363 56.89473684201948,121.79209384624846 55.7017543859547,122.03641639236594 55.07017543865368,122.11785720766056 54.85964912280906,122.19929800616228 53.736842105165124,122.2807387879293 52.36842105258256,122.4436203011719 51.1052631578641,122.76938312701532 50.85964912280906,122.81010346135008 50.85964912280906,122.81010346135008" stroke="#4dd2ff" stroke-linecap="round" stroke-linejoin="round" stroke-width="0.5"><title>2024-06-26 3.2km</title><desc>9223370317445915207</desc></polyline><polyline fill="none" points="74.62352941185236,103.71840002932004 73.81176470592618,103.71840002932004 73.24705882370472,102.48954121296993 73.49411764717661,101.6702998963301 73.52941176481545,102.32569308448001 73.31764705886599,102.4076171569468 73.17647058831062,102.57146525196731 73.03529411775526,103.14493305332144 73.45882352942135,103.8822475852212 73.45882352942135,104.53763713478111 73.5647058825707,104.98821682480047 73.9882352942368,105.43879600524087 74.09411764703691,105.68456625245744 73.77647058828734,106.05322133924346 73.5647058825707,106.58572252903832 73.28235294111073,106.66764572574175 73.0705882353941,106.9543767819996 73.0,107.32303069368936 73.03529411775526,108.18322182830889 73.49411764717661,108.63379739571246 74.05882352951448,109.49398570047924 74.58823529421352,110.6409005515452 74.72941176476888,111.00955105270259 75.3294117647456,111.62396779641858 75.92941176483873,112.93472035016748 76.07058823551051,113.30336872892804 76.28235294134356,113.63105589049519 76.67058823548723,114.04066446353681 76.9176470588427,114.61411575830425 77.12941176479217,114.85988034631009 77.37647058826406,115.5971732006874 77.62352941185236,115.88389783131424 78.18823529419024,117.1536758580769 78.1529411765514,117.39943887968548 78.40000000025611,117.68616221341654 78.43529411766212,117.93192490658839 78.96470588247757,118.79209313943284 79.03529411763884,119.36553759654635 79.14117647067178,119.61129925400019 79.38823529426008,119.85706075985217 79.45882352953777,120.10282211427693 79.95294117659796,121.12682612612844 80.37647058838047,122.19178750703577 80.80000000016298,123.2977059285331 81.22352941182908,124.48554081458133 81.71764705888927,125.67337216006126 82.03529411775526,126.57448323260178 82.10588235314935,126.90215948113473 82.2470588235883,127.188875977532 82.28235294134356,127.47559226764133 82.74117647076491,128.66341470056796 83.05882352951448,129.76931516235345 83.30588235310279,130.58849871103303 83.44705882354174,130.91617165895877 83.97647058835719,131.03904894503648 85.24705882370472,130.46562128610094 86.30588235310279,130.01507040380966 87.32941176486202,129.44164127134718 87.57647058845032,129.2778042249265 88.14117647067178,129.03204852872295 88.38823529414367,128.86821131390752 88.70588235300966,128.82725199960987 89.20000000006985,128.58149602575577 89.30588235298637,128.41765862566535 90.36470588250086,128.0080648305593 91.63529411773197,127.51655172073515 92.72941176476888,126.98407850106014 93.89411764719989,126.41064500730135 95.05882352951448,125.87817030990846 96.22352941182908,125.34569490115973 97.49411764729302,124.89513823023299 98.76470588240772,124.32170173051418 99.04705882351846,124.15786257904256 99.4000000001397,124.07594297800097 99.61176470608916,123.95306354487548 99.89411764719989,123.91210372545174 100.60000000020955,123.62538487149868 100.91764705907553,123.5844250182563 102.22352941194549,123.05194654449588 102.78823529416695,122.88810687101795 103.00000000011642,122.76522707159165 103.3176470589824,122.88810687101795 103.70588235312607,123.5844250182563 104.20000000006985,124.11690278057358 104.7294117648853,125.30473522478133 105.29411764722317,126.28776629420463 105.61176470597275,126.77928091958165 106.10588235303294,128.04902422896703 106.63529411784839,129.11396711098496 107.09411764715333,130.219866322499 107.65882352960762,131.57151674674242 108.08235294127371,132.71836805692874 108.54117647069506,133.98809244349832 109.00000000023283,135.1758954655961 109.38823529426008,136.4456120224204 109.5647058825707,136.8551971456618 110.12941176479217,137.05998954936513 110.4117647059029,138.04299162243842 110.55294117669109,138.2477834157762 110.8000000002794,138.3297001036699 112.00000000011642,138.0839499894937 112.45882352953777,137.674366129213 113.34117647062521,137.22382339663454 114.43529411766212,137.10094801755622 115.21176470594946,136.93711411976255 116.34117647074163,136.60944612225285 116.58823529432993,136.56848760365392 116.83529411780182,136.56848760365392 117.01176470611244,136.77328015468083 117.32941176486202,136.69136314690695 117.5764705883339,136.69136314690695 118.00000000023283,136.4456120224204 118.28235294134356,136.36369494727114 118.38823529426008,136.15890218579443 118.28235294134356,135.54452326981118 118.28235294134356,135.29877143821795 119.34117647074163,134.93014340667287 120.25882352958433,134.3567213465285 120.82352941192221,133.7423396522354 121.00000000011642,132.75932697133976 120.92941176495515,132.43165553876315 120.78823529416695,132.14494281439693 120.61176470608916,131.85822988368454 120.36470588238444,131.73535285016987 120.01176470611244,131.61247577887843 119.83529411791824,131.40768057582318 121.03529411787167,131.0800080319168 122.27058823546395,130.95713075847016 123.29411764710676,130.7932943350752 123.78823529428337,130.670416973182 124.35294117673766,130.01507040380966 124.95294117671438,128.86821131390752 125.48235294141341,128.45861798201804 125.7294117648853,128.1719023991027 125.97647058835719,127.39367334864801 126.11764705902897,126.12392795097549 126.22352941182908,125.9191299273516 126.32941176486202,125.0589770784718 126.68235294136684,123.74826440552715 126.89411764719989,122.88810687101795 127.0,122.6013872801268 126.96470588259399,121.74122727004578 126.85882352956105,121.45450685409014 126.29411764722317,121.12682612612844 125.12941176490858,121.24970643068082 123.78823529428337,121.41354677785421 122.87058823544066,121.57738705765223 121.74117647088133,121.61834711709525 120.54117647069506,121.65930717234733 119.65882352960762,121.70026722326293 119.41176470601931,121.7821873126959 118.84705882368144,121.7821873126959 117.61176470608916,122.02794747968437 116.41176470601931,122.39658744630287 115.60000000020955,122.6833071843721 114.43529411766212,122.88810687101795 113.30588235310279,123.09290645242436 112.07058823551051,123.25674604176311 110.8000000002794,123.62538487149868 109.70588235300966,123.95306354487548 108.40000000002328,124.28074194892542 107.65882352960762,124.52650057512801 107.2352941178251,124.89513823023299 107.09411764715333,125.42761424113996 107.2352941178251,125.9191299273516 107.76470588264056,126.94311899319291 108.36470588261727,127.96710542787332 109.07058823551051,129.19588567639585 109.74117647076491,129.97411120735342 110.55294117669109,130.46562128610094 111.4000000001397,131.03904894503648 112.52941176481545,131.61247577887843 113.37647058838047,131.77631186548388 113.87058823544066,132.1039838368015 115.1411764707882,132.34973763857852 116.44705882354174,132.1039838368015 117.75294117652811,131.73535285016987 118.95294117648154,131.4486396248103 119.83529411791824,131.32576246510143 120.61176470608916,131.1619261931628 120.89411764719989,131.1619261931628 122.20000000006985,130.9980898538488 123.04705882375129,130.91617165895877 123.82352941192221,130.62945784418844 124.17647058842704,130.2608254935767 124.77647058840375,129.15492639577133 125.62352941185236,128.2128617806884 125.83529411780182,128.0080648305593 126.01176470599603,127.35271388289402 126.01176470599603,127.02503800479462 126.18823529430665,125.67337216006126 126.22352941182908,125.18185617064591 126.61176470597275,123.87114390177885 126.92941176483873,122.56042732181959 127.0,121.9869874624419 126.92941176483873,121.65930717234733 126.68235294136684,121.29066652385518 126.40000000002328,121.16778623184655 125.02352941187564,121.29066652385518 123.68235294136684,121.45450685409014 122.83529411780182,121.65930717234733 122.58823529421352,121.61834711709525 122.30588235310279,121.74122727004578 121.17647058831062,121.70026722326293 119.94117647071835,121.82314735100954 119.69411764724646,121.7821873126959 119.20000000018626,121.7821873126959 118.91764705907553,121.90506741515128 118.63529411773197,121.86410738521954 117.82352941203862,122.02794747968437 117.36470588250086,122.06890749288141 116.37647058838047,122.39658744630287 116.12941176490858,122.39658744630287 115.91764705907553,122.56042732181959 114.75294117652811,122.80618700900231 113.37647058838047,123.05194654449588 111.96470588247757,123.21578615077306 110.87058823555708,123.54346516093938 110.58823529421352,123.54346516093938 110.0588235296309,123.78922424186021 109.24705882370472,124.0349831712083 108.96470588259399,123.99402336016647 107.90588235296309,124.32170173051418 107.44705882377457,124.56746033151285 107.27058823546395,124.77225904967054 107.16470588243101,125.34569490115973 107.20000000006985,125.71433179843007 107.69411764724646,126.53352368265041 107.97647058835719,127.10695699960343 108.18823529430665,127.39367334864801 108.29411764722317,127.7623083514627 108.85882352956105,128.78629268115037 109.31764705886599,129.48260052251862 109.31764705886599,129.48260052251862" stroke="#4dd2ff" stroke-linecap="round" stroke-linejoin="round" stroke-width="0.5"><title>2024-06-25 4.9km</title><desc>9223370317535602707</desc></polyline><polyline fill="none" points="134.81747572822496,107.10108616942307 135.06213592225686,106.85770094007603 134.81747572822496,107.10108616942307 133.66407766984776,106.12754435132956 133.6291262137238,105.03230693473597 133.41941747581586,104.9106137008057 133.34951456298586,105.19456452166196 133.20970873790793,105.35682204170735 133.13980582531076,105.72190121826134 133.2446601941483,106.77657249692129 133.38446601945907,106.93882936649607 133.6291262137238,107.50672788463999 133.594174757367,107.79067683717585 133.66407766984776,108.11518967567827 134.118446601904,108.9264706040558 134.08349514566362,109.45380231289892 133.94368932046928,109.6971859409532 133.20970873790793,110.06226110152784 133.0349514563568,110.26508048904361 133.0,110.58959129248979 133.5592233010102,111.76594071756699 133.76893203880172,112.41495958881569 134.08349514566362,112.73946862420416 134.53786407771986,113.26679523740313 134.9223300970625,114.11862904689042 135.69126213598065,115.17327788242255 135.97087378636934,115.61947461802629 136.0757281553233,115.9439810180047 136.25048543687444,116.18736064285622 136.32038834958803,116.47130334877875 136.949514563079,117.6476352395548 137.4388349513756,118.62114863505121 137.99805825250223,119.87859988311538 138.45242718444206,120.73041941967676 138.52233009715565,121.1766098717635 138.69708737870678,121.50111170171294 138.9766990292119,121.78505058411974 139.04660194169264,122.10955191383255 139.04660194169264,122.43405297672143 139.2213592233602,122.59630340800504 139.4660194175085,123.12361684915959 139.99029126216192,124.09711673553102 140.47961165057495,125.35455053427722 141.03883495135233,126.57141813758062 141.4233009709278,127.62603369198041 141.84271844662726,128.7617703677679 142.2271844659699,129.81638006863068 142.61165048542898,131.07379564386792 143.03106796112843,132.20952239749022 143.41553398047108,133.58861477536266 143.55533980589826,133.83198351832107 143.76504854368977,133.99422926356783 144.04466019419488,133.99422926356783 144.70873786415905,133.58861477536266 145.89708737866022,133.0613153175509 147.01553398056421,132.41233040223597 148.20388349506538,131.88502937273006 149.21747572813183,131.47941271681339 149.46213592228014,131.43885102833156 150.405825242633,130.9521104407322 151.62912621360738,130.38424566327012 152.712621359271,129.8975037750497 153.06213592237327,129.69469447765732 153.37669902900234,129.57300884931465 154.39029126206879,129.04570402597892 155.4388349513756,128.55896048684372 155.96310679614544,128.31558849205612 156.27766990300734,128.31558849205612 156.76699029130396,127.99109226567089 157.780582524254,127.54490951861953 159.03883495146874,127.01760198536795 160.19223300972953,126.6119803263864 161.24077669903636,126.2874826991756 162.2543689319864,125.88186028972268 162.84854368923698,125.80073575783172 163.1281553398585,125.39511284825858 163.6524271843955,125.27342589391628 164.5262135922676,125.19230123708257 165.81941747572273,124.7866777019517 167.0776699029375,124.50274097934016 167.60194174770731,124.38105374999577 168.37087378650904,124.21880405244883 168.65048543689772,124.21880405244883 169.76893203891814,123.85374198917998 171.16699029132724,123.61036709262407 172.3902912621852,123.36699204595061 173.64854368939996,123.2047419314622 174.13786407769658,123.08305430185283 174.59223300975282,123.08305430185283 175.15145631076302,122.88024150228011 176.26990291278344,122.79911635344615 177.07378640782554,122.63686600534129 178.3320388350403,122.55574080644874 178.89126213581767,122.55574080644874 180.07961165055167,122.39349035837222 180.8485436894698,122.39349035837222 182.14174757292494,122.31236510936287 183.46990291250404,122.23123984364793 184.79805825243238,122.23123984364793 185.6019417475909,122.27180247861543 185.98640776693355,122.19067720457679 186.79029126209207,122.27180247861543 187.0,122.43405297672143 186.89514563104603,122.67742859866121 187.0,122.96136663472862 186.9650485436432,123.16417939233361 186.4757281553466,123.2047419314622 186.40582524274942,123.44811707807821 186.54563106782734,123.69149207469309 186.54563106782734,123.89430445732432 186.30097087379545,124.13767917864607 186.1262135922443,124.05655428816681 185.11262135929428,124.01599183675717 184.02912621363066,124.17824161768658 182.91067961172666,124.34049133191002 181.6524271845119,124.54330338083673 180.28932038834319,124.66499056018074 179.9747572814813,124.70555294500082 179.69514563097619,124.66499056018074 178.43689320399426,124.7866777019517 177.21359223301988,125.03005187303643 176.93398058251478,125.19230123708257 175.67572815541644,125.47623746353202 174.3475728156045,125.80073575783172 173.12427184463013,126.04410930353333 171.90097087377217,126.16579602006823 170.6427184465574,126.40916934062261 169.38446601945907,126.81479120801669 168.30097087379545,127.05816412833519 167.77669902914204,127.17985053220764 167.0427184465807,127.58547160745366 166.90291262138635,127.78828198855626 166.86796116502956,128.07221634718007 166.86796116502956,128.35615050166962 167.49708737875335,129.57300884931465 167.60194174770731,129.85694192384835 168.1961165049579,130.91154869805905 168.89514563104603,132.0067142881744 169.3145631068619,132.53401515513542 170.18834951450117,133.22356137962197 171.37669902911875,133.83198351832107 172.46019417478237,134.31872055391432 173.543689320446,134.7648956424964 174.6621359224664,135.0893862992234 175.95533980592154,135.00826365995454 177.03883495146874,134.68377293663798 178.22718446608633,134.4404047189746 179.4504854369443,134.19703635119367 180.60388349508867,134.07535211119102 181.86213592230342,133.91310639918083 182.7708737864159,133.83198351832107 183.0854368931614,133.71029916557018 183.574757281458,133.42636886346736 183.9592233010335,132.9801922615734 184.44854368944652,131.96615265400033 184.7631067960756,131.47941271681339 185.18252427177504,131.27660423249472 185.39223300968297,131.07379564386792 185.74174757278524,129.8975037750497 185.8466019417392,128.7212083999475 185.8815533979796,128.11277838182286 186.26601941755507,126.89591553140781 186.54563106782734,126.04410930353333 186.54563106782734,125.39511284825858 186.65048543689772,125.15173890226288 186.68543689325452,124.54330338083673 186.4407766989898,124.299928909546 186.1611650484847,124.09711673553102 185.8466019417392,124.05655428816681 184.65825242723804,124.25936648302013 184.09902912622783,124.299928909546 183.50485436897725,124.42161616394878 183.19029126211535,124.42161616394878 181.9669902912574,124.66499056018074 180.91844660195056,124.66499056018074 179.76504854368977,124.7866777019517 178.5417475728318,124.82724007425713 177.28349514561705,125.11117656339775 176.0252427184023,125.43567515801988 174.76699029130396,125.80073575783172 173.543689320446,126.04410930353333 172.21553398051765,126.24692047701683 170.85242718446534,126.49029374754173 169.80388349515852,126.85535337182228 169.20970873790793,126.89591553140781 168.51067961170338,127.05816412833519 167.3572815534426,127.50434742565267 167.11262135917787,127.58547160745366 166.93786407762673,127.82884405233199 166.90291262138635,128.11277838182286 167.28737864084542,129.1673898169247 167.60194174770731,129.65413260576315 167.70679611654487,130.10031296807574 167.70679611654487,130.10031296807574" stroke="#4dd2ff" stroke-linecap="round" stroke-linejoin="round" stroke-width="0.5"><title>2024-06-18 4.3km</title><desc>9223370318140349607</desc></polyline><polyline fill="none" points="13.0,167.14274620983633 13.339148639235646,167.66754761416814 13.753663642797619,168.80461510259192 13.829030006891116,169.06701486057136 14.394277739105746,170.20407860865816 14.884159106528386,171.4286054004624 14.997208653017879,171.69100354018155 15.374040474649519,172.17206637587515 15.374040474649519,172.4781969882024 15.411723656579852,172.74059448056505 15.637822749326006,172.95925893392996 15.976971388561651,173.83391562348697 16.35380320996046,174.57737239592825 16.994417306268588,175.7581540113315 17.559665038483217,176.93893234973075 17.97418004181236,178.2071721002285 18.464061409700662,179.3004791958083 18.91625959519297,180.52497980752378 19.21772505226545,181.66201293448103 19.59455687366426,182.79904302296927 19.70760641992092,183.19262965326197 19.858339148573577,183.49875233627972 20.197487787809223,184.50458245835034 20.235170969972387,184.81070419744356 20.574319608975202,185.07309408427682 20.988834612537175,185.1168257163372 21.290300069609657,185.02936244776356 21.478715980425477,184.89816751106991 22.38311235164292,184.41711906384444 22.75994417304173,184.32965565135237 23.965806001331657,183.71741126061534 25.058618283364922,183.10516598899267 25.51081646885723,182.9302386068157 26.18911374732852,182.75531115266494 26.528262386564165,182.53665173376794 27.80949057918042,182.0118686699716 28.450104675488546,181.74947689534747 28.86461967905052,181.3996209440811 30.183531053829938,180.78737233727588 30.371946964412928,180.69990817882353 30.560362874995917,180.56871190710808 31.276343335630372,180.39378348211176 31.464759246446192,180.43751559508382 31.72854152135551,181.049764705298 32.67062107450329,180.69990817882353 33.34891835297458,180.39378348211176 33.72575017437339,180.26258711601258 34.064898813841864,180.04392641599406 34.856245638336986,179.73780124733457 35.19539427757263,179.5628724807175 35.609909281134605,179.4316758584464 36.7780879274942,178.95062123096432 38.13468248443678,178.42583374411333 38.39846475911327,178.2071721002285 39.415910676820204,177.85731323627988 39.717376133892685,177.90104561008047 40.32030704827048,177.63865130022168 41.714584786910564,177.28879196877824 42.24214933696203,177.02639728150098 42.50593161187135,176.98266481782775 42.84508025133982,177.11386219525593 43.334961618995294,178.2071721002285 43.86252616881393,179.25674696595524 44.578506629448384,180.4812477035157 45.10607117926702,181.70574491709704 45.633635729318485,182.79904302296927 46.16120027913712,183.97980182169704 46.65108164679259,185.16055734385736 46.877180739771575,185.90399432499544 47.065596650587395,186.16638353766757 47.5177948360797,187.43459578423062 48.0830425680615,188.92146050106385 48.422191207297146,190.1459334254032 48.83670621062629,191.32667183681042 49.2135380320251,192.68233041692292 49.43963712500408,192.85725379019277 49.741102582076564,192.85725379019277 50.87159804604016,192.59486870348337 51.21074668527581,192.20129076993908 52.416608513565734,191.67651962582022 53.58478715992533,191.5015957673022 54.86601535230875,191.28294084302615 55.73272854159586,191.02055478550028 56.56175854848698,191.19547884183703 57.579204466193914,190.8018996141618 57.72993719484657,190.62697539594956 57.579204466193914,189.7523532269115 57.767620376776904,189.62115974639892 58.14445219817571,189.53369740370545 58.445917655248195,189.3150414681877 58.747383112320676,189.22757906248444 59.91556175844744,188.3966853118327 60.254710397915915,188.00310349540086 60.443126308498904,187.56578993881703 60.51849267282523,187.0847445076506 60.40544312633574,186.47250408117543 60.02861130493693,186.03518895150046 59.23726448020898,185.6853365242423 59.312630844302475,185.42294701494393 60.59385903715156,185.24802058562636 61.988136776024476,185.07309408427682 62.81716678291559,184.985630806681 63.34473133296706,184.81070419744356 63.608513607876375,184.63577751643606 64.39986043260433,183.4112887350202 64.85205861832947,182.62411551480182 65.49267271463759,182.23052835851558 65.83182135387324,181.3996209440811 65.83182135387324,180.74364026030526 65.98255408229306,179.6066046791384 66.17096999310888,178.9943534922495 66.28401953959838,178.81942441980937 66.62316817860119,177.4199892518518 66.96231681783684,175.93308434225037 67.0,175.32082786911633 66.84926727134734,175.01469930220628 66.66085136076435,174.7960359052522 66.39706908585504,174.6211051067512 64.88974180049263,174.6211051067512 63.6838799722027,174.88350127753802 62.6287508723326,175.14589728647843 61.42288904404268,175.23336258687777 60.17934403358959,175.32082786911633 59.42568039079197,175.32082786911633 58.935799022903666,175.23336258687777 57.54152128403075,175.40829313354334 56.637124912813306,175.6269562157977 55.73272854159586,176.02054948089062 54.41381716681644,176.4141423816036 53.20795533852652,176.63280494700302 52.37892533140257,176.76400243229 51.81367759942077,176.76400243229 50.64549895306118,176.98266481782775 49.7034193999134,177.0701297405758 49.13817166769877,177.33252440101933 48.83670621062629,177.3762568286329 47.555478018010035,177.76984847540734 46.23656664346345,178.0759750599973 45.78436845773831,178.2946367712866 45.59595254692249,178.55703067642753 45.48290300066583,179.0818180014321 45.97278436855413,180.26258711601258 46.688764828955755,181.48708495884784 47.442428471753374,182.71157927784952 48.23377529671416,183.67367948475294 48.94975575711578,184.32965565135237 50.08025122107938,184.85443585642497 51.36147941369563,185.51041020266712 52.529658060055226,185.99145741388202 53.62247034185566,186.4287725884933 54.903698534471914,186.51623556946288 56.147243544925004,186.16638353766757 57.42847173754126,185.86026277387282 57.69225401268341,185.86026277387282 58.29518492659554,185.64160495065153 58.67201674799435,185.5541417899076 59.91556175844744,185.7727996580652 59.689462665701285,185.59787337249145 59.84019539435394,185.7290680933511 60.02861130493693,185.8165312182973 60.367759944172576,186.16638353766757 60.51849267282523,186.47250408117543 60.51849267282523,186.47250408117543" stroke="#4dd2ff" stroke-linecap="round" stroke-linejoin="round" stroke-width="0.5"><title>2024-06-17 3.4km</title><desc>9223370318224643007</desc></polyline><polyline fill="none" points="74.193758127396,165.4531683261448 74.36931079323404,165.37167037805193 73.98309492843691,165.1271764334233 73.38621586468071,165.00492940441472 73.31599479832221,165.249423424626 73.17555266572163,165.4939172938466 73.14044213260058,165.9829045801307 73.24577373208012,166.22739799699048 73.17555266572163,166.4718912631215 73.59687906363979,167.61285784395295 73.70221066311933,167.9388476923341 74.08842652791645,168.59082658501575 74.1235370610375,168.87606701324694 74.05331599479541,169.40579869263456 73.912873861962,169.56879291302175 73.70221066311933,169.60954145767028 73.10533159947954,170.01702667374047 73.03511053312104,170.3022660756542 73.0,170.669002147828 73.17555266572163,171.15798304986674 73.49154746404383,171.4432216307614 73.66710012988187,171.72846000641584 73.94798439531587,171.89145327176084 74.5097529257182,172.86941145628225 74.82574772415683,173.68437476697727 74.82574772415683,173.92886343348073 75.21196358895395,174.62158050297876 75.80884265259374,175.35504431583104 76.3706111832289,176.57748098802404 76.89726918074302,177.51467988378135 77.38881664490327,178.57411944540218 77.73992197646294,179.14458572887816 78.30169050698169,180.3262632758997 78.40702210646123,180.4892530060024 78.44213263969868,180.77448487229412 78.65279583865777,181.3042006509786 78.93368010397535,181.71167384518776 79.00390117021743,182.28213561337907 79.39011703501455,182.68960780245834 79.88166449929122,183.70828644247376 80.44343302980997,184.88995038552093 80.93498049408663,186.11235765437596 81.25097529252525,186.886546975089 81.672301690327,188.027454797033 81.84785435628146,188.3534278574225 82.19895968784112,189.41283845243743 82.55006501940079,190.6759781538567 82.97139141743537,191.77612880826928 83.32249674887862,192.998514843639 83.42782834835816,193.5282142884389 83.77893368003424,193.8134367732273 84.30559167743195,193.77269071657793 85.53446033794899,193.16149936357397 86.48244473338127,192.87627640971914 87.1846553965006,192.55030706821708 88.4486345902551,191.9391138308565 89.53706111817155,191.2871733388165 90.625487646088,190.83896362880478 91.60858257452492,190.30926059072954 92.87256176851224,189.7388103736739 93.6098829646362,189.372091943369 93.85565669694915,189.16835933559923 94.87386215862352,188.7201472299348 95.89206762018148,188.27193461745628 96.98049414821435,187.82372149833827 97.6827048114501,187.45700129651232 98.03381014289334,187.37550787226064 99.01690507133026,186.92729373954353 100.10533159936313,186.47907910007052 101.26397919363808,186.11235765437596 101.86085825739428,185.94937023636885 102.10663198947441,185.78638275130652 102.70351105323061,185.62339519930538 103.01950585166924,185.66414209350478 103.5812743823044,186.27534500544425 103.82704811426811,186.3568386558327 104.17815344594419,186.27534500544425 104.52925877750386,186.31609183279215 105.02080624178052,186.47907910007052 105.26657997386064,186.47907910007052 106.24967490229756,186.9680404998653 107.02210663177539,187.29401443136157 107.23276983073447,187.33476115390658 107.0923276982503,187.9052148303599 107.0923276982503,188.14969472616212 107.30299089709297,188.7201472299348 107.89986996096559,189.6980638980749 108.4967490247218,190.83896362880478 109.05851755512413,191.81687507021707 109.79583875148091,192.67254560271977 110.95448634575587,193.40597601784975 112.04291287367232,193.89492887398228 113.13133940158878,194.3431351292238 114.14954486326315,194.75059492138098 115.02730819222052,194.99507059561438 116.36150845244993,194.75059492138098 117.48504551360384,194.38388112722896 118.74902470724192,194.13940507598454 119.97789336787537,193.89492887398228 120.25877763319295,193.8134367732273 121.38231469434686,193.6911985905317 122.85695708694402,193.5282142884389 123.41872561757918,193.48746820239467 123.94538361486048,193.2022454830294 124.54226267861668,192.42806849619956 124.75292587757576,191.8983675815398 125.0689206761308,191.49090485769557 125.77113133925013,191.0019490364648 126.01690507144667,190.51299261217355 126.08712613780517,190.14627489814302 126.08712613780517,189.82030331194983 126.15734720404726,189.53507795420592 126.22756827040575,188.59790747679654 126.43823146936484,187.5384947041166 126.719115734566,186.6828130899521 126.96488946664613,185.4604075801617 127.0,184.8084564335586 126.92977893340867,184.48248045824585 126.719115734566,184.23799830081407 126.4031209362438,184.03426305452012 125.27958387508988,184.03426305452012 123.98049414821435,184.1565042148577 122.71651495434344,184.4009864225227 121.97919375798665,184.5639744772052 120.8907672300702,184.64546847948804 120.36410923267249,184.64546847948804 120.15344603371341,184.5639744772052 118.81924577360041,184.64546847948804 117.59037711308338,184.93069735527388 116.50195058516692,185.21592602570308 115.37841352401301,185.5011544910958 114.21976592973806,185.82712962877122 112.88556566962507,186.0716108061897 112.07802340690978,186.11235765437596 110.88426527951378,186.43833228960284 109.76072821835987,186.84580020641442 109.51495448627975,186.886546975089 108.25097529240884,187.17177423840621 107.72431729512755,187.29401443136157 107.47854356304742,187.37550787226064 107.19765929761343,187.82372149833827 107.16254876449239,188.0682014443155 107.72431729512755,189.16835933559923 108.3563068920048,190.18702132749604 108.95318595564459,191.36866595904576 109.76072821835987,192.38732229705784 110.18205461639445,192.79478409941657 111.44603381003253,193.40597601784975 112.18335500650574,193.8134367732273 113.34200260066427,194.26164312052424 114.53576072806027,194.75059492138098 115.5890767229721,194.83208682958502 116.85305591661017,194.54686507763108 118.18725617683958,194.18015109494445 119.34590377111454,193.9356749181461 120.64499349787366,193.6911985905317 121.83875162526965,193.5282142884389 123.13784135237802,193.40597601784975 123.91027308197226,193.16149936357397 124.26137841341551,192.87627640971914 124.9284785434138,191.73538254218874 125.80624187248759,190.87970998694072 126.15734720404726,189.57582444645232 126.2626788035268,188.43492108065402 126.57867360196542,187.09028075553942 126.7893368009245,186.51982590637635 126.92977893340867,186.3568386558327 126.92977893340867,185.4604075801617 127.0,184.60472148042754 126.85955786716659,184.31949237006484 126.33289986976888,184.07501011210843 125.10403120936826,183.95276892665424 124.36671001289506,184.03426305452012 123.24317295174114,184.31949237006484 122.22496749018319,184.64546847948804 121.90897269162815,184.5639744772052 121.3472041611094,184.68621547421208 119.94278283475433,184.64546847948804 119.27568270475604,184.60472148042754 118.81924577360041,184.72696246483247 118.53836150828283,184.72696246483247 117.3797139141243,184.97144432071946 116.78283485036809,185.05293823918328 115.94018205441535,185.41966066489113 114.74642392701935,185.66414209350478 113.76332899858244,185.94937023636885 112.42912873858586,186.19385133837932 111.05981794523541,186.47907910007052 109.72561768512242,186.92729373954353 109.30429128743708,186.92729373954353" stroke="#4dd2ff" stroke-linecap="round" stroke-linejoin="round" stroke-width="0.5"><title>2024-06-16 4.3km</title><desc>9223370318313038607</desc></polyline><polyline fill="none" points="137.59829697106034,155.4496011172887 136.44703171937726,155.22691056446638 137.07063373061828,155.05989258986665 135.67952155135572,154.55883835651912 136.06327663525008,153.445382845297 135.39170523826033,154.11345642688684 135.19982769619673,153.0 135.39170523826033,153.50105567532592 135.15185831068084,153.33403716853354 134.95998076861724,153.61240131797967 134.86404199781828,154.11345642688684 135.43967462377623,154.89287456357852 135.58358278032392,155.22691056446638 135.7754603221547,156.45170747168595 136.06327663525008,157.0641048864345 136.06327663525008,157.2867946837796 136.39906233362854,157.5094843893894 136.49500110466033,157.73217400355497 136.44703171937726,158.23322530061705 135.43967462377623,159.5136876203469 135.00795015436597,159.62503202678636 134.76810322678648,159.95906510867644 134.91201138333417,160.90549105533864 135.7274909366388,162.07460317661753 136.73484803247266,162.7983379866928 137.35845004371367,163.9674460219103 137.69423574209213,164.91386496339692 138.4617459103465,165.91595380473882 139.22925607813522,167.58609775308287 139.42113362019882,167.97579726658296 140.33255194453523,169.36757895426126 141.1000621127896,171.0933832799201 141.81960289529525,172.59649869520217 142.3472661357373,173.7655855785706 142.5871130633168,173.98826850851765 142.92289876169525,175.15735238755587 143.2107150745578,175.380034745147 143.30665384582244,175.76972865045536 143.30665384582244,176.15942227531923 143.40259261685424,176.49344515928533 143.69040892994963,176.71612696739612 144.50588848325424,178.441907876404 145.22542926575989,180.27902344620088 145.80106189195067,181.78211336844834 146.3766945176758,183.22952935111243 147.04826591489837,185.01095909648575 147.62389854085632,186.7367135749082 148.15156178129837,188.23978557588998 148.43937809439376,189.29750040941872 149.0629801058676,190.9119032783783 149.2068882624153,191.69126845843857 149.4467351899948,192.19228833913803 149.68658211734146,192.5263013355434 149.92642904468812,192.6376389550278 150.2142453577835,192.3592948631267 151.7492656938266,191.63559955422534 153.0924084878061,190.96757225715555 154.72336759488098,190.13253697694745 156.01854100334458,189.57584607508034 156.35432670172304,189.35316955397138 156.69011240056716,189.29750040941872 158.12919396534562,188.57380100956652 158.80076536233537,188.18411631684285 159.13655106094666,188.12844705220778 160.8154795533046,187.23773803876247 162.1106529617682,186.56970531743718 163.6936426833272,186.06868023547577 165.0847548628226,185.4006460722303 166.66774458438158,184.67694146547 166.95556089724414,184.454262930376 168.58652000455186,183.73055705905426 169.68981587095186,183.39653863856802 169.97763218381442,183.1738595770439 170.3613872679416,183.11818979744567 170.64920358080417,182.8955106214853 172.32813207339495,182.28314241557382 174.15096872253343,181.72644344577566 175.68598905857652,181.11407391791 176.64537676842883,182.28314241557382 177.17304000887088,182.67283135390608 178.13242771895602,184.28725396905793 178.99587665800937,185.90167177200783 179.18775419984013,186.23568864766276 180.0512031391263,187.96143922378542 180.53089699381962,188.9634854219621 180.77074392139912,189.57584607508034 181.4423153186217,191.19024811428972 181.92200917331502,192.13661948643858 181.92200917331502,192.41496369295055 182.3057642574422,192.97165167680942 182.9293662691489,194.5303749879822 183.504998894874,196.14476226008264 184.0326621355489,197.75914472038858 184.51235599047504,199.3178542543901 184.89611107460223,200.98789520643186 185.2318967729807,202.37959206628148 185.1839273874648,202.71359878056683 184.0806315210648,202.88060206058435 183.7448458224535,202.6579310092493 182.2098254864104,202.71359878056683 181.4423153186217,202.93626980908448 180.9626214634627,203.1589407461579 179.47557051293552,203.43727928842418 177.94055017689243,203.38161159149604 176.45349922636524,203.88262065890012 175.30223397444934,204.0496235783794 173.81518302392215,204.0496235783794 173.1915810124483,204.27229405764956 172.08828514581546,204.77330230129883 170.64920358080417,204.88463740365114 168.87433631741442,204.66196717618732 167.67510167998262,204.82896985526895 165.75632625981234,205.38564508093987 164.22130592376925,205.8866522948374 162.44643866061233,205.55264753702795 161.77486726338975,205.8866522948374 160.71954078227282,205.55264753702795 160.33578569837846,205.7753173984238 159.6642143013887,205.71964994171867 158.80076536233537,205.8866522948374 158.51294904923998,206.10932201897958 158.56091843475588,206.554661192582 158.27310212189332,206.72166328819003 157.88934703776613,206.72166328819003 156.16244915989228,206.8886653324007 154.4835206673015,207.0 153.3802248009015,207.0 152.99646971700713,206.8886653324007 152.1809901634697,206.05365459655877 152.08505139220506,204.88463740365114 151.7492656938266,203.7712853506673 151.7972350793425,202.71359878056683 151.4614493807312,201.2662348644226 150.98175552557223,199.70753093704116 150.93378614028916,198.87250913085882 150.45409228513017,197.36946663603885 149.97439843043685,195.58807753724977 149.78252088814043,194.8643865424092 149.92642904468812,194.19636322750011 150.4061228998471,193.6396765023237 151.8452044648584,192.9159829042037 152.22895954875275,192.8046453417628 152.56474524736404,192.58197014813777 152.9005309457425,192.58197014813777 154.05179619789124,191.85827513673576 155.34696960635483,191.30158600857249 155.77869407599792,191.02324122999562 157.31371441180818,190.3552131774486 158.99264290439896,189.46450782584725 160.52766324020922,188.79647785110865 162.1106529617682,187.96143922378542 163.4537957557477,187.2934073949582 165.0847548628226,186.56970531743718 166.71571396966465,185.79033276758855 168.34667307697237,185.1222982610343 169.64184648543596,184.50993257277878 170.69717296632007,184.23158430372132 170.98498927941546,184.00890558562241 171.22483620676212,184.06457527371822 172.95173408510163,183.34086888172897 174.05502995150164,182.8955106214853 175.82989721512422,182.33881228102837 176.45349922636524,182.17180266731884 176.45349922636524,182.17180266731884" stroke="#4dd2ff" stroke-linecap="round" stroke-linejoin="round" stroke-width="0.5"><title>2024-06-15 3.6km</title><desc>9223370318394354007</desc></polyline></svg>