<?xml version="1.0" encoding="utf-8" ?>
<svg baseProfile="full" height="300mm" version="1.1" viewBox="0,0,200,300" width="200mm" xmlns="http://www.w3.org/2000/svg" xmlns:ev="http://www.w3.org/2001/xml-events" xmlns:xlink="http://www.w3.org/1999/xlink"><defs /><rect fill="#222222" height="300" width="200" x="0" y="0" /><text fill="#FFFFFF" style="font-size:12px; font-family:Arial; font-weight:bold;" x="10" y="20">Over 3km Runs</text><text fill="#FFFFFF" style="font-size:4px; font-family:Arial" x="10" y="280">ATHLETE</text><text fill="#FFFFFF" style="font-size:9px; font-family:Arial" x="10" y="290">SunHao</text><text fill="#FFFFFF" style="font-size:4px; font-family:Arial" x="120" y="280">STATISTICS</text><text fill="#FFFFFF" style="font-size:3px; font-family:Arial" x="120" y="285">Number: 9</text><text fill="#FFFFFF" style="font-size:3px; font-family:Arial" x="120" y="290">Weekly: 1.8</text><text fill="#FFFFFF" style="font-size:3px; font-family:Arial" x="141" y="285">Total: 42.5 km</text><text fill="#FFFFFF" style="font-size:3px; font-family:Arial" x="141" y="290">Avg: 4.7 km</text><text fill="#FFFFFF" style="font-size:3px; font-family:Arial" x="167" y="285">Min: 3.2 km</text><text fill="#FFFFFF" style="font-size:3px; font-family:Arial" x="167" y="290">Max: 7.0 km</text><polyline fill="none" points="13.385964912245981,42.40869166087941 13.350877192919143,42.693748564692214 13.631578947301023,43.63036266140989 13.771929824608378,43.87469640932977 14.052631578873843,44.93347424225067 14.15789473685436,45.34069573204033 13.982456140220165,45.82936096735648 13.7017543859547,46.155137455876684 13.140350877074525,46.52163568526157 13.0,46.92885554250097 13.350877192919143,47.37679690186633 13.912280701566488,48.313399925566046 14.403508771792985,49.331444178678794 15.035087719210424,50.43092903334764 15.631578947301023,51.44896784450975 15.736842105165124,51.73401824285975 15.982456140220165,52.34483983411337 16.578947368310764,53.36287372664083 17.105263157747686,54.50306858032127 17.701754385838285,55.52109692644444 18.192982455948368,56.70200653036591 18.684210526174866,57.80147092821426 18.96491228067316,58.290120792371454 19.105263157747686,58.860211538587464 19.701754385838285,59.91894931936986 20.228070175275207,61.09984581367462 20.719298245501705,62.19929800616228 21.175438596401364,63.33946742740227 21.631578947301023,64.60179403037182 22.087719298200682,65.82339659082936 22.473684210446663,67.04499538437813 22.894736842019483,68.26659041128005 23.210526315611787,69.16242437029723 23.280701754265465,69.73249947145814 23.38596491224598,70.0989758890064 23.807017543702386,70.38401286830776 24.122807017411105,70.34329331232584 25.175438596401364,69.77321909010061 26.333333333255723,69.20314404761302 27.350877192919143,68.7145076439192 28.263157894602045,68.26659041128005 29.45614035089966,67.73723302877625 30.508771929657087,67.24859481706517 31.631578947301023,66.71923607433564 32.19298245594837,66.5563563189935 33.21052631561179,66.02699665128603 34.22807017527521,65.49763627629727 34.824561403365806,65.25331586477114 35.140350877074525,65.04971540658153 36.47368421044666,64.4389134044759 37.63157894730102,63.9502711246605 38.64912280696444,63.461628242221195 38.96491228067316,63.38018770315102 40.15789473685436,62.76938312701532 41.526315789320506,62.48434066909249 42.684210526174866,62.11785720766056 42.96491228067316,62.036416392365936 43.175438596401364,62.11785720766056 43.280701754265465,62.40289992920589 44.017543859547004,63.50234850536799 44.64912280696444,64.56107388017699 44.85964912280906,64.92755508149276 45.38596491224598,65.98627664748346 45.91228070156649,67.08571527936147 46.403508771792985,68.14443107802072 46.92982456134632,69.20314404761302 47.35087719291914,70.30257375224028 47.84210526314564,71.44271985304658 48.33333333325572,72.9493364537193 48.75438596482854,74.00803658351651 49.140350877074525,75.02601480972953 49.38596491224598,75.75895751302596 49.87719298247248,76.0847093902994 50.26315789471846,77.18411999903037 50.36842105258256,77.4284330533701 50.54385964910034,77.59130833914969 50.7894736842718,77.59130833914969 51.07017543842085,77.46915188105777 51.84210526314564,77.30627654498676 52.96491228067316,76.6547745311691 54.15789473685436,76.247585228557 55.315789473592304,76.0847093902994 56.47368421056308,75.79967651228071 56.824561403365806,75.71823850949295 57.03508771921042,76.00327144603943 58.26315789471846,75.55536245368421 58.47368421044666,75.27032919487101 58.33333333325572,74.9038575606537 58.36842105258256,74.49666645855177 59.38596491224598,73.96731740012183 60.438596491119824,73.35652914620005 60.85964912280906,72.66430132003734 61.03508771921042,71.97207228455227 61.0,71.64631702579209 60.824561403365806,71.32056149913114 60.47368421044666,71.07624467849382 59.982456140220165,70.91336671425961 59.77192982460838,70.75048868311569 59.91228070179932,70.5468910500058 60.122807017411105,70.42473241998232 61.315789473592304,70.34329331232584 62.438596491119824,70.18041504680878 63.35087719291914,70.0175367143238 63.63157894730102,69.85465831495821 64.08771929820068,69.44746202335227 64.7192982455017,68.42946946353186 64.96491228067316,67.94083210572717 65.59649122797418,67.45219414521125 65.84210526314564,66.96355558198411 66.01754385966342,65.82339659082936 66.1228070174111,65.17187569395173 66.08771929820068,64.84611484385096 66.29824561381247,63.787390230747405 66.7192982455017,62.647222098719794 66.75438596482854,62.19929800616228 67.0,61.30344830173999 66.92982456134632,60.936963747866685 66.75438596482854,60.65191997156944 66.4035087719094,60.52975829030038 65.45614035089966,60.52975829030038 64.2280701752752,60.69264052360086 63.56140350876376,60.8148021545785 63.21052631561179,60.77408161506173 61.982456140220165,60.936963747866685 61.7017543859547,60.97768427064875 60.50877192965709,60.97768427064875 59.31578947370872,61.01840478912345 58.438596491119824,61.18128682146198 57.140350877074525,61.58849160920363 56.89473684201948,61.79209384624846 55.7017543859547,62.036416392365936 55.07017543865368,62.11785720766056 54.85964912280906,62.19929800616228 53.736842105165124,62.280738787929295 52.36842105258256,62.443620301171904 51.1052631578641,62.76938312701532 50.85964912280906,62.81010346135008 50.85964912280906,62.81010346135008" stroke="#4dd2ff" stroke-linecap="round" stroke-linejoin="round" stroke-width="0.5"><title>2024-06-26 3.2km</title><desc>9223370317445915207</desc></polyline><polyline fill="none" points="74.62352941185236,43.71840002932004 73.81176470592618,43.71840002932004 73.24705882370472,42.489541212969925 73.49411764717661,41.67029989633011 73.52941176481545,42.32569308448001 73.31764705886599,42.4076171569468 73.17647058831062,42.57146525196731 73.03529411775526,43.14493305332144 73.45882352942135,43.882247585221194 73.45882352942135,44.53763713478111 73.5647058825707,44.988216824800475 73.9882352942368,45.438796005240874 74.09411764703691,45.684566252457444 73.77647058828734,46.053221339243464 73.5647058825707,46.58572252903832 73.28235294111073,46.66764572574175 73.0705882353941,46.9543767819996 73.0,47.32303069368936 73.03529411775526,48.18322182830889 73.49411764717661,48.63379739571246 74.05882352951448,49.49398570047924 74.58823529421352,50.6409005515452 74.72941176476888,51.00955105270259 75.3294117647456,51.62396779641858 75.92941176483873,52.93472035016748 76.07058823551051,53.303368728928035 76.28235294134356,53.63105589049519 76.67058823548723,54.040664463536814 76.9176470588427,54.61411575830425 77.12941176479217,54.85988034631009 77.37647058826406,55.59717320068739 77.62352941185236,55.88389783131424 78.18823529419024,57.153675858076895 78.1529411765514,57.399438879685476 78.40000000025611,57.68616221341654 78.43529411766212,57.93192490658839 78.96470588247757,58.792093139432836 79.03529411763884,59.365537596546346 79.14117647067178,59.61129925400019 79.38823529426008,59.857060759852175 79.45882352953777,60.10282211427693 79.95294117659796,61.126826126128435 80.37647058838047,62.19178750703577 80.80000000016298,63.297705928533105 81.22352941182908,64.48554081458133 81.71764705888927,65.67337216006126 82.03529411775526,66.57448323260178 82.10588235314935,66.90215948113473 82.2470588235883,67.188875977532 82.28235294134356,67.47559226764133 82.74117647076491,68.66341470056796 83.05882352951448,69.76931516235345 83.30588235310279,70.58849871103303 83.44705882354174,70.91617165895877 83.97647058835719,71.03904894503648 85.24705882370472,70.46562128610094 86.30588235310279,70.01507040380966 87.32941176486202,69.44164127134718 87.57647058845032,69.27780422492651 88.14117647067178,69.03204852872295 88.38823529414367,68.86821131390752 88.70588235300966,68.82725199960987 89.20000000006985,68.58149602575577 89.30588235298637,68.41765862566535 90.36470588250086,68.0080648305593 91.63529411773197,67.51655172073515 92.72941176476888,66.98407850106014 93.89411764719989,66.41064500730135 95.05882352951448,65.87817030990846 96.22352941182908,65.34569490115973 97.49411764729302,64.89513823023299 98.76470588240772,64.32170173051418 99.04705882351846,64.15786257904256 99.4000000001397,64.07594297800097 99.61176470608916,63.95306354487548 99.89411764719989,63.91210372545174 100.60000000020955,63.62538487149868 100.91764705907553,63.5844250182563 102.22352941194549,63.05194654449588 102.78823529416695,62.88810687101795 103.00000000011642,62.76522707159165 103.3176470589824,62.88810687101795 103.70588235312607,63.5844250182563 104.20000000006985,64.11690278057358 104.7294117648853,65.30473522478133 105.29411764722317,66.28776629420463 105.61176470597275,66.77928091958165 106.10588235303294,68.04902422896703 106.63529411784839,69.11396711098496 107.09411764715333,70.219866322499 107.65882352960762,71.57151674674242 108.08235294127371,72.71836805692874 108.54117647069506,73.98809244349832 109.00000000023283,75.17589546559611 109.38823529426008,76.44561202242039 109.5647058825707,76.8551971456618 110.12941176479217,77.05998954936513 110.4117647059029,78.04299162243842 110.55294117669109,78.24778341577621 110.8000000002794,78.3297001036699 112.00000000011642,78.0839499894937 112.45882352953777,77.67436612921301 113.34117647062521,77.22382339663454 114.43529411766212,77.10094801755622 115.21176470594946,76.93711411976255 116.34117647074163,76.60944612225285 116.58823529432993,76.56848760365392 116.83529411780182,76.56848760365392 117.01176470611244,76.77328015468083 117.32941176486202,76.69136314690695 117.5764705883339,76.69136314690695 118.00000000023283,76.44561202242039 118.28235294134356,76.36369494727114 118.38823529426008,76.15890218579443 118.28235294134356,75.54452326981118 118.28235294134356,75.29877143821795 119.34117647074163,74.93014340667287 120.25882352958433,74.3567213465285 120.82352941192221,73.74233965223539 121.00000000011642,72.75932697133976 120.92941176495515,72.43165553876315 120.78823529416695,72.14494281439693 120.61176470608916,71.85822988368454 120.36470588238444,71.73535285016987 120.01176470611244,71.61247577887843 119.83529411791824,71.40768057582318 121.03529411787167,71.0800080319168 122.27058823546395,70.95713075847016 123.29411764710676,70.79329433507519 123.78823529428337,70.670416973182 124.35294117673766,70.01507040380966 124.95294117671438,68.86821131390752 125.48235294141341,68.45861798201804 125.7294117648853,68.17190239910269 125.97647058835719,67.39367334864801 126.11764705902897,66.12392795097549 126.22352941182908,65.9191299273516 126.32941176486202,65.0589770784718 126.68235294136684,63.74826440552715 126.89411764719989,62.88810687101795 127.0,62.6013872801268 126.96470588259399,61.74122727004578 126.85882352956105,61.45450685409014 126.29411764722317,61.126826126128435 125.12941176490858,61.24970643068082 123.78823529428337,61.41354677785421 122.87058823544066,61.57738705765223 121.74117647088133,61.618347117095254 120.54117647069506,61.659307172347326 119.65882352960762,61.70026722326293 119.41176470601931,61.782187312695896 118.84705882368144,61.782187312695896 117.61176470608916,62.02794747968437 116.41176470601931,62.396587446302874 115.60000000020955,62.6833071843721 114.43529411766212,62.88810687101795 113.30588235310279,63.09290645242436 112.07058823551051,63.25674604176311 110.8000000002794,63.62538487149868 109.70588235300966,63.95306354487548 108.40000000002328,64.28074194892542 107.65882352960762,64.52650057512801 107.2352941178251,64.89513823023299 107.09411764715333,65.42761424113996 107.2352941178251,65.9191299273516 107.76470588264056,66.94311899319291 108.36470588261727,67.96710542787332 109.07058823551051,69.19588567639585 109.74117647076491,69.97411120735342 110.55294117669109,70.46562128610094 111.4000000001397,71.03904894503648 112.52941176481545,71.61247577887843 113.37647058838047,71.77631186548388 113.87058823544066,72.10398383680149 115.1411764707882,72.34973763857852 116.44705882354174,72.10398383680149 117.75294117652811,71.73535285016987 118.95294117648154,71.44863962481031 119.83529411791824,71.32576246510143 120.61176470608916,71.1619261931628 120.89411764719989,71.1619261931628 122.20000000006985,70.9980898538488 123.04705882375129,70.91617165895877 123.82352941192221,70.62945784418844 124.17647058842704,70.2608254935767 124.77647058840375,69.15492639577133 125.62352941185236,68.2128617806884 125.83529411780182,68.0080648305593 126.01176470599603,67.35271388289402 126.01176470599603,67.02503800479462 126.18823529430665,65.67337216006126 126.22352941182908,65.18185617064591 126.61176470597275,63.87114390177885 126.92941176483873,62.56042732181959 127.0,61.9869874624419 126.92941176483873,61.659307172347326 126.68235294136684,61.29066652385518 126.40000000002328,61.16778623184655 125.02352941187564,61.29066652385518 123.68235294136684,61.45450685409014 122.83529411780182,61.659307172347326 122.58823529421352,61.618347117095254 122.30588235310279,61.74122727004578 121.17647058831062,61.70026722326293 119.94117647071835,61.82314735100954 119.69411764724646,61.782187312695896 119.20000000018626,61.782187312695896 118.91764705907553,61.90506741515128 118.63529411773197,61.86410738521954 117.82352941203862,62.02794747968437 117.36470588250086,62.06890749288141 116.37647058838047,62.396587446302874 116.12941176490858,62.396587446302874 115.91764705907553,62.56042732181959 114.75294117652811,62.806187009002315 113.37647058838047,63.05194654449588 111.96470588247757,63.215786150773056 110.87058823555708,63.54346516093938 110.58823529421352,63.54346516093938 110.0588235296309,63.78922424186021 109.24705882370472,64.0349831712083 108.96470588259399,63.994023360166466 107.90588235296309,64.32170173051418 107.44705882377457,64.56746033151285 107.27058823546395,64.77225904967054 107.16470588243101,65.34569490115973 107.20000000006985,65.71433179843007 107.69411764724646,66.53352368265041 107.97647058835719,67.10695699960343 108.18823529430665,67.39367334864801 108.29411764722317,67.7623083514627 108.85882352956105,68.78629268115037 109.31764705886599,69.48260052251862 109.31764705886599,69.48260052251862" stroke="#4dd2ff" stroke-linecap="round" stroke-linejoin="round" stroke-width="0.5"><title>2024-06-25 4.9km</title><desc>9223370317535602707</desc></polyline><polyline fill="none" points="134.81747572822496,47.10108616942307 135.06213592225686,46.85770094007603 134.81747572822496,47.10108616942307 133.66407766984776,46.12754435132956 133.6291262137238,45.03230693473597 133.41941747581586,44.9106137008057 133.34951456298586,45.19456452166196 133.20970873790793,45.356822041707346 133.13980582531076,45.72190121826134 133.2446601941483,46.77657249692129 133.38446601945907,46.938829366496066 133.6291262137238,47.506727884639986 133.594174757367,47.79067683717585 133.66407766984776,48.115189675678266 134.118446601904,48.926470604055794 134.08349514566362,49.453802312898915 133.94368932046928,49.697185940953204 133.20970873790793,50.06226110152784 133.0349514563568,50.26508048904361 133.0,50.589591292489786 133.5592233010102,51.76594071756699 133.76893203880172,52.41495958881569 134.08349514566362,52.739468624204164 134.53786407771986,53.26679523740313 134.9223300970625,54.11862904689042 135.69126213598065,55.17327788242255 135.97087378636934,55.61947461802629 136.0757281553233,55.943981018004706 136.25048543687444,56.18736064285622 136.32038834958803,56.47130334877875 136.949514563079,57.6476352395548 137.4388349513756,58.62114863505121 137.99805825250223,59.878599883115385 138.45242718444206,60.730419419676764 138.52233009715565,61.1766098717635 138.69708737870678,61.501111701712944 138.9766990292119,61.785050584119745 139.04660194169264,62.10955191383255 139.04660194169264,62.43405297672143 139.2213592233602,62.59630340800504 139.4660194175085,63.12361684915959 139.99029126216192,64.09711673553102 140.47961165057495,65.35455053427722 141.03883495135233,66.57141813758062 141.4233009709278,67.62603369198041 141.84271844662726,68.7617703677679 142.2271844659699,69.81638006863068 142.61165048542898,71.07379564386792 143.03106796112843,72.20952239749022 143.41553398047108,73.58861477536266 143.55533980589826,73.83198351832107 143.76504854368977,73.99422926356783 144.04466019419488,73.99422926356783 144.70873786415905,73.58861477536266 145.89708737866022,73.0613153175509 147.01553398056421,72.41233040223597 148.20388349506538,71.88502937273006 149.21747572813183,71.47941271681339 149.46213592228014,71.43885102833156 150.405825242633,70.95211044073221 151.62912621360738,70.38424566327012 152.712621359271,69.8975037750497 153.06213592237327,69.69469447765732 153.37669902900234,69.57300884931465 154.39029126206879,69.04570402597892 155.4388349513756,68.55896048684372 155.96310679614544,68.31558849205612 156.27766990300734,68.31558849205612 156.76699029130396,67.99109226567089 157.780582524254,67.54490951861953 159.03883495146874,67.01760198536795 160.19223300972953,66.6119803263864 161.24077669903636,66.2874826991756 162.2543689319864,65.88186028972268 162.84854368923698,65.80073575783172 163.1281553398585,65.39511284825858 163.6524271843955,65.27342589391628 164.5262135922676,65.19230123708257 165.81941747572273,64.7866777019517 167.0776699029375,64.50274097934016 167.60194174770731,64.38105374999577 168.37087378650904,64.21880405244883 168.65048543689772,64.21880405244883 169.76893203891814,63.85374198917998 171.16699029132724,63.610367092624074 172.3902912621852,63.36699204595061 173.64854368939996,63.204741931462195 174.13786407769658,63.083054301852826 174.59223300975282,63.083054301852826 175.15145631076302,62.880241502280114 176.26990291278344,62.79911635344615 177.07378640782554,62.63686600534129 178.3320388350403,62.55574080644874 178.89126213581767,62.55574080644874 180.07961165055167,62.39349035837222 180.8485436894698,62.39349035837222 182.14174757292494,62.31236510936287 183.46990291250404,62.23123984364793 184.79805825243238,62.23123984364793 185.6019417475909,62.27180247861543 185.98640776693355,62.19067720457679 186.79029126209207,62.27180247861543 187.0,62.43405297672143 186.89514563104603,62.67742859866121 187.0,62.96136663472862 186.9650485436432,63.16417939233361 186.4757281553466,63.204741931462195 186.40582524274942,63.44811707807821 186.54563106782734,63.69149207469309 186.54563106782734,63.894304457324324 186.30097087379545,64.13767917864607 186.1262135922443,64.05655428816681 185.11262135929428,64.01599183675717 184.02912621363066,64.17824161768658 182.91067961172666,64.34049133191002 181.6524271845119,64.54330338083673 180.28932038834319,64.66499056018074 179.9747572814813,64.70555294500082 179.69514563097619,64.66499056018074 178.43689320399426,64.7866777019517 177.21359223301988,65.03005187303643 176.93398058251478,65.19230123708257 175.67572815541644,65.47623746353202 174.3475728156045,65.80073575783172 173.12427184463013,66.04410930353333 171.90097087377217,66.16579602006823 170.6427184465574,66.40916934062261 169.38446601945907,66.81479120801669 168.30097087379545,67.05816412833519 167.77669902914204,67.17985053220764 167.0427184465807,67.58547160745366 166.90291262138635,67.78828198855626 166.86796116502956,68.07221634718007 166.86796116502956,68.35615050166962 167.49708737875335,69.57300884931465 167.60194174770731,69.85694192384835 168.1961165049579,70.91154869805905 168.89514563104603,72.00671428817441 169.3145631068619,72.53401515513542 170.18834951450117,73.22356137962197 171.37669902911875,73.83198351832107 172.46019417478237,74.31872055391432 173.543689320446,74.76489564249641 174.6621359224664,75.0893862992234 175.95533980592154,75.00826365995454 177.03883495146874,74.68377293663798 178.22718446608633,74.4404047189746 179.4504854369443,74.19703635119367 180.60388349508867,74.07535211119102 181.86213592230342,73.91310639918083 182.7708737864159,73.83198351832107 183.0854368931614,73.71029916557018 183.574757281458,73.42636886346736 183.9592233010335,72.9801922615734 184.44854368944652,71.96615265400033 184.7631067960756,71.47941271681339 185.18252427177504,71.27660423249472 185.39223300968297,71.07379564386792 185.74174757278524,69.8975037750497 185.8466019417392,68.7212083999475 185.8815533979796,68.11277838182286 186.26601941755507,66.89591553140781 186.54563106782734,66.04410930353333 186.54563106782734,65.39511284825858 186.65048543689772,65.15173890226288 186.68543689325452,64.54330338083673 186.4407766989898,64.299928909546 186.1611650484847,64.09711673553102 185.8466019417392,64.05655428816681 184.65825242723804,64.25936648302013 184.09902912622783,64.299928909546 183.50485436897725,64.42161616394878 183.19029126211535,64.42161616394878 181.9669902912574,64.66499056018074 180.91844660195056,64.66499056018074 179.76504854368977,64.7866777019517 178.5417475728318,64.82724007425713 177.28349514561705,65.11117656339775 176.0252427184023,65.43567515801988 174.76699029130396,65.80073575783172 173.543689320446,66.04410930353333 172.21553398051765,66.24692047701683 170.85242718446534,66.49029374754173 169.80388349515852,66.85535337182228 169.20970873790793,66.89591553140781 168.51067961170338,67.05816412833519 167.3572815534426,67.50434742565267 167.11262135917787,67.58547160745366 166.93786407762673,67.82884405233199 166.90291262138635,68.11277838182286 167.28737864084542,69.1673898169247 167.60194174770731,69.65413260576315 167.70679611654487,70.10031296807574 167.70679611654487,70.10031296807574" stroke="#4dd2ff" stroke-linecap="round" stroke-linejoin="round" stroke-width="0.5"><title>2024-06-18 4.3km</title><desc>9223370318140349607</desc></polyline><polyline fill="none" points="13.0,137.14274620983633 13.339148639235646,137.66754761416814 13.753663642797619,138.80461510259192 13.829030006891116,139.06701486057136 14.394277739105746,140.20407860865816 14.884159106528386,141.4286054004624 14.997208653017879,141.69100354018155 15.374040474649519,142.17206637587515 15.374040474649519,142.4781969882024 15.411723656579852,142.74059448056505 15.637822749326006,142.95925893392996 15.976971388561651,143.83391562348697 16.35380320996046,144.57737239592825 16.994417306268588,145.7581540113315 17.559665038483217,146.93893234973075 17.97418004181236,148.2071721002285 18.464061409700662,149.3004791958083 18.91625959519297,150.52497980752378 19.21772505226545,151.66201293448103 19.59455687366426,152.79904302296927 19.70760641992092,153.19262965326197 19.858339148573577,153.49875233627972 20.197487787809223,154.50458245835034 20.235170969972387,154.81070419744356 20.574319608975202,155.07309408427682 20.988834612537175,155.1168257163372 21.290300069609657,155.02936244776356 21.478715980425477,154.89816751106991 22.38311235164292,154.41711906384444 22.75994417304173,154.32965565135237 23.965806001331657,153.71741126061534 25.058618283364922,153.10516598899267 25.51081646885723,152.9302386068157 26.18911374732852,152.75531115266494 26.528262386564165,152.53665173376794 27.80949057918042,152.0118686699716 28.450104675488546,151.74947689534747 28.86461967905052,151.3996209440811 30.183531053829938,150.78737233727588 30.371946964412928,150.69990817882353 30.560362874995917,150.56871190710808 31.276343335630372,150.39378348211176 31.464759246446192,150.43751559508382 31.72854152135551,151.049764705298 32.67062107450329,150.69990817882353 33.34891835297458,150.39378348211176 33.72575017437339,150.26258711601258 34.064898813841864,150.04392641599406 34.856245638336986,149.73780124733457 35.19539427757263,149.5628724807175 35.609909281134605,149.4316758584464 36.7780879274942,148.95062123096432 38.13468248443678,148.42583374411333 38.39846475911327,148.2071721002285 39.415910676820204,147.85731323627988 39.717376133892685,147.90104561008047 40.32030704827048,147.63865130022168 41.714584786910564,147.28879196877824 42.24214933696203,147.02639728150098 42.50593161187135,146.98266481782775 42.84508025133982,147.11386219525593 43.334961618995294,148.2071721002285 43.86252616881393,149.25674696595524 44.578506629448384,150.4812477035157 45.10607117926702,151.70574491709704 45.633635729318485,152.79904302296927 46.16120027913712,153.97980182169704 46.65108164679259,155.16055734385736 46.877180739771575,155.90399432499544 47.065596650587395,156.16638353766757 47.5177948360797,157.43459578423062 48.0830425680615,158.92146050106385 48.422191207297146,160.1459334254032 48.83670621062629,161.32667183681042 49.2135380320251,162.68233041692292 49.43963712500408,162.85725379019277 49.741102582076564,162.85725379019277 50.87159804604016,162.59486870348337 51.21074668527581,162.20129076993908 52.416608513565734,161.67651962582022 53.58478715992533,161.5015957673022 54.86601535230875,161.28294084302615 55.73272854159586,161.02055478550028 56.56175854848698,161.19547884183703 57.579204466193914,160.8018996141618 57.72993719484657,160.62697539594956 57.579204466193914,159.7523532269115 57.767620376776904,159.62115974639892 58.14445219817571,159.53369740370545 58.445917655248195,159.3150414681877 58.747383112320676,159.22757906248444 59.91556175844744,158.3966853118327 60.254710397915915,158.00310349540086 60.443126308498904,157.56578993881703 60.51849267282523,157.0847445076506 60.40544312633574,156.47250408117543 60.02861130493693,156.03518895150046 59.23726448020898,155.6853365242423 59.312630844302475,155.42294701494393 60.59385903715156,155.24802058562636 61.988136776024476,155.07309408427682 62.81716678291559,154.985630806681 63.34473133296706,154.81070419744356 63.608513607876375,154.63577751643606 64.39986043260433,153.4112887350202 64.85205861832947,152.62411551480182 65.49267271463759,152.23052835851558 65.83182135387324,151.3996209440811 65.83182135387324,150.74364026030526 65.98255408229306,149.6066046791384 66.17096999310888,148.9943534922495 66.28401953959838,148.81942441980937 66.62316817860119,147.4199892518518 66.96231681783684,145.93308434225037 67.0,145.32082786911633 66.84926727134734,145.01469930220628 66.66085136076435,144.7960359052522 66.39706908585504,144.6211051067512 64.88974180049263,144.6211051067512 63.6838799722027,144.88350127753802 62.6287508723326,145.14589728647843 61.42288904404268,145.23336258687777 60.17934403358959,145.32082786911633 59.42568039079197,145.32082786911633 58.935799022903666,145.23336258687777 57.54152128403075,145.40829313354334 56.637124912813306,145.6269562157977 55.73272854159586,146.02054948089062 54.41381716681644,146.4141423816036 53.20795533852652,146.63280494700302 52.37892533140257,146.76400243229 51.81367759942077,146.76400243229 50.64549895306118,146.98266481782775 49.7034193999134,147.0701297405758 49.13817166769877,147.33252440101933 48.83670621062629,147.3762568286329 47.555478018010035,147.76984847540734 46.23656664346345,148.0759750599973 45.78436845773831,148.2946367712866 45.59595254692249,148.55703067642753 45.48290300066583,149.0818180014321 45.97278436855413,150.26258711601258 46.688764828955755,151.48708495884784 47.442428471753374,152.71157927784952 48.23377529671416,153.67367948475294 48.94975575711578,154.32965565135237 50.08025122107938,154.85443585642497 51.36147941369563,155.51041020266712 52.529658060055226,155.99145741388202 53.62247034185566,156.4287725884933 54.903698534471914,156.51623556946288 56.147243544925004,156.16638353766757 57.42847173754126,155.86026277387282 57.69225401268341,155.86026277387282 58.29518492659554,155.64160495065153 58.67201674799435,155.5541417899076 59.91556175844744,155.7727996580652 59.689462665701285,155.59787337249145 59.84019539435394,155.7290680933511 60.02861130493693,155.8165312182973 60.367759944172576,156.16638353766757 60.51849267282523,156.47250408117543 60.51849267282523,156.47250408117543" stroke="#4dd2ff" stroke-linecap="round" stroke-linejoin="round" stroke-width="0.5"><title>2024-06-17 3.4km</title><desc>9223370318224643007</desc></polyline><polyline fill="none" points="74.193758127396,135.4531683261448 74.36931079323404,135.37167037805193 73.98309492843691,135.1271764334233 73.38621586468071,135.00492940441472 73.31599479832221,135.249423424626 73.17555266572163,135.4939172938466 73.14044213260058,135.9829045801307 73.24577373208012,136.22739799699048 73.17555266572163,136.4718912631215 73.59687906363979,137.61285784395295 73.70221066311933,137.9388476923341 74.08842652791645,138.59082658501575 74.1235370610375,138.87606701324694 74.05331599479541,139.40579869263456 73.912873861962,139.56879291302175 73.70221066311933,139.60954145767028 73.10533159947954,140.01702667374047 73.03511053312104,140.3022660756542 73.0,140.669002147828 73.17555266572163,141.15798304986674 73.49154746404383,141.4432216307614 73.66710012988187,141.72846000641584 73.94798439531587,141.89145327176084 74.5097529257182,142.86941145628225 74.82574772415683,143.68437476697727 74.82574772415683,143.92886343348073 75.21196358895395,144.62158050297876 75.80884265259374,145.35504431583104 76.3706111832289,146.57748098802404 76.89726918074302,147.51467988378135 77.38881664490327,148.57411944540218 77.73992197646294,149.14458572887816 78.30169050698169,150.3262632758997 78.40702210646123,150.4892530060024 78.44213263969868,150.77448487229412 78.65279583865777,151.3042006509786 78.93368010397535,151.71167384518776 79.00390117021743,152.28213561337907 79.39011703501455,152.68960780245834 79.88166449929122,153.70828644247376 80.44343302980997,154.88995038552093 80.93498049408663,156.11235765437596 81.25097529252525,156.886546975089 81.672301690327,158.027454797033 81.84785435628146,158.3534278574225 82.19895968784112,159.41283845243743 82.55006501940079,160.6759781538567 82.97139141743537,161.77612880826928 83.32249674887862,162.998514843639 83.42782834835816,163.5282142884389 83.77893368003424,163.8134367732273 84.30559167743195,163.77269071657793 85.53446033794899,163.16149936357397 86.48244473338127,162.87627640971914 87.1846553965006,162.55030706821708 88.4486345902551,161.9391138308565 89.53706111817155,161.2871733388165 90.625487646088,160.83896362880478 91.60858257452492,160.30926059072954 92.87256176851224,159.7388103736739 93.6098829646362,159.372091943369 93.85565669694915,159.16835933559923 94.87386215862352,158.7201472299348 95.89206762018148,158.27193461745628 96.98049414821435,157.82372149833827 97.6827048114501,157.45700129651232 98.03381014289334,157.37550787226064 99.01690507133026,156.92729373954353 100.10533159936313,156.47907910007052 101.26397919363808,156.11235765437596 101.86085825739428,155.94937023636885 102.10663198947441,155.78638275130652 102.70351105323061,155.62339519930538 103.01950585166924,155.66414209350478 103.5812743823044,156.27534500544425 103.82704811426811,156.3568386558327 104.17815344594419,156.27534500544425 104.52925877750386,156.31609183279215 105.02080624178052,156.47907910007052 105.26657997386064,156.47907910007052 106.24967490229756,156.9680404998653 107.02210663177539,157.29401443136157 107.23276983073447,157.33476115390658 107.0923276982503,157.9052148303599 107.0923276982503,158.14969472616212 107.30299089709297,158.7201472299348 107.89986996096559,159.6980638980749 108.4967490247218,160.83896362880478 109.05851755512413,161.81687507021707 109.79583875148091,162.67254560271977 110.95448634575587,163.40597601784975 112.04291287367232,163.89492887398228 113.13133940158878,164.3431351292238 114.14954486326315,164.75059492138098 115.02730819222052,164.99507059561438 116.36150845244993,164.75059492138098 117.48504551360384,164.38388112722896 118.74902470724192,164.13940507598454 119.97789336787537,163.89492887398228 120.25877763319295,163.8134367732273 121.38231469434686,163.6911985905317 122.85695708694402,163.5282142884389 123.41872561757918,163.48746820239467 123.94538361486048,163.2022454830294 124.54226267861668,162.42806849619956 124.75292587757576,161.8983675815398 125.0689206761308,161.49090485769557 125.77113133925013,161.0019490364648 126.01690507144667,160.51299261217355 126.08712613780517,160.14627489814302 126.08712613780517,159.82030331194983 126.15734720404726,159.53507795420592 126.22756827040575,158.59790747679654 126.43823146936484,157.5384947041166 126.719115734566,156.6828130899521 126.96488946664613,155.4604075801617 127.0,154.8084564335586 126.92977893340867,154.48248045824585 126.719115734566,154.23799830081407 126.4031209362438,154.03426305452012 125.27958387508988,154.03426305452012 123.98049414821435,154.1565042148577 122.71651495434344,154.4009864225227 121.97919375798665,154.5639744772052 120.8907672300702,154.64546847948804 120.36410923267249,154.64546847948804 120.15344603371341,154.5639744772052 118.81924577360041,154.64546847948804 117.59037711308338,154.93069735527388 116.50195058516692,155.21592602570308 115.37841352401301,155.5011544910958 114.21976592973806,155.82712962877122 112.88556566962507,156.0716108061897 112.07802340690978,156.11235765437596 110.88426527951378,156.43833228960284 109.76072821835987,156.84580020641442 109.51495448627975,156.886546975089 108.25097529240884,157.17177423840621 107.72431729512755,157.29401443136157 107.47854356304742,157.37550787226064 107.19765929761343,157.82372149833827 107.16254876449239,158.0682014443155 107.72431729512755,159.16835933559923 108.3563068920048,160.18702132749604 108.95318595564459,161.36866595904576 109.76072821835987,162.38732229705784 110.18205461639445,162.79478409941657 111.44603381003253,163.40597601784975 112.18335500650574,163.8134367732273 113.34200260066427,164.26164312052424 114.53576072806027,164.75059492138098 115.5890767229721,164.83208682958502 116.85305591661017,164.54686507763108 118.18725617683958,164.18015109494445 119.34590377111454,163.9356749181461 120.64499349787366,163.6911985905317 121.83875162526965,163.5282142884389 123.13784135237802,163.40597601784975 123.91027308197226,163.16149936357397 124.26137841341551,162.87627640971914 124.9284785434138,161.73538254218874 125.80624187248759,160.87970998694072 126.15734720404726,159.57582444645232 126.2626788035268,158.43492108065402 126.57867360196542,157.09028075553942 126.7893368009245,156.51982590637635 126.92977893340867,156.3568386558327 126.92977893340867,155.4604075801617 127.0,154.60472148042754 126.85955786716659,154.31949237006484 126.33289986976888,154.07501011210843 125.10403120936826,153.95276892665424 124.36671001289506,154.03426305452012 123.24317295174114,154.31949237006484 122.22496749018319,154.64546847948804 121.90897269162815,154.5639744772052 121.3472041611094,154.68621547421208 119.94278283475433,154.64546847948804 119.27568270475604,154.60472148042754 118.81924577360041,154.72696246483247 118.53836150828283,154.72696246483247 117.3797139141243,154.97144432071946 116.78283485036809,155.05293823918328 115.94018205441535,155.41966066489113 114.74642392701935,155.66414209350478 113.76332899858244,155.94937023636885 112.42912873858586,156.19385133837932 111.05981794523541,156.47907910007052 109.72561768512242,156.92729373954353 109.30429128743708,156.92729373954353" stroke="#4dd2ff" stroke-linecap="round" stroke-linejoin="round" stroke-width="0.5"><title>2024-06-16 4.3km</title><desc>9223370318313038607</desc></polyline><polyline fill="none" points="137.59829697106034,125.4496011172887 136.44703171937726,125.22691056446638 137.07063373061828,125.05989258986665 135.67952155135572,124.55883835651912 136.06327663525008,123.44538284529699 135.39170523826033,124.11345642688684 135.19982769619673,123.0 135.39170523826033,123.50105567532592 135.15185831068084,123.33403716853354 134.95998076861724,123.61240131797967 134.86404199781828,124.11345642688684 135.43967462377623,124.89287456357852 135.58358278032392,125.22691056446638 135.7754603221547,126.45170747168595 136.06327663525008,127.0641048864345 136.06327663525008,127.28679468377959 136.39906233362854,127.5094843893894 136.49500110466033,127.73217400355497 136.44703171937726,128.23322530061705 135.43967462377623,129.5136876203469 135.00795015436597,129.62503202678636 134.76810322678648,129.95906510867644 134.91201138333417,130.90549105533864 135.7274909366388,132.07460317661753 136.73484803247266,132.7983379866928 137.35845004371367,133.9674460219103 137.69423574209213,134.91386496339692 138.4617459103465,135.91595380473882 139.22925607813522,137.58609775308287 139.42113362019882,137.97579726658296 140.33255194453523,139.36757895426126 141.1000621127896,141.0933832799201 141.81960289529525,142.59649869520217 142.3472661357373,143.7655855785706 142.5871130633168,143.98826850851765 142.92289876169525,145.15735238755587 143.2107150745578,145.380034745147 143.30665384582244,145.76972865045536 143.30665384582244,146.15942227531923 143.40259261685424,146.49344515928533 143.69040892994963,146.71612696739612 144.50588848325424,148.441907876404 145.22542926575989,150.27902344620088 145.80106189195067,151.78211336844834 146.3766945176758,153.22952935111243 147.04826591489837,155.01095909648575 147.62389854085632,156.7367135749082 148.15156178129837,158.23978557588998 148.43937809439376,159.29750040941872 149.0629801058676,160.9119032783783 149.2068882624153,161.69126845843857 149.4467351899948,162.19228833913803 149.68658211734146,162.5263013355434 149.92642904468812,162.6376389550278 150.2142453577835,162.3592948631267 151.7492656938266,161.63559955422534 153.0924084878061,160.96757225715555 154.72336759488098,160.13253697694745 156.01854100334458,159.57584607508034 156.35432670172304,159.35316955397138 156.69011240056716,159.29750040941872 158.12919396534562,158.57380100956652 158.80076536233537,158.18411631684285 159.13655106094666,158.12844705220778 160.8154795533046,157.23773803876247 162.1106529617682,156.56970531743718 163.6936426833272,156.06868023547577 165.0847548628226,155.4006460722303 166.66774458438158,154.67694146547 166.95556089724414,154.454262930376 168.58652000455186,153.73055705905426 169.68981587095186,153.39653863856802 169.97763218381442,153.1738595770439 170.3613872679416,153.11818979744567 170.64920358080417,152.8955106214853 172.32813207339495,152.28314241557382 174.15096872253343,151.72644344577566 175.68598905857652,151.11407391791 176.64537676842883,152.28314241557382 177.17304000887088,152.67283135390608 178.13242771895602,154.28725396905793 178.99587665800937,155.90167177200783 179.18775419984013,156.23568864766276 180.0512031391263,157.96143922378542 180.53089699381962,158.9634854219621 180.77074392139912,159.57584607508034 181.4423153186217,161.19024811428972 181.92200917331502,162.13661948643858 181.92200917331502,162.41496369295055 182.3057642574422,162.97165167680942 182.9293662691489,164.5303749879822 183.504998894874,166.14476226008264 184.0326621355489,167.75914472038858 184.51235599047504,169.3178542543901 184.89611107460223,170.98789520643186 185.2318967729807,172.37959206628148 185.1839273874648,172.71359878056683 184.0806315210648,172.88060206058435 183.7448458224535,172.6579310092493 182.2098254864104,172.71359878056683 181.4423153186217,172.93626980908448 180.9626214634627,173.1589407461579 179.47557051293552,173.43727928842418 177.94055017689243,173.38161159149604 176.45349922636524,173.88262065890012 175.30223397444934,174.0496235783794 173.81518302392215,174.0496235783794 173.1915810124483,174.27229405764956 172.08828514581546,174.77330230129883 170.64920358080417,174.88463740365114 168.87433631741442,174.66196717618732 167.67510167998262,174.82896985526895 165.75632625981234,175.38564508093987 164.22130592376925,175.8866522948374 162.44643866061233,175.55264753702795 161.77486726338975,175.8866522948374 160.71954078227282,175.55264753702795 160.33578569837846,175.7753173984238 159.6642143013887,175.71964994171867 158.80076536233537,175.8866522948374 158.51294904923998,176.10932201897958 158.56091843475588,176.554661192582 158.27310212189332,176.72166328819003 157.88934703776613,176.72166328819003 156.16244915989228,176.8886653324007 154.4835206673015,177.0 153.3802248009015,177.0 152.99646971700713,176.8886653324007 152.1809901634697,176.05365459655877 152.08505139220506,174.88463740365114 151.7492656938266,173.7712853506673 151.7972350793425,172.71359878056683 151.4614493807312,171.2662348644226 150.98175552557223,169.70753093704116 150.93378614028916,168.87250913085882 150.45409228513017,167.36946663603885 149.97439843043685,165.58807753724977 149.78252088814043,164.8643865424092 149.92642904468812,164.19636322750011 150.4061228998471,163.6396765023237 151.8452044648584,162.9159829042037 152.22895954875275,162.8046453417628 152.56474524736404,162.58197014813777 152.9005309457425,162.58197014813777 154.05179619789124,161.85827513673576 155.34696960635483,161.30158600857249 155.77869407599792,161.02324122999562 157.31371441180818,160.3552131774486 158.99264290439896,159.46450782584725 160.52766324020922,158.79647785110865 162.1106529617682,157.96143922378542 163.4537957557477,157.2934073949582 165.0847548628226,156.56970531743718 166.71571396966465,155.79033276758855 168.34667307697237,155.1222982610343 169.64184648543596,154.50993257277878 170.69717296632007,154.23158430372132 170.98498927941546,154.00890558562241 171.22483620676212,154.06457527371822 172.95173408510163,153.34086888172897 174.05502995150164,152.8955106214853 175.82989721512422,152.33881228102837 176.45349922636524,152.17180266731884 176.45349922636524,152.17180266731884" stroke="#4dd2ff" stroke-linecap="round" stroke-linejoin="round" stroke-width="0.5"><title>2024-06-15 3.6km</title><desc>9223370318394354007</desc></polyline></svg>