<?xml version="1.0" encoding="utf-8" ?>
<svg baseProfile="full" height="300mm" version="1.1" viewBox="0,0,200,300" width="200mm" xmlns="http://www.w3.org/2000/svg" xmlns:ev="http://www.w3.org/2001/xml-events" xmlns:xlink="http://www.w3.org/1999/xlink"><defs /><rect fill="#222222" height="300" width="200" x="0" y="0" /><text fill="#FFFFFF" style="font-size:12px; font-family:Arial; font-weight:bold;" x="10" y="20">Over 3km Runs</text><text fill="#FFFFFF" style="font-size:4px; font-family:Arial" x="10" y="280">ATHLETE</text><text fill="#FFFFFF" style="font-size:9px; font-family:Arial" x="10" y="290">SunHao</text><text fill="#FFFFFF" style="font-size:4px; font-family:Arial" x="120" y="280">STATISTICS</text><text fill="#FFFFFF" style="font-size:3px; font-family:Arial" x="120" y="285">Number: 13</text><text fill="#FFFFFF" style="font-size:3px; font-family:Arial" x="120" y="290">Weekly: 2.2</text><text fill="#FFFFFF" style="font-size:3px; font-family:Arial" x="141" y="285">Total: 60.1 km</text><text fill="#FFFFFF" style="font-size:3px; font-family:Arial" x="141" y="290">Avg: 4.6 km</text><text fill="#FFFFFF" style="font-size:3px; font-family:Arial" x="167" y="285">Min: 3.2 km</text><text fill="#FFFFFF" style="font-size:3px; font-family:Arial" x="167" y="290">Max: 7.0 km</text><polyline fill="none" points="13.300000000046566,43.35927215637639 12.568749999976717,42.771723611920606 13.103124999906868,42.771723611920606 12.93437500006985,42.73908199419384 12.821875000023283,42.543232217693 13.074999999953434,42.38002397827222 13.271874999976717,42.28209899435751 13.496874999953434,42.02096555623575 13.412499999860302,41.62926499635796 13.693749999976717,42.31474065899965 13.946875000023283,42.67379874893231 13.974999999976717,42.80436522630043 14.650000000023283,43.78361209560535 14.70624999993015,44.04474408403621 14.846875000046566,44.24059293442406 15.324999999953434,44.697573115467094 15.40937499993015,44.92606295939186 14.931249999906868,45.0892698901298 14.790624999906868,45.25247673687409 14.59375,45.18719400826376 14.115624999976717,45.35040080465842 13.440625000046566,45.905303285166156 13.1875,45.970585866161855 12.990625000093132,46.16643352867686 12.400000000023283,46.49284603097476 12.765624999883585,47.08038768955157 12.93437500006985,47.24359351294697 12.93437500006985,47.40679925234872 13.440625000046566,48.28810879573575 13.58124999993015,48.45131399828824 13.693749999976717,48.67980114091188 13.721875000046566,48.97357008274412 14.284375000046566,49.85487527734949 14.34062500006985,50.083361410012 14.734375,50.44241071486613 14.931249999906868,51.19314885840868 15.099999999976717,51.323711832781555 15.353124999906868,51.78068181974231 15.521874999976717,51.943885227141436 15.746874999953434,52.564057410229 15.887499999953434,52.72726041506394 16.084374999976717,53.28215000385535 16.196875000023283,53.477993156557204 16.365624999976717,53.90231957321521 16.506250000093132,54.06552189012291 16.731249999953434,54.55512833769899 16.815625000046566,55.07737438287586 16.900000000023283,55.30585675762268 17.068750000093132,55.50169866223587 17.15312500006985,55.9913028954179 17.40625,56.415625953435665 17.490624999976717,56.6767475536617 18.0531249998603,57.655951641499996 18.503125000046566,58.63515270984499 18.671875,59.19003197486745 18.8125,59.48379119334277 18.840624999953434,59.67963052124833 19.26250000006985,60.65882534944103 19.40312500006985,60.88730370820849 19.431249999906868,61.14842163116555 19.515625000116415,61.31162022409262 19.571875000023283,61.57273779818206 19.853125000023283,62.09497230226407 19.965624999953434,62.61720594766666 20.275000000023283,63.49847327664611 20.359375000116415,63.75958905252628 20.443749999976717,64.24918055380112 20.584374999976717,64.51029571244726 20.640625,64.99988605635008 20.78125,65.16308266989654 21.287499999976717,65.26100059773307 21.990624999976717,64.86932870509918 22.637499999953434,64.73877130026813 23.565625000046566,64.44501694297651 24.4375,63.98806518033962 24.606249999953434,63.85750741313677 24.718749999883585,63.72694959232467 25.618750000023283,63.269996796530904 26.40625,62.845682897401275 27.081250000046566,62.454008025699295 27.306250000023283,62.38872883352451 27.812500000116415,62.09497230226407 28.712500000023283,61.73593617300503 29.303124999976717,61.47481873308425 29.443749999976717,61.34425993260811 30.456250000046566,60.919943460292416 31.01874999993015,60.593545788142364 31.524999999906868,60.39770702389069 31.750000000116415,60.234507961286 32.2281250001397,60.07130881489138 32.39687499997672,59.9407494373736 33.465624999953434,59.61435075866757 33.66250000009313,59.51643108975259 33.88750000006985,59.48379119334277 34.47812500002328,59.157392044959124 34.984375,59.09211217510165 35.74375000002328,58.928912441508146 36.19374999997672,58.733072650647955 36.390625000116415,58.863632524735294 36.58750000002328,59.19003197486745 36.784375000046566,59.287951744569 37.515625000116415,59.25531182467239 37.71249999990687,59.38587148403167 38.106249999953434,59.41851139051141 38.921875,59.908109584561316 39.090624999953434,59.97338928678073 39.175000000046566,60.07130881489138 39.87812499993015,60.36506721802289 39.653124999953434,60.691465125011746 39.624999999883585,60.85466395277763 39.793749999953434,61.40953933951096 40.07500000006985,61.80121549940668 40.1875,62.16025155503303 40.328125000116415,62.356089232314844 40.721875000046566,63.20471777196508 40.83437499997672,63.53111276033451 41.22812500002328,64.0207046137948 41.81874999997672,64.54293509223498 42.718750000116415,65.03252538572997 43.64687499997672,65.45683636298054 44.46250000002328,65.78322903660592 44.71562500006985,65.91378601206816 44.856249999953434,65.91378601206816 45.559374999953434,66.20753901079297 46.03749999997672,66.37073500364204 46.234375,66.24017821607413 46.88125000009313,66.07698215602431 48.00625000009313,65.71795052863308 48.315625000046566,65.58739347266965 48.84999999997672,65.48947564538685 49.13125000009313,65.52211492453353 49.41249999997672,65.42419707716908 49.63750000006985,65.42419707716908 49.862500000046566,65.35891849550535 50.14374999993015,65.39155778803979 50.36875000002328,65.29363990039565 51.04375000006985,65.16308266989654 51.38125000009313,65.19572198257083 52.449999999953434,65.06516471185023 52.871874999953434,64.86932870509918 53.32187500002328,64.60821384159499 53.800000000046566,63.79222850941005 53.91249999997672,63.56375224067597 54.137499999953434,63.33527580756345 54.33437500009313,63.20471777196508 54.643750000046566,62.715124660520814 54.72812500002328,62.290810019942 54.699999999953434,62.06233267096104 54.89687500009313,61.57273779818206 54.8687500001397,61.34425993260811 55.121874999953434,60.4956264210341 55.093749999883585,60.26714778045425 55.346875000046566,59.51643108975259 55.375,59.25531182467239 55.54375000006985,59.059472235065186 55.59999999997672,58.83099256109563 55.59999999997672,58.2434726448264 55.487500000046566,58.04763243114576 55.00937500002328,57.68859172571683 54.58750000002328,57.62331155384891 53.828125,57.68859172571683 53.34999999997672,57.81915202920209 52.50625000009313,57.884432160819415 52.0,57.98235233311425 51.746874999953434,57.917072221578564 51.46562500006985,58.014992383803474 50.53749999997672,57.98235233311425 50.25625000009313,58.08027247519931 49.778124999953434,58.08027247519931 49.328124999883585,58.17819258701638 48.596875000046566,58.30875268924865 48.09062500006985,58.406672730634455 47.86562499997672,58.53723273877404 46.85312500002328,58.863632524735294 46.515624999883585,58.928912441508146 46.12187500006985,58.961552394903265 45.784375000046566,59.059472235065186 44.800000000046566,59.157392044959124 44.51874999993015,59.157392044959124 44.265625,59.287951744569 43.703125,59.287951744569 42.606249999953434,59.58171087235678 41.59375,59.8754697284312 41.34062500006985,60.00602913281182 40.69374999997672,60.136588483524974 40.44062499993015,60.26714778045425 39.765625,60.430346826295136" stroke="#4dd2ff" stroke-linecap="round" stroke-linejoin="round" stroke-width="0.5"><title>2024-07-04 3.2km</title><desc>9223370316754174107</desc></polyline><polyline fill="none" points="79.06976744194981,43.58748485459364 78.95813953492325,43.68465082003968 79.23720930237323,45.40124460111838 78.67906976747327,44.688697374629555 79.15348837210331,43.94375991457491 78.98604651167989,43.846594029135304 78.79069767438341,43.87898266100092 78.67906976747327,44.33242315694224 78.51162790704984,44.300034571788274 78.53953488369007,44.52675459830789 78.59534883720335,44.688697374629555 78.5674418604467,44.267645983345574 78.65116279071663,44.0409257702122 78.95813953492325,43.68465082003968 79.26511627912987,43.68465082003968 79.46046511630993,43.846594029135304 79.43255813943688,44.00853715502308 79.26511627912987,43.911371289461385 79.34883720939979,44.0409257702122 79.48837209306657,44.10570299049141 79.54418604657985,43.846594029135304 79.76744186040014,43.97614853648702 79.90697674406692,44.170480197673896 79.93488372093998,44.33242315694224 80.43720930244308,45.077359697956126 80.91162790707313,45.59557538325316 80.99534883734304,45.82229447748978 81.33023255818989,46.30812055870774 81.35813953483012,46.53483914016397 80.66046511637978,46.858722545031924 80.35348837217316,46.858722545031924 80.18604651163332,46.98827581375372 79.59999999997672,47.15021732461173 79.04186046507675,47.571264863567194 78.73488372087013,47.89514720294392 78.51162790704984,48.05708824770409 78.40000000002328,48.219029209256405 78.45581395353656,48.445746415585745 78.7069767442299,48.542910882708384 78.73488372087013,48.73723972696462 78.81860465114005,48.96395656041568 79.37674418604001,49.61171804272453 79.5162790697068,49.8060462277208 79.87906976754311,50.71290950613911 80.18604651163332,51.13395228382433 80.26976744190324,51.3606673925824 80.60465116275009,51.87887274287641 80.99534883734304,52.785730054893065 81.49767441861331,53.627809507539496 81.97209302324336,54.56704931874992 82.05581395339686,54.85853696678532 82.2232558139367,55.1176368718734 82.61395348829683,55.9273227021331 83.06046511640307,56.73700645173085 83.1720930231968,57.09326664239052 83.33953488373663,57.222815702698426 83.39534883724991,57.417139193363255 83.31162790709641,57.643849780986784 83.42325581389014,57.7733986149542 83.8139534884831,58.77740027217078 84.2604651163565,59.651850721944356 84.65116279083304,60.591072575887665 85.04186046519317,61.53029163024621 85.40465116279665,62.43712116408278 85.79534883715678,63.570654411421856 86.1581395349931,64.60702409764053 86.49302325583994,65.57861758279614 86.74418604653329,66.45304915789166 86.82790697668679,66.80929836328141 87.27441860479303,66.97122968707117 88.16744186053984,66.55020807206165 88.92093023261987,66.12918589447509 89.70232558134012,65.83770867274143 90.1209302325733,65.61100398065173 90.4837209302932,65.48145836906042 91.40465116291307,64.99566185116419 92.3255813953001,64.54225109209074 93.07906976749655,64.21838586477679 93.58139534888323,63.92690687556751 93.83255813946016,63.86213373020291 94.05581395351328,63.700200808641966 94.27906976744998,63.63542761671124 94.58604651177302,63.408721340063494 95.56279069767334,63.02008162913262 96.59534883720335,62.53428131653345 97.40465116279665,62.14564052710193 98.18604651163332,61.82177283643978 98.9674418605864,61.53029163024621 99.41395348845981,61.4331311682472 100.41860465123318,60.97971528279595 100.78139534895308,60.91494153151871 101.53488372103311,60.62345948640723 102.17674418608658,60.429137973173056 102.42790697689634,60.234816340118414 103.01395348843653,60.00810761671164 103.26511627924629,60.072881554369815 103.7953488372732,59.943333665898535 104.8279069768032,59.61946371148224 105.69302325579338,59.36036750837229 106.72558139532339,59.13365815585712 107.6744186046999,58.93933572381502 108.65116279083304,58.74501317189424 109.60000000009313,58.5183033766225 110.6046511628665,58.32398056506645 111.77674418617971,58.16204479735461 112.36279069783632,58.064883296668995 113.06046511651948,58.03249612316722 113.39534883724991,57.96772176612285 114.34418604662642,57.87056020548334 115.34883720939979,57.80578581511509 115.60000000020955,57.80578581511509 116.54883720946964,57.708624204591615 117.49767441872973,57.676236994419014 118.47441860474646,57.643849780986784 119.39534883736633,57.579075344023295 120.4837209302932,57.61146256420761 120.73488372098655,57.54668812057935 121.20930232561659,57.643849780986784 121.37674418615643,57.579075344023295 121.51627906982321,57.15804117923835 121.51627906982321,56.96371752876439 121.60000000009313,56.7046191416739 121.57209302333649,55.862547912372975 121.46046511642635,55.473898893542355 121.46046511642635,54.56704931874992 121.4325581395533,54.1783987020317 121.46046511642635,53.95168562087929 121.29302325588651,52.91528088640189 121.09767441870645,51.976036151114386 120.84651162812952,51.10156439774437 120.56744186067954,50.162314255489036 120.37209302338306,49.44977779703913 120.00930232566316,48.51052273041569 119.56279069778975,47.571264863567194 119.39534883736633,47.21499390574172 119.25581395369954,46.7939458907058 118.89302325586323,46.2109554024355 118.61395348852966,45.56318692790228 118.36279069783632,45.20691369922133 117.97209302335978,44.42958889264264 117.52558139548637,43.58748485459364 117.44186046521645,43.328375466924626 117.21860465116333,43.036877151113 116.6046511628665,42.58343479037285 115.7953488372732,42.25954699021531 115.20930232561659,42.03282533201855 115.04186046519317,41.8708811904944 114.8465116280131,41.320270486787194 114.42790697677992,41.02877031292883 113.98139534890652,41.12593706752523 113.84186046523973,41.223103792144684 114.0372093024198,41.06115923443576 113.45116279087961,41.51460378622869 112.75348837219644,41.773714665701846 112.53023255814333,42.03282533201855 112.33488372107968,42.16238058524323 111.6930232559098,42.389102150220424 111.33023255818989,42.71298981711152 110.88372093031649,42.745378565537976 110.68837209313642,42.874933525774395 110.57674418622628,43.036877151113 110.57674418622628,43.036877151113" stroke="#4dd2ff" stroke-linecap="round" stroke-linejoin="round" stroke-width="0.5"><title>2024-07-03 3.3km</title><desc>9223370316842663807</desc></polyline><polyline fill="none" points="146.04970873799175,39.99795981220086 145.8539805825567,39.77080018311972 145.60233009711374,40.095313888945384 145.2947572816629,40.2575706167554 145.238834951655,40.095313888945384 145.1829126214143,39.44628614370595 144.9033009710256,39.12177177055855 145.2947572816629,38.76480557495961 144.51184466015548,37.85616252786713 144.40000000002328,38.083323534810916 144.6236893205205,38.959514458983904 144.76349514571484,39.0893203150772 145.04310679621994,39.86815432991716 145.0710679612821,40.2575706167554 145.1829126214143,40.61453512433218 145.21087378647644,40.87414542172337 145.4625242719194,41.29601169965463 145.6302912621759,41.360914153949125 145.77009708748665,41.490719022462144 145.4625242719194,41.91258447637665 145.1829126214143,42.10729141882621 144.6236893205205,42.72386261075735 144.65165048546623,42.88611798742204 144.5677669903962,43.01592222871841 144.9033009710256,43.56758965877816 145.4625242719194,44.151707063254435 145.6302912621759,44.50866716715973 145.8539805825567,44.670921626500785 145.99378640775103,44.96297944302205 146.1895145631861,45.190135335724335 146.3572815534426,45.70934819095419 146.69281553395558,46.32591234735446 146.77669902914204,46.52061656763544 146.94446601939853,46.71532066780492 147.05631067976356,46.91002464786288 147.22407767002005,47.59148763245321 147.72737864090595,48.30539965751814 147.9231067962246,48.46765216530184 148.28660194168333,49.408715066092554 148.4264077669941,49.6358677597309 148.6500970874913,50.09017265660805 148.76194174750708,50.219973935658345 148.8178640777478,50.44712604559027 149.0415533981286,50.90142977517098 149.0974757281365,51.128581394732464 149.2652427185094,51.42063323679031 149.3211650485173,51.64778448274592 149.54485436913092,51.87493556542904 149.57281553396024,52.36168733480736 149.74058252433315,52.55638783235918 150.13203883497044,53.36763861318468 150.57941747573204,54.34113679846632 150.9988349515479,55.21728259851807 151.41825242724735,56.2556744722242 151.7817475728225,57.19671415761695 152.0613592233276,58.17020053556189 152.396893203957,59.04633570936858 152.70446601952426,59.954917765862774 152.98407767002936,60.863497207465116 153.09592233016156,61.317785947729135 153.067961164983,61.54493007279234 153.2357281553559,62.06411603069864 153.26368932041805,62.291259618796175 153.43145631079096,62.48595399281476 153.37553398066666,62.97268940260983 153.45941747585312,63.264730288181454 153.7949514563661,64.2381979561469 153.99067961180117,65.08186750719324 154.1304854369955,65.76329126799828 154.38213592243847,65.8606373994553 154.6897087378893,66.89899426788907 154.77359223307576,67.1261343776132 154.7456310678972,67.32082577020628 155.0252427185187,68.35917783656623 155.0252427185187,68.58631689587492 155.10912621370517,68.81345579176559 154.9693203883944,68.97569776023738 154.9133980582701,69.39752648808644 154.94135922333226,69.6571131174569 155.2489320388995,70.04649266114575 155.66834951471537,70.14383747216198 156.6469902911922,70.07894093487994 157.17825242725667,70.11138920520898 158.12893203890417,69.98159610392759 158.38058252434712,69.94914782023989 158.4924271844793,69.72200974135194 158.4924271844793,69.42997482838109 158.6601941747358,69.46242316541611 158.91184466029517,69.39752648808644 159.83456310688052,69.36507814435754 160.08621359220706,69.42997482838109 161.03689320385456,69.20283637600369 161.79184466029983,69.26773309335113 162.21126213599928,69.20283637600369 162.65864077676088,69.04059452429647 163.58135922334623,68.74855898102396 164.00077669904567,68.65121373988222 164.92349514563102,68.74855898102396 165.59456310677342,68.84590419207234 166.26563106803223,68.81345579176559 166.9087378642289,68.55386846879264 167.10446601943113,68.52142003836343 167.3001941748662,68.39162628358463 168.16699029132724,68.35917783656623 168.6982524272753,68.32672938614269 169.70485436893068,68.03469318264979 170.0403883495601,67.87245073064696 171.13087378651835,67.93734772145399 172.19339805818163,67.54796557649388 172.58485436893534,67.45061996526783 173.3398058252642,67.54796557649388 173.53553398069926,67.64531115774298 174.43029126210604,67.38572287440184 174.6260194175411,67.35327432394843 174.2345631069038,66.37981626050896 174.0667961165309,66.02288088525529 174.03883495146874,65.7957399818988 173.7312621359015,64.95207233837573 173.4516504855128,64.07595355328522 173.1161165049998,63.19983233700623 173.1161165049998,63.00513840318308 173.70330097095575,63.00513840318308 173.9549514562823,63.102485385054024 174.4023300971603,63.68656664612354 174.8497087379219,64.30309569399105 175.129320388427,64.56268651175196 175.8563106796937,64.88717473394354 176.66718446614686,64.78982830228051 177.701747572748,64.49778882731334 177.9254368932452,64.49778882731334 178.76427184476051,64.88717473394354 179.35145631083287,65.04941871998017 180.41398058249615,65.01696992939105 181.2807766990736,64.69248184066964 181.86796116514597,64.43289112957427 182.4551456311019,64.01105576878763 182.73475728160702,63.68656664612354 182.9025242718635,63.00513840318308 182.81864077667706,62.453504938748665 182.34330097096972,62.06411603069864 181.92388349527027,61.869421396550024 182.11961165058892,61.7396249070589 182.67883495159913,61.7396249070589 183.68543689337093,61.577379220194416 184.63611650490202,61.4475826107373 185.05553398060147,61.25288759637624 185.53087378642522,60.66880183291505 185.83844660199247,60.11716428643558 186.1460194174433,59.695323159277905 186.62135922338348,59.37082960107364 186.92893203883432,58.364897450985154 187.04077669908293,57.326512514817296 187.09669902909081,56.87221803117427 187.23650485440157,56.190775080176536 187.37631067971233,55.80137844776618 187.40427184465807,55.509330658242106 187.54407766996883,55.28218219065457 187.59999999997672,54.50338620413095 187.57203883491457,54.27623701284756 187.43223300972022,53.9517378845776 187.20854368933942,53.757038247567834 186.76116504857782,53.69213834186667 185.72660194174387,53.821938139852136 184.71999999997206,53.98418781242799 183.54563106806017,54.11398749041837 182.39922330109403,54.11398749041837 181.92388349527027,54.24378711497411 181.4485436893301,54.27623701284756 181.19689320388716,54.211337213841034 180.41398058249615,54.37358668624074 179.5471844660351,54.73053523202543 178.9879611650249,54.92523426859407 177.9254368932452,55.02258374195662 177.39417475729715,55.0874833741982 177.1425242718542,55.184832797473064 176.72310679615475,55.15238299302291 176.47145631082822,55.249732396245236 175.52077669918071,55.44443111275905 175.0174757281784,55.57423019036651 174.31844660209026,55.70402921453933 173.9549514562823,55.93117737857392 173.03223300981335,56.190775080176536 172.86446601944044,56.190775080176536 172.69669902918395,56.2556744722242 172.52893203881104,56.2556744722242 172.30524271854665,56.28812416328583 171.9417475728551,56.5152719070029 171.74601941753644,56.937117283261614 171.7739805825986,57.16426456003683 172.13747572817374,57.94305398254073 172.6128155339975,58.72184148404631 173.08815533982124,59.5979751269042 173.70330097095575,60.44165707755019 174.15067961171735,60.8959464248328 174.70990291272756,61.220438415621174 175.54873786401004,61.609828364278655 175.94019417476375,61.836972279212205 176.89087378652766,62.1939123866905 177.42213592247572,62.38860682075028 178.4287378641311,62.583301134756766 178.73631067958195,62.55085209081881 179.79883495147806,62.226361467444804 180.833398058312,61.93431962127215 181.72815533995163,61.77207403437933 182.76271844666917,61.64227750495775 183.65747572819237,61.480031768092886 183.90912621363532,61.4475826107373 184.41242718452122,61.4475826107373 184.91572815540712,61.350235118559795 185.33514563110657,61.05819246196188 185.75456310680602,60.376758546044584 185.86640776705462,60.052265688136686 186.67728155350778,59.111234514421085 186.90097087388858,58.299998492526356 186.84504854376428,58.07285203287029 186.95689320389647,57.521209950442426 186.95689320389647,57.326512514817296 187.04077669908293,57.09936535477755 187.04077669908293,57.09936535477755" stroke="#4dd2ff" stroke-linecap="round" stroke-linejoin="round" stroke-width="0.5"><title>2024-07-02 4.3km</title><desc>9223370316930743707</desc></polyline><polyline fill="none" points="12.579875086783431,91.19723156711552 12.429979181149974,91.26681683026254 12.400000000023283,91.44077992555685 12.639833448920399,92.0322537807806 12.819708535680547,92.44976411500829 13.359333795844577,93.35436807243968 13.569188063731417,93.80666914454196 13.71908396948129,94.25896961221588 14.228730048635043,95.16356873439508 14.25870922964532,95.4766986364557 14.3786259542685,95.78982824875857 14.648438584292307,96.06816543886089 14.678417765302584,96.45087870146381 14.978209576685913,97.00755176556413 15.068147120065987,97.28588795420364 15.278001387952827,97.52943193149986 15.697709923610091,98.46881420264253 16.11741845938377,99.44298565603094 16.477168632787652,100.48673767352011 16.806939625297673,101.4261117373826 17.19666897994466,102.46985763972043 17.496460790978745,103.44401757826563 17.886190145742148,104.45296598764253 18.215961138135754,105.46191138960421 18.45579458703287,106.40127164681326 18.545732130412944,106.57522696399246 18.725607217173092,106.67960011129617 18.57571131165605,106.57522696399246 18.845523941679858,106.54043590775109 19.624982650973834,106.26210732880281 20.644274809164926,105.74024062650278 21.573629423975945,105.28795550044742 22.32310895214323,104.94004345379653 22.802775850053877,104.73129605411668 22.982650936814025,104.59213104940136 23.912005551625043,104.24421828766936 24.421651630778797,104.03547045885352 25.351006245589815,103.54839169117622 26.28036086051725,103.0961036364024 26.87994448293466,102.85256366431713 27.179736294201575,102.67860643399763 28.079111728002317,102.2611087168043 28.378903539152816,102.0871511825244 29.338237335090525,101.70444429272902 30.207633587764576,101.32173697015969 31.166967383702286,100.8694459401595 31.4667591949692,100.83465429738862 32.30617626640014,100.41715430578915 33.35544760583434,100.06923725278466 33.595281054847874,99.93007033140748 33.8051353226183,99.96486206707777 34.70451075641904,99.58215277772979 34.91436502430588,99.51256922396715 34.4946564885322,99.44298565603094 34.34476058289874,99.26902667357353 34.164885496138595,99.19944305560784 34.01498959050514,99.12985942329396 34.164885496138595,99.26902667357353 34.31478140177205,99.26902667357353 34.374739764025435,99.47777744184714 34.58459403179586,99.47777744184714 34.794448299799114,99.5473610026529 35.18417765432969,99.5473610026529 35.334073559963144,99.68652808130719 35.45399028446991,99.8952785920992 35.63386537123006,100.06923725278466 35.81374045799021,100.13882069190731 36.26342817489058,101.07819572134758 36.77307425404433,101.91319355907035 37.192782789701596,102.748189336824 37.64247050660197,103.61797441510134 38.152116585639305,104.73129605411668 38.39195003476925,105.39232904469827 38.691741845803335,105.98377852106933 39.08147120056674,106.8883463095408 39.50117973634042,107.86249353236053 39.8609299097443,108.94101040181704 40.190700902137905,109.91515171760693 40.490492713288404,110.92408083943883 40.82026370568201,112.07216894102748 41.03011797356885,112.62881631581695 41.09007633582223,112.80276843285537 41.5397640527226,112.66360674641328 41.809576682862826,112.73318759675021 42.1993060373934,112.62881631581695 42.67897293542046,112.52444500284037 43.54836918809451,111.93300695423386 44.02803608600516,111.75905439030612 44.74753643304575,111.68947333973483 44.95739070093259,111.61989227493177 45.9167244968703,111.51552065071883 46.936016655061394,111.20240558523801 47.055933379451744,111.51552065071883 46.9060374739347,111.13282442031777 46.965995836188085,111.34156787229585 46.756141568301246,111.48073010219377 45.73684941011015,111.75905439030612 44.567661346285604,112.03737844966236 43.428452463587746,112.35049274281482 42.46911866753362,112.52444500284037 41.62970159610268,112.69839717334253 41.41984732809942,112.5592354440887 41.12005551694892,111.58510173705872 41.09007633582223,111.34156787229585 40.76030534342863,110.3674306612811 40.46051353239454,109.35849988050177 40.07078417763114,108.31477521851775 40.01082581537776,108.07123900105944 40.13074253988452,107.9668662827753 40.5504510756582,107.9668662827753 40.97015961143188,108.17561168721295 41.41984732809942,108.90621958876727 41.00013879244216,108.2799843409739 40.70034698129166,108.03644809848629 39.980846634251066,107.9668662827753 39.80097154749092,107.79291168073541 39.411242192960344,106.78397322658566 39.02151283819694,105.84461403134628 38.60180430242326,104.87046100146836 38.09215822338592,103.7919311626465 37.8823039556155,103.0961036364024 37.40263705747202,102.22631721702055 36.89299097843468,101.21736217074795 36.533240804914385,100.55632102690288 36.50326162390411,100.3127792274463 36.62317834829446,100.2084041168564 37.10284524632152,100.2779875274573 38.182095766766,100.83465429738862 38.331991672399454,100.93902921487461 38.72172102704644,101.04340410014265 38.5718251215294,101.46090331938467 38.63178348366637,101.84361048450228 39.11145038169343,102.67860643399763 39.65107564185746,103.72234847437358 40.25065926439129,104.76608729621512 40.79028452467173,105.49670255678939 41.32990978471935,105.87940515912487 42.16932685626671,106.33168949498213 42.5890353921568,106.54043590775109 43.03872310882434,106.71439115336398 43.308535738964565,106.85355528540094 44.26786953501869,107.2014653654478 45.227203331072815,107.54937508783769 45.94670367799699,107.54937508783769 46.48632893816102,107.41021124183317 47.175850104074925,107.1666743735841 48.13518390012905,106.95792834699387 49.06453851494007,106.71439115336398 49.754059680737555,106.6448090657359 49.93393476761412,106.71439115336398 50.923247744562104,106.50564484784263 52.03247744613327,106.36648057270213 52.781956974300556,106.2273162403144 53.26162387232762,105.705449484376 53.741290770238265,104.73129605411668 53.98112421913538,104.34859215366305 54.190978487138636,104.17463569229585 54.49077029840555,104.10505308269057 54.67064538504928,103.82672250134056 54.70062456629239,103.37443481848459 54.790562109672464,103.23526925596525 54.85052047180943,102.12194269656902 54.910478834062815,101.808818941965 55.03039555856958,101.53048647241667 55.120333101949655,100.90423757926328 55.39014573208988,99.82569510285975 55.570020818850026,99.33861027739476 55.59999999997672,98.57318984958692 55.48008327546995,98.19047898674035 55.06037473981269,97.98172742454335 53.83122831361834,98.08610322169261 52.72199861204717,98.29485471948283 51.76266481599305,98.39923042012379 50.68341429566499,98.46881420264253 50.35364330327138,98.5383979708422 49.993893129751086,98.5036060885759 49.39430950721726,98.5383979708422 49.094517695950344,98.57318984958692 48.70478834141977,98.57318984958692 48.045246356748976,98.74714918975951 47.685496183112264,98.88631659737439 46.69618320616428,99.09506760170916 45.70687022898346,99.40819386672229 45.40707841783296,99.47777744184714 46.27647467027418,99.30381847714307 47.29576682858169,98.95590027989238 48.225121443509124,98.67756546442979 49.454267869587056,98.60798172478098 50.08383067313116,98.5383979708422 50.41360166540835,98.57318984958692 50.743372657801956,98.46881420264253 51.82262317824643,98.4340223131585 52.60208188754041,98.32964662325685 52.871894517564215,98.32964662325685 53.56141568347812,98.19047898674035 54.58070784166921,98.08610322169261 55.18029146420304,98.22527090119547 55.39014573208988,98.4340223131585 55.51006245648023,99.16465124121169 55.48008327546995,99.93007033140748 55.27022900769953,100.62590436602477 55.120333101949655,100.93902921487461 54.940458015189506,101.94798509089742 54.82054129068274,102.99172938402626 54.730603747302666,103.65276577169425 54.85052047180943,103.47880895272829 54.82054129068274,103.16568645331427 54.910478834062815,102.19152571383165 54.97043719643261,101.91319355907035 55.06037473981269,101.66965273578535 55.150312283076346,100.97382084696437 55.3002081887098,100.73027934780112 55.39014573208988,100.2779875274573 55.09035392093938,101.49569489769056 54.88049965305254,102.43506616156083 54.790562109672464,103.47880895272829 54.64066620392259,103.86151383651304 54.43081193615217,104.10505308269057 54.250936849275604,104.20942699175794 53.44149895908777,104.31380086857826 52.30229007627349,104.69650480835116 51.2829979180824,104.55733978931676 51.07314365019556,104.55733978931676 50.77335183904506,104.38338343525538 50.77335183904506,104.17463569229585 51.70270645385608,103.75713982025627 52.122414989513345,103.61797441510134 52.81193615542725,103.02652080499684 53.201665510074235,102.46985763972043 53.47147814009804,101.21736217074795 53.6213740457315,100.2779875274573 53.56141568347812,99.96486206707777 53.44149895908777,99.86048684926936 52.93185288005043,99.68652808130719 52.242331714136526,99.86048684926936 51.85260235937312,100.06923725278466 51.10312283132225,100.24319582400494 50.02387231087778,100.3127792274463 49.00458015257027,100.34757092379732 48.70478834141977,100.45194599142997 48.31505898677278,100.48673767352011 47.98528799449559,100.69548769079847 47.65551700198557,100.66069603015785 46.66620402492117,100.97382084696437 45.586953504476696,101.18257056371658 44.89743233867921,101.28694537389674 44.11797362950165,101.25215377411223 43.758223455864936,101.18257056371658 42.738931297673844,101.39132015180076 42.43913948640693,101.49569489769056 42.16932685626671,101.53048647241667 41.86953504499979,101.66965273578535 41.5397640527226,101.73923584603472 41.26995142258238,101.94798509089742 41.12005551694892,102.2611087168043 41.180013879202306,102.64381497728755 41.44982650934253,102.81777222533128 41.689659958239645,103.0961036364024 41.98945176950656,103.30485204441356 42.229285218636505,103.58318305492867 43.12866065232083,104.20942699175794 43.48841082572471,104.31380086857826 44.507702983915806,104.8008785348793 45.377099236589856,105.14879072466283 45.766828591236845,105.21837311962736 46.546287300414406,105.25316431175452 47.77543372660875,104.97483467453276 48.19514226226602,104.76608729621512 48.584871616913006,104.69650480835116 48.91464260930661,104.5225485257397 50.053851491888054,104.24421828766936 50.323664122028276,104.20942699175794 50.5934767521685,104.07026177254738 50.923247744562104,104.03547045885352 52.092435808386654,103.51360032375669 52.39222761965357,103.33964343328262 52.72199861204717,103.02652080499684 53.171686328947544,102.29590021283366 53.41151977784466,101.25215377411223 53.56141568347812,100.41715430578915 53.41151977784466,100.06923725278466 53.02179042331409,99.8952785920992 51.85260235937312,100.10402897410677 50.5934767521685,100.24319582400494 49.754059680737555,100.38236261656857 49.18445523933042,100.41715430578915 48.43497571116313,100.5911126982246 48.10520471888594,100.62590436602477 47.32574600959197,100.7998626511253 47.08591256069485,100.90423757926328 45.88674531574361,101.11298733908916 44.687578070675954,101.25215377411223 43.84816099924501,101.18257056371658 42.67897293542046,101.35652856275556 42.28924358077347,101.49569489769056 41.8995142262429,101.53048647241667 41.5397640527226,101.66965273578535 41.20999306044541,101.8784020235762 41.06009715469554,102.22631721702055 41.12005551694892,102.50464911441668 41.44982650934253,102.88735509957769 42.1993060373934,103.61797441510134 42.70895211654715,104.03547045885352 43.39847328234464,104.38338343525538 44.2978487162618,104.76608729621512 45.227203331072815,105.14879072466283 45.586953504476696,105.32274668541504 45.88674531574361,105.28795550044742 46.45634975715075,105.35753786680289 47.08591256069485,105.21837311962736 47.77543372660875,105.00962589166011 48.73476752254646,104.66171355886036 49.424288688460365,104.38338343525538 50.11380985437427,104.38338343525538 51.2829979180824,104.66171355886036 52.03247744613327,104.69650480835116 52.51214434416033,104.6269223059644 53.14170714770444,104.34859215366305 53.6213740457315,104.34859215366305 53.861207494861446,104.41817471318063 53.65135322685819,105.18358192400774 53.14170714770444,105.91419628329459" stroke="#4dd2ff" stroke-linecap="round" stroke-linejoin="round" stroke-width="0.5"><title>2024-06-29 6.8km</title><desc>9223370317186179507</desc></polyline><polyline fill="none" points="78.70877192984335,87.92695332868607 78.68070175440516,88.15499885173631 78.90526315791067,88.90429012913955 79.01754385966342,89.09975712746382 79.24210526316892,89.94677939379471 79.32631578948349,90.27255658560898 79.18596491229255,90.663488773891 78.96140350878704,90.9241099646897 78.51228070177604,91.2173085481918 78.40000000002328,91.54308443400078 78.68070175440516,91.9014375215047 79.12982456129976,92.65071994045866 79.52280701743439,93.46515534294304 80.02807017543819,94.34474322668393 80.50526315788738,95.15917427558452 80.58947368420195,95.3872145942878 80.78596491226926,95.8758718672907 81.26315789471846,96.6902989812952 81.68421052617487,97.60245486424537 82.16140350862406,98.41687754113809 82.5543859647587,99.3616052242869 82.94736842100974,100.24117674256559 83.17192982463166,100.63209663386806 83.284210526268,101.08816923084669 83.7614035087172,101.93515945549007 84.18245614029001,102.87987665092805 84.57543859642465,103.75943840490072 84.94035087712109,104.671573941916 85.30526315781754,105.6814352243091 85.6701754386304,106.65871727265767 85.97894736833405,107.63599630750832 86.31578947370872,108.61327232900658 86.568421052536,109.32993949620868 86.62456140352879,109.78599957714323 86.70877192984335,110.07918071121094 87.04561403498519,110.30721029461711 87.2982456140453,110.27463464986067 88.14035087719094,109.81857527207467 89.06666666665114,109.3625152380846 89.8807017543586,108.97160611511208 90.61052631575149,108.61327232900658 91.5649122807663,108.18978642302682 92.40701754379552,107.79887585365213 93.30526315781754,107.37538885945105 93.75438596482854,107.24508505518315 94.568421052536,106.82159732101718 95.38245614035986,106.39810902104364 95.85964912280906,106.20265269180527 96.11228070175275,106.03977232525358 97.1789473684039,105.55113072358654 98.1052631578641,105.16021689970512 98.91929824557155,104.76930259374785 99.17192982463166,104.70415016252082 100.12631578953005,104.21550650161225 101.22105263150297,103.98747253528563 102.14736842107959,103.69428576613427 102.3719298245851,103.62913311389275 102.54035087709781,103.69428576613427 102.62456140352879,103.92231994334725 103.21403508761432,104.80187880428275 103.71929824561812,105.6488591041416 103.88771929824725,105.94204406518838 104.30877192982007,106.78902131799259 104.72982456139289,107.66857222348335 105.1228070174111,108.51554486242821 105.54385964910034,109.3625152380846 105.8807017543586,110.2420590017864 106.27368421049323,111.15417588243145 106.66666666662786,112.35946916296962 107.00350877200253,113.20642926680739 107.31228070170619,114.02081184778945 107.5087719297735,114.60716601042077 107.90175438602455,114.86776751221623 108.21052631584462,115.74729599920101 108.29473684215918,115.94274644268444 108.43508771935012,116.07304667131393 108.63157894741744,116.07304667131393 108.85614035080653,115.9753215048404 109.47368421056308,115.8450212359894 110.3719298245851,115.32381962492946 111.32631578948349,114.9980681828165 112.25263157894369,114.86776751221623 113.17894736852031,114.63974120983039 113.45964912278578,114.5745908075769 113.6280701754149,114.8026171568199 114.6105263158679,114.44428996293573 114.77894736838061,114.21626335589099 114.66666666662786,113.92308604851132 114.69473684218246,113.5973331668356 115.5087719297735,113.17385392010328 116.35087719291914,112.6852233169484 116.68771929829381,112.13144105602987 116.82807017536834,111.57765782764181 116.80000000004657,111.3170536206162 116.65964912273921,111.0564491992991 116.37894736835733,110.86099574278342 115.9859649122227,110.7306933713844 115.81754385970999,110.60039094649255 115.92982456146274,110.43751283999882 116.09824561397545,110.3397859359975 117.05263157887384,110.27463464986067 117.95087719301227,110.14433203745284 118.68070175440516,110.01402937143575 118.90526315791067,109.88372665195493 119.27017543860711,109.557969618676 119.7754385964945,108.74357557081385 119.97192982456181,108.35266568456427 120.4771929824492,107.96175531615154 120.67368421051651,107.57084446557565 120.81403508782387,106.65871727265767 120.89824561402202,106.1375005551381 120.87017543858383,105.87689187508659 121.03859649109654,105.02991218460375 121.37543859647121,104.11777767897001 121.4035087719094,103.75943840490072 121.59999999997672,103.04275864138617 121.54385964910034,102.74957099827589 121.4035087719094,102.52153597725555 121.12280701752752,102.42380663222866 120.36491228069644,102.42380663222866 119.38245614035986,102.55411241887487 118.84912280703429,102.65184172365116 118.568421052536,102.61926529204356 117.58596491219942,102.74957099827589 117.36140350881033,102.78214741652482 116.40701754379552,102.78214741652482 115.45263157901354,102.8147238312813 114.75087719294243,102.94502945715794 113.71228070172947,103.27079328737454 113.51578947366215,103.43367507698713 112.56140350876376,103.62913311389275 112.05614035099279,103.69428576613427 111.88771929824725,103.75943840490072 110.98947368422523,103.82459103033761 109.8947368421359,103.9548962409317 108.88421052636113,104.21550650161225 108.68771929829381,104.24808276907424 108.68771929829381,104.24808276907424" stroke="#4dd2ff" stroke-linecap="round" stroke-linejoin="round" stroke-width="0.5"><title>2024-06-26 3.2km</title><desc>9223370317445915207</desc></polyline><polyline fill="none" points="145.69882352941204,88.97472002348513 145.04941176471766,88.97472002348513 144.59764705889393,87.99163297037012 144.79529411776457,87.33623991708737 144.8235294118058,87.86055446759565 144.6541176470928,87.9260937255749 144.54117647057865,88.05717220160295 144.42823529418092,88.5159464426979 144.76705882349052,89.10579806819442 144.76705882349052,89.63010970785399 144.85176470596343,89.99057345985784 145.19058823538944,90.35103680420434 145.27529411762953,90.54765300199506 145.02117647056002,90.84257707142388 144.85176470596343,91.2685780232423 144.62588235281873,91.33411658060504 144.45647058822215,91.56350142561132 144.40000000002328,91.85842455495731 144.42823529418092,92.54657746266457 144.79529411776457,92.90703791656415 145.2470588234719,93.59518856040086 145.67058823537081,94.51272044124198 145.78352941176854,94.80764084219118 146.26352941174991,95.29917423715233 146.7435294117313,96.34777628016309 146.85647058836184,96.64269498316571 147.02588235307485,96.9048447124078 147.33647058834322,97.23253157085855 147.53411764698103,97.6912926066725 147.70352941169403,97.88790427707136 147.90117647056468,98.47773856058484 148.09882352943532,98.70711826506886 148.55058823525906,99.72294068647898 148.52235294121783,99.9195511037833 148.72000000008848,100.14892977074487 148.7482352941297,100.34553992527071 149.1717647059122,101.03367451156373 149.22823529411107,101.49243007725454 149.31294117646758,101.68903940319433 149.51058823533822,101.88564860791666 149.56705882353708,102.08225769142155 149.96235294116195,102.90146090093185 150.30117647058796,103.75343000565772 150.64000000013039,104.63816474284977 150.97882352943998,105.58843265168252 151.37411764706485,106.5386977280723 151.62823529413436,107.25958658609306 151.68470588244963,107.5217275849136 151.79764705873094,107.75110078204307 151.825882353005,107.98047381412471 152.19294117647223,108.93073176048347 152.44705882354174,109.81545212990022 152.64470588241238,110.47079896883224 152.7576470588101,110.73293732720776 153.18117647059262,110.83123915604665 154.19764705887064,110.37249702890404 155.04470588243566,110.01205632305937 155.86352941184305,109.5533130170952 156.0611764707137,109.42224337995867 156.512941176421,109.22563882300165 156.71058823529165,109.09456905114348 156.96470588236116,109.0618015996879 157.35999999998603,108.86519682061044 157.44470588234253,108.73412690055557 158.29176470590755,108.40645186448819 159.30823529418558,108.0132413766114 160.18352941179182,107.58726280086557 161.11529411771335,107.1285160058469 162.04705882363487,106.70253624793258 162.97882352932356,106.27655592095107 163.995294117718,105.91611058419221 165.0117647058796,105.45736138444045 165.23764705879148,105.32629006323987 165.52000000013504,105.26075438241241 165.68941176484805,105.16245083592366 165.9152941177599,105.1296829803614 166.4800000000978,104.90030789721641 166.7341176471673,104.86754001461668 167.77882352948654,104.44155723560834 168.23058823531028,104.310485496826 168.40000000002328,104.21218165729078 168.6541176470928,104.310485496826 168.96470588236116,104.86754001461668 169.35999999998603,105.29352222447051 169.78352941188496,106.24378817985416 170.2352941177087,107.03021303538117 170.4894117647782,107.42342473569443 170.88470588240307,108.43921938320273 171.30823529418558,109.29117368880543 171.6752941176528,110.17589305803995 172.12705882359296,111.25721339741722 172.46588235301897,112.17469444556627 172.8329411764862,113.19047395483358 173.20000000006985,114.14071637249435 173.51058823533822,115.15648961797706 173.65176470601,115.48415771653526 174.10352941183373,115.64799163950374 174.32941176462919,116.4343932979682 174.44235294125974,116.59822673263261 174.64000000013039,116.66376008294174 175.60000000009313,116.46715999161825 175.96705882356036,116.13949290339951 176.6729411764536,115.77905871733674 177.54823529405985,115.68075841406244 178.169411764713,115.54969129583333 179.0729411765933,115.28755689781974 179.27058823534753,115.25479008295224 179.46823529421818,115.25479008295224 179.60941176477354,115.41862412376213 179.86352941184305,115.35309051754302 180.06117647059727,115.35309051754302 180.4000000001397,115.15648961797706 180.62588235293515,115.09095595782856 180.71058823529165,114.92712174865301 180.62588235293515,114.43561861588387 180.62588235293515,114.23901715059765 181.47294117650017,113.9441147253383 182.20705882355105,113.48537707724608 182.6588235294912,112.99387172178831 182.80000000004657,112.20746157708345 182.7435294118477,111.94532443102798 182.63058823533356,111.71595425152918 182.4894117647782,111.48658390698256 182.29176470590755,111.38828228015336 182.00941176479682,111.28998062311439 181.86823529424146,111.12614446066436 182.8282352942042,110.86400642554509 183.8164705883246,110.76570460677613 184.63529411761556,110.63463546807179 185.03058823535684,110.53633357855142 185.482352941297,110.01205632305937 185.96235294127837,109.09456905114348 186.38588235306088,108.76689438562607 186.5835294118151,108.5375219192938 186.78117647068575,107.91493867893587 186.8941176471999,106.89914236080949 186.97882352943998,106.73530394188128 187.06352941179648,106.04718166281236 187.34588235302363,104.99861152443918 187.51529411773663,104.310485496826 187.59999999997672,104.08110982412472 187.5717647060519,103.39298181605409 187.487058823579,103.16360548327793 187.03529411775526,102.90146090093185 186.10352941183373,102.99976514454465 185.03058823535684,103.13083742230083 184.29647058830597,103.26190964615671 183.3929411766585,103.29467769368785 182.43294117646292,103.32744573790114 181.72705882356968,103.36021377865109 181.52941176481545,103.42574985016836 181.0776470588753,103.42574985016836 180.08941176487133,103.62235798378242 179.12941176467575,103.91726995704812 178.4800000000978,104.1466457475035 177.54823529405985,104.310485496826 176.64470588241238,104.47432516195113 175.656470588292,104.60539683341631 174.64000000013039,104.90030789721641 173.7647058822913,105.16245083592366 172.71999999997206,105.42459355914616 172.12705882359296,105.62120046012569 171.78823529416695,105.91611058419221 171.6752941176528,106.34209139292943 171.78823529416695,106.73530394188128 172.21176470606588,107.55449519457761 172.69176470604725,108.3736843423103 173.25647058838513,109.35670854113414 173.79294117656536,109.9792889659002 174.44235294125974,110.37249702890404 175.12000000011176,110.83123915604665 176.02352941175923,111.28998062311439 176.70117647072766,111.42104949240456 177.09647058835253,111.68318706945865 178.11294117651414,111.87979011086281 179.1576470588334,111.68318706945865 180.20235294115264,111.38828228015336 181.1623529411154,111.15891169986571 181.86823529424146,111.06060997210443 182.4894117647782,110.92954095455934 182.71529411769006,110.92954095455934 183.7600000000093,110.79847188311396 184.43764705897775,110.73293732720776 185.05882352951448,110.50356627537985 185.34117647062521,110.20866039488465 185.8211764706066,109.3239411166287 186.4988235294586,108.57028942456236 186.6682352941716,108.40645186448819 186.80941176472697,107.88217110632104 186.80941176472697,107.6200304038648 186.95058823539875,106.5386977280723 186.97882352943998,106.14548493654002 187.28941176470835,105.09691512142308 187.54352941177785,104.04834185747313 187.59999999997672,103.58958996998263 187.54352941177785,103.32744573790114 187.34588235302363,103.03253321908414 187.11999999999534,102.93422898548306 186.01882352947723,103.03253321908414 184.94588235300034,103.16360548327793 184.26823529426474,103.32744573790114 184.07058823527768,103.29467769368785 183.84470588236582,103.39298181605409 182.94117647060193,103.36021377865109 181.95294117648154,103.45851788084838 181.75529411772732,103.42574985016836 181.36000000010245,103.42574985016836 181.13411764719058,103.52405393213849 180.9082352941623,103.49128590821056 180.25882352958433,103.62235798378242 179.89176470588427,103.65512599432259 179.10117647063453,103.91726995704812 178.9035294118803,103.91726995704812 178.7341176471673,104.04834185747313 177.80235294124577,104.24494960720767 176.70117647072766,104.44155723560834 175.5717647059355,104.5726289206359 174.69647058832925,104.83477212878643 174.47058823530097,104.83477212878643 174.04705882363487,105.03137939350563 173.3976470589405,105.22798653697828 173.17176470602863,105.195218688139 172.3247058823472,105.45736138444045 171.95764705887996,105.65396826522192 171.8164705883246,105.81780723977135 171.7317647059681,106.27655592095107 171.7600000000093,106.5714654387557 172.1552941177506,107.22681894613197 172.38117647066247,107.68556559970602 172.55058823537547,107.91493867893587 172.63529411773197,108.20984668118763 173.08705882367212,109.02903414494358 173.45411764702294,109.58608041802654 173.45411764702294,109.58608041802654" stroke="#4dd2ff" stroke-linecap="round" stroke-linejoin="round" stroke-width="0.5"><title>2024-06-25 4.9km</title><desc>9223370317535602707</desc></polyline><polyline fill="none" points="13.853980582556687,139.68086893550935 14.049708737875335,139.48616075204336 13.853980582556687,139.68086893550935 12.931262135854922,138.90203548106365 12.903300971025601,138.02584554778878 12.73553398065269,137.92849096065038 12.679611650411971,138.15565161730046 12.567766990396194,138.28545763337752 12.511844660155475,138.5775209745916 12.59572815534193,139.42125799754285 12.707572815590538,139.5510634931852 12.903300971025601,140.0053823077178 12.875339805847034,140.23254146974068 12.931262135854922,140.49215174053097 13.294757281546481,141.14117648324464 13.266796116484329,141.5630418503133 13.154951456352137,141.7577487527742 12.567766990396194,142.04980888121645 12.427961165085435,142.2120643912058 12.400000000023283,142.471673033986 12.847378640784882,143.41275257404777 13.015145631041378,143.93196767105837 13.266796116484329,144.19157489936333 13.630291262175888,144.61343618991668 13.937864077626728,145.29490323751816 14.553009708761238,146.13862230593804 14.776699029142037,146.49557969442685 14.860582524328493,146.75518481439212 15.000388349406421,146.94988851429662 15.056310679763556,147.17704267901718 15.559611650416628,148.11810819164384 15.951067961053923,148.8969189080235 16.398446602048352,149.90287990649813 16.76194174750708,150.5843355357356 16.817864077631384,150.9412878974108 16.957669902942143,151.200889361382 17.181359223322943,151.42804046728997 17.23728155333083,151.6876415310544 17.23728155333083,151.94724238137132 17.37708737864159,152.0770427263924 17.572815533960238,152.49889347932185 17.9922330097761,153.27769338843063 18.383689320413396,154.2836404274276 18.831067961174995,155.25713451005868 19.13864077674225,156.10082695356687 19.47417475725524,157.00941629422596 19.78174757270608,157.85310405489872 20.08932038838975,158.85903651508852 20.424854368902743,159.7676179179689 20.732427184353583,160.87089182029013 20.844271844718605,161.06558681465685 21.0120388349751,161.19538341084262 21.2357281553559,161.19538341084262 21.766990291303955,160.87089182029013 22.717669902951457,160.44905225402908 23.612427184474654,159.92986432177713 24.56310679600574,159.5080234981724 25.3739805824589,159.18353017346817 25.569708737777546,159.15108082265942 26.3246601941064,158.7616883525916 27.30330097093247,158.30739653061028 28.170097087393515,157.9180030200223 28.449708737898618,157.75575558212586 28.701359223225154,157.65840707943426 29.51223300967831,157.23656322076567 30.351067961077206,156.84716838947497 30.77048543689307,156.65247079366236 31.02213592233602,156.65247079366236 31.41359223308973,156.39287381252507 32.22446601942647,156.03592761489563 33.23106796119828,155.61408158828272 34.15378640778363,155.2895842611033 34.99262135929894,155.02998615932302 35.80349514563568,154.70548823176068 36.278834951343015,154.6405886062712 36.50252427184023,154.3160902785894 36.92194174753968,154.21874071512138 37.62097087374423,154.15384098966024 38.655533980578184,153.82934216153808 39.66213592234999,153.6021927834663 40.08155339816585,153.50484300000244 40.69669902918395,153.37504324194742 40.920388349564746,153.37504324194742 41.815145631087944,153.0829935913207 42.93359223310836,152.88829367409926 43.912233009701595,152.6935936367663 44.9188349514734,152.5637935451523 45.310291262110695,152.46644344145898 45.673786407802254,152.46644344145898 46.12116504856385,152.3041932018241 47.015922330203466,152.23929308273364 47.6590291261673,152.10949280427303 48.6656310679391,152.0445926451648 49.1130097087007,152.0445926451648 50.06368932046462,151.91479228669778 50.67883495159913,151.91479228669778 51.71339805831667,151.84989208748448 52.77592232997995,151.78499187491252 53.83844660199247,151.78499187491252 54.48155339807272,151.81744198288652 54.789126213639975,151.7525417636498 55.43223300972022,151.81744198288652 55.59999999997672,151.94724238137132 55.51611650490668,152.14194287892315 55.59999999997672,152.36909330778872 55.572038834914565,152.5313435138669 55.18058252427727,152.5637935451523 55.12466019426938,152.75849366246257 55.23650485428516,152.95319365974865 55.23650485428516,153.11544356585364 55.040776699082926,153.31014334291103 54.90097087377217,153.2452434305451 54.090097087435424,153.2127934693999 53.22330097097438,153.3425932941318 52.328543689334765,153.47239306551637 51.32194174756296,153.63464270465192 50.2314563106047,153.73199244812713 49.97980582516175,153.7644423559832 49.75611650478095,153.73199244812713 48.74951456312556,153.82934216153808 47.770873786415905,154.02404149842914 47.547184466035105,154.15384098966024 46.540582524379715,154.38098997081397 45.478058252483606,154.6405886062712 44.49941747565754,154.8352874428092 43.5207766990643,154.93263681605458 42.514174757292494,155.1273354724981 41.507572815637104,155.45183296641335 40.64077669905964,155.6465313026565 40.221359223360196,155.74388042575447 39.63417475728784,156.06837728596292 39.52233009703923,156.23062559086247 39.494368932093494,156.45777307773824 39.494368932093494,156.68492040134151 39.997669902979396,157.65840707943426 40.08155339816585,157.88555353909032 40.5568932039896,158.72923895844724 41.116116504883394,159.60537143054535 41.4516504855128,160.02721212411416 42.150679611600935,160.5788491036801 43.10135922324844,161.06558681465685 43.9681553398259,161.454976443114 44.834951456286944,161.81191651400877 45.72970873792656,162.07150903937872 46.764271844760515,162.0066109279578 47.63106796122156,161.74701834929874 48.58174757286906,161.55232377516222 49.560388349578716,161.3576290809433 50.48310679604765,161.26028168894118 51.48970873793587,161.1304851193563 52.21669902920257,161.06558681465685 52.46834951452911,160.96823933246196 52.859805825166404,160.7410950907506 53.167378640850075,160.3841538092529 53.558834951603785,159.57292212318862 53.810485436813906,159.18353017346817 54.14601941744331,159.02128338598413 54.313786407816224,158.85903651508852 54.59339805820491,157.9180030200223 54.67728155339137,156.976966719958 54.70524271845352,156.49022270546993 55.012815534020774,155.5167324251379 55.23650485428516,154.8352874428092 55.23650485428516,154.3160902785894 55.32038834958803,154.12139112179284 55.348349514533766,153.63464270465192 55.15262135921512,153.43994312762516 54.9289320387179,153.27769338843063 54.67728155339137,153.2452434305451 53.726601941743866,153.4074931864161 53.27922330098227,153.43994312762516 52.803883495158516,153.53729293114156 52.552233009715565,153.53729293114156 51.57359223300591,153.73199244812713 50.73475728160702,153.73199244812713 49.81203883490525,153.82934216153808 48.833398058312014,153.86179205941153 47.82679611654021,154.08894125069492 46.8201941747684,154.34854012640426 45.81359223311301,154.6405886062712 44.834951456286944,154.8352874428092 43.772427184390835,154.99753638161928 42.68194174754899,155.19223499804502 41.843106796150096,155.48428269743454 41.367766990326345,155.5167324251379 40.80854368931614,155.6465313026565 39.88582524273079,156.0034779405105 39.69009708741214,156.06837728596292 39.55029126210138,156.26307524187723 39.52233009703923,156.49022270546993 39.8299029127229,157.3339118535514 40.08155339816585,157.7233060846047 40.16543689323589,158.08025037447806 40.16543689323589,158.08025037447806" stroke="#4dd2ff" stroke-linecap="round" stroke-linejoin="round" stroke-width="0.5"><title>2024-06-18 4.3km</title><desc>9223370318140349607</desc></polyline><polyline fill="none" points="78.40000000002328,139.71419696783414 78.67131891148165,140.13403809131705 79.00293091416825,141.04369208205026 79.0632240055129,141.25361188841634 79.51542219123803,142.16326288689743 79.90732728538569,143.14288432031753 79.99776692246087,143.35280283211614 80.29923237964977,143.73765310068848 80.29923237964977,143.982557590527 80.32937892526388,144.19247558442294 80.51025819953065,144.36740714713233 80.7815771108726,145.06713249877794 81.0830425680615,145.66189791672514 81.59553384501487,146.60652320904774 82.04773203074001,147.5511458797555 82.37934403354302,148.5657376801537 82.77124912769068,149.44038335661753 83.13300767622422,150.41998384598992 83.37418004183564,151.32961034757318 83.67564549902454,152.2392344183463 83.7660851359833,152.554103722563 83.88667131890543,152.79900186901796 84.1579902303638,153.603665966657 84.18813677597791,153.84856335792574 84.45945568731986,154.058475267404 84.79106769000646,154.0934605730581 85.0322400558507,154.0234899581992 85.18297278438695,153.9185340088152 85.90648988133762,153.53369525104063 86.2079553384101,153.46372452104697 87.17264480120502,152.97392900846899 88.04689462669194,152.48413279117085 88.40865317510907,152.34419088542927 88.95129099790938,152.2042489220912 89.22260990936775,152.0293213869736 90.2475924633909,151.609494935954 90.76008374046069,151.39958151624887 91.09169574314728,151.11969675522414 92.14682484301738,150.62989786980324 92.29755757155363,150.55992654303554 92.44829029997345,150.45496952565736 93.02107466862071,150.31502678565448 93.17180739715695,150.35001247603213 93.38283321703784,150.83981176419184 94.13649685971905,150.55992654303554 94.67913468240295,150.31502678565448 94.98060013959184,150.21006969278096 95.25191905105021,150.03514113277197 95.88499651080929,149.79024099785602 96.15631542215124,149.65029798453907 96.48792742495425,149.54534068671637 97.42247034201864,149.1604969847249 98.50774598750286,148.74066699526156 98.71877180738375,148.5657376801537 99.53272854152601,148.28585058898898 99.77390090713743,148.320836488012 100.2562456385931,148.11092104014824 101.37166782969143,147.8310335749702 101.79371946968604,147.62111782515422 102.00474528956693,147.58613185421564 102.27606420102529,147.69108975617564 102.66796929528937,148.5657376801537 103.09002093516756,149.40539757272927 103.66280530358199,150.3849981628009 104.0848569435766,151.3645959336427 104.50690858345479,152.2392344183463 104.92896022333298,153.18384145732853 105.32086531759705,154.12844587504514 105.50174459186383,154.7231954599556 105.65247732040007,154.93310683008167 106.0142358688172,155.94767662737286 106.46643405442592,157.1371684008045 106.73775296588428,158.11674674029928 107.06936496857088,159.0613374694076 107.37083042564336,160.14586433352088 107.55170969991013,160.28580303213676 107.79288206563797,160.28580303213676 108.69727843685541,160.0758949627343 108.96859734819736,159.7610326159338 109.93328681099229,159.3412157006387 110.86782972794026,159.20127661380684 111.89281228196342,159.02635267440928 112.58618283329997,158.81644382837112 113.24940683878958,158.95638307344052 114.06336357304826,158.64151969130035 114.18394975585397,158.501580316748 114.06336357304826,157.80188258149428 114.21409630146809,157.6969277971075 114.51556175854057,157.62695792291197 114.75673412415199,157.45203317451524 114.99790648999624,157.38206324994098 115.9324494068278,156.71734824945452 116.20376831828617,156.40248279628577 116.3545010468224,156.05263195102452 116.41479413828347,155.66779560607392 116.32435450109188,155.17800326491124 116.0228890440194,154.82815116117126 115.3898115841439,154.54826921937638 115.45010467548855,154.33835761193768 116.47508722974453,154.19841646845452 117.59050942095928,154.058475267404 118.25373342644889,153.98850464529824 118.67578506632708,153.84856335792574 118.8868108864408,153.70862201310229 119.51988834608346,152.72903098797542 119.881646894617,152.09929241178907 120.39413817168679,151.78442268678918 120.66545708314516,151.11969675522414 120.66545708314516,150.59491220820928 120.78604326595087,149.68528374328162 120.9367759944871,149.19548279375886 121.0272156316787,149.0555395358242 121.29853454290424,147.93599140146398 121.5698534543626,146.7464674737712 121.60000000009313,146.25666229525814 121.47941381705459,146.01175944172428 121.32868108863477,145.83682872416102 121.11765526863746,145.69688408536604 119.91179344046395,145.69688408536604 118.94710397778545,145.90680102200713 118.10300069791265,146.11671782913618 117.13831123523414,146.18669006947312 116.1434752268251,146.25666229525814 115.54054431268014,146.25666229525814 115.14863921841606,146.18669006947312 114.03321702720132,146.3266345068114 113.30969993025064,146.5015649725974 112.58618283329997,146.8164395846834 111.53105373342987,147.1313139052363 110.56636427075136,147.30624395757332 109.90314026514534,147.41120194579707 109.45094207965303,147.41120194579707 108.51639916258864,147.58613185421564 107.76273551990744,147.6561037924257 107.3105373341823,147.86601952079218 107.06936496857088,147.90100546285976 106.04438241454773,148.21587878029095 104.98925331479404,148.4607800479862 104.6274947662605,148.63570941699436 104.47676203760784,148.8456245411071 104.38632240053266,149.26545440111659 104.77822749479674,150.21006969278096 105.35101186321117,151.1896679670608 105.95394277735613,152.16926342225634 106.58702023734804,152.93894358779653 107.15980460576247,153.46372452104697 108.06420097697992,153.8835486851167 109.08918353100307,154.40832816209877 110.02372644806746,154.7931659310707 110.89797627355438,155.1430180707539 111.92295882757753,155.21298845554702 112.91779483598657,154.93310683008167 113.94277739012614,154.6882102190575 114.15380321012344,154.6882102190575 114.63614794134628,154.51328396049212 114.93761339853518,154.44331343189697 115.9324494068278,154.6182397264056 115.75157013256103,154.47829869796988 115.87215631548315,154.58325447465177 116.0228890440194,154.65322497460875 116.29420795547776,154.93310683008167 116.41479413828347,155.17800326491124 116.41479413828347,155.17800326491124" stroke="#4dd2ff" stroke-linecap="round" stroke-linejoin="round" stroke-width="0.5"><title>2024-06-17 3.4km</title><desc>9223370318224643007</desc></polyline><polyline fill="none" points="145.3550065018935,138.3625346609333 145.4954486346105,138.29733630246483 145.18647594272625,138.10174114673282 144.70897269179113,138.0039435235376 144.65279583865777,138.19953873971826 144.54044213262387,138.39513383508893 144.51235370605718,138.78632366412785 144.59661898564082,138.98191839762148 144.54044213262387,139.17751301050885 144.8775032509584,140.09028627516818 144.96176853054203,140.35107815387892 145.27074122230988,140.87266126801842 145.29882964887656,141.1008536106092 145.2426527958596,141.52463895411347 145.1302990897093,141.65503433041158 144.96176853054203,141.68763316614786 144.48426527960692,142.01362133902148 144.42808842647355,142.241812860535 144.40000000002328,142.53520171827404 144.54044213262387,142.92638643991086 144.79323797125835,143.15457730463822 144.93368010397535,143.38276800513268 145.15838751627598,143.51316261742613 145.6078023406444,144.29552916504326 145.8605981793953,144.94749981359928 145.8605981793953,145.14309074680205 146.16957087116316,145.6972644024063 146.64707412209827,146.28403545267065 147.09648894658312,147.2619847904134 147.5178153446177,148.0117439070309 147.91105331596918,148.85929555632174 148.19193758128677,149.31566858309088 148.6413524056552,150.26101062074304 148.72561768523883,150.39140240481356 148.7537061118055,150.61958789784694 148.92223667097278,151.04336052079452 149.146944083157,151.36933907616185 149.20312093617395,151.82570849070908 149.5120936280582,152.15168624196667 149.9053315994097,152.96662915399065 150.35474642389454,153.91196030841093 150.74798439524602,154.88988612350659 151.00078023411334,155.50923758005956 151.33784135233145,156.42196383763803 151.47828348504845,156.68274228594964 151.75916775036603,157.53027076195576 152.0400520155672,158.54078252310865 152.37711313401815,159.42090304661542 152.6579973991029,160.3988118749403 152.74226267880294,160.82257143076276 153.0231469440041,161.05074941858766 153.4444733420387,161.01815257326234 154.4275682704756,160.52919949087664 155.18595578684472,160.30102112778695 155.74772431724705,160.0402456545853 156.75890767225064,159.5512910646794 157.62964889465366,159.02973867105902 158.50039011694025,158.67117090304964 159.28686605964322,158.24740847258363 160.29804941487964,157.79104829893913 160.88790637184866,157.4976735546952 161.0845253575826,157.3346874684794 161.89908972696867,156.97611778395367 162.7136540961219,156.6175476939825 163.58439531864133,156.25897719868226 164.14616384916008,155.96560103722732 164.42704811436124,155.90040629782015 165.2135240570642,155.5418349916581 166.08426527958363,155.1832632800797 167.0111833550036,154.88988612350659 167.4886866059387,154.7594961891009 167.68530559167266,154.62910620105686 168.16280884260777,154.49871615946176 168.41560468135867,154.53131367481546 168.86501950584352,155.02027600436122 169.06163849146105,155.0854709246778 169.34252275689505,155.02027600436122 169.6234070219798,155.05287346622208 170.0166449934477,155.1832632800797 170.21326397918165,155.1832632800797 170.9997399218846,155.5744323999097 171.6176853054203,155.83521154511254 171.786215864704,155.86780892312527 171.6738621586701,156.3241718642821 171.6738621586701,156.5197557809297 171.84239271772094,156.97611778395367 172.3198959688889,157.7584511184541 172.797399219824,158.67117090304964 173.24681404419243,159.45350005617365 173.83667100127786,160.13803648218163 174.76358907669783,160.72478081428562 175.63433029898442,161.11594309919747 176.50507152138744,161.4745081033907 177.31963589065708,161.8004759371106 178.02184655389283,161.9960564764915 179.0892067620298,161.8004759371106 179.98803641088307,161.50710490180063 180.99921976588666,161.31152406078763 181.98231469444,161.11594309919747 182.2070221066242,161.05074941858766 183.1058517554775,160.95295887242537 184.28556566964835,160.82257143076276 184.7349804941332,160.78997456192155 185.15630689193495,160.56179638643516 185.63381014298648,159.94245479698293 185.80234070215374,159.5186940652493 186.05513654090464,159.1927238861681 186.6169050714234,158.80155922917766 186.81352405715734,158.41039408973302 186.8697009102907,158.11701991851442 186.8697009102907,157.85624264957733 186.92587776319124,157.62806236339384 186.9820546163246,156.87832598146633 187.15058517549187,156.03079576330492 187.37529258767609,155.34625047197915 187.57191157341003,154.368326064141 187.59999999997672,153.8467651468527 187.54382314684335,153.58598436662578 187.37529258767609,153.39039864068036 187.1224967490416,153.22741044362192 186.2236671000719,153.22741044362192 185.18439531861804,153.32520337190363 184.17321196349803,153.52078913804144 183.58335500652902,153.65117958179326 182.712613784126,153.71637478360208 182.29128738620784,153.71637478360208 182.12275682692416,153.65117958179326 181.05539661890361,153.71637478360208 180.0723016904667,153.94455788424239 179.2015604681801,154.17274082056247 178.3027308192104,154.40092359288246 177.37581274379045,154.6617037030228 176.3084525357699,154.85728864496923 175.66241872566752,154.88988612350659 174.70741222368088,155.1506658316939 173.80858257471118,155.47664016514318 173.61196358909365,155.50923758005956 172.60078023397364,155.7374193907308 172.1794538361719,155.83521154511254 171.98283485043794,155.90040629782015 171.7581274381373,156.25897719868226 171.73003901168704,156.45456115546403 172.1794538361719,157.3346874684794 172.68504551355727,158.14961706200847 173.1625487646088,159.09493276724243 173.80858257471118,159.9098578376579 174.14564369316213,160.23582727953908 175.1568270480493,160.72478081428562 175.74668400525115,161.05074941858766 176.6736020805547,161.40931449641357 177.62860858242493,161.8004759371106 178.47126137837768,161.86566946367384 179.48244473338127,161.6374920621165 180.54980494151823,161.34412087596138 181.4767230169382,161.14853993454017 182.51599479839206,160.95295887242537 183.4710013002623,160.82257143076276 184.51027308194898,160.72478081428562 185.1282184656011,160.52919949087664 185.40910273080226,160.30102112778695 185.94278283487074,159.38830603376846 186.6449934981065,158.7037679895584 186.92587776319124,157.66065955717932 187.0101430428913,156.74793686452904 187.26293888164219,155.67222460443736 187.43146944080945,155.21586072508944 187.54382314684335,155.0854709246778 187.54382314684335,154.368326064141 187.59999999997672,153.68377718434203 187.4876462938264,153.45559389606933 187.06631989579182,153.26000808971003 186.08322496747132,153.16221514131757 185.4933680103859,153.22741044362192 184.5945383614162,153.45559389606933 183.77997399214655,153.71637478360208 183.52717815339565,153.65117958179326 183.0777633289108,153.74897237939877 181.9542262678733,153.71637478360208 181.42054616380483,153.68377718434203 181.05539661890361,153.78156997187762 180.83068920660298,153.78156997187762 179.90377113129944,153.9771554565814 179.42626788036432,154.04235059136408 178.75214564357884,154.33572853190708 177.7971391417086,154.53131367481546 177.01066319888923,154.7594961891009 175.9433029908687,154.9550810707151 174.84785435628146,155.1832632800797 173.7804941481445,155.5418349916581 173.44343302992638,155.5418349916581" stroke="#4dd2ff" stroke-linecap="round" stroke-linejoin="round" stroke-width="0.5"><title>2024-06-16 4.3km</title><desc>9223370318313038607</desc></polyline><polyline fill="none" points="16.078637577127665,178.35968089388916 15.157625375781208,178.18152845159057 15.656506984727457,178.04791407191078 14.543617241317406,177.64707068525604 14.850621308432892,176.75630627624923 14.313364190980792,177.2907651415444 14.15986215742305,176.39999999999418 14.313364190980792,176.80084454029566 14.121486648917198,176.66722973485594 13.967984615359455,176.88992105441866 13.891233598580584,177.2907651415444 14.351739699253812,177.91429965090356 14.466866224538535,178.18152845159057 14.620368258096278,179.16136597740115 14.850621308432892,179.65128390918835 14.850621308432892,179.8294357470586 15.119249867275357,180.00758751152898 15.196000884054229,180.18573920286144 15.157625375781208,180.58658024051692 14.351739699253812,181.61095009627752 14.006360123865306,181.70002562148147 13.814482581568882,181.96725208696444 13.929609106853604,182.72439284430584 14.581992749590427,183.65968254129984 15.387878426117823,184.2386703893717 15.886760035296902,185.17395681753987 16.155388594139367,185.9310919707641 16.76939672860317,186.73276304383762 17.38340486283414,188.0688782024954 17.536906896391883,188.3806378133013 18.266041555907577,189.49406316346722 18.88004969037138,190.87470662395936 19.45568231656216,192.07719895621995 19.87781290896237,193.01246846289723 20.069690451025963,193.1906148068374 20.338319009635597,194.12588191009127 20.56857205997221,194.30402779611177 20.645323076983914,194.61578292038757 20.645323076983914,194.92753782030195 20.722074093762785,195.19475612748647 20.9523271440994,195.37290157392272 21.604710787069052,196.7535263011232 22.180343412794173,198.2232187570189 22.640849513700232,199.4256906947994 23.10135561460629,200.58362348089577 23.63861273229122,202.00876727720606 24.09911883296445,203.38937085997895 24.52124942536466,204.5918284607469 24.751502475701272,205.43800032755826 25.250384084880352,206.7295226227434 25.365510610165074,207.3530147667916 25.55738815222867,207.75383067133953 25.74926569405943,208.02104106845218 25.941143236123025,208.11011116407462 26.17139628645964,207.88743589050137 27.399412555387244,207.30847964342684 28.473926790524274,206.7740578057419 29.77869407623075,206.1060295815987 30.81483280286193,205.6606768600759 31.083461361704394,205.48253564318293 31.35208992054686,205.43800032755826 32.50335517246276,204.85904080769978 33.04061229014769,204.54729305350338 33.30924084899016,204.50275764177786 34.65238364296965,203.79019043102744 35.68852236983366,203.2557642539614 36.95491414703429,202.85494418840972 38.06780389044434,202.32051685781335 39.33419566764496,201.74155317241093 39.56444871821441,201.5634103443299 40.86921600392088,200.98444564727833 41.75185269699432,200.71723091090098 41.982105747330934,200.53908766168752 42.28910981467925,200.49455183796817 42.519362865015864,200.31640849719406 43.86250565899536,199.82651393249398 45.32077497825958,199.3811547566438 46.54879124718718,198.89125913433963 47.31630141520873,199.82651393249398 47.738432007376105,200.1382650831656 48.50594217539765,201.42980317526963 49.19670132664032,202.72133741763537 49.350203360198066,202.98855091814767 50.04096251144074,204.36915137906908 50.424717595335096,205.17078833759297 50.61659513739869,205.6606768600759 51.15385225508362,206.95219849143177 51.53760733897798,207.70929558915668 51.53760733897798,207.9319709543779 51.844611406326294,208.37732134148246 52.34349301550537,209.6242999904207 52.8039991161786,210.91580980806611 53.22612970881164,212.2073157763225 53.609884792706,213.45428340355284 53.91688885982148,214.79031616516295 54.18551741866395,215.9036736530834 54.1471419101581,216.17087902448839 53.26450521708466,216.30448164851987 52.995876658242196,216.1263448074169 51.76786038954742,216.17087902448839 51.15385225508362,216.34901584731415 50.77009717095643,216.52715259697288 49.58045641053468,216.7498234307859 48.35244014183991,216.70528927323176 47.162799381418154,217.10609652716084 46.241787179838866,217.23969886274426 45.05214641941711,217.23969886274426 44.55326481023803,217.4178352461604 43.670628116931766,217.81864184106234 42.519362865015864,217.90770992296166 41.0994690542575,217.72957374100224 40.14008134417236,217.86317588423844 38.60506100812927,218.30851606477518 37.377044739434496,218.7093218358932 35.95715092867613,218.442118029634 35.4198938109912,218.7093218358932 34.57563262619078,218.442118029634 34.268628559075296,218.62025391875068 33.731371441390365,218.57571995339822 33.04061229014769,218.7093218358932 32.81035923957825,218.88745761520113 32.8487347480841,219.24372895408305 32.618481697747484,219.37733063058113 32.311477630632,219.37733063058113 30.92995932814665,219.5109322659555 29.586816534167156,219.60000000000582 28.70417984109372,219.60000000000582 28.397175773745403,219.5109322659555 27.74479213100858,218.84292367726448 27.66804111399688,217.90770992296166 27.399412555387244,217.01702828056295 27.437788063660264,216.17087902448839 27.16915950505063,215.01298789156135 26.78540442092344,213.76602474963875 26.74702891265042,213.09800730471034 26.363273828523234,211.895573308866 25.979518744628876,210.47046202982892 25.826016710838303,209.89150923394482 25.941143236123025,209.35709058202337 26.324898320250213,208.91174120188225 27.476163572166115,208.33278632341535 27.7831676392816,208.2437162734277 28.051796198124066,208.0655761185335 28.32042475696653,208.0655761185335 29.24143695854582,207.4866201094119 30.27757568540983,207.04126880690455 30.622955261031166,206.8185929840256 31.85097152972594,206.28417054197052 33.194114323938265,205.57160626072437 34.42213059263304,205.0371822809393 35.68852236983366,204.36915137906908 36.763036604970694,203.8347259159782 38.06780389044434,203.2557642539614 39.372571176150814,202.6322662141174 40.67733846185729,202.0978386088682 41.7134771887213,201.6079460582696 42.557738373288885,201.38526744299452 42.78799142385833,201.20712446855032 42.97986896568909,201.25166021901532 44.36138726840727,200.67269510540063 45.24402396148071,200.31640849719406 46.663917772239074,199.87104982484016 47.162799381418154,199.7374421338609 47.162799381418154,199.7374421338609" stroke="#4dd2ff" stroke-linecap="round" stroke-linejoin="round" stroke-width="0.5"><title>2024-06-15 3.6km</title><desc>9223370318394354007</desc></polyline></svg>