<?xml version="1.0" encoding="utf-8" ?>
<svg baseProfile="full" height="300mm" version="1.1" viewBox="0,0,200,300" width="200mm" xmlns="http://www.w3.org/2000/svg" xmlns:ev="http://www.w3.org/2001/xml-events" xmlns:xlink="http://www.w3.org/1999/xlink"><defs /><rect fill="#222222" height="300" width="200" x="0" y="0" /><text fill="#FFFFFF" style="font-size:12px; font-family:Arial; font-weight:bold;" x="10" y="20">Over 3km Runs</text><text fill="#FFFFFF" style="font-size:4px; font-family:Arial" x="10" y="280">ATHLETE</text><text fill="#FFFFFF" style="font-size:9px; font-family:Arial" x="10" y="290">SunHao</text><text fill="#FFFFFF" style="font-size:4px; font-family:Arial" x="120" y="280">STATISTICS</text><text fill="#FFFFFF" style="font-size:3px; font-family:Arial" x="120" y="285">Number: 15</text><text fill="#FFFFFF" style="font-size:3px; font-family:Arial" x="120" y="290">Weekly: 2.1</text><text fill="#FFFFFF" style="font-size:3px; font-family:Arial" x="141" y="285">Total: 68.8 km</text><text fill="#FFFFFF" style="font-size:3px; font-family:Arial" x="141" y="290">Avg: 4.6 km</text><text fill="#FFFFFF" style="font-size:3px; font-family:Arial" x="167" y="285">Min: 3.2 km</text><text fill="#FFFFFF" style="font-size:3px; font-family:Arial" x="167" y="290">Max: 7.0 km</text><polyline fill="none" points="13.355006501893513,41.07505059172399 13.130299089709297,40.94465427700197 13.298829648876563,40.716460597206606 13.355006501893513,40.55346501106396 14.085305591695942,39.771085031447 13.186475942726247,40.16227526261355 12.821326397941448,40.0970769241394 12.6247074122075,40.1296760950645 12.90559167752508,41.10764966206625 13.017945383675396,41.498838244297076 13.186475942726247,41.759630364365876 13.102210663142614,41.95522431356949 13.102210663142614,42.21601605831529 13.298829648876563,42.31381290726131 13.551625487743877,42.542005437542684 13.579713914077729,42.737598904262995 13.298829648876563,43.063587747339625 13.074122236692347,43.22658204319305 12.849414824391715,43.552570383501006 12.652795838774182,43.61776801137603 12.540442132623866,43.74816322690458 12.568530559190549,44.07415103097446 12.708972691791132,44.269743552664295 12.765149544808082,44.53053339384496 12.877503250958398,44.72612563392613 13.326918075443245,45.21510570650571 13.411183355026878,45.378098896413576 13.888686605961993,46.030070818407694 13.944863459095359,46.258260674541816 14.225747724296525,46.71463989393669 14.478543563047424,47.20361690007849 14.871781534398906,47.692593152372865 15.124577373149805,48.24676532676676 15.321196358883753,48.54015020339284 15.71443433035165,49.3877049893199 16.107672301586717,50.23525750992121 16.444733420037664,50.952415565698175 16.866059817839414,51.60437602727325 17.090767230140045,52.158541365817655 17.287386215873994,52.77790148052736 17.484005201491527,53.07128216524143 17.484005201491527,53.2994669546315 17.540182054624893,53.52765157978865 17.70871261379216,53.75583604082931 18.073862158576958,54.57077920428128 18.495188556611538,55.4835130609863 18.916514954413287,56.39624429086689 19.281664499314502,57.40676508843899 19.674902470665984,58.352088080806425 19.702990897349082,58.61286634148564 20.0400520155672,59.55818573868601 20.12431729515083,59.8189630076522 20.236671001301147,59.98194869179861 20.489466840052046,60.9924580642255 20.62990897265263,61.22063715435797 20.910793238086626,62.16594877865282 20.99505851767026,62.491917651030235 21.247854356304742,62.68749881366966 21.472561768605374,62.72009566240013 22.28712613787502,62.328933256765595 22.792717815260403,62.13335187302437 22.961248374544084,62.13335187302437 23.410663198912516,61.74218874369399 24.337581274448894,61.44881608028663 24.590377113199793,61.28583114981302 25.011703511001542,61.12284613575321 25.854356306954287,60.66648765068385 26.697009102790616,60.27532271225937 26.89362808840815,60.21012850891566 27.764369310811162,59.75376871050685 27.989076722995378,59.68857439997373 28.185695708729327,59.55818573868601 29.00026007811539,59.232213851064444 29.16879063716624,59.297408255399205 29.253055916749872,59.49299138804781 29.44967490248382,59.8189630076522 29.70247074123472,59.75376871050685 30.573211963637732,59.26481105494895 31.528218465507962,58.873644387640525 32.48322496749461,58.51507451882935 32.76410923281219,58.384685375058325 33.01690507156309,58.31949078309117 34.02808842656668,57.89572560862871 34.95500650187023,57.504557252745144 36.02236671000719,57.14598583598854 36.83693107939325,56.91780381419812 37.08972691814415,56.91780381419812 37.31443433032837,57.04819356108783 37.84811443439685,57.92832294985419 38.26944083231501,58.775852645369014 38.550325097632594,59.16701943331282 38.63459037709981,59.427797023789026 39.05591677501798,60.21012850891566 39.02782834856771,60.37311399215832 39.56150845263619,61.253234153817175 39.898569570854306,61.872576507157646 40.151365409605205,62.78528934970382 40.51651495450642,63.63280606592889 40.90975292597432,64.5129171818553 41.19063719117548,65.42562242606073 41.33107932389248,65.65379832679173 41.61196358909365,66.59909673803486 41.9209362808615,67.54439233176527 42.061378413578495,68.00074092045543 42.173732119612396,68.19631868600845 42.37035110546276,68.228914968553 42.42652795847971,68.06593352230266 42.25799739919603,67.87035567639396 41.9209362808615,66.9250610541203 41.61196358909365,66.01236012481968 41.33107932389248,65.1322531698097 40.90975292597432,64.15435368870385 40.51651495450642,63.17645119249937 40.20754226273857,62.296336367871845 39.98283485043794,61.74218874369399 39.898569570854306,61.35102513208403 40.01092327700462,61.188040151435416 40.769310793373734,60.95986103787436 40.90975292597432,60.82947289937874 41.10637191159185,60.9272640083218 41.49960988305975,61.318428142607445 41.752405721810646,61.676994842040585 42.22990897286218,62.00296421692474 42.37035110546276,62.16594877865282 43.184915474732406,62.58970824733842 43.634330299217254,62.78528934970382 44.25227568275295,63.14385439065518 45.26345903775655,63.53501579121803 46.021846554009244,63.69799956562929 46.69596879067831,63.63280606592889 46.92067620297894,63.53501579121803 48.07230169058312,63.27424157777568 48.409362808801234,63.17645119249937 48.577893368084915,63.241644786001416 48.774512353818864,63.14385439065518 49.785695708706044,62.9482735095371 50.010403121006675,62.88307985564461 50.93732119654305,62.81788618830615 51.3586475943448,62.72009566240013 52.229388816747814,62.654901961563155 52.622626788099296,62.58970824733842 53.38101430435199,62.296336367871845 53.718075422686525,61.839979571290314 53.998959688004106,61.253234153817175 54.58881664508954,60.66648765068385 54.78543563070707,60.07974006206496 54.92587776342407,59.03663055758807 54.98205461644102,58.547671796317445 55.094408322591335,58.286893482116284 55.0101430430077,57.993517622264335 55.31911573477555,57.01559612934943 55.48764629394282,56.42884178625536 55.59999999997672,55.548708235961385 55.431469440925866,55.09234172978904 55.23485045519192,54.99454882161808 54.392197659472004,55.12493935920065 53.35292587778531,55.222732227121014 52.454096229048446,55.28792745570536 52.25747724319808,55.385720273450715 51.2462938883109,55.516110650176415 50.31937581265811,55.548708235961385 49.67334200267214,55.516110650176415 49.39245773735456,55.450915468507446 49.13966189860366,55.4835130609863 48.943042912869714,55.64650097332196 48.66215864766855,55.67909854569007 48.43745123548433,55.842086357530206 47.93185955786612,55.90728145869798 47.454356306931004,56.13546420750208 47.145383615163155,56.13546420750208 46.55552665796131,56.29845178470714 45.62860858265776,56.46143927820958 45.31963589088991,56.46143927820958 45.0668400520226,56.55923173407791 44.870221066405065,56.55923173407791 44.47698309505358,56.68962162832031 44.11183355015237,56.68962162832031 43.24109232774936,56.852608920802595 42.53888166451361,56.98299869438051 42.14564369316213,57.11338841437828 41.97711313411128,57.08079098936287 40.96592977887485,57.37416769354604 40.095188556588255,57.667544126336 39.87048114440404,57.797933564928826 39.75812743825372,57.993517622264335 39.70195058523677,58.22169887003838 39.730039011803456,58.44987995363772 40.17945383617189,59.46039420759189 40.71313394024037,60.40571107866708 40.90975292597432,60.79687585638021 40.825487646390684,60.9924580642255 40.46033810148947,61.188040151435416 39.786215864820406,61.38362211812637 39.92665799742099,61.57920396421105 40.12327698315494,61.90517343956162 40.12327698315494,61.74218874369399 39.98283485043794,61.709591794526204 39.842392717837356,61.77478568968945 39.58959687908646,61.80738263216335 39.392977893468924,61.709591794526204 39.33680104033556,61.51401002891362 38.915474642417394,60.60129352781223 38.80312093626708,60.27532271225937 38.718855656683445,60.144934292300604 38.550325097632594,59.88415729138069 38.18517555273138,59.03663055758807 37.73576072836295,58.189101559022674 37.6514954486629,58.02611495339079 37.37061118334532,57.602349386928836 37.0054616384441,56.95040125591913 36.865019505727105,56.852608920802595 36.47178153449204,56.33104929016554 35.68530559167266,56.26585427598911 35.34824447333813,56.363646792131476 35.17971391428728,56.46143927820958 34.112353706150316,56.46143927820958 33.91573472041637,56.55923173407791 32.90455136541277,56.62442668789299 32.48322496749461,56.787414013786474 31.921456436859444,57.04819356108783 31.612483745091595,57.27637548901839 30.657477243221365,57.537154634221224 30.123797139152884,57.86312826411449 29.730559167801403,57.86312826411449 28.74746423936449,58.352088080806425 28.354226267896593,58.51507451882935 28.241872561746277,58.645463608932914 28.241872561746277,59.03663055758807 28.354226267896593,59.427797023789026 28.241872561746277,59.590782909072004 27.567750325077213,59.949351561721414 27.005981794558465,60.07974006206496 26.163328998722136,60.50350231828634 25.264499349868856,60.95986103787436 24.75890767236706,61.188040151435416 24.22522756829858,61.51401002891362 23.803901170380414,61.709591794526204 23.607282184646465,61.74218874369399 22.70845253567677,62.13335187302437 21.865799739956856,62.524514519871445 21.472561768605374,62.72009566240013 21.27594278275501,62.75269250769634 20.742262678802945,62.524514519871445 20.601820546085946,62.394127024541376 20.26475942786783,61.318428142607445 19.871521456516348,60.21012850891566 19.759167750249617,59.75376871050685 19.562548764632083,59.33000545250252 19.281664499314502,58.51507451882935 18.916514954413287,57.667544126336 18.495188556611538,56.68962162832031 18.15812743816059,55.8094888018386 17.79297789337579,54.864158230426256 17.596358907641843,54.472986135282554 17.568270481191576,54.244802190281916 17.596358907641843,54.01661808107747 17.51209362805821,53.788433807640104 17.175032509607263,53.169075666577555 17.14694408327341,52.97348863384104 16.950325097423047,52.81049934780458 16.528998699621297,52.02814960858086 16.163849154720083,51.14800384483533 15.742522756801918,50.26785563852172 15.321196358883753,49.3877049893199 14.899869960965589,48.54015020339284 14.450455136597157,47.757789929019054 14.057217165012844,46.94282925731386 13.551625487743877,46.030070818407694 13.074122236692347,45.08471109421225 12.933680104091763,44.8565203936887 12.793237971374765,44.72612563392613 12.708972691791132,44.53053339384496 12.68088426522445,44.334941033041105 12.540442132623866,44.204546058841515 12.400000000023283,43.9763547249604 12.484265279606916,43.74816322690458 12.90559167752508,43.519971564557636" stroke="#4dd2ff" stroke-linecap="round" stroke-linejoin="round" stroke-width="0.5"><title>2024-07-10 5.4km</title><desc>9223370316238414607</desc></polyline><polyline fill="none" points="79.37467248924077,39.14920526827336 79.43755458528176,39.36814499506727 79.56331877748016,39.47761480792542 79.68908296956215,39.7330442397797 79.68908296956215,39.9884734879015 79.43755458528176,40.134432975697564 79.28034934506286,40.46284160378855 78.65152838442009,40.86422951443819 78.49432314420119,41.04667841462651 78.40000000002328,41.411575933743734 78.55720524024218,41.4845553925843 78.77729257650208,41.812962771451566 78.90305676870048,42.14136984659126 79.37467248924077,42.542755859030876 80.00349344988354,43.4549951084482 80.25502183428034,44.00233753278735 80.31790393020492,44.257763708621496 80.78951965086162,45.0240411334089 80.9467248909641,45.20648789545521 81.44978165952489,46.26467726621195 81.73275109170936,46.77552617833135 81.92139737994876,46.95797204005066 82.11004366818815,47.50530906300992 82.26724890840705,47.68775454972638 82.39301310060546,47.97966713341884 82.55021834070794,48.19860141372192 82.61310043674894,48.52700258092955 82.77030567696784,48.70944754261291 82.92751091718674,49.220292936166516 83.2419213973917,49.69464871485252 83.4305676856311,50.20549269070034 83.58777292585,50.38793678971706 83.71353711804841,50.643358370667556 83.7449781660689,50.93526852381183 84.02794759848621,51.44611071431427 83.9965065503493,51.738020207412774 84.21659388660919,52.35832708320231 84.37379912682809,52.540770075662294 84.84541484713554,53.4529836315196 85.12838427966926,54.146264366136165 85.37991266394965,54.620613562408835 85.72576419217512,55.64228660156368 86.16593886481132,56.77342117924127 86.5746724891942,57.72211191707174 86.889082969632,58.780263979773736 87.23493449797388,59.874900725641055 87.36069869005587,60.0938276698289 87.54934497817885,60.896558643173194 87.67510917049367,61.115484957234 87.73799126641825,61.58982484129956 87.92663755465765,62.10065169990412 88.20960698707495,62.246602096071 88.52401746727992,62.31957727155532 89.1842794760596,62.02767647948349 89.6558951967163,61.73577544736327 90.22183406120166,61.51684951587231 90.72489082987886,61.407386499398854 91.82532751106191,60.823583175224485 92.73711790388916,60.34924226734438 93.64890829694923,59.947876388643635 94.65502183418721,59.40055855020182 95.00087336252909,59.29109488116228 96.06986899569165,58.7437760301691 96.28995633206796,58.59782419397379 97.04454148479272,58.37889632736915 97.79912663763389,57.86806411325233 98.14497816597577,57.79508802262717 99.21397379925475,57.39371925627347 99.74847161583602,57.21127875792445 99.93711790407542,57.065326291689416 100.62882096075919,56.73693302340689 101.69781659403816,56.29907485973672 102.51528384280391,55.93419264405384 102.76681222720072,55.7882396527566 103.42707423586398,55.496333490271354 103.93013100454118,55.42335691212793 104.49606986902654,55.20442708773771 104.71615720540285,55.05847379632178 105.03056768560782,54.91252044501016 105.25065502198413,54.91252044501016 105.47074235812761,54.985497128247516 105.7537117904285,55.42335691212793 106.13100436690729,55.7882396527566 106.63406113546807,56.62746853311546 107.10567685600836,57.53967158749583 107.60873362456914,58.45187229782459 108.04890829708893,59.40055855020182 108.55196506564971,60.53168115296285 109.05502183409408,61.55333718046313 109.46375545870978,62.61147782354965 109.93537117913365,63.742590195994126 110.06113537121564,64.216926569934 110.53275109187234,65.31154655251885 110.91004366823472,66.26021447405219 111.2244541485561,67.13590569028747 111.28733624471352,67.61023753040354 111.66462882095948,68.85079473172664 111.85327510919888,68.85079473172664 112.01048034941778,68.63187318766722 111.66462882095948,67.68321160343476 111.3187772926176,66.58859893330373 110.9414847161388,65.60344464457012 110.59563318779692,64.58180027245544 110.18689956353046,63.52366550193983 109.93537117913365,62.90337813575752 109.43231441057287,61.73577544736327 109.11790393025149,61.042509534279816 108.99213973805308,60.67763219404151 108.5205240175128,59.65597364649875 108.08034934499301,58.7437760301691 107.51441048050765,57.57615966084995 106.97991266380996,56.55449218748254 106.50829694338609,55.7882396527566 106.57117903942708,55.64228660156368 106.72838427952956,55.605798329313984 106.72838427952956,55.7882396527566 106.82270742359105,55.93419264405384 106.60262008756399,55.97068088251399 106.91703056788538,56.18961023443262 107.42008733632974,57.21127875792445 107.92314410489053,58.15996832557721 108.5205240175128,59.21811908311793 108.9292576421285,60.23977889085654 109.36943231453188,61.15197266309406 109.80960698705167,62.246602096071 110.28122270759195,63.377715630835155 110.46986899571493,63.852052492351504 110.59563318779692,64.03448957795626 111.06724890845362,63.998002168373205 111.507423580857,64.1804391790065 111.72751091711689,64.39936346808099 112.07336244545877,65.05613552502473 112.63930131017696,65.67641913003172 113.26812227081973,65.9683169220807 113.99126637564041,66.07777853214066 114.2113537119003,66.04129133254173 114.84017467265949,65.8588552782021 115.75196506560314,65.71290636717458 116.03493449790403,65.74939360050485 116.9781659389846,66.18724010861479 117.70131004380528,66.36967599426862 118.67598253290635,66.29670165124116 119.8393013101304,65.895342496573 120.81397379923146,65.31154655251885 121.19126637571026,65.05613552502473 121.47423580801114,64.65477496795938 121.59999999997672,64.2534139570198 121.56855895218905,63.7061027562886 121.28558951977175,63.23176569992211 120.97117903945036,62.97635317617096 120.02794759836979,62.72094046877464 119.4620087336516,62.647965375712374 118.51877729280386,62.90337813575752 117.5441048037028,63.15879071192467 117.29257641930599,63.26825318826013 117.0410480350256,63.304740672843764 116.88384279492311,63.377715630835155 116.12925764196552,63.45069057389628 115.40611353726126,63.26825318826013" stroke="#4dd2ff" stroke-linecap="round" stroke-linejoin="round" stroke-width="0.5"><title>2024-07-08 3.2km</title><desc>9223370316411520207</desc></polyline><polyline fill="none" points="145.30000000004657,43.35927215637639 144.56874999997672,42.771723611920606 145.10312499990687,42.771723611920606 144.93437500006985,42.73908199419384 144.82187500002328,42.543232217693 145.07499999995343,42.38002397827222 145.27187499997672,42.28209899435751 145.49687499995343,42.02096555623575 145.4124999998603,41.62926499635796 145.69374999997672,42.31474065899965 145.94687500002328,42.67379874893231 145.97499999997672,42.80436522630043 146.65000000002328,43.78361209560535 146.70624999993015,44.04474408403621 146.84687500004657,44.24059293442406 147.32499999995343,44.697573115467094 147.40937499993015,44.92606295939186 146.93124999990687,45.0892698901298 146.79062499990687,45.25247673687409 146.59375,45.18719400826376 146.11562499997672,45.35040080465842 145.44062500004657,45.905303285166156 145.1875,45.970585866161855 144.99062500009313,46.16643352867686 144.40000000002328,46.49284603097476 144.76562499988358,47.08038768955157 144.93437500006985,47.24359351294697 144.93437500006985,47.40679925234872 145.44062500004657,48.28810879573575 145.58124999993015,48.45131399828824 145.69374999997672,48.67980114091188 145.72187500004657,48.97357008274412 146.28437500004657,49.85487527734949 146.34062500006985,50.083361410012 146.734375,50.44241071486613 146.93124999990687,51.19314885840868 147.09999999997672,51.323711832781555 147.35312499990687,51.78068181974231 147.52187499997672,51.943885227141436 147.74687499995343,52.564057410229 147.88749999995343,52.72726041506394 148.08437499997672,53.28215000385535 148.19687500002328,53.477993156557204 148.36562499997672,53.90231957321521 148.50625000009313,54.06552189012291 148.73124999995343,54.55512833769899 148.81562500004657,55.07737438287586 148.90000000002328,55.30585675762268 149.06875000009313,55.50169866223587 149.15312500006985,55.9913028954179 149.40625,56.415625953435665 149.49062499997672,56.6767475536617 150.0531249998603,57.655951641499996 150.50312500004657,58.63515270984499 150.671875,59.19003197486745 150.8125,59.48379119334277 150.84062499995343,59.67963052124833 151.26250000006985,60.65882534944103 151.40312500006985,60.88730370820849 151.43124999990687,61.14842163116555 151.51562500011642,61.31162022409262 151.57187500002328,61.57273779818206 151.85312500002328,62.09497230226407 151.96562499995343,62.61720594766666 152.27500000002328,63.49847327664611 152.35937500011642,63.75958905252628 152.44374999997672,64.24918055380112 152.58437499997672,64.51029571244726 152.640625,64.99988605635008 152.78125,65.16308266989654 153.28749999997672,65.26100059773307 153.99062499997672,64.86932870509918 154.63749999995343,64.73877130026813 155.56562500004657,64.44501694297651 156.4375,63.98806518033962 156.60624999995343,63.85750741313677 156.71874999988358,63.72694959232467 157.61875000002328,63.269996796530904 158.40625,62.845682897401275 159.08125000004657,62.454008025699295 159.30625000002328,62.38872883352451 159.81250000011642,62.09497230226407 160.71250000002328,61.73593617300503 161.30312499997672,61.47481873308425 161.44374999997672,61.34425993260811 162.45625000004657,60.919943460292416 163.01874999993015,60.593545788142364 163.52499999990687,60.39770702389069 163.75000000011642,60.234507961286 164.2281250001397,60.07130881489138 164.39687499997672,59.9407494373736 165.46562499995343,59.61435075866757 165.66250000009313,59.51643108975259 165.88750000006985,59.48379119334277 166.47812500002328,59.157392044959124 166.984375,59.09211217510165 167.74375000002328,58.928912441508146 168.19374999997672,58.733072650647955 168.39062500011642,58.863632524735294 168.58750000002328,59.19003197486745 168.78437500004657,59.287951744569 169.51562500011642,59.25531182467239 169.71249999990687,59.38587148403167 170.10624999995343,59.41851139051141 170.921875,59.908109584561316 171.09062499995343,59.97338928678073 171.17500000004657,60.07130881489138 171.87812499993015,60.36506721802289 171.65312499995343,60.691465125011746 171.62499999988358,60.85466395277763 171.79374999995343,61.40953933951096 172.07500000006985,61.80121549940668 172.1875,62.16025155503303 172.32812500011642,62.356089232314844 172.72187500004657,63.20471777196508 172.83437499997672,63.53111276033451 173.22812500002328,64.0207046137948 173.81874999997672,64.54293509223498 174.71875000011642,65.03252538572997 175.64687499997672,65.45683636298054 176.46250000002328,65.78322903660592 176.71562500006985,65.91378601206816 176.85624999995343,65.91378601206816 177.55937499995343,66.20753901079297 178.03749999997672,66.37073500364204 178.234375,66.24017821607413 178.88125000009313,66.07698215602431 180.00625000009313,65.71795052863308 180.31562500004657,65.58739347266965 180.84999999997672,65.48947564538685 181.13125000009313,65.52211492453353 181.41249999997672,65.42419707716908 181.63750000006985,65.42419707716908 181.86250000004657,65.35891849550535 182.14374999993015,65.39155778803979 182.36875000002328,65.29363990039565 183.04375000006985,65.16308266989654 183.38125000009313,65.19572198257083 184.44999999995343,65.06516471185023 184.87187499995343,64.86932870509918 185.32187500002328,64.60821384159499 185.80000000004657,63.79222850941005 185.91249999997672,63.56375224067597 186.13749999995343,63.33527580756345 186.33437500009313,63.20471777196508 186.64375000004657,62.715124660520814 186.72812500002328,62.290810019942 186.69999999995343,62.06233267096104 186.89687500009313,61.57273779818206 186.8687500001397,61.34425993260811 187.12187499995343,60.4956264210341 187.09374999988358,60.26714778045425 187.34687500004657,59.51643108975259 187.375,59.25531182467239 187.54375000006985,59.059472235065186 187.59999999997672,58.83099256109563 187.59999999997672,58.2434726448264 187.48750000004657,58.04763243114576 187.00937500002328,57.68859172571683 186.58750000002328,57.62331155384891 185.828125,57.68859172571683 185.34999999997672,57.81915202920209 184.50625000009313,57.884432160819415 184.0,57.98235233311425 183.74687499995343,57.917072221578564 183.46562500006985,58.014992383803474 182.53749999997672,57.98235233311425 182.25625000009313,58.08027247519931 181.77812499995343,58.08027247519931 181.32812499988358,58.17819258701638 180.59687500004657,58.30875268924865 180.09062500006985,58.406672730634455 179.86562499997672,58.53723273877404 178.85312500002328,58.863632524735294 178.51562499988358,58.928912441508146 178.12187500006985,58.961552394903265 177.78437500004657,59.059472235065186 176.80000000004657,59.157392044959124 176.51874999993015,59.157392044959124 176.265625,59.287951744569 175.703125,59.287951744569 174.60624999995343,59.58171087235678 173.59375,59.8754697284312 173.34062500006985,60.00602913281182 172.69374999997672,60.136588483524974 172.44062499993015,60.26714778045425 171.765625,60.430346826295136" stroke="#4dd2ff" stroke-linecap="round" stroke-linejoin="round" stroke-width="0.5"><title>2024-07-04 3.2km</title><desc>9223370316754174107</desc></polyline><polyline fill="none" points="13.069767441949807,91.58748485459364 12.958139534923248,91.68465082003968 13.23720930237323,93.40124460111838 12.679069767473266,92.68869737462956 13.153488372103311,91.94375991457491 12.986046511679888,91.8465940291353 12.79069767438341,91.87898266100092 12.679069767473266,92.33242315694224 12.511627907049842,92.30003457178827 12.539534883690067,92.52675459830789 12.595348837203346,92.68869737462956 12.567441860446706,92.26764598334557 12.651162790716626,92.0409257702122 12.958139534923248,91.68465082003968 13.26511627912987,91.68465082003968 13.460465116309933,91.8465940291353 13.432558139436878,92.00853715502308 13.26511627912987,91.91137128946139 13.34883720939979,92.0409257702122 13.488372093066573,92.10570299049141 13.544186046579853,91.8465940291353 13.76744186040014,91.97614853648702 13.906976744066924,92.1704801976739 13.934883720939979,92.33242315694224 14.43720930244308,93.07735969795613 14.911627907073125,93.59557538325316 14.995348837343045,93.82229447748978 15.330232558189891,94.30812055870774 15.358139534830116,94.53483914016397 14.660465116379783,94.85872254503192 14.35348837217316,94.85872254503192 14.186046511633322,94.98827581375372 13.599999999976717,95.15021732461173 13.041860465076752,95.5712648635672 12.73488372087013,95.89514720294392 12.511627907049842,96.05708824770409 12.400000000023283,96.2190292092564 12.455813953536563,96.44574641558575 12.706976744229905,96.54291088270838 12.73488372087013,96.73723972696462 12.818604651140049,96.96395656041568 13.376744186040014,97.61171804272453 13.516279069706798,97.8060462277208 13.879069767543115,98.71290950613911 14.186046511633322,99.13395228382433 14.269767441903241,99.3606673925824 14.604651162750088,99.87887274287641 14.995348837343045,100.78573005489307 15.497674418613315,101.6278095075395 15.97209302324336,102.56704931874992 16.055813953396864,102.85853696678532 16.223255813936703,103.1176368718734 16.61395348829683,103.9273227021331 17.060465116403066,104.73700645173085 17.172093023196794,105.09326664239052 17.339534883736633,105.22281570269843 17.395348837249912,105.41713919336325 17.31162790709641,105.64384978098678 17.423255813890137,105.7733986149542 17.813953488483094,106.77740027217078 18.2604651163565,107.65185072194436 18.65116279083304,108.59107257588767 19.041860465193167,109.53029163024621 19.404651162796654,110.43712116408278 19.79534883715678,111.57065441142186 20.158139534993097,112.60702409764053 20.493023255839944,113.57861758279614 20.744186046533287,114.45304915789166 20.82790697668679,114.80929836328141 21.274418604793027,114.97122968707117 22.16744186053984,114.55020807206165 22.920930232619867,114.12918589447509 23.70232558134012,113.83770867274143 24.1209302325733,113.61100398065173 24.483720930293202,113.48145836906042 25.40465116291307,112.99566185116419 26.325581395300105,112.54225109209074 27.07906976749655,112.21838586477679 27.581395348883234,111.92690687556751 27.83255813946016,111.86213373020291 28.05581395351328,111.70020080864197 28.279069767449982,111.63542761671124 28.58604651177302,111.4087213400635 29.562790697673336,111.02008162913262 30.595348837203346,110.53428131653345 31.404651162796654,110.14564052710193 32.18604651163332,109.82177283643978 32.967441860586405,109.53029163024621 33.41395348845981,109.4331311682472 34.41860465123318,108.97971528279595 34.78139534895308,108.9149415315187 35.53488372103311,108.62345948640723 36.17674418608658,108.42913797317306 36.42790697689634,108.23481634011841 37.01395348843653,108.00810761671164 37.265116279246286,108.07288155436981 37.795348837273195,107.94333366589854 38.827906976803206,107.61946371148224 39.69302325579338,107.36036750837229 40.72558139532339,107.13365815585712 41.674418604699895,106.93933572381502 42.65116279083304,106.74501317189424 43.60000000009313,106.5183033766225 44.6046511628665,106.32398056506645 45.77674418617971,106.16204479735461 46.36279069783632,106.064883296669 47.06046511651948,106.03249612316722 47.39534883724991,105.96772176612285 48.34418604662642,105.87056020548334 49.34883720939979,105.80578581511509 49.60000000020955,105.80578581511509 50.54883720946964,105.70862420459162 51.49767441872973,105.67623699441901 52.47441860474646,105.64384978098678 53.39534883736633,105.5790753440233 54.4837209302932,105.61146256420761 54.734883720986545,105.54668812057935 55.20930232561659,105.64384978098678 55.37674418615643,105.5790753440233 55.51627906982321,105.15804117923835 55.51627906982321,104.96371752876439 55.60000000009313,104.7046191416739 55.57209302333649,103.86254791237297 55.46046511642635,103.47389889354235 55.46046511642635,102.56704931874992 55.432558139553294,102.1783987020317 55.46046511642635,101.95168562087929 55.29302325588651,100.91528088640189 55.09767441870645,99.97603615111439 54.84651162812952,99.10156439774437 54.56744186067954,98.16231425548904 54.37209302338306,97.44977779703913 54.00930232566316,96.51052273041569 53.56279069778975,95.5712648635672 53.39534883736633,95.21499390574172 53.255813953699544,94.7939458907058 52.89302325586323,94.2109554024355 52.61395348852966,93.56318692790228 52.36279069783632,93.20691369922133 51.972093023359776,92.42958889264264 51.52558139548637,91.58748485459364 51.44186046521645,91.32837546692463 51.21860465116333,91.036877151113 50.6046511628665,90.58343479037285 49.795348837273195,90.25954699021531 49.20930232561659,90.03282533201855 49.04186046519317,89.8708811904944 48.846511628013104,89.3202704867872 48.42790697677992,89.02877031292883 47.98139534890652,89.12593706752523 47.84186046523973,89.22310379214468 48.0372093024198,89.06115923443576 47.45116279087961,89.51460378622869 46.75348837219644,89.77371466570185 46.530232558143325,90.03282533201855 46.33488372107968,90.16238058524323 45.69302325590979,90.38910215022042 45.33023255818989,90.71298981711152 44.883720930316485,90.74537856553798 44.68837209313642,90.8749335257744 44.57674418622628,91.036877151113 44.57674418622628,91.036877151113" stroke="#4dd2ff" stroke-linecap="round" stroke-linejoin="round" stroke-width="0.5"><title>2024-07-03 3.3km</title><desc>9223370316842663807</desc></polyline><polyline fill="none" points="80.04970873799175,87.99795981220086 79.85398058255669,87.77080018311972 79.60233009711374,88.09531388894538 79.2947572816629,88.2575706167554 79.23883495165501,88.09531388894538 79.18291262141429,87.44628614370595 78.9033009710256,87.12177177055855 79.2947572816629,86.76480557495961 78.51184466015548,85.85616252786713 78.40000000002328,86.08332353481092 78.6236893205205,86.9595144589839 78.76349514571484,87.0893203150772 79.04310679621994,87.86815432991716 79.0710679612821,88.2575706167554 79.18291262141429,88.61453512433218 79.21087378647644,88.87414542172337 79.46252427191939,89.29601169965463 79.63029126217589,89.36091415394912 79.77009708748665,89.49071902246214 79.46252427191939,89.91258447637665 79.18291262141429,90.10729141882621 78.6236893205205,90.72386261075735 78.65165048546623,90.88611798742204 78.5677669903962,91.01592222871841 78.9033009710256,91.56758965877816 79.46252427191939,92.15170706325443 79.63029126217589,92.50866716715973 79.85398058255669,92.67092162650079 79.99378640775103,92.96297944302205 80.1895145631861,93.19013533572434 80.35728155344259,93.70934819095419 80.69281553395558,94.32591234735446 80.77669902914204,94.52061656763544 80.94446601939853,94.71532066780492 81.05631067976356,94.91002464786288 81.22407767002005,95.59148763245321 81.72737864090595,96.30539965751814 81.9231067962246,96.46765216530184 82.28660194168333,97.40871506609255 82.42640776699409,97.6358677597309 82.6500970874913,98.09017265660805 82.76194174750708,98.21997393565834 82.8178640777478,98.44712604559027 83.0415533981286,98.90142977517098 83.09747572813649,99.12858139473246 83.2652427185094,99.42063323679031 83.32116504851729,99.64778448274592 83.54485436913092,99.87493556542904 83.57281553396024,100.36168733480736 83.74058252433315,100.55638783235918 84.13203883497044,101.36763861318468 84.57941747573204,102.34113679846632 84.9988349515479,103.21728259851807 85.41825242724735,104.2556744722242 85.7817475728225,105.19671415761695 86.0613592233276,106.17020053556189 86.396893203957,107.04633570936858 86.70446601952426,107.95491776586277 86.98407767002936,108.86349720746512 87.09592233016156,109.31778594772913 87.06796116498299,109.54493007279234 87.2357281553559,110.06411603069864 87.26368932041805,110.29125961879618 87.43145631079096,110.48595399281476 87.37553398066666,110.97268940260983 87.45941747585312,111.26473028818145 87.7949514563661,112.2381979561469 87.99067961180117,113.08186750719324 88.13048543699551,113.76329126799828 88.38213592243847,113.8606373994553 88.6897087378893,114.89899426788907 88.77359223307576,115.1261343776132 88.7456310678972,115.32082577020628 89.02524271851871,116.35917783656623 89.02524271851871,116.58631689587492 89.10912621370517,116.81345579176559 88.96932038839441,116.97569776023738 88.9133980582701,117.39752648808644 88.94135922333226,117.6571131174569 89.24893203889951,118.04649266114575 89.66834951471537,118.14383747216198 90.6469902911922,118.07894093487994 91.17825242725667,118.11138920520898 92.12893203890417,117.98159610392759 92.38058252434712,117.94914782023989 92.49242718447931,117.72200974135194 92.49242718447931,117.42997482838109 92.6601941747358,117.46242316541611 92.91184466029517,117.39752648808644 93.83456310688052,117.36507814435754 94.08621359220706,117.42997482838109 95.03689320385456,117.20283637600369 95.79184466029983,117.26773309335113 96.21126213599928,117.20283637600369 96.65864077676088,117.04059452429647 97.58135922334623,116.74855898102396 98.00077669904567,116.65121373988222 98.92349514563102,116.74855898102396 99.59456310677342,116.84590419207234 100.26563106803223,116.81345579176559 100.9087378642289,116.55386846879264 101.10446601943113,116.52142003836343 101.30019417486619,116.39162628358463 102.16699029132724,116.35917783656623 102.69825242727529,116.32672938614269 103.70485436893068,116.03469318264979 104.04038834956009,115.87245073064696 105.13087378651835,115.93734772145399 106.19339805818163,115.54796557649388 106.58485436893534,115.45061996526783 107.3398058252642,115.54796557649388 107.53553398069926,115.64531115774298 108.43029126210604,115.38572287440184 108.6260194175411,115.35327432394843 108.2345631069038,114.37981626050896 108.0667961165309,114.02288088525529 108.03883495146874,113.7957399818988 107.73126213590149,112.95207233837573 107.4516504855128,112.07595355328522 107.11611650499981,111.19983233700623 107.11611650499981,111.00513840318308 107.70330097095575,111.00513840318308 107.95495145628229,111.10248538505402 108.4023300971603,111.68656664612354 108.8497087379219,112.30309569399105 109.129320388427,112.56268651175196 109.8563106796937,112.88717473394354 110.66718446614686,112.78982830228051 111.70174757274799,112.49778882731334 111.9254368932452,112.49778882731334 112.76427184476051,112.88717473394354 113.35145631083287,113.04941871998017 114.41398058249615,113.01696992939105 115.28077669907361,112.69248184066964 115.86796116514597,112.43289112957427 116.45514563110191,112.01105576878763 116.73475728160702,111.68656664612354 116.90252427186351,111.00513840318308 116.81864077667706,110.45350493874867 116.34330097096972,110.06411603069864 115.92388349527027,109.86942139655002 116.11961165058892,109.7396249070589 116.67883495159913,109.7396249070589 117.68543689337093,109.57737922019442 118.63611650490202,109.4475826107373 119.05553398060147,109.25288759637624 119.53087378642522,108.66880183291505 119.83844660199247,108.11716428643558 120.14601941744331,107.6953231592779 120.62135922338348,107.37082960107364 120.92893203883432,106.36489745098515 121.04077669908293,105.3265125148173 121.09669902909081,104.87221803117427 121.23650485440157,104.19077508017654 121.37631067971233,103.80137844776618 121.40427184465807,103.5093306582421 121.54407766996883,103.28218219065457 121.59999999997672,102.50338620413095 121.57203883491457,102.27623701284756 121.43223300972022,101.9517378845776 121.20854368933942,101.75703824756783 120.76116504857782,101.69213834186667 119.72660194174387,101.82193813985214 118.71999999997206,101.98418781242799 117.54563106806017,102.11398749041837 116.39922330109403,102.11398749041837 115.92388349527027,102.24378711497411 115.44854368933011,102.27623701284756 115.19689320388716,102.21133721384103 114.41398058249615,102.37358668624074 113.5471844660351,102.73053523202543 112.9879611650249,102.92523426859407 111.9254368932452,103.02258374195662 111.39417475729715,103.0874833741982 111.1425242718542,103.18483279747306 110.72310679615475,103.15238299302291 110.47145631082822,103.24973239624524 109.52077669918071,103.44443111275905 109.0174757281784,103.5742301903665 108.31844660209026,103.70402921453933 107.95495145628229,103.93117737857392 107.03223300981335,104.19077508017654 106.86446601944044,104.19077508017654 106.69669902918395,104.2556744722242 106.52893203881104,104.2556744722242 106.30524271854665,104.28812416328583 105.94174757285509,104.5152719070029 105.74601941753644,104.93711728326161 105.7739805825986,105.16426456003683 106.13747572817374,105.94305398254073 106.61281553399749,106.72184148404631 107.08815533982124,107.5979751269042 107.70330097095575,108.44165707755019 108.15067961171735,108.8959464248328 108.70990291272756,109.22043841562117 109.54873786401004,109.60982836427866 109.94019417476375,109.8369722792122 110.89087378652766,110.1939123866905 111.42213592247572,110.38860682075028 112.42873786413111,110.58330113475677 112.73631067958195,110.55085209081881 113.79883495147806,110.2263614674448 114.83339805831201,109.93431962127215 115.72815533995163,109.77207403437933 116.76271844666917,109.64227750495775 117.65747572819237,109.48003176809289 117.90912621363532,109.4475826107373 118.41242718452122,109.4475826107373 118.91572815540712,109.3502351185598 119.33514563110657,109.05819246196188 119.75456310680602,108.37675854604458 119.86640776705462,108.05226568813669 120.67728155350778,107.11123451442108 120.90097087388858,106.29999849252636 120.84504854376428,106.07285203287029 120.95689320389647,105.52120995044243 120.95689320389647,105.3265125148173 121.04077669908293,105.09936535477755 121.04077669908293,105.09936535477755" stroke="#4dd2ff" stroke-linecap="round" stroke-linejoin="round" stroke-width="0.5"><title>2024-07-02 4.3km</title><desc>9223370316930743707</desc></polyline><polyline fill="none" points="144.57987508678343,91.19723156711552 144.42997918114997,91.26681683026254 144.40000000002328,91.44077992555685 144.6398334489204,92.0322537807806 144.81970853568055,92.44976411500829 145.35933379584458,93.35436807243968 145.56918806373142,93.80666914454196 145.7190839694813,94.25896961221588 146.22873004863504,95.16356873439508 146.25870922964532,95.4766986364557 146.3786259542685,95.78982824875857 146.6484385842923,96.06816543886089 146.67841776530258,96.45087870146381 146.9782095766859,97.00755176556413 147.068147120066,97.28588795420364 147.27800138795283,97.52943193149986 147.6977099236101,98.46881420264253 148.11741845938377,99.44298565603094 148.47716863278765,100.48673767352011 148.80693962529767,101.4261117373826 149.19666897994466,102.46985763972043 149.49646079097874,103.44401757826563 149.88619014574215,104.45296598764253 150.21596113813575,105.46191138960421 150.45579458703287,106.40127164681326 150.54573213041294,106.57522696399246 150.7256072171731,106.67960011129617 150.57571131165605,106.57522696399246 150.84552394167986,106.54043590775109 151.62498265097383,106.26210732880281 152.64427480916493,105.74024062650278 153.57362942397594,105.28795550044742 154.32310895214323,104.94004345379653 154.80277585005388,104.73129605411668 154.98265093681403,104.59213104940136 155.91200555162504,104.24421828766936 156.4216516307788,104.03547045885352 157.35100624558982,103.54839169117622 158.28036086051725,103.0961036364024 158.87994448293466,102.85256366431713 159.17973629420158,102.67860643399763 160.07911172800232,102.2611087168043 160.37890353915282,102.0871511825244 161.33823733509053,101.70444429272902 162.20763358776458,101.32173697015969 163.16696738370229,100.8694459401595 163.4667591949692,100.83465429738862 164.30617626640014,100.41715430578915 165.35544760583434,100.06923725278466 165.59528105484787,99.93007033140748 165.8051353226183,99.96486206707777 166.70451075641904,99.58215277772979 166.91436502430588,99.51256922396715 166.4946564885322,99.44298565603094 166.34476058289874,99.26902667357353 166.1648854961386,99.19944305560784 166.01498959050514,99.12985942329396 166.1648854961386,99.26902667357353 166.31478140177205,99.26902667357353 166.37473976402543,99.47777744184714 166.58459403179586,99.47777744184714 166.79444829979911,99.5473610026529 167.1841776543297,99.5473610026529 167.33407355996314,99.68652808130719 167.4539902844699,99.8952785920992 167.63386537123006,100.06923725278466 167.8137404579902,100.13882069190731 168.26342817489058,101.07819572134758 168.77307425404433,101.91319355907035 169.1927827897016,102.748189336824 169.64247050660197,103.61797441510134 170.1521165856393,104.73129605411668 170.39195003476925,105.39232904469827 170.69174184580334,105.98377852106933 171.08147120056674,106.8883463095408 171.50117973634042,107.86249353236053 171.8609299097443,108.94101040181704 172.1907009021379,109.91515171760693 172.4904927132884,110.92408083943883 172.820263705682,112.07216894102748 173.03011797356885,112.62881631581695 173.09007633582223,112.80276843285537 173.5397640527226,112.66360674641328 173.80957668286283,112.73318759675021 174.1993060373934,112.62881631581695 174.67897293542046,112.52444500284037 175.5483691880945,111.93300695423386 176.02803608600516,111.75905439030612 176.74753643304575,111.68947333973483 176.9573907009326,111.61989227493177 177.9167244968703,111.51552065071883 178.9360166550614,111.20240558523801 179.05593337945174,111.51552065071883 178.9060374739347,111.13282442031777 178.96599583618809,111.34156787229585 178.75614156830125,111.48073010219377 177.73684941011015,111.75905439030612 176.5676613462856,112.03737844966236 175.42845246358775,112.35049274281482 174.46911866753362,112.52444500284037 173.62970159610268,112.69839717334253 173.41984732809942,112.5592354440887 173.12005551694892,111.58510173705872 173.09007633582223,111.34156787229585 172.76030534342863,110.3674306612811 172.46051353239454,109.35849988050177 172.07078417763114,108.31477521851775 172.01082581537776,108.07123900105944 172.13074253988452,107.9668662827753 172.5504510756582,107.9668662827753 172.97015961143188,108.17561168721295 173.41984732809942,108.90621958876727 173.00013879244216,108.2799843409739 172.70034698129166,108.03644809848629 171.98084663425107,107.9668662827753 171.80097154749092,107.79291168073541 171.41124219296034,106.78397322658566 171.02151283819694,105.84461403134628 170.60180430242326,104.87046100146836 170.09215822338592,103.7919311626465 169.8823039556155,103.0961036364024 169.40263705747202,102.22631721702055 168.89299097843468,101.21736217074795 168.53324080491439,100.55632102690288 168.5032616239041,100.3127792274463 168.62317834829446,100.2084041168564 169.10284524632152,100.2779875274573 170.182095766766,100.83465429738862 170.33199167239945,100.93902921487461 170.72172102704644,101.04340410014265 170.5718251215294,101.46090331938467 170.63178348366637,101.84361048450228 171.11145038169343,102.67860643399763 171.65107564185746,103.72234847437358 172.2506592643913,104.76608729621512 172.79028452467173,105.49670255678939 173.32990978471935,105.87940515912487 174.1693268562667,106.33168949498213 174.5890353921568,106.54043590775109 175.03872310882434,106.71439115336398 175.30853573896457,106.85355528540094 176.2678695350187,107.2014653654478 177.22720333107281,107.54937508783769 177.946703677997,107.54937508783769 178.48632893816102,107.41021124183317 179.17585010407493,107.1666743735841 180.13518390012905,106.95792834699387 181.06453851494007,106.71439115336398 181.75405968073756,106.6448090657359 181.93393476761412,106.71439115336398 182.9232477445621,106.50564484784263 184.03247744613327,106.36648057270213 184.78195697430056,106.2273162403144 185.26162387232762,105.705449484376 185.74129077023827,104.73129605411668 185.98112421913538,104.34859215366305 186.19097848713864,104.17463569229585 186.49077029840555,104.10505308269057 186.67064538504928,103.82672250134056 186.7006245662924,103.37443481848459 186.79056210967246,103.23526925596525 186.85052047180943,102.12194269656902 186.91047883406281,101.808818941965 187.03039555856958,101.53048647241667 187.12033310194965,100.90423757926328 187.39014573208988,99.82569510285975 187.57002081885003,99.33861027739476 187.59999999997672,98.57318984958692 187.48008327546995,98.19047898674035 187.0603747398127,97.98172742454335 185.83122831361834,98.08610322169261 184.72199861204717,98.29485471948283 183.76266481599305,98.39923042012379 182.683414295665,98.46881420264253 182.35364330327138,98.5383979708422 181.9938931297511,98.5036060885759 181.39430950721726,98.5383979708422 181.09451769595034,98.57318984958692 180.70478834141977,98.57318984958692 180.04524635674898,98.74714918975951 179.68549618311226,98.88631659737439 178.69618320616428,99.09506760170916 177.70687022898346,99.40819386672229 177.40707841783296,99.47777744184714 178.27647467027418,99.30381847714307 179.2957668285817,98.95590027989238 180.22512144350912,98.67756546442979 181.45426786958706,98.60798172478098 182.08383067313116,98.5383979708422 182.41360166540835,98.57318984958692 182.74337265780196,98.46881420264253 183.82262317824643,98.4340223131585 184.6020818875404,98.32964662325685 184.87189451756421,98.32964662325685 185.56141568347812,98.19047898674035 186.5807078416692,98.08610322169261 187.18029146420304,98.22527090119547 187.39014573208988,98.4340223131585 187.51006245648023,99.16465124121169 187.48008327546995,99.93007033140748 187.27022900769953,100.62590436602477 187.12033310194965,100.93902921487461 186.9404580151895,101.94798509089742 186.82054129068274,102.99172938402626 186.73060374730267,103.65276577169425 186.85052047180943,103.47880895272829 186.82054129068274,103.16568645331427 186.91047883406281,102.19152571383165 186.9704371964326,101.91319355907035 187.0603747398127,101.66965273578535 187.15031228307635,100.97382084696437 187.3002081887098,100.73027934780112 187.39014573208988,100.2779875274573 187.09035392093938,101.49569489769056 186.88049965305254,102.43506616156083 186.79056210967246,103.47880895272829 186.6406662039226,103.86151383651304 186.43081193615217,104.10505308269057 186.2509368492756,104.20942699175794 185.44149895908777,104.31380086857826 184.3022900762735,104.69650480835116 183.2829979180824,104.55733978931676 183.07314365019556,104.55733978931676 182.77335183904506,104.38338343525538 182.77335183904506,104.17463569229585 183.70270645385608,103.75713982025627 184.12241498951335,103.61797441510134 184.81193615542725,103.02652080499684 185.20166551007424,102.46985763972043 185.47147814009804,101.21736217074795 185.6213740457315,100.2779875274573 185.56141568347812,99.96486206707777 185.44149895908777,99.86048684926936 184.93185288005043,99.68652808130719 184.24233171413653,99.86048684926936 183.85260235937312,100.06923725278466 183.10312283132225,100.24319582400494 182.02387231087778,100.3127792274463 181.00458015257027,100.34757092379732 180.70478834141977,100.45194599142997 180.31505898677278,100.48673767352011 179.9852879944956,100.69548769079847 179.65551700198557,100.66069603015785 178.66620402492117,100.97382084696437 177.5869535044767,101.18257056371658 176.8974323386792,101.28694537389674 176.11797362950165,101.25215377411223 175.75822345586494,101.18257056371658 174.73893129767384,101.39132015180076 174.43913948640693,101.49569489769056 174.1693268562667,101.53048647241667 173.8695350449998,101.66965273578535 173.5397640527226,101.73923584603472 173.26995142258238,101.94798509089742 173.12005551694892,102.2611087168043 173.1800138792023,102.64381497728755 173.44982650934253,102.81777222533128 173.68965995823964,103.0961036364024 173.98945176950656,103.30485204441356 174.2292852186365,103.58318305492867 175.12866065232083,104.20942699175794 175.4884108257247,104.31380086857826 176.5077029839158,104.8008785348793 177.37709923658986,105.14879072466283 177.76682859123684,105.21837311962736 178.5462873004144,105.25316431175452 179.77543372660875,104.97483467453276 180.19514226226602,104.76608729621512 180.584871616913,104.69650480835116 180.9146426093066,104.5225485257397 182.05385149188805,104.24421828766936 182.32366412202828,104.20942699175794 182.5934767521685,104.07026177254738 182.9232477445621,104.03547045885352 184.09243580838665,103.51360032375669 184.39222761965357,103.33964343328262 184.72199861204717,103.02652080499684 185.17168632894754,102.29590021283366 185.41151977784466,101.25215377411223 185.56141568347812,100.41715430578915 185.41151977784466,100.06923725278466 185.0217904233141,99.8952785920992 183.85260235937312,100.10402897410677 182.5934767521685,100.24319582400494 181.75405968073756,100.38236261656857 181.18445523933042,100.41715430578915 180.43497571116313,100.5911126982246 180.10520471888594,100.62590436602477 179.32574600959197,100.7998626511253 179.08591256069485,100.90423757926328 177.8867453157436,101.11298733908916 176.68757807067595,101.25215377411223 175.848160999245,101.18257056371658 174.67897293542046,101.35652856275556 174.28924358077347,101.49569489769056 173.8995142262429,101.53048647241667 173.5397640527226,101.66965273578535 173.2099930604454,101.8784020235762 173.06009715469554,102.22631721702055 173.12005551694892,102.50464911441668 173.44982650934253,102.88735509957769 174.1993060373934,103.61797441510134 174.70895211654715,104.03547045885352 175.39847328234464,104.38338343525538 176.2978487162618,104.76608729621512 177.22720333107281,105.14879072466283 177.5869535044767,105.32274668541504 177.8867453157436,105.28795550044742 178.45634975715075,105.35753786680289 179.08591256069485,105.21837311962736 179.77543372660875,105.00962589166011 180.73476752254646,104.66171355886036 181.42428868846036,104.38338343525538 182.11380985437427,104.38338343525538 183.2829979180824,104.66171355886036 184.03247744613327,104.69650480835116 184.51214434416033,104.6269223059644 185.14170714770444,104.34859215366305 185.6213740457315,104.34859215366305 185.86120749486145,104.41817471318063 185.6513532268582,105.18358192400774 185.14170714770444,105.91419628329459" stroke="#4dd2ff" stroke-linecap="round" stroke-linejoin="round" stroke-width="0.5"><title>2024-06-29 6.8km</title><desc>9223370317186179507</desc></polyline><polyline fill="none" points="12.708771929843351,135.92695332868607 12.680701754405163,136.1549988517363 12.905263157910667,136.90429012913955 13.01754385966342,137.09975712746382 13.242105263168924,137.9467793937947 13.326315789483488,138.27255658560898 13.185964912292548,138.663488773891 12.961403508787043,138.9241099646897 12.512280701776035,139.2173085481918 12.400000000023283,139.54308443400078 12.680701754405163,139.9014375215047 13.129824561299756,140.65071994045866 13.522807017434388,141.46515534294304 14.028070175438188,142.34474322668393 14.505263157887384,143.15917427558452 14.589473684201948,143.3872145942878 14.785964912269264,143.8758718672907 15.26315789471846,144.6902989812952 15.684210526174866,145.60245486424537 16.161403508624062,146.4168775411381 16.554385964758694,147.3616052242869 16.94736842100974,148.24117674256559 17.17192982463166,148.63209663386806 17.284210526267998,149.0881692308467 17.761403508717194,149.93515945549007 18.182456140290014,150.87987665092805 18.575438596424647,151.75943840490072 18.94035087712109,152.671573941916 19.305263157817535,153.6814352243091 19.670175438630395,154.65871727265767 19.978947368334047,155.63599630750832 20.31578947370872,156.61327232900658 20.568421052535996,157.32993949620868 20.624561403528787,157.78599957714323 20.70877192984335,158.07918071121094 21.045614034985192,158.3072102946171 21.2982456140453,158.27463464986067 22.14035087719094,157.81857527207467 23.066666666651145,157.3625152380846 23.880701754358597,156.97160611511208 24.610526315751486,156.61327232900658 25.564912280766293,156.18978642302682 26.40701754379552,155.79887585365213 27.305263157817535,155.37538885945105 27.754385964828543,155.24508505518315 28.568421052535996,154.82159732101718 29.382456140359864,154.39810902104364 29.85964912280906,154.20265269180527 30.112280701752752,154.03977232525358 31.178947368403897,153.55113072358654 32.1052631578641,153.16021689970512 32.919298245571554,152.76930259374785 33.17192982463166,152.70415016252082 34.126315789530054,152.21550650161225 35.22105263150297,151.98747253528563 36.14736842107959,151.69428576613427 36.371929824585095,151.62913311389275 36.54035087709781,151.69428576613427 36.62456140352879,151.92231994334725 37.21403508761432,152.80187880428275 37.71929824561812,153.6488591041416 37.88771929824725,153.94204406518838 38.30877192982007,154.7890213179926 38.72982456139289,155.66857222348335 39.122807017411105,156.51554486242821 39.54385964910034,157.3625152380846 39.8807017543586,158.2420590017864 40.27368421049323,159.15417588243145 40.66666666662786,160.35946916296962 41.00350877200253,161.2064292668074 41.312280701706186,162.02081184778945 41.5087719297735,162.60716601042077 41.90175438602455,162.86776751221623 42.21052631584462,163.74729599920101 42.29473684215918,163.94274644268444 42.43508771935012,164.07304667131393 42.63157894741744,164.07304667131393 42.85614035080653,163.9753215048404 43.47368421056308,163.8450212359894 44.371929824585095,163.32381962492946 45.32631578948349,162.9980681828165 46.25263157894369,162.86776751221623 47.17894736852031,162.6397412098304 47.45964912278578,162.5745908075769 47.628070175414905,162.8026171568199 48.6105263158679,162.44428996293573 48.778947368380614,162.216263355891 48.66666666662786,161.92308604851132 48.694736842182465,161.5973331668356 49.5087719297735,161.17385392010328 50.35087719291914,160.6852233169484 50.687719298293814,160.13144105602987 50.82807017536834,159.57765782764181 50.800000000046566,159.3170536206162 50.65964912273921,159.0564491992991 50.37894736835733,158.86099574278342 49.9859649122227,158.7306933713844 49.817543859709986,158.60039094649255 49.92982456146274,158.43751283999882 50.09824561397545,158.3397859359975 51.05263157887384,158.27463464986067 51.950877193012275,158.14433203745284 52.68070175440516,158.01402937143575 52.90526315791067,157.88372665195493 53.27017543860711,157.557969618676 53.775438596494496,156.74357557081385 53.97192982456181,156.35266568456427 54.477192982449196,155.96175531615154 54.67368421051651,155.57084446557565 54.81403508782387,154.65871727265767 54.89824561402202,154.1375005551381 54.87017543858383,153.87689187508659 55.03859649109654,153.02991218460375 55.37543859647121,152.11777767897001 55.4035087719094,151.75943840490072 55.59999999997672,151.04275864138617 55.54385964910034,150.74957099827589 55.4035087719094,150.52153597725555 55.12280701752752,150.42380663222866 54.364912280696444,150.42380663222866 53.382456140359864,150.55411241887487 52.84912280703429,150.65184172365116 52.568421052535996,150.61926529204356 51.585964912199415,150.74957099827589 51.36140350881033,150.78214741652482 50.40701754379552,150.78214741652482 49.45263157901354,150.8147238312813 48.750877192942426,150.94502945715794 47.71228070172947,151.27079328737454 47.51578947366215,151.43367507698713 46.56140350876376,151.62913311389275 46.05614035099279,151.69428576613427 45.88771929824725,151.75943840490072 44.98947368422523,151.82459103033761 43.8947368421359,151.9548962409317 42.88421052636113,152.21550650161225 42.687719298293814,152.24808276907424 42.687719298293814,152.24808276907424" stroke="#4dd2ff" stroke-linecap="round" stroke-linejoin="round" stroke-width="0.5"><title>2024-06-26 3.2km</title><desc>9223370317445915207</desc></polyline><polyline fill="none" points="79.69882352941204,136.97472002348513 79.04941176471766,136.97472002348513 78.59764705889393,135.99163297037012 78.79529411776457,135.33623991708737 78.8235294118058,135.86055446759565 78.65411764709279,135.9260937255749 78.54117647057865,136.05717220160295 78.42823529418092,136.5159464426979 78.76705882349052,137.10579806819442 78.76705882349052,137.630109707854 78.85176470596343,137.99057345985784 79.19058823538944,138.35103680420434 79.27529411762953,138.54765300199506 79.02117647056002,138.84257707142388 78.85176470596343,139.2685780232423 78.62588235281873,139.33411658060504 78.45647058822215,139.56350142561132 78.40000000002328,139.8584245549573 78.42823529418092,140.54657746266457 78.79529411776457,140.90703791656415 79.24705882347189,141.59518856040086 79.67058823537081,142.51272044124198 79.78352941176854,142.80764084219118 80.26352941174991,143.29917423715233 80.74352941173129,144.3477762801631 80.85647058836184,144.6426949831657 81.02588235307485,144.9048447124078 81.33647058834322,145.23253157085855 81.53411764698103,145.6912926066725 81.70352941169403,145.88790427707136 81.90117647056468,146.47773856058484 82.09882352943532,146.70711826506886 82.55058823525906,147.72294068647898 82.52235294121783,147.9195511037833 82.72000000008848,148.14892977074487 82.7482352941297,148.3455399252707 83.17176470591221,149.03367451156373 83.22823529411107,149.49243007725454 83.31294117646758,149.68903940319433 83.51058823533822,149.88564860791666 83.56705882353708,150.08225769142155 83.96235294116195,150.90146090093185 84.30117647058796,151.75343000565772 84.64000000013039,152.63816474284977 84.97882352943998,153.58843265168252 85.37411764706485,154.5386977280723 85.62823529413436,155.25958658609306 85.68470588244963,155.5217275849136 85.79764705873094,155.75110078204307 85.825882353005,155.9804738141247 86.19294117647223,156.93073176048347 86.44705882354174,157.81545212990022 86.64470588241238,158.47079896883224 86.75764705881011,158.73293732720776 87.18117647059262,158.83123915604665 88.19764705887064,158.37249702890404 89.04470588243566,158.01205632305937 89.86352941184305,157.5533130170952 90.06117647071369,157.42224337995867 90.51294117642101,157.22563882300165 90.71058823529165,157.09456905114348 90.96470588236116,157.0618015996879 91.35999999998603,156.86519682061044 91.44470588234253,156.73412690055557 92.29176470590755,156.4064518644882 93.30823529418558,156.0132413766114 94.18352941179182,155.58726280086557 95.11529411771335,155.1285160058469 96.04705882363487,154.70253624793258 96.97882352932356,154.27655592095107 97.995294117718,153.9161105841922 99.01176470587961,153.45736138444045 99.23764705879148,153.32629006323987 99.52000000013504,153.26075438241241 99.68941176484805,153.16245083592366 99.91529411775991,153.1296829803614 100.48000000009779,152.9003078972164 100.7341176471673,152.86754001461668 101.77882352948654,152.44155723560834 102.23058823531028,152.310485496826 102.40000000002328,152.21218165729078 102.65411764709279,152.310485496826 102.96470588236116,152.86754001461668 103.35999999998603,153.2935222244705 103.78352941188496,154.24378817985416 104.23529411770869,155.03021303538117 104.4894117647782,155.42342473569443 104.88470588240307,156.43921938320273 105.30823529418558,157.29117368880543 105.67529411765281,158.17589305803995 106.12705882359296,159.25721339741722 106.46588235301897,160.17469444556627 106.8329411764862,161.19047395483358 107.20000000006985,162.14071637249435 107.51058823533822,163.15648961797706 107.65176470601,163.48415771653526 108.10352941183373,163.64799163950374 108.32941176462919,164.4343932979682 108.44235294125974,164.5982267326326 108.64000000013039,164.66376008294174 109.60000000009313,164.46715999161825 109.96705882356036,164.1394929033995 110.6729411764536,163.77905871733674 111.54823529405985,163.68075841406244 112.169411764713,163.54969129583333 113.0729411765933,163.28755689781974 113.27058823534753,163.25479008295224 113.46823529421818,163.25479008295224 113.60941176477354,163.41862412376213 113.86352941184305,163.35309051754302 114.06117647059727,163.35309051754302 114.4000000001397,163.15648961797706 114.62588235293515,163.09095595782856 114.71058823529165,162.927121748653 114.62588235293515,162.43561861588387 114.62588235293515,162.23901715059765 115.47294117650017,161.9441147253383 116.20705882355105,161.48537707724608 116.6588235294912,160.9938717217883 116.80000000004657,160.20746157708345 116.7435294118477,159.94532443102798 116.63058823533356,159.71595425152918 116.4894117647782,159.48658390698256 116.29176470590755,159.38828228015336 116.00941176479682,159.2899806231144 115.86823529424146,159.12614446066436 116.8282352942042,158.86400642554509 117.81647058832459,158.76570460677613 118.63529411761556,158.6346354680718 119.03058823535684,158.53633357855142 119.482352941297,158.01205632305937 119.96235294127837,157.09456905114348 120.38588235306088,156.76689438562607 120.5835294118151,156.5375219192938 120.78117647068575,155.91493867893587 120.89411764719989,154.8991423608095 120.97882352943998,154.73530394188128 121.06352941179648,154.04718166281236 121.34588235302363,152.99861152443918 121.51529411773663,152.310485496826 121.59999999997672,152.08110982412472 121.57176470605191,151.3929818160541 121.48705882357899,151.16360548327793 121.03529411775526,150.90146090093185 120.10352941183373,150.99976514454465 119.03058823535684,151.13083742230083 118.29647058830597,151.2619096461567 117.3929411766585,151.29467769368785 116.43294117646292,151.32744573790114 115.72705882356968,151.3602137786511 115.52941176481545,151.42574985016836 115.0776470588753,151.42574985016836 114.08941176487133,151.62235798378242 113.12941176467575,151.91726995704812 112.48000000009779,152.1466457475035 111.54823529405985,152.310485496826 110.64470588241238,152.47432516195113 109.656470588292,152.6053968334163 108.64000000013039,152.9003078972164 107.76470588229131,153.16245083592366 106.71999999997206,153.42459355914616 106.12705882359296,153.6212004601257 105.78823529416695,153.9161105841922 105.67529411765281,154.34209139292943 105.78823529416695,154.73530394188128 106.21176470606588,155.5544951945776 106.69176470604725,156.3736843423103 107.25647058838513,157.35670854113414 107.79294117656536,157.9792889659002 108.44235294125974,158.37249702890404 109.12000000011176,158.83123915604665 110.02352941175923,159.2899806231144 110.70117647072766,159.42104949240456 111.09647058835253,159.68318706945865 112.11294117651414,159.8797901108628 113.15764705883339,159.68318706945865 114.20235294115264,159.38828228015336 115.16235294111539,159.1589116998657 115.86823529424146,159.06060997210443 116.4894117647782,158.92954095455934 116.71529411769006,158.92954095455934 117.76000000000931,158.79847188311396 118.43764705897775,158.73293732720776 119.05882352951448,158.50356627537985 119.34117647062521,158.20866039488465 119.82117647060659,157.3239411166287 120.4988235294586,156.57028942456236 120.66823529417161,156.4064518644882 120.80941176472697,155.88217110632104 120.80941176472697,155.6200304038648 120.95058823539875,154.5386977280723 120.97882352943998,154.14548493654002 121.28941176470835,153.09691512142308 121.54352941177785,152.04834185747313 121.59999999997672,151.58958996998263 121.54352941177785,151.32744573790114 121.34588235302363,151.03253321908414 121.11999999999534,150.93422898548306 120.01882352947723,151.03253321908414 118.94588235300034,151.16360548327793 118.26823529426474,151.32744573790114 118.07058823527768,151.29467769368785 117.84470588236582,151.3929818160541 116.94117647060193,151.3602137786511 115.95294117648154,151.45851788084838 115.75529411772732,151.42574985016836 115.36000000010245,151.42574985016836 115.13411764719058,151.5240539321385 114.9082352941623,151.49128590821056 114.25882352958433,151.62235798378242 113.89176470588427,151.6551259943226 113.10117647063453,151.91726995704812 112.9035294118803,151.91726995704812 112.7341176471673,152.04834185747313 111.80235294124577,152.24494960720767 110.70117647072766,152.44155723560834 109.5717647059355,152.5726289206359 108.69647058832925,152.83477212878643 108.47058823530097,152.83477212878643 108.04705882363487,153.03137939350563 107.39764705894049,153.22798653697828 107.17176470602863,153.195218688139 106.32470588234719,153.45736138444045 105.95764705887996,153.65396826522192 105.81647058832459,153.81780723977135 105.73176470596809,154.27655592095107 105.76000000000931,154.5714654387557 106.1552941177506,155.22681894613197 106.38117647066247,155.68556559970602 106.55058823537547,155.91493867893587 106.63529411773197,156.20984668118763 107.08705882367212,157.02903414494358 107.45411764702294,157.58608041802654 107.45411764702294,157.58608041802654" stroke="#4dd2ff" stroke-linecap="round" stroke-linejoin="round" stroke-width="0.5"><title>2024-06-25 4.9km</title><desc>9223370317535602707</desc></polyline><polyline fill="none" points="145.8539805825567,139.68086893550935 146.04970873787533,139.48616075204336 145.8539805825567,139.68086893550935 144.93126213585492,138.90203548106365 144.9033009710256,138.02584554778878 144.7355339806527,137.92849096065038 144.67961165041197,138.15565161730046 144.5677669903962,138.28545763337752 144.51184466015548,138.5775209745916 144.59572815534193,139.42125799754285 144.70757281559054,139.5510634931852 144.9033009710256,140.0053823077178 144.87533980584703,140.23254146974068 144.93126213585492,140.49215174053097 145.29475728154648,141.14117648324464 145.26679611648433,141.5630418503133 145.15495145635214,141.7577487527742 144.5677669903962,142.04980888121645 144.42796116508543,142.2120643912058 144.40000000002328,142.471673033986 144.84737864078488,143.41275257404777 145.01514563104138,143.93196767105837 145.26679611648433,144.19157489936333 145.6302912621759,144.61343618991668 145.93786407762673,145.29490323751816 146.55300970876124,146.13862230593804 146.77669902914204,146.49557969442685 146.8605825243285,146.75518481439212 147.00038834940642,146.94988851429662 147.05631067976356,147.17704267901718 147.55961165041663,148.11810819164384 147.95106796105392,148.8969189080235 148.39844660204835,149.90287990649813 148.76194174750708,150.5843355357356 148.81786407763138,150.9412878974108 148.95766990294214,151.200889361382 149.18135922332294,151.42804046728997 149.23728155333083,151.6876415310544 149.23728155333083,151.94724238137132 149.3770873786416,152.0770427263924 149.57281553396024,152.49889347932185 149.9922330097761,153.27769338843063 150.3836893204134,154.2836404274276 150.831067961175,155.25713451005868 151.13864077674225,156.10082695356687 151.47417475725524,157.00941629422596 151.78174757270608,157.85310405489872 152.08932038838975,158.85903651508852 152.42485436890274,159.7676179179689 152.73242718435358,160.87089182029013 152.8442718447186,161.06558681465685 153.0120388349751,161.19538341084262 153.2357281553559,161.19538341084262 153.76699029130396,160.87089182029013 154.71766990295146,160.44905225402908 155.61242718447465,159.92986432177713 156.56310679600574,159.5080234981724 157.3739805824589,159.18353017346817 157.56970873777755,159.15108082265942 158.3246601941064,158.7616883525916 159.30330097093247,158.30739653061028 160.17009708739351,157.9180030200223 160.44970873789862,157.75575558212586 160.70135922322515,157.65840707943426 161.5122330096783,157.23656322076567 162.3510679610772,156.84716838947497 162.77048543689307,156.65247079366236 163.02213592233602,156.65247079366236 163.41359223308973,156.39287381252507 164.22446601942647,156.03592761489563 165.23106796119828,155.61408158828272 166.15378640778363,155.2895842611033 166.99262135929894,155.02998615932302 167.80349514563568,154.70548823176068 168.27883495134301,154.6405886062712 168.50252427184023,154.3160902785894 168.92194174753968,154.21874071512138 169.62097087374423,154.15384098966024 170.65553398057818,153.82934216153808 171.66213592235,153.6021927834663 172.08155339816585,153.50484300000244 172.69669902918395,153.37504324194742 172.92038834956475,153.37504324194742 173.81514563108794,153.0829935913207 174.93359223310836,152.88829367409926 175.9122330097016,152.6935936367663 176.9188349514734,152.5637935451523 177.3102912621107,152.46644344145898 177.67378640780225,152.46644344145898 178.12116504856385,152.3041932018241 179.01592233020347,152.23929308273364 179.6590291261673,152.10949280427303 180.6656310679391,152.0445926451648 181.1130097087007,152.0445926451648 182.06368932046462,151.91479228669778 182.67883495159913,151.91479228669778 183.71339805831667,151.84989208748448 184.77592232997995,151.78499187491252 185.83844660199247,151.78499187491252 186.48155339807272,151.81744198288652 186.78912621363997,151.7525417636498 187.43223300972022,151.81744198288652 187.59999999997672,151.94724238137132 187.51611650490668,152.14194287892315 187.59999999997672,152.36909330778872 187.57203883491457,152.5313435138669 187.18058252427727,152.5637935451523 187.12466019426938,152.75849366246257 187.23650485428516,152.95319365974865 187.23650485428516,153.11544356585364 187.04077669908293,153.31014334291103 186.90097087377217,153.2452434305451 186.09009708743542,153.2127934693999 185.22330097097438,153.3425932941318 184.32854368933477,153.47239306551637 183.32194174756296,153.63464270465192 182.2314563106047,153.73199244812713 181.97980582516175,153.7644423559832 181.75611650478095,153.73199244812713 180.74951456312556,153.82934216153808 179.7708737864159,154.02404149842914 179.5471844660351,154.15384098966024 178.54058252437972,154.38098997081397 177.4780582524836,154.6405886062712 176.49941747565754,154.8352874428092 175.5207766990643,154.93263681605458 174.5141747572925,155.1273354724981 173.5075728156371,155.45183296641335 172.64077669905964,155.6465313026565 172.2213592233602,155.74388042575447 171.63417475728784,156.06837728596292 171.52233009703923,156.23062559086247 171.4943689320935,156.45777307773824 171.4943689320935,156.68492040134151 171.9976699029794,157.65840707943426 172.08155339816585,157.88555353909032 172.5568932039896,158.72923895844724 173.1161165048834,159.60537143054535 173.4516504855128,160.02721212411416 174.15067961160094,160.5788491036801 175.10135922324844,161.06558681465685 175.9681553398259,161.454976443114 176.83495145628694,161.81191651400877 177.72970873792656,162.07150903937872 178.76427184476051,162.0066109279578 179.63106796122156,161.74701834929874 180.58174757286906,161.55232377516222 181.56038834957872,161.3576290809433 182.48310679604765,161.26028168894118 183.48970873793587,161.1304851193563 184.21669902920257,161.06558681465685 184.4683495145291,160.96823933246196 184.8598058251664,160.7410950907506 185.16737864085007,160.3841538092529 185.55883495160379,159.57292212318862 185.8104854368139,159.18353017346817 186.1460194174433,159.02128338598413 186.31378640781622,158.85903651508852 186.5933980582049,157.9180030200223 186.67728155339137,156.976966719958 186.70524271845352,156.49022270546993 187.01281553402077,155.5167324251379 187.23650485428516,154.8352874428092 187.23650485428516,154.3160902785894 187.32038834958803,154.12139112179284 187.34834951453377,153.63464270465192 187.15262135921512,153.43994312762516 186.9289320387179,153.27769338843063 186.67728155339137,153.2452434305451 185.72660194174387,153.4074931864161 185.27922330098227,153.43994312762516 184.80388349515852,153.53729293114156 184.55223300971556,153.53729293114156 183.5735922330059,153.73199244812713 182.73475728160702,153.73199244812713 181.81203883490525,153.82934216153808 180.833398058312,153.86179205941153 179.8267961165402,154.08894125069492 178.8201941747684,154.34854012640426 177.813592233113,154.6405886062712 176.83495145628694,154.8352874428092 175.77242718439084,154.99753638161928 174.681941747549,155.19223499804502 173.8431067961501,155.48428269743454 173.36776699032634,155.5167324251379 172.80854368931614,155.6465313026565 171.8858252427308,156.0034779405105 171.69009708741214,156.06837728596292 171.55029126210138,156.26307524187723 171.52233009703923,156.49022270546993 171.8299029127229,157.3339118535514 172.08155339816585,157.7233060846047 172.1654368932359,158.08025037447806 172.1654368932359,158.08025037447806" stroke="#4dd2ff" stroke-linecap="round" stroke-linejoin="round" stroke-width="0.5"><title>2024-06-18 4.3km</title><desc>9223370318140349607</desc></polyline><polyline fill="none" points="12.400000000023283,187.71419696783414 12.671318911481649,188.13403809131705 13.002930914168246,189.04369208205026 13.063224005512893,189.25361188841634 13.51542219123803,190.16326288689743 13.90732728538569,191.14288432031753 13.997766922460869,191.35280283211614 14.299232379649766,191.73765310068848 14.299232379649766,191.982557590527 14.329378925263882,192.19247558442294 14.510258199530654,192.36740714713233 14.781577110872604,193.06713249877794 15.0830425680615,193.66189791672514 15.59553384501487,194.60652320904774 16.047732030740008,195.5511458797555 16.37934403354302,196.5657376801537 16.77124912769068,197.44038335661753 17.133007676224224,198.41998384598992 17.374180041835643,199.32961034757318 17.67564549902454,200.2392344183463 17.766085135983303,200.554103722563 17.886671318905428,200.79900186901796 18.157990230363794,201.603665966657 18.18813677597791,201.84856335792574 18.45945568731986,202.058475267404 18.791067690006457,202.0934605730581 19.032240055850707,202.0234899581992 19.182972784386948,201.9185340088152 19.90648988133762,201.53369525104063 20.207955338410102,201.46372452104697 21.172644801205024,200.97392900846899 22.046894626691937,200.48413279117085 22.408653175109066,200.34419088542927 22.951290997909382,200.2042489220912 23.222609909367748,200.0293213869736 24.2475924633909,199.609494935954 24.760083740460686,199.39958151624887 25.091695743147284,199.11969675522414 26.146824843017384,198.62989786980324 26.297557571553625,198.55992654303554 26.44829029997345,198.45496952565736 27.021074668620713,198.31502678565448 27.171807397156954,198.35001247603213 27.38283321703784,198.83981176419184 28.136496859719045,198.55992654303554 28.679134682402946,198.31502678565448 28.980600139591843,198.21006969278096 29.25191905105021,198.03514113277197 29.884996510809287,197.79024099785602 30.156315422151238,197.65029798453907 30.48792742495425,197.54534068671637 31.42247034201864,197.1604969847249 32.50774598750286,196.74066699526156 32.718771807383746,196.5657376801537 33.53272854152601,196.28585058898898 33.77390090713743,196.320836488012 34.2562456385931,196.11092104014824 35.37166782969143,195.8310335749702 35.79371946968604,195.62111782515422 36.00474528956693,195.58613185421564 36.27606420102529,195.69108975617564 36.66796929528937,196.5657376801537 37.09002093516756,197.40539757272927 37.66280530358199,198.3849981628009 38.0848569435766,199.3645959336427 38.50690858345479,200.2392344183463 38.92896022333298,201.18384145732853 39.320865317597054,202.12844587504514 39.501744591863826,202.7231954599556 39.65247732040007,202.93310683008167 40.014235868817195,203.94767662737286 40.46643405442592,205.1371684008045 40.73775296588428,206.11674674029928 41.06936496857088,207.0613374694076 41.37083042564336,208.14586433352088 41.551709699910134,208.28580303213676 41.79288206563797,208.28580303213676 42.69727843685541,208.0758949627343 42.96859734819736,207.7610326159338 43.933286810992286,207.3412157006387 44.86782972794026,207.20127661380684 45.892812281963415,207.02635267440928 46.58618283329997,206.81644382837112 47.24940683878958,206.95638307344052 48.063363573048264,206.64151969130035 48.18394975585397,206.501580316748 48.063363573048264,205.80188258149428 48.21409630146809,205.6969277971075 48.51556175854057,205.62695792291197 48.75673412415199,205.45203317451524 48.99790648999624,205.38206324994098 49.9324494068278,204.71734824945452 50.203768318286166,204.40248279628577 50.354501046822406,204.05263195102452 50.41479413828347,203.66779560607392 50.324354501091875,203.17800326491124 50.022889044019394,202.82815116117126 49.3898115841439,202.54826921937638 49.45010467548855,202.33835761193768 50.47508722974453,202.19841646845452 51.59050942095928,202.058475267404 52.25373342644889,201.98850464529824 52.67578506632708,201.84856335792574 52.8868108864408,201.70862201310229 53.51988834608346,200.72903098797542 53.881646894617006,200.09929241178907 54.39413817168679,199.78442268678918 54.66545708314516,199.11969675522414 54.66545708314516,198.59491220820928 54.786043265950866,197.68528374328162 54.93677599448711,197.19548279375886 55.0272156316787,197.0555395358242 55.298534542904235,195.93599140146398 55.5698534543626,194.7464674737712 55.60000000009313,194.25666229525814 55.47941381705459,194.01175944172428 55.32868108863477,193.83682872416102 55.11765526863746,193.69688408536604 53.91179344046395,193.69688408536604 52.947103977785446,193.90680102200713 52.10300069791265,194.11671782913618 51.13831123523414,194.18669006947312 50.1434752268251,194.25666229525814 49.54054431268014,194.25666229525814 49.148639218416065,194.18669006947312 48.03321702720132,194.3266345068114 47.309699930250645,194.5015649725974 46.58618283329997,194.8164395846834 45.53105373342987,195.1313139052363 44.566364270751365,195.30624395757332 43.90314026514534,195.41120194579707 43.45094207965303,195.41120194579707 42.51639916258864,195.58613185421564 41.76273551990744,195.6561037924257 41.3105373341823,195.86601952079218 41.06936496857088,195.90100546285976 40.04438241454773,196.21587878029095 38.98925331479404,196.4607800479862 38.6274947662605,196.63570941699436 38.47676203760784,196.8456245411071 38.38632240053266,197.26545440111659 38.77822749479674,198.21006969278096 39.35101186321117,199.1896679670608 39.95394277735613,200.16926342225634 40.58702023734804,200.93894358779653 41.159804605762474,201.46372452104697 42.06420097697992,201.8835486851167 43.08918353100307,202.40832816209877 44.023726448067464,202.7931659310707 44.89797627355438,203.1430180707539 45.92295882757753,203.21298845554702 46.91779483598657,202.93310683008167 47.94277739012614,202.6882102190575 48.15380321012344,202.6882102190575 48.63614794134628,202.51328396049212 48.93761339853518,202.44331343189697 49.9324494068278,202.6182397264056 49.75157013256103,202.47829869796988 49.87215631548315,202.58325447465177 50.022889044019394,202.65322497460875 50.29420795547776,202.93310683008167 50.41479413828347,203.17800326491124 50.41479413828347,203.17800326491124" stroke="#4dd2ff" stroke-linecap="round" stroke-linejoin="round" stroke-width="0.5"><title>2024-06-17 3.4km</title><desc>9223370318224643007</desc></polyline><polyline fill="none" points="79.35500650189351,186.3625346609333 79.49544863461051,186.29733630246483 79.18647594272625,186.10174114673282 78.70897269179113,186.0039435235376 78.65279583865777,186.19953873971826 78.54044213262387,186.39513383508893 78.51235370605718,186.78632366412785 78.59661898564082,186.98191839762148 78.54044213262387,187.17751301050885 78.8775032509584,188.09028627516818 78.96176853054203,188.35107815387892 79.27074122230988,188.87266126801842 79.29882964887656,189.1008536106092 79.24265279585961,189.52463895411347 79.1302990897093,189.65503433041158 78.96176853054203,189.68763316614786 78.48426527960692,190.01362133902148 78.42808842647355,190.241812860535 78.40000000002328,190.53520171827404 78.54044213262387,190.92638643991086 78.79323797125835,191.15457730463822 78.93368010397535,191.38276800513268 79.15838751627598,191.51316261742613 79.60780234064441,192.29552916504326 79.86059817939531,192.94749981359928 79.86059817939531,193.14309074680205 80.16957087116316,193.6972644024063 80.64707412209827,194.28403545267065 81.09648894658312,195.2619847904134 81.5178153446177,196.0117439070309 81.91105331596918,196.85929555632174 82.19193758128677,197.31566858309088 82.6413524056552,198.26101062074304 82.72561768523883,198.39140240481356 82.75370611180551,198.61958789784694 82.92223667097278,199.04336052079452 83.146944083157,199.36933907616185 83.20312093617395,199.82570849070908 83.51209362805821,200.15168624196667 83.90533159940969,200.96662915399065 84.35474642389454,201.91196030841093 84.74798439524602,202.88988612350659 85.00078023411334,203.50923758005956 85.33784135233145,204.42196383763803 85.47828348504845,204.68274228594964 85.75916775036603,205.53027076195576 86.0400520155672,206.54078252310865 86.37711313401815,207.42090304661542 86.6579973991029,208.3988118749403 86.74226267880294,208.82257143076276 87.02314694400411,209.05074941858766 87.44447334203869,209.01815257326234 88.4275682704756,208.52919949087664 89.18595578684472,208.30102112778695 89.74772431724705,208.0402456545853 90.75890767225064,207.5512910646794 91.62964889465366,207.02973867105902 92.50039011694025,206.67117090304964 93.28686605964322,206.24740847258363 94.29804941487964,205.79104829893913 94.88790637184866,205.4976735546952 95.0845253575826,205.3346874684794 95.89908972696867,204.97611778395367 96.7136540961219,204.6175476939825 97.58439531864133,204.25897719868226 98.14616384916008,203.96560103722732 98.42704811436124,203.90040629782015 99.2135240570642,203.5418349916581 100.08426527958363,203.1832632800797 101.0111833550036,202.88988612350659 101.48868660593871,202.7594961891009 101.68530559167266,202.62910620105686 102.16280884260777,202.49871615946176 102.41560468135867,202.53131367481546 102.86501950584352,203.02027600436122 103.06163849146105,203.0854709246778 103.34252275689505,203.02027600436122 103.6234070219798,203.05287346622208 104.0166449934477,203.1832632800797 104.21326397918165,203.1832632800797 104.99973992188461,203.5744323999097 105.61768530542031,203.83521154511254 105.78621586470399,203.86780892312527 105.67386215867009,204.3241718642821 105.67386215867009,204.5197557809297 105.84239271772094,204.97611778395367 106.31989596888889,205.7584511184541 106.797399219824,206.67117090304964 107.24681404419243,207.45350005617365 107.83667100127786,208.13803648218163 108.76358907669783,208.72478081428562 109.63433029898442,209.11594309919747 110.50507152138744,209.4745081033907 111.31963589065708,209.8004759371106 112.02184655389283,209.9960564764915 113.08920676202979,209.8004759371106 113.98803641088307,209.50710490180063 114.99921976588666,209.31152406078763 115.98231469443999,209.11594309919747 116.20702210662421,209.05074941858766 117.10585175547749,208.95295887242537 118.28556566964835,208.82257143076276 118.7349804941332,208.78997456192155 119.15630689193495,208.56179638643516 119.63381014298648,207.94245479698293 119.80234070215374,207.5186940652493 120.05513654090464,207.1927238861681 120.61690507142339,206.80155922917766 120.81352405715734,206.41039408973302 120.8697009102907,206.11701991851442 120.8697009102907,205.85624264957733 120.92587776319124,205.62806236339384 120.9820546163246,204.87832598146633 121.15058517549187,204.03079576330492 121.37529258767609,203.34625047197915 121.57191157341003,202.368326064141 121.59999999997672,201.8467651468527 121.54382314684335,201.58598436662578 121.37529258767609,201.39039864068036 121.1224967490416,201.22741044362192 120.2236671000719,201.22741044362192 119.18439531861804,201.32520337190363 118.17321196349803,201.52078913804144 117.58335500652902,201.65117958179326 116.712613784126,201.71637478360208 116.29128738620784,201.71637478360208 116.12275682692416,201.65117958179326 115.05539661890361,201.71637478360208 114.0723016904667,201.94455788424239 113.2015604681801,202.17274082056247 112.30273081921041,202.40092359288246 111.37581274379045,202.6617037030228 110.3084525357699,202.85728864496923 109.66241872566752,202.88988612350659 108.70741222368088,203.1506658316939 107.80858257471118,203.47664016514318 107.61196358909365,203.50923758005956 106.60078023397364,203.7374193907308 106.17945383617189,203.83521154511254 105.98283485043794,203.90040629782015 105.75812743813731,204.25897719868226 105.73003901168704,204.45456115546403 106.17945383617189,205.3346874684794 106.68504551355727,206.14961706200847 107.1625487646088,207.09493276724243 107.80858257471118,207.9098578376579 108.14564369316213,208.23582727953908 109.15682704804931,208.72478081428562 109.74668400525115,209.05074941858766 110.6736020805547,209.40931449641357 111.62860858242493,209.8004759371106 112.47126137837768,209.86566946367384 113.48244473338127,209.6374920621165 114.54980494151823,209.34412087596138 115.4767230169382,209.14853993454017 116.51599479839206,208.95295887242537 117.47100130026229,208.82257143076276 118.51027308194898,208.72478081428562 119.1282184656011,208.52919949087664 119.40910273080226,208.30102112778695 119.94278283487074,207.38830603376846 120.64499349810649,206.7037679895584 120.92587776319124,205.66065955717932 121.01014304289129,204.74793686452904 121.26293888164219,203.67222460443736 121.43146944080945,203.21586072508944 121.54382314684335,203.0854709246778 121.54382314684335,202.368326064141 121.59999999997672,201.68377718434203 121.4876462938264,201.45559389606933 121.06631989579182,201.26000808971003 120.08322496747132,201.16221514131757 119.4933680103859,201.22741044362192 118.5945383614162,201.45559389606933 117.77997399214655,201.71637478360208 117.52717815339565,201.65117958179326 117.0777633289108,201.74897237939877 115.95422626787331,201.71637478360208 115.42054616380483,201.68377718434203 115.05539661890361,201.78156997187762 114.83068920660298,201.78156997187762 113.90377113129944,201.9771554565814 113.42626788036432,202.04235059136408 112.75214564357884,202.33572853190708 111.79713914170861,202.53131367481546 111.01066319888923,202.7594961891009 109.94330299086869,202.9550810707151 108.84785435628146,203.1832632800797 107.7804941481445,203.5418349916581 107.44343302992638,203.5418349916581" stroke="#4dd2ff" stroke-linecap="round" stroke-linejoin="round" stroke-width="0.5"><title>2024-06-16 4.3km</title><desc>9223370318313038607</desc></polyline><polyline fill="none" points="148.07863757712767,178.35968089388916 147.1576253757812,178.18152845159057 147.65650698472746,178.04791407191078 146.5436172413174,177.64707068525604 146.8506213084329,176.75630627624923 146.3133641909808,177.2907651415444 146.15986215742305,176.39999999999418 146.3133641909808,176.80084454029566 146.1214866489172,176.66722973485594 145.96798461535946,176.88992105441866 145.89123359858058,177.2907651415444 146.3517396992538,177.91429965090356 146.46686622453853,178.18152845159057 146.62036825809628,179.16136597740115 146.8506213084329,179.65128390918835 146.8506213084329,179.8294357470586 147.11924986727536,180.00758751152898 147.19600088405423,180.18573920286144 147.1576253757812,180.58658024051692 146.3517396992538,181.61095009627752 146.0063601238653,181.70002562148147 145.81448258156888,181.96725208696444 145.9296091068536,182.72439284430584 146.58199274959043,183.65968254129984 147.38787842611782,184.2386703893717 147.8867600352969,185.17395681753987 148.15538859413937,185.9310919707641 148.76939672860317,186.73276304383762 149.38340486283414,188.0688782024954 149.53690689639188,188.3806378133013 150.26604155590758,189.49406316346722 150.88004969037138,190.87470662395936 151.45568231656216,192.07719895621995 151.87781290896237,193.01246846289723 152.06969045102596,193.1906148068374 152.3383190096356,194.12588191009127 152.5685720599722,194.30402779611177 152.6453230769839,194.61578292038757 152.6453230769839,194.92753782030195 152.72207409376279,195.19475612748647 152.9523271440994,195.37290157392272 153.60471078706905,196.7535263011232 154.18034341279417,198.2232187570189 154.64084951370023,199.4256906947994 155.1013556146063,200.58362348089577 155.63861273229122,202.00876727720606 156.09911883296445,203.38937085997895 156.52124942536466,204.5918284607469 156.75150247570127,205.43800032755826 157.25038408488035,206.7295226227434 157.36551061016507,207.3530147667916 157.55738815222867,207.75383067133953 157.74926569405943,208.02104106845218 157.94114323612303,208.11011116407462 158.17139628645964,207.88743589050137 159.39941255538724,207.30847964342684 160.47392679052427,206.7740578057419 161.77869407623075,206.1060295815987 162.81483280286193,205.6606768600759 163.0834613617044,205.48253564318293 163.35208992054686,205.43800032755826 164.50335517246276,204.85904080769978 165.0406122901477,204.54729305350338 165.30924084899016,204.50275764177786 166.65238364296965,203.79019043102744 167.68852236983366,203.2557642539614 168.9549141470343,202.85494418840972 170.06780389044434,202.32051685781335 171.33419566764496,201.74155317241093 171.5644487182144,201.5634103443299 172.86921600392088,200.98444564727833 173.75185269699432,200.71723091090098 173.98210574733093,200.53908766168752 174.28910981467925,200.49455183796817 174.51936286501586,200.31640849719406 175.86250565899536,199.82651393249398 177.32077497825958,199.3811547566438 178.54879124718718,198.89125913433963 179.31630141520873,199.82651393249398 179.7384320073761,200.1382650831656 180.50594217539765,201.42980317526963 181.19670132664032,202.72133741763537 181.35020336019807,202.98855091814767 182.04096251144074,204.36915137906908 182.4247175953351,205.17078833759297 182.6165951373987,205.6606768600759 183.15385225508362,206.95219849143177 183.53760733897798,207.70929558915668 183.53760733897798,207.9319709543779 183.8446114063263,208.37732134148246 184.34349301550537,209.6242999904207 184.8039991161786,210.91580980806611 185.22612970881164,212.2073157763225 185.609884792706,213.45428340355284 185.91688885982148,214.79031616516295 186.18551741866395,215.9036736530834 186.1471419101581,216.17087902448839 185.26450521708466,216.30448164851987 184.9958766582422,216.1263448074169 183.76786038954742,216.17087902448839 183.15385225508362,216.34901584731415 182.77009717095643,216.52715259697288 181.58045641053468,216.7498234307859 180.3524401418399,216.70528927323176 179.16279938141815,217.10609652716084 178.24178717983887,217.23969886274426 177.0521464194171,217.23969886274426 176.55326481023803,217.4178352461604 175.67062811693177,217.81864184106234 174.51936286501586,217.90770992296166 173.0994690542575,217.72957374100224 172.14008134417236,217.86317588423844 170.60506100812927,218.30851606477518 169.3770447394345,218.7093218358932 167.95715092867613,218.442118029634 167.4198938109912,218.7093218358932 166.57563262619078,218.442118029634 166.2686285590753,218.62025391875068 165.73137144139037,218.57571995339822 165.0406122901477,218.7093218358932 164.81035923957825,218.88745761520113 164.8487347480841,219.24372895408305 164.61848169774748,219.37733063058113 164.311477630632,219.37733063058113 162.92995932814665,219.5109322659555 161.58681653416716,219.60000000000582 160.70417984109372,219.60000000000582 160.3971757737454,219.5109322659555 159.74479213100858,218.84292367726448 159.66804111399688,217.90770992296166 159.39941255538724,217.01702828056295 159.43778806366026,216.17087902448839 159.16915950505063,215.01298789156135 158.78540442092344,213.76602474963875 158.74702891265042,213.09800730471034 158.36327382852323,211.895573308866 157.97951874462888,210.47046202982892 157.8260167108383,209.89150923394482 157.94114323612303,209.35709058202337 158.3248983202502,208.91174120188225 159.47616357216612,208.33278632341535 159.7831676392816,208.2437162734277 160.05179619812407,208.0655761185335 160.32042475696653,208.0655761185335 161.24143695854582,207.4866201094119 162.27757568540983,207.04126880690455 162.62295526103117,206.8185929840256 163.85097152972594,206.28417054197052 165.19411432393827,205.57160626072437 166.42213059263304,205.0371822809393 167.68852236983366,204.36915137906908 168.7630366049707,203.8347259159782 170.06780389044434,203.2557642539614 171.3725711761508,202.6322662141174 172.6773384618573,202.0978386088682 173.7134771887213,201.6079460582696 174.55773837328888,201.38526744299452 174.78799142385833,201.20712446855032 174.9798689656891,201.25166021901532 176.36138726840727,200.67269510540063 177.2440239614807,200.31640849719406 178.66391777223907,199.87104982484016 179.16279938141815,199.7374421338609 179.16279938141815,199.7374421338609" stroke="#4dd2ff" stroke-linecap="round" stroke-linejoin="round" stroke-width="0.5"><title>2024-06-15 3.6km</title><desc>9223370318394354007</desc></polyline></svg>