<?xml version="1.0" encoding="utf-8" ?>
<svg baseProfile="full" height="300mm" version="1.1" viewBox="0,0,200,300" width="200mm" xmlns="http://www.w3.org/2000/svg" xmlns:ev="http://www.w3.org/2001/xml-events" xmlns:xlink="http://www.w3.org/1999/xlink"><defs /><rect fill="#222222" height="300" width="200" x="0" y="0" /><text fill="#FFFFFF" style="font-size:12px; font-family:Arial; font-weight:bold;" x="10" y="20">Over 3km Runs</text><text fill="#FFFFFF" style="font-size:4px; font-family:Arial" x="10" y="280">ATHLETE</text><text fill="#FFFFFF" style="font-size:9px; font-family:Arial" x="10" y="290">SunHao</text><text fill="#FFFFFF" style="font-size:4px; font-family:Arial" x="120" y="280">STATISTICS</text><text fill="#FFFFFF" style="font-size:3px; font-family:Arial" x="120" y="285">Number: 14</text><text fill="#FFFFFF" style="font-size:3px; font-family:Arial" x="120" y="290">Weekly: 2.0</text><text fill="#FFFFFF" style="font-size:3px; font-family:Arial" x="141" y="285">Total: 63.4 km</text><text fill="#FFFFFF" style="font-size:3px; font-family:Arial" x="141" y="290">Avg: 4.5 km</text><text fill="#FFFFFF" style="font-size:3px; font-family:Arial" x="167" y="285">Min: 3.2 km</text><text fill="#FFFFFF" style="font-size:3px; font-family:Arial" x="167" y="290">Max: 7.0 km</text><polyline fill="none" points="13.374672489240766,39.14920526827336 13.43755458528176,39.36814499506727 13.563318777480163,39.47761480792542 13.68908296956215,39.7330442397797 13.68908296956215,39.9884734879015 13.43755458528176,40.134432975697564 13.28034934506286,40.46284160378855 12.65152838442009,40.86422951443819 12.49432314420119,41.04667841462651 12.400000000023283,41.411575933743734 12.557205240242183,41.4845553925843 12.777292576502077,41.812962771451566 12.90305676870048,42.14136984659126 13.374672489240766,42.542755859030876 14.003493449883536,43.4549951084482 14.255021834280342,44.00233753278735 14.31790393020492,44.257763708621496 14.789519650861621,45.0240411334089 14.946724890964106,45.20648789545521 15.449781659524888,46.26467726621195 15.73275109170936,46.77552617833135 15.921397379948758,46.95797204005066 16.110043668188155,47.50530906300992 16.267248908407055,47.68775454972638 16.393013100605458,47.97966713341884 16.550218340707943,48.19860141372192 16.613100436748937,48.52700258092955 16.770305676967837,48.70944754261291 16.927510917186737,49.220292936166516 17.241921397391707,49.69464871485252 17.430567685631104,50.20549269070034 17.587772925850004,50.38793678971706 17.713537118048407,50.643358370667556 17.744978166068904,50.93526852381183 18.027947598486207,51.44611071431427 17.996506550349295,51.738020207412774 18.21659388660919,52.35832708320231 18.37379912682809,52.540770075662294 18.845414847135544,53.4529836315196 19.128384279669262,54.146264366136165 19.379912663949654,54.620613562408835 19.72576419217512,55.64228660156368 20.165938864811324,56.77342117924127 20.5746724891942,57.72211191707174 20.889082969632,58.780263979773736 21.23493449797388,59.874900725641055 21.36069869005587,60.0938276698289 21.54934497817885,60.896558643173194 21.67510917049367,61.115484957234 21.73799126641825,61.58982484129956 21.926637554657646,62.10065169990412 22.20960698707495,62.246602096071 22.52401746727992,62.31957727155532 23.1842794760596,62.02767647948349 23.6558951967163,61.73577544736327 24.221834061201662,61.51684951587231 24.72489082987886,61.407386499398854 25.825327511061914,60.823583175224485 26.737117903889157,60.34924226734438 27.64890829694923,59.947876388643635 28.65502183418721,59.40055855020182 29.00087336252909,59.29109488116228 30.06986899569165,58.7437760301691 30.28995633206796,58.59782419397379 31.044541484792717,58.37889632736915 31.79912663763389,57.86806411325233 32.14497816597577,57.79508802262717 33.213973799254745,57.39371925627347 33.748471615836024,57.21127875792445 33.93711790407542,57.065326291689416 34.628820960759185,56.73693302340689 35.69781659403816,56.29907485973672 36.51528384280391,55.93419264405384 36.76681222720072,55.7882396527566 37.427074235863984,55.496333490271354 37.93013100454118,55.42335691212793 38.49606986902654,55.20442708773771 38.71615720540285,55.05847379632178 39.03056768560782,54.91252044501016 39.25065502198413,54.91252044501016 39.47074235812761,54.985497128247516 39.7537117904285,55.42335691212793 40.13100436690729,55.7882396527566 40.63406113546807,56.62746853311546 41.10567685600836,57.53967158749583 41.60873362456914,58.45187229782459 42.04890829708893,59.40055855020182 42.55196506564971,60.53168115296285 43.05502183409408,61.55333718046313 43.463755458709784,62.61147782354965 43.935371179133654,63.742590195994126 44.06113537121564,64.216926569934 44.53275109187234,65.31154655251885 44.91004366823472,66.26021447405219 45.224454148556106,67.13590569028747 45.287336244713515,67.61023753040354 45.66462882095948,68.85079473172664 45.853275109198876,68.85079473172664 46.010480349417776,68.63187318766722 45.66462882095948,67.68321160343476 45.3187772926176,66.58859893330373 44.9414847161388,65.60344464457012 44.59563318779692,64.58180027245544 44.18689956353046,63.52366550193983 43.935371179133654,62.90337813575752 43.43231441057287,61.73577544736327 43.11790393025149,61.042509534279816 42.99213973805308,60.67763219404151 42.5205240175128,59.65597364649875 42.08034934499301,58.7437760301691 41.51441048050765,57.57615966084995 40.979912663809955,56.55449218748254 40.508296943386085,55.7882396527566 40.57117903942708,55.64228660156368 40.728384279529564,55.605798329313984 40.728384279529564,55.7882396527566 40.822707423591055,55.93419264405384 40.60262008756399,55.97068088251399 40.91703056788538,56.18961023443262 41.42008733632974,57.21127875792445 41.923144104890525,58.15996832557721 42.5205240175128,59.21811908311793 42.929257642128505,60.23977889085654 43.36943231453188,61.15197266309406 43.809606987051666,62.246602096071 44.28122270759195,63.377715630835155 44.46986899571493,63.852052492351504 44.59563318779692,64.03448957795626 45.06724890845362,63.998002168373205 45.507423580856994,64.1804391790065 45.72751091711689,64.39936346808099 46.07336244545877,65.05613552502473 46.63930131017696,65.67641913003172 47.26812227081973,65.9683169220807 47.99126637564041,66.07777853214066 48.2113537119003,66.04129133254173 48.84017467265949,65.8588552782021 49.751965065603144,65.71290636717458 50.03493449790403,65.74939360050485 50.9781659389846,66.18724010861479 51.70131004380528,66.36967599426862 52.675982532906346,66.29670165124116 53.839301310130395,65.895342496573 54.81397379923146,65.31154655251885 55.191266375710256,65.05613552502473 55.474235808011144,64.65477496795938 55.59999999997672,64.2534139570198 55.56855895218905,63.7061027562886 55.28558951977175,63.23176569992211 54.97117903945036,62.97635317617096 54.02794759836979,62.72094046877464 53.4620087336516,62.647965375712374 52.51877729280386,62.90337813575752 51.544104803702794,63.15879071192467 51.29257641930599,63.26825318826013 51.0410480350256,63.304740672843764 50.88384279492311,63.377715630835155 50.12925764196552,63.45069057389628 49.40611353726126,63.26825318826013" stroke="#4dd2ff" stroke-linecap="round" stroke-linejoin="round" stroke-width="0.5"><title>2024-07-08 3.2km</title><desc>9223370316411520207</desc></polyline><polyline fill="none" points="79.30000000004657,43.35927215637639 78.56874999997672,42.771723611920606 79.10312499990687,42.771723611920606 78.93437500006985,42.73908199419384 78.82187500002328,42.543232217693 79.07499999995343,42.38002397827222 79.27187499997672,42.28209899435751 79.49687499995343,42.02096555623575 79.4124999998603,41.62926499635796 79.69374999997672,42.31474065899965 79.94687500002328,42.67379874893231 79.97499999997672,42.80436522630043 80.65000000002328,43.78361209560535 80.70624999993015,44.04474408403621 80.84687500004657,44.24059293442406 81.32499999995343,44.697573115467094 81.40937499993015,44.92606295939186 80.93124999990687,45.0892698901298 80.79062499990687,45.25247673687409 80.59375,45.18719400826376 80.11562499997672,45.35040080465842 79.44062500004657,45.905303285166156 79.1875,45.970585866161855 78.99062500009313,46.16643352867686 78.40000000002328,46.49284603097476 78.76562499988358,47.08038768955157 78.93437500006985,47.24359351294697 78.93437500006985,47.40679925234872 79.44062500004657,48.28810879573575 79.58124999993015,48.45131399828824 79.69374999997672,48.67980114091188 79.72187500004657,48.97357008274412 80.28437500004657,49.85487527734949 80.34062500006985,50.083361410012 80.734375,50.44241071486613 80.93124999990687,51.19314885840868 81.09999999997672,51.323711832781555 81.35312499990687,51.78068181974231 81.52187499997672,51.943885227141436 81.74687499995343,52.564057410229 81.88749999995343,52.72726041506394 82.08437499997672,53.28215000385535 82.19687500002328,53.477993156557204 82.36562499997672,53.90231957321521 82.50625000009313,54.06552189012291 82.73124999995343,54.55512833769899 82.81562500004657,55.07737438287586 82.90000000002328,55.30585675762268 83.06875000009313,55.50169866223587 83.15312500006985,55.9913028954179 83.40625,56.415625953435665 83.49062499997672,56.6767475536617 84.0531249998603,57.655951641499996 84.50312500004657,58.63515270984499 84.671875,59.19003197486745 84.8125,59.48379119334277 84.84062499995343,59.67963052124833 85.26250000006985,60.65882534944103 85.40312500006985,60.88730370820849 85.43124999990687,61.14842163116555 85.51562500011642,61.31162022409262 85.57187500002328,61.57273779818206 85.85312500002328,62.09497230226407 85.96562499995343,62.61720594766666 86.27500000002328,63.49847327664611 86.35937500011642,63.75958905252628 86.44374999997672,64.24918055380112 86.58437499997672,64.51029571244726 86.640625,64.99988605635008 86.78125,65.16308266989654 87.28749999997672,65.26100059773307 87.99062499997672,64.86932870509918 88.63749999995343,64.73877130026813 89.56562500004657,64.44501694297651 90.4375,63.98806518033962 90.60624999995343,63.85750741313677 90.71874999988358,63.72694959232467 91.61875000002328,63.269996796530904 92.40625,62.845682897401275 93.08125000004657,62.454008025699295 93.30625000002328,62.38872883352451 93.81250000011642,62.09497230226407 94.71250000002328,61.73593617300503 95.30312499997672,61.47481873308425 95.44374999997672,61.34425993260811 96.45625000004657,60.919943460292416 97.01874999993015,60.593545788142364 97.52499999990687,60.39770702389069 97.75000000011642,60.234507961286 98.2281250001397,60.07130881489138 98.39687499997672,59.9407494373736 99.46562499995343,59.61435075866757 99.66250000009313,59.51643108975259 99.88750000006985,59.48379119334277 100.47812500002328,59.157392044959124 100.984375,59.09211217510165 101.74375000002328,58.928912441508146 102.19374999997672,58.733072650647955 102.39062500011642,58.863632524735294 102.58750000002328,59.19003197486745 102.78437500004657,59.287951744569 103.51562500011642,59.25531182467239 103.71249999990687,59.38587148403167 104.10624999995343,59.41851139051141 104.921875,59.908109584561316 105.09062499995343,59.97338928678073 105.17500000004657,60.07130881489138 105.87812499993015,60.36506721802289 105.65312499995343,60.691465125011746 105.62499999988358,60.85466395277763 105.79374999995343,61.40953933951096 106.07500000006985,61.80121549940668 106.1875,62.16025155503303 106.32812500011642,62.356089232314844 106.72187500004657,63.20471777196508 106.83437499997672,63.53111276033451 107.22812500002328,64.0207046137948 107.81874999997672,64.54293509223498 108.71875000011642,65.03252538572997 109.64687499997672,65.45683636298054 110.46250000002328,65.78322903660592 110.71562500006985,65.91378601206816 110.85624999995343,65.91378601206816 111.55937499995343,66.20753901079297 112.03749999997672,66.37073500364204 112.234375,66.24017821607413 112.88125000009313,66.07698215602431 114.00625000009313,65.71795052863308 114.31562500004657,65.58739347266965 114.84999999997672,65.48947564538685 115.13125000009313,65.52211492453353 115.41249999997672,65.42419707716908 115.63750000006985,65.42419707716908 115.86250000004657,65.35891849550535 116.14374999993015,65.39155778803979 116.36875000002328,65.29363990039565 117.04375000006985,65.16308266989654 117.38125000009313,65.19572198257083 118.44999999995343,65.06516471185023 118.87187499995343,64.86932870509918 119.32187500002328,64.60821384159499 119.80000000004657,63.79222850941005 119.91249999997672,63.56375224067597 120.13749999995343,63.33527580756345 120.33437500009313,63.20471777196508 120.64375000004657,62.715124660520814 120.72812500002328,62.290810019942 120.69999999995343,62.06233267096104 120.89687500009313,61.57273779818206 120.8687500001397,61.34425993260811 121.12187499995343,60.4956264210341 121.09374999988358,60.26714778045425 121.34687500004657,59.51643108975259 121.375,59.25531182467239 121.54375000006985,59.059472235065186 121.59999999997672,58.83099256109563 121.59999999997672,58.2434726448264 121.48750000004657,58.04763243114576 121.00937500002328,57.68859172571683 120.58750000002328,57.62331155384891 119.828125,57.68859172571683 119.34999999997672,57.81915202920209 118.50625000009313,57.884432160819415 118.0,57.98235233311425 117.74687499995343,57.917072221578564 117.46562500006985,58.014992383803474 116.53749999997672,57.98235233311425 116.25625000009313,58.08027247519931 115.77812499995343,58.08027247519931 115.32812499988358,58.17819258701638 114.59687500004657,58.30875268924865 114.09062500006985,58.406672730634455 113.86562499997672,58.53723273877404 112.85312500002328,58.863632524735294 112.51562499988358,58.928912441508146 112.12187500006985,58.961552394903265 111.78437500004657,59.059472235065186 110.80000000004657,59.157392044959124 110.51874999993015,59.157392044959124 110.265625,59.287951744569 109.703125,59.287951744569 108.60624999995343,59.58171087235678 107.59375,59.8754697284312 107.34062500006985,60.00602913281182 106.69374999997672,60.136588483524974 106.44062499993015,60.26714778045425 105.765625,60.430346826295136" stroke="#4dd2ff" stroke-linecap="round" stroke-linejoin="round" stroke-width="0.5"><title>2024-07-04 3.2km</title><desc>9223370316754174107</desc></polyline><polyline fill="none" points="145.0697674419498,43.58748485459364 144.95813953492325,43.68465082003968 145.23720930237323,45.40124460111838 144.67906976747327,44.688697374629555 145.1534883721033,43.94375991457491 144.9860465116799,43.846594029135304 144.7906976743834,43.87898266100092 144.67906976747327,44.33242315694224 144.51162790704984,44.300034571788274 144.53953488369007,44.52675459830789 144.59534883720335,44.688697374629555 144.5674418604467,44.267645983345574 144.65116279071663,44.0409257702122 144.95813953492325,43.68465082003968 145.26511627912987,43.68465082003968 145.46046511630993,43.846594029135304 145.43255813943688,44.00853715502308 145.26511627912987,43.911371289461385 145.3488372093998,44.0409257702122 145.48837209306657,44.10570299049141 145.54418604657985,43.846594029135304 145.76744186040014,43.97614853648702 145.90697674406692,44.170480197673896 145.93488372093998,44.33242315694224 146.43720930244308,45.077359697956126 146.91162790707313,45.59557538325316 146.99534883734304,45.82229447748978 147.3302325581899,46.30812055870774 147.35813953483012,46.53483914016397 146.66046511637978,46.858722545031924 146.35348837217316,46.858722545031924 146.18604651163332,46.98827581375372 145.59999999997672,47.15021732461173 145.04186046507675,47.571264863567194 144.73488372087013,47.89514720294392 144.51162790704984,48.05708824770409 144.40000000002328,48.219029209256405 144.45581395353656,48.445746415585745 144.7069767442299,48.542910882708384 144.73488372087013,48.73723972696462 144.81860465114005,48.96395656041568 145.37674418604,49.61171804272453 145.5162790697068,49.8060462277208 145.87906976754311,50.71290950613911 146.18604651163332,51.13395228382433 146.26976744190324,51.3606673925824 146.6046511627501,51.87887274287641 146.99534883734304,52.785730054893065 147.49767441861331,53.627809507539496 147.97209302324336,54.56704931874992 148.05581395339686,54.85853696678532 148.2232558139367,55.1176368718734 148.61395348829683,55.9273227021331 149.06046511640307,56.73700645173085 149.1720930231968,57.09326664239052 149.33953488373663,57.222815702698426 149.3953488372499,57.417139193363255 149.3116279070964,57.643849780986784 149.42325581389014,57.7733986149542 149.8139534884831,58.77740027217078 150.2604651163565,59.651850721944356 150.65116279083304,60.591072575887665 151.04186046519317,61.53029163024621 151.40465116279665,62.43712116408278 151.79534883715678,63.570654411421856 152.1581395349931,64.60702409764053 152.49302325583994,65.57861758279614 152.7441860465333,66.45304915789166 152.8279069766868,66.80929836328141 153.27441860479303,66.97122968707117 154.16744186053984,66.55020807206165 154.92093023261987,66.12918589447509 155.70232558134012,65.83770867274143 156.1209302325733,65.61100398065173 156.4837209302932,65.48145836906042 157.40465116291307,64.99566185116419 158.3255813953001,64.54225109209074 159.07906976749655,64.21838586477679 159.58139534888323,63.92690687556751 159.83255813946016,63.86213373020291 160.05581395351328,63.700200808641966 160.27906976744998,63.63542761671124 160.58604651177302,63.408721340063494 161.56279069767334,63.02008162913262 162.59534883720335,62.53428131653345 163.40465116279665,62.14564052710193 164.18604651163332,61.82177283643978 164.9674418605864,61.53029163024621 165.4139534884598,61.4331311682472 166.41860465123318,60.97971528279595 166.78139534895308,60.91494153151871 167.5348837210331,60.62345948640723 168.17674418608658,60.429137973173056 168.42790697689634,60.234816340118414 169.01395348843653,60.00810761671164 169.26511627924629,60.072881554369815 169.7953488372732,59.943333665898535 170.8279069768032,59.61946371148224 171.69302325579338,59.36036750837229 172.7255813953234,59.13365815585712 173.6744186046999,58.93933572381502 174.65116279083304,58.74501317189424 175.60000000009313,58.5183033766225 176.6046511628665,58.32398056506645 177.7767441861797,58.16204479735461 178.36279069783632,58.064883296668995 179.06046511651948,58.03249612316722 179.3953488372499,57.96772176612285 180.34418604662642,57.87056020548334 181.3488372093998,57.80578581511509 181.60000000020955,57.80578581511509 182.54883720946964,57.708624204591615 183.49767441872973,57.676236994419014 184.47441860474646,57.643849780986784 185.39534883736633,57.579075344023295 186.4837209302932,57.61146256420761 186.73488372098655,57.54668812057935 187.2093023256166,57.643849780986784 187.37674418615643,57.579075344023295 187.5162790698232,57.15804117923835 187.5162790698232,56.96371752876439 187.60000000009313,56.7046191416739 187.5720930233365,55.862547912372975 187.46046511642635,55.473898893542355 187.46046511642635,54.56704931874992 187.4325581395533,54.1783987020317 187.46046511642635,53.95168562087929 187.2930232558865,52.91528088640189 187.09767441870645,51.976036151114386 186.84651162812952,51.10156439774437 186.56744186067954,50.162314255489036 186.37209302338306,49.44977779703913 186.00930232566316,48.51052273041569 185.56279069778975,47.571264863567194 185.39534883736633,47.21499390574172 185.25581395369954,46.7939458907058 184.89302325586323,46.2109554024355 184.61395348852966,45.56318692790228 184.36279069783632,45.20691369922133 183.97209302335978,44.42958889264264 183.52558139548637,43.58748485459364 183.44186046521645,43.328375466924626 183.21860465116333,43.036877151113 182.6046511628665,42.58343479037285 181.7953488372732,42.25954699021531 181.2093023256166,42.03282533201855 181.04186046519317,41.8708811904944 180.8465116280131,41.320270486787194 180.42790697677992,41.02877031292883 179.98139534890652,41.12593706752523 179.84186046523973,41.223103792144684 180.0372093024198,41.06115923443576 179.4511627908796,41.51460378622869 178.75348837219644,41.773714665701846 178.53023255814333,42.03282533201855 178.33488372107968,42.16238058524323 177.6930232559098,42.389102150220424 177.3302325581899,42.71298981711152 176.88372093031649,42.745378565537976 176.68837209313642,42.874933525774395 176.57674418622628,43.036877151113 176.57674418622628,43.036877151113" stroke="#4dd2ff" stroke-linecap="round" stroke-linejoin="round" stroke-width="0.5"><title>2024-07-03 3.3km</title><desc>9223370316842663807</desc></polyline><polyline fill="none" points="14.04970873799175,87.99795981220086 13.853980582556687,87.77080018311972 13.602330097113736,88.09531388894538 13.294757281662896,88.2575706167554 13.238834951655008,88.09531388894538 13.182912621414289,87.44628614370595 12.903300971025601,87.12177177055855 13.294757281662896,86.76480557495961 12.511844660155475,85.85616252786713 12.400000000023283,86.08332353481092 12.623689320520498,86.9595144589839 12.763495145714842,87.0893203150772 13.043106796219945,87.86815432991716 13.071067961282097,88.2575706167554 13.182912621414289,88.61453512433218 13.21087378647644,88.87414542172337 13.462524271919392,89.29601169965463 13.630291262175888,89.36091415394912 13.770097087486647,89.49071902246214 13.462524271919392,89.91258447637665 13.182912621414289,90.10729141882621 12.623689320520498,90.72386261075735 12.651650485466234,90.88611798742204 12.567766990396194,91.01592222871841 12.903300971025601,91.56758965877816 13.462524271919392,92.15170706325443 13.630291262175888,92.50866716715973 13.853980582556687,92.67092162650079 13.993786407751031,92.96297944302205 14.189514563186094,93.19013533572434 14.35728155344259,93.70934819095419 14.692815533955581,94.32591234735446 14.776699029142037,94.52061656763544 14.944466019398533,94.71532066780492 15.056310679763556,94.91002464786288 15.224077670020051,95.59148763245321 15.727378640905954,96.30539965751814 15.923106796224602,96.46765216530184 16.28660194168333,97.40871506609255 16.42640776699409,97.6358677597309 16.650097087491304,98.09017265660805 16.76194174750708,98.21997393565834 16.8178640777478,98.44712604559027 17.0415533981286,98.90142977517098 17.097475728136487,99.12858139473246 17.2652427185094,99.42063323679031 17.321165048517287,99.64778448274592 17.544854369130917,99.87493556542904 17.572815533960238,100.36168733480736 17.74058252433315,100.55638783235918 18.132038834970444,101.36763861318468 18.579417475732043,102.34113679846632 18.998834951547906,103.21728259851807 19.418252427247353,104.2556744722242 19.781747572822496,105.19671415761695 20.0613592233276,106.17020053556189 20.396893203957006,107.04633570936858 20.70446601952426,107.95491776586277 20.984077670029365,108.86349720746512 21.095922330161557,109.31778594772913 21.06796116498299,109.54493007279234 21.2357281553559,110.06411603069864 21.263689320418052,110.29125961879618 21.431456310790963,110.48595399281476 21.37553398066666,110.97268940260983 21.459417475853115,111.26473028818145 21.794951456366107,112.2381979561469 21.99067961180117,113.08186750719324 22.130485436995514,113.76329126799828 22.382135922438465,113.8606373994553 22.689708737889305,114.89899426788907 22.77359223307576,115.1261343776132 22.745631067897193,115.32082577020628 23.02524271851871,116.35917783656623 23.02524271851871,116.58631689587492 23.109126213705167,116.81345579176559 22.969320388394408,116.97569776023738 22.913398058270104,117.39752648808644 22.941359223332256,117.6571131174569 23.24893203889951,118.04649266114575 23.668349514715374,118.14383747216198 24.646990291192196,118.07894093487994 25.178252427256666,118.11138920520898 26.128932038904168,117.98159610392759 26.38058252434712,117.94914782023989 26.49242718447931,117.72200974135194 26.49242718447931,117.42997482838109 26.660194174735807,117.46242316541611 26.911844660295174,117.39752648808644 27.834563106880523,117.36507814435754 28.08621359220706,117.42997482838109 29.03689320385456,117.20283637600369 29.79184466029983,117.26773309335113 30.211262135999277,117.20283637600369 30.658640776760876,117.04059452429647 31.581359223346226,116.74855898102396 32.00077669904567,116.65121373988222 32.92349514563102,116.74855898102396 33.59456310677342,116.84590419207234 34.265631068032235,116.81345579176559 34.9087378642289,116.55386846879264 35.10446601943113,116.52142003836343 35.30019417486619,116.39162628358463 36.16699029132724,116.35917783656623 36.69825242727529,116.32672938614269 37.70485436893068,116.03469318264979 38.04038834956009,115.87245073064696 39.13087378651835,115.93734772145399 40.19339805818163,115.54796557649388 40.58485436893534,115.45061996526783 41.33980582526419,115.54796557649388 41.535533980699256,115.64531115774298 42.43029126210604,115.38572287440184 42.6260194175411,115.35327432394843 42.234563106903806,114.37981626050896 42.066796116530895,114.02288088525529 42.03883495146874,113.7957399818988 41.73126213590149,112.95207233837573 41.4516504855128,112.07595355328522 41.11611650499981,111.19983233700623 41.11611650499981,111.00513840318308 41.70330097095575,111.00513840318308 41.95495145628229,111.10248538505402 42.4023300971603,111.68656664612354 42.8497087379219,112.30309569399105 43.129320388427004,112.56268651175196 43.856310679693706,112.88717473394354 44.667184466146864,112.78982830228051 45.70174757274799,112.49778882731334 45.925436893245205,112.49778882731334 46.764271844760515,112.88717473394354 47.35145631083287,113.04941871998017 48.41398058249615,113.01696992939105 49.28077669907361,112.69248184066964 49.86796116514597,112.43289112957427 50.455145631101914,112.01105576878763 50.73475728160702,111.68656664612354 50.90252427186351,111.00513840318308 50.81864077667706,110.45350493874867 50.34330097096972,110.06411603069864 49.923883495270275,109.86942139655002 50.11961165058892,109.7396249070589 50.67883495159913,109.7396249070589 51.685436893370934,109.57737922019442 52.63611650490202,109.4475826107373 53.05553398060147,109.25288759637624 53.53087378642522,108.66880183291505 53.83844660199247,108.11716428643558 54.14601941744331,107.6953231592779 54.62135922338348,107.37082960107364 54.92893203883432,106.36489745098515 55.040776699082926,105.3265125148173 55.096699029090814,104.87221803117427 55.23650485440157,104.19077508017654 55.37631067971233,103.80137844776618 55.40427184465807,103.5093306582421 55.54407766996883,103.28218219065457 55.59999999997672,102.50338620413095 55.572038834914565,102.27623701284756 55.43223300972022,101.9517378845776 55.20854368933942,101.75703824756783 54.76116504857782,101.69213834186667 53.726601941743866,101.82193813985214 52.71999999997206,101.98418781242799 51.545631068060175,102.11398749041837 50.399223301094025,102.11398749041837 49.923883495270275,102.24378711497411 49.44854368933011,102.27623701284756 49.19689320388716,102.21133721384103 48.41398058249615,102.37358668624074 47.547184466035105,102.73053523202543 46.9879611650249,102.92523426859407 45.925436893245205,103.02258374195662 45.39417475729715,103.0874833741982 45.1425242718542,103.18483279747306 44.72310679615475,103.15238299302291 44.471456310828216,103.24973239624524 43.520776699180715,103.44443111275905 43.0174757281784,103.5742301903665 42.31844660209026,103.70402921453933 41.95495145628229,103.93117737857392 41.03223300981335,104.19077508017654 40.86446601944044,104.19077508017654 40.69669902918395,104.2556744722242 40.528932038811035,104.2556744722242 40.30524271854665,104.28812416328583 39.94174757285509,104.5152719070029 39.746019417536445,104.93711728326161 39.7739805825986,105.16426456003683 40.13747572817374,105.94305398254073 40.61281553399749,106.72184148404631 41.08815533982124,107.5979751269042 41.70330097095575,108.44165707755019 42.15067961171735,108.8959464248328 42.70990291272756,109.22043841562117 43.548737864010036,109.60982836427866 43.94019417476375,109.8369722792122 44.89087378652766,110.1939123866905 45.42213592247572,110.38860682075028 46.42873786413111,110.58330113475677 46.73631067958195,110.55085209081881 47.79883495147806,110.2263614674448 48.833398058312014,109.93431962127215 49.72815533995163,109.77207403437933 50.76271844666917,109.64227750495775 51.65747572819237,109.48003176809289 51.90912621363532,109.4475826107373 52.41242718452122,109.4475826107373 52.91572815540712,109.3502351185598 53.33514563110657,109.05819246196188 53.75456310680602,108.37675854604458 53.866407767054625,108.05226568813669 54.67728155350778,107.11123451442108 54.90097087388858,106.29999849252636 54.84504854376428,106.07285203287029 54.95689320389647,105.52120995044243 54.95689320389647,105.3265125148173 55.040776699082926,105.09936535477755 55.040776699082926,105.09936535477755" stroke="#4dd2ff" stroke-linecap="round" stroke-linejoin="round" stroke-width="0.5"><title>2024-07-02 4.3km</title><desc>9223370316930743707</desc></polyline><polyline fill="none" points="78.57987508678343,91.19723156711552 78.42997918114997,91.26681683026254 78.40000000002328,91.44077992555685 78.6398334489204,92.0322537807806 78.81970853568055,92.44976411500829 79.35933379584458,93.35436807243968 79.56918806373142,93.80666914454196 79.71908396948129,94.25896961221588 80.22873004863504,95.16356873439508 80.25870922964532,95.4766986364557 80.3786259542685,95.78982824875857 80.64843858429231,96.06816543886089 80.67841776530258,96.45087870146381 80.97820957668591,97.00755176556413 81.06814712006599,97.28588795420364 81.27800138795283,97.52943193149986 81.69770992361009,98.46881420264253 82.11741845938377,99.44298565603094 82.47716863278765,100.48673767352011 82.80693962529767,101.4261117373826 83.19666897994466,102.46985763972043 83.49646079097874,103.44401757826563 83.88619014574215,104.45296598764253 84.21596113813575,105.46191138960421 84.45579458703287,106.40127164681326 84.54573213041294,106.57522696399246 84.72560721717309,106.67960011129617 84.57571131165605,106.57522696399246 84.84552394167986,106.54043590775109 85.62498265097383,106.26210732880281 86.64427480916493,105.74024062650278 87.57362942397594,105.28795550044742 88.32310895214323,104.94004345379653 88.80277585005388,104.73129605411668 88.98265093681403,104.59213104940136 89.91200555162504,104.24421828766936 90.4216516307788,104.03547045885352 91.35100624558982,103.54839169117622 92.28036086051725,103.0961036364024 92.87994448293466,102.85256366431713 93.17973629420158,102.67860643399763 94.07911172800232,102.2611087168043 94.37890353915282,102.0871511825244 95.33823733509053,101.70444429272902 96.20763358776458,101.32173697015969 97.16696738370229,100.8694459401595 97.4667591949692,100.83465429738862 98.30617626640014,100.41715430578915 99.35544760583434,100.06923725278466 99.59528105484787,99.93007033140748 99.8051353226183,99.96486206707777 100.70451075641904,99.58215277772979 100.91436502430588,99.51256922396715 100.4946564885322,99.44298565603094 100.34476058289874,99.26902667357353 100.1648854961386,99.19944305560784 100.01498959050514,99.12985942329396 100.1648854961386,99.26902667357353 100.31478140177205,99.26902667357353 100.37473976402543,99.47777744184714 100.58459403179586,99.47777744184714 100.79444829979911,99.5473610026529 101.18417765432969,99.5473610026529 101.33407355996314,99.68652808130719 101.45399028446991,99.8952785920992 101.63386537123006,100.06923725278466 101.8137404579902,100.13882069190731 102.26342817489058,101.07819572134758 102.77307425404433,101.91319355907035 103.1927827897016,102.748189336824 103.64247050660197,103.61797441510134 104.1521165856393,104.73129605411668 104.39195003476925,105.39232904469827 104.69174184580334,105.98377852106933 105.08147120056674,106.8883463095408 105.50117973634042,107.86249353236053 105.8609299097443,108.94101040181704 106.1907009021379,109.91515171760693 106.4904927132884,110.92408083943883 106.82026370568201,112.07216894102748 107.03011797356885,112.62881631581695 107.09007633582223,112.80276843285537 107.5397640527226,112.66360674641328 107.80957668286283,112.73318759675021 108.1993060373934,112.62881631581695 108.67897293542046,112.52444500284037 109.54836918809451,111.93300695423386 110.02803608600516,111.75905439030612 110.74753643304575,111.68947333973483 110.95739070093259,111.61989227493177 111.9167244968703,111.51552065071883 112.9360166550614,111.20240558523801 113.05593337945174,111.51552065071883 112.9060374739347,111.13282442031777 112.96599583618809,111.34156787229585 112.75614156830125,111.48073010219377 111.73684941011015,111.75905439030612 110.5676613462856,112.03737844966236 109.42845246358775,112.35049274281482 108.46911866753362,112.52444500284037 107.62970159610268,112.69839717334253 107.41984732809942,112.5592354440887 107.12005551694892,111.58510173705872 107.09007633582223,111.34156787229585 106.76030534342863,110.3674306612811 106.46051353239454,109.35849988050177 106.07078417763114,108.31477521851775 106.01082581537776,108.07123900105944 106.13074253988452,107.9668662827753 106.5504510756582,107.9668662827753 106.97015961143188,108.17561168721295 107.41984732809942,108.90621958876727 107.00013879244216,108.2799843409739 106.70034698129166,108.03644809848629 105.98084663425107,107.9668662827753 105.80097154749092,107.79291168073541 105.41124219296034,106.78397322658566 105.02151283819694,105.84461403134628 104.60180430242326,104.87046100146836 104.09215822338592,103.7919311626465 103.8823039556155,103.0961036364024 103.40263705747202,102.22631721702055 102.89299097843468,101.21736217074795 102.53324080491439,100.55632102690288 102.50326162390411,100.3127792274463 102.62317834829446,100.2084041168564 103.10284524632152,100.2779875274573 104.182095766766,100.83465429738862 104.33199167239945,100.93902921487461 104.72172102704644,101.04340410014265 104.5718251215294,101.46090331938467 104.63178348366637,101.84361048450228 105.11145038169343,102.67860643399763 105.65107564185746,103.72234847437358 106.25065926439129,104.76608729621512 106.79028452467173,105.49670255678939 107.32990978471935,105.87940515912487 108.16932685626671,106.33168949498213 108.5890353921568,106.54043590775109 109.03872310882434,106.71439115336398 109.30853573896457,106.85355528540094 110.26786953501869,107.2014653654478 111.22720333107281,107.54937508783769 111.946703677997,107.54937508783769 112.48632893816102,107.41021124183317 113.17585010407493,107.1666743735841 114.13518390012905,106.95792834699387 115.06453851494007,106.71439115336398 115.75405968073756,106.6448090657359 115.93393476761412,106.71439115336398 116.9232477445621,106.50564484784263 118.03247744613327,106.36648057270213 118.78195697430056,106.2273162403144 119.26162387232762,105.705449484376 119.74129077023827,104.73129605411668 119.98112421913538,104.34859215366305 120.19097848713864,104.17463569229585 120.49077029840555,104.10505308269057 120.67064538504928,103.82672250134056 120.70062456629239,103.37443481848459 120.79056210967246,103.23526925596525 120.85052047180943,102.12194269656902 120.91047883406281,101.808818941965 121.03039555856958,101.53048647241667 121.12033310194965,100.90423757926328 121.39014573208988,99.82569510285975 121.57002081885003,99.33861027739476 121.59999999997672,98.57318984958692 121.48008327546995,98.19047898674035 121.06037473981269,97.98172742454335 119.83122831361834,98.08610322169261 118.72199861204717,98.29485471948283 117.76266481599305,98.39923042012379 116.68341429566499,98.46881420264253 116.35364330327138,98.5383979708422 115.99389312975109,98.5036060885759 115.39430950721726,98.5383979708422 115.09451769595034,98.57318984958692 114.70478834141977,98.57318984958692 114.04524635674898,98.74714918975951 113.68549618311226,98.88631659737439 112.69618320616428,99.09506760170916 111.70687022898346,99.40819386672229 111.40707841783296,99.47777744184714 112.27647467027418,99.30381847714307 113.29576682858169,98.95590027989238 114.22512144350912,98.67756546442979 115.45426786958706,98.60798172478098 116.08383067313116,98.5383979708422 116.41360166540835,98.57318984958692 116.74337265780196,98.46881420264253 117.82262317824643,98.4340223131585 118.60208188754041,98.32964662325685 118.87189451756421,98.32964662325685 119.56141568347812,98.19047898674035 120.58070784166921,98.08610322169261 121.18029146420304,98.22527090119547 121.39014573208988,98.4340223131585 121.51006245648023,99.16465124121169 121.48008327546995,99.93007033140748 121.27022900769953,100.62590436602477 121.12033310194965,100.93902921487461 120.9404580151895,101.94798509089742 120.82054129068274,102.99172938402626 120.73060374730267,103.65276577169425 120.85052047180943,103.47880895272829 120.82054129068274,103.16568645331427 120.91047883406281,102.19152571383165 120.97043719643261,101.91319355907035 121.06037473981269,101.66965273578535 121.15031228307635,100.97382084696437 121.3002081887098,100.73027934780112 121.39014573208988,100.2779875274573 121.09035392093938,101.49569489769056 120.88049965305254,102.43506616156083 120.79056210967246,103.47880895272829 120.64066620392259,103.86151383651304 120.43081193615217,104.10505308269057 120.2509368492756,104.20942699175794 119.44149895908777,104.31380086857826 118.3022900762735,104.69650480835116 117.2829979180824,104.55733978931676 117.07314365019556,104.55733978931676 116.77335183904506,104.38338343525538 116.77335183904506,104.17463569229585 117.70270645385608,103.75713982025627 118.12241498951335,103.61797441510134 118.81193615542725,103.02652080499684 119.20166551007424,102.46985763972043 119.47147814009804,101.21736217074795 119.6213740457315,100.2779875274573 119.56141568347812,99.96486206707777 119.44149895908777,99.86048684926936 118.93185288005043,99.68652808130719 118.24233171413653,99.86048684926936 117.85260235937312,100.06923725278466 117.10312283132225,100.24319582400494 116.02387231087778,100.3127792274463 115.00458015257027,100.34757092379732 114.70478834141977,100.45194599142997 114.31505898677278,100.48673767352011 113.9852879944956,100.69548769079847 113.65551700198557,100.66069603015785 112.66620402492117,100.97382084696437 111.5869535044767,101.18257056371658 110.89743233867921,101.28694537389674 110.11797362950165,101.25215377411223 109.75822345586494,101.18257056371658 108.73893129767384,101.39132015180076 108.43913948640693,101.49569489769056 108.16932685626671,101.53048647241667 107.8695350449998,101.66965273578535 107.5397640527226,101.73923584603472 107.26995142258238,101.94798509089742 107.12005551694892,102.2611087168043 107.1800138792023,102.64381497728755 107.44982650934253,102.81777222533128 107.68965995823964,103.0961036364024 107.98945176950656,103.30485204441356 108.2292852186365,103.58318305492867 109.12866065232083,104.20942699175794 109.48841082572471,104.31380086857826 110.5077029839158,104.8008785348793 111.37709923658986,105.14879072466283 111.76682859123684,105.21837311962736 112.5462873004144,105.25316431175452 113.77543372660875,104.97483467453276 114.19514226226602,104.76608729621512 114.584871616913,104.69650480835116 114.91464260930661,104.5225485257397 116.05385149188805,104.24421828766936 116.32366412202828,104.20942699175794 116.5934767521685,104.07026177254738 116.9232477445621,104.03547045885352 118.09243580838665,103.51360032375669 118.39222761965357,103.33964343328262 118.72199861204717,103.02652080499684 119.17168632894754,102.29590021283366 119.41151977784466,101.25215377411223 119.56141568347812,100.41715430578915 119.41151977784466,100.06923725278466 119.02179042331409,99.8952785920992 117.85260235937312,100.10402897410677 116.5934767521685,100.24319582400494 115.75405968073756,100.38236261656857 115.18445523933042,100.41715430578915 114.43497571116313,100.5911126982246 114.10520471888594,100.62590436602477 113.32574600959197,100.7998626511253 113.08591256069485,100.90423757926328 111.88674531574361,101.11298733908916 110.68757807067595,101.25215377411223 109.84816099924501,101.18257056371658 108.67897293542046,101.35652856275556 108.28924358077347,101.49569489769056 107.8995142262429,101.53048647241667 107.5397640527226,101.66965273578535 107.20999306044541,101.8784020235762 107.06009715469554,102.22631721702055 107.12005551694892,102.50464911441668 107.44982650934253,102.88735509957769 108.1993060373934,103.61797441510134 108.70895211654715,104.03547045885352 109.39847328234464,104.38338343525538 110.2978487162618,104.76608729621512 111.22720333107281,105.14879072466283 111.5869535044767,105.32274668541504 111.88674531574361,105.28795550044742 112.45634975715075,105.35753786680289 113.08591256069485,105.21837311962736 113.77543372660875,105.00962589166011 114.73476752254646,104.66171355886036 115.42428868846036,104.38338343525538 116.11380985437427,104.38338343525538 117.2829979180824,104.66171355886036 118.03247744613327,104.69650480835116 118.51214434416033,104.6269223059644 119.14170714770444,104.34859215366305 119.6213740457315,104.34859215366305 119.86120749486145,104.41817471318063 119.65135322685819,105.18358192400774 119.14170714770444,105.91419628329459" stroke="#4dd2ff" stroke-linecap="round" stroke-linejoin="round" stroke-width="0.5"><title>2024-06-29 6.8km</title><desc>9223370317186179507</desc></polyline><polyline fill="none" points="144.70877192984335,87.92695332868607 144.68070175440516,88.15499885173631 144.90526315791067,88.90429012913955 145.01754385966342,89.09975712746382 145.24210526316892,89.94677939379471 145.3263157894835,90.27255658560898 145.18596491229255,90.663488773891 144.96140350878704,90.9241099646897 144.51228070177604,91.2173085481918 144.40000000002328,91.54308443400078 144.68070175440516,91.9014375215047 145.12982456129976,92.65071994045866 145.5228070174344,93.46515534294304 146.0280701754382,94.34474322668393 146.50526315788738,95.15917427558452 146.58947368420195,95.3872145942878 146.78596491226926,95.8758718672907 147.26315789471846,96.6902989812952 147.68421052617487,97.60245486424537 148.16140350862406,98.41687754113809 148.5543859647587,99.3616052242869 148.94736842100974,100.24117674256559 149.17192982463166,100.63209663386806 149.284210526268,101.08816923084669 149.7614035087172,101.93515945549007 150.18245614029001,102.87987665092805 150.57543859642465,103.75943840490072 150.9403508771211,104.671573941916 151.30526315781754,105.6814352243091 151.6701754386304,106.65871727265767 151.97894736833405,107.63599630750832 152.31578947370872,108.61327232900658 152.568421052536,109.32993949620868 152.6245614035288,109.78599957714323 152.70877192984335,110.07918071121094 153.0456140349852,110.30721029461711 153.2982456140453,110.27463464986067 154.14035087719094,109.81857527207467 155.06666666665114,109.3625152380846 155.8807017543586,108.97160611511208 156.61052631575149,108.61327232900658 157.5649122807663,108.18978642302682 158.40701754379552,107.79887585365213 159.30526315781754,107.37538885945105 159.75438596482854,107.24508505518315 160.568421052536,106.82159732101718 161.38245614035986,106.39810902104364 161.85964912280906,106.20265269180527 162.11228070175275,106.03977232525358 163.1789473684039,105.55113072358654 164.1052631578641,105.16021689970512 164.91929824557155,104.76930259374785 165.17192982463166,104.70415016252082 166.12631578953005,104.21550650161225 167.22105263150297,103.98747253528563 168.1473684210796,103.69428576613427 168.3719298245851,103.62913311389275 168.5403508770978,103.69428576613427 168.6245614035288,103.92231994334725 169.21403508761432,104.80187880428275 169.71929824561812,105.6488591041416 169.88771929824725,105.94204406518838 170.30877192982007,106.78902131799259 170.7298245613929,107.66857222348335 171.1228070174111,108.51554486242821 171.54385964910034,109.3625152380846 171.8807017543586,110.2420590017864 172.27368421049323,111.15417588243145 172.66666666662786,112.35946916296962 173.00350877200253,113.20642926680739 173.3122807017062,114.02081184778945 173.5087719297735,114.60716601042077 173.90175438602455,114.86776751221623 174.21052631584462,115.74729599920101 174.29473684215918,115.94274644268444 174.43508771935012,116.07304667131393 174.63157894741744,116.07304667131393 174.85614035080653,115.9753215048404 175.47368421056308,115.8450212359894 176.3719298245851,115.32381962492946 177.3263157894835,114.9980681828165 178.2526315789437,114.86776751221623 179.1789473685203,114.63974120983039 179.45964912278578,114.5745908075769 179.6280701754149,114.8026171568199 180.6105263158679,114.44428996293573 180.7789473683806,114.21626335589099 180.66666666662786,113.92308604851132 180.69473684218246,113.5973331668356 181.5087719297735,113.17385392010328 182.35087719291914,112.6852233169484 182.6877192982938,112.13144105602987 182.82807017536834,111.57765782764181 182.80000000004657,111.3170536206162 182.6596491227392,111.0564491992991 182.37894736835733,110.86099574278342 181.9859649122227,110.7306933713844 181.81754385970999,110.60039094649255 181.92982456146274,110.43751283999882 182.09824561397545,110.3397859359975 183.05263157887384,110.27463464986067 183.95087719301227,110.14433203745284 184.68070175440516,110.01402937143575 184.90526315791067,109.88372665195493 185.2701754386071,109.557969618676 185.7754385964945,108.74357557081385 185.9719298245618,108.35266568456427 186.4771929824492,107.96175531615154 186.6736842105165,107.57084446557565 186.81403508782387,106.65871727265767 186.89824561402202,106.1375005551381 186.87017543858383,105.87689187508659 187.03859649109654,105.02991218460375 187.3754385964712,104.11777767897001 187.4035087719094,103.75943840490072 187.59999999997672,103.04275864138617 187.54385964910034,102.74957099827589 187.4035087719094,102.52153597725555 187.12280701752752,102.42380663222866 186.36491228069644,102.42380663222866 185.38245614035986,102.55411241887487 184.8491228070343,102.65184172365116 184.568421052536,102.61926529204356 183.58596491219942,102.74957099827589 183.36140350881033,102.78214741652482 182.40701754379552,102.78214741652482 181.45263157901354,102.8147238312813 180.75087719294243,102.94502945715794 179.71228070172947,103.27079328737454 179.51578947366215,103.43367507698713 178.56140350876376,103.62913311389275 178.0561403509928,103.69428576613427 177.88771929824725,103.75943840490072 176.98947368422523,103.82459103033761 175.8947368421359,103.9548962409317 174.88421052636113,104.21550650161225 174.6877192982938,104.24808276907424 174.6877192982938,104.24808276907424" stroke="#4dd2ff" stroke-linecap="round" stroke-linejoin="round" stroke-width="0.5"><title>2024-06-26 3.2km</title><desc>9223370317445915207</desc></polyline><polyline fill="none" points="13.698823529412039,136.97472002348513 13.04941176471766,136.97472002348513 12.597647058893926,135.99163297037012 12.79529411776457,135.33623991708737 12.823529411805794,135.86055446759565 12.65411764709279,135.9260937255749 12.541176470578648,136.05717220160295 12.428235294180922,136.5159464426979 12.767058823490515,137.10579806819442 12.767058823490515,137.630109707854 12.851764705963433,137.99057345985784 13.190588235389441,138.35103680420434 13.275294117629528,138.54765300199506 13.021176470560022,138.84257707142388 12.851764705963433,139.2685780232423 12.625882352818735,139.33411658060504 12.456470588222146,139.56350142561132 12.400000000023283,139.8584245549573 12.428235294180922,140.54657746266457 12.79529411776457,140.90703791656415 13.247058823471889,141.59518856040086 13.670588235370815,142.51272044124198 13.78352941176854,142.80764084219118 14.263529411749914,143.29917423715233 14.743529411731288,144.3477762801631 14.856470588361844,144.6426949831657 15.025882353074849,144.9048447124078 15.336470588343218,145.23253157085855 15.53411764698103,145.6912926066725 15.703529411694035,145.88790427707136 15.901176470564678,146.47773856058484 16.09882352943532,146.70711826506886 16.550588235259056,147.72294068647898 16.522352941217832,147.9195511037833 16.720000000088476,148.14892977074487 16.7482352941297,148.3455399252707 17.17176470591221,149.03367451156373 17.228235294111073,149.49243007725454 17.312941176467575,149.68903940319433 17.51058823533822,149.88564860791666 17.56705882353708,150.08225769142155 17.962352941161953,150.90146090093185 18.30117647058796,151.75343000565772 18.640000000130385,152.63816474284977 18.97882352943998,153.58843265168252 19.37411764706485,154.5386977280723 19.628235294134356,155.25958658609306 19.684705882449634,155.5217275849136 19.797647058730945,155.75110078204307 19.825882353005,155.9804738141247 20.19294117647223,156.93073176048347 20.447058823541738,157.81545212990022 20.64470588241238,158.47079896883224 20.757647058810107,158.73293732720776 21.181176470592618,158.83123915604665 22.197647058870643,158.37249702890404 23.044705882435665,158.01205632305937 23.863529411843047,157.5533130170952 24.06117647071369,157.42224337995867 24.51294117642101,157.22563882300165 24.710588235291652,157.09456905114348 24.96470588236116,157.0618015996879 25.35999999998603,156.86519682061044 25.444705882342532,156.73412690055557 26.291764705907553,156.4064518644882 27.30823529418558,156.0132413766114 28.183529411791824,155.58726280086557 29.115294117713347,155.1285160058469 30.04705882363487,154.70253624793258 30.978823529323563,154.27655592095107 31.995294117718004,153.9161105841922 33.011764705879614,153.45736138444045 33.23764705879148,153.32629006323987 33.52000000013504,153.26075438241241 33.689411764848046,153.16245083592366 33.91529411775991,153.1296829803614 34.48000000009779,152.9003078972164 34.734117647167295,152.86754001461668 35.778823529486544,152.44155723560834 36.23058823531028,152.310485496826 36.40000000002328,152.21218165729078 36.65411764709279,152.310485496826 36.96470588236116,152.86754001461668 37.35999999998603,153.2935222244705 37.783529411884956,154.24378817985416 38.23529411770869,155.03021303538117 38.4894117647782,155.42342473569443 38.88470588240307,156.43921938320273 39.30823529418558,157.29117368880543 39.67529411765281,158.17589305803995 40.12705882359296,159.25721339741722 40.46588235301897,160.17469444556627 40.8329411764862,161.19047395483358 41.20000000006985,162.14071637249435 41.51058823533822,163.15648961797706 41.65176470601,163.48415771653526 42.10352941183373,163.64799163950374 42.329411764629185,164.4343932979682 42.44235294125974,164.5982267326326 42.640000000130385,164.66376008294174 43.60000000009313,164.46715999161825 43.967058823560365,164.1394929033995 44.672941176453605,163.77905871733674 45.54823529405985,163.68075841406244 46.169411764713004,163.54969129583333 47.072941176593304,163.28755689781974 47.27058823534753,163.25479008295224 47.468235294218175,163.25479008295224 47.60941176477354,163.41862412376213 47.86352941184305,163.35309051754302 48.061176470597275,163.35309051754302 48.4000000001397,163.15648961797706 48.62588235293515,163.09095595782856 48.71058823529165,162.927121748653 48.62588235293515,162.43561861588387 48.62588235293515,162.23901715059765 49.47294117650017,161.9441147253383 50.20705882355105,161.48537707724608 50.6588235294912,160.9938717217883 50.800000000046566,160.20746157708345 50.7435294118477,159.94532443102798 50.63058823533356,159.71595425152918 50.4894117647782,159.48658390698256 50.29176470590755,159.38828228015336 50.00941176479682,159.2899806231144 49.86823529424146,159.12614446066436 50.828235294204205,158.86400642554509 51.81647058832459,158.76570460677613 52.63529411761556,158.6346354680718 53.030588235356845,158.53633357855142 53.482352941296995,158.01205632305937 53.96235294127837,157.09456905114348 54.38588235306088,156.76689438562607 54.58352941181511,156.5375219192938 54.78117647068575,155.91493867893587 54.89411764719989,154.8991423608095 54.97882352943998,154.73530394188128 55.06352941179648,154.04718166281236 55.345882353023626,152.99861152443918 55.51529411773663,152.310485496826 55.59999999997672,152.08110982412472 55.57176470605191,151.3929818160541 55.48705882357899,151.16360548327793 55.03529411775526,150.90146090093185 54.10352941183373,150.99976514454465 53.030588235356845,151.13083742230083 52.296470588305965,151.2619096461567 51.392941176658496,151.29467769368785 50.43294117646292,151.32744573790114 49.72705882356968,151.3602137786511 49.52941176481545,151.42574985016836 49.0776470588753,151.42574985016836 48.08941176487133,151.62235798378242 47.12941176467575,151.91726995704812 46.48000000009779,152.1466457475035 45.54823529405985,152.310485496826 44.64470588241238,152.47432516195113 43.656470588291995,152.6053968334163 42.640000000130385,152.9003078972164 41.76470588229131,153.16245083592366 40.71999999997206,153.42459355914616 40.12705882359296,153.6212004601257 39.78823529416695,153.9161105841922 39.67529411765281,154.34209139292943 39.78823529416695,154.73530394188128 40.21176470606588,155.5544951945776 40.69176470604725,156.3736843423103 41.25647058838513,157.35670854113414 41.792941176565364,157.9792889659002 42.44235294125974,158.37249702890404 43.12000000011176,158.83123915604665 44.02352941175923,159.2899806231144 44.70117647072766,159.42104949240456 45.09647058835253,159.68318706945865 46.11294117651414,159.8797901108628 47.15764705883339,159.68318706945865 48.20235294115264,159.38828228015336 49.16235294111539,159.1589116998657 49.86823529424146,159.06060997210443 50.4894117647782,158.92954095455934 50.715294117690064,158.92954095455934 51.76000000000931,158.79847188311396 52.437647058977745,158.73293732720776 53.058823529514484,158.50356627537985 53.341176470625214,158.20866039488465 53.82117647060659,157.3239411166287 54.498823529458605,156.57028942456236 54.66823529417161,156.4064518644882 54.809411764726974,155.88217110632104 54.809411764726974,155.6200304038648 54.950588235398754,154.5386977280723 54.97882352943998,154.14548493654002 55.28941176470835,153.09691512142308 55.543529411777854,152.04834185747313 55.59999999997672,151.58958996998263 55.543529411777854,151.32744573790114 55.345882353023626,151.03253321908414 55.11999999999534,150.93422898548306 54.01882352947723,151.03253321908414 52.94588235300034,151.16360548327793 52.26823529426474,151.32744573790114 52.07058823527768,151.29467769368785 51.844705882365815,151.3929818160541 50.94117647060193,151.3602137786511 49.952941176481545,151.45851788084838 49.75529411772732,151.42574985016836 49.360000000102445,151.42574985016836 49.13411764719058,151.5240539321385 48.908235294162296,151.49128590821056 48.25882352958433,151.62235798378242 47.89176470588427,151.6551259943226 47.10117647063453,151.91726995704812 46.9035294118803,151.91726995704812 46.734117647167295,152.04834185747313 45.80235294124577,152.24494960720767 44.70117647072766,152.44155723560834 43.57176470593549,152.5726289206359 42.69647058832925,152.83477212878643 42.470588235300966,152.83477212878643 42.04705882363487,153.03137939350563 41.39764705894049,153.22798653697828 41.171764706028625,153.195218688139 40.32470588234719,153.45736138444045 39.95764705887996,153.65396826522192 39.81647058832459,153.81780723977135 39.73176470596809,154.27655592095107 39.76000000000931,154.5714654387557 40.1552941177506,155.22681894613197 40.38117647066247,155.68556559970602 40.55058823537547,155.91493867893587 40.63529411773197,156.20984668118763 41.08705882367212,157.02903414494358 41.45411764702294,157.58608041802654 41.45411764702294,157.58608041802654" stroke="#4dd2ff" stroke-linecap="round" stroke-linejoin="round" stroke-width="0.5"><title>2024-06-25 4.9km</title><desc>9223370317535602707</desc></polyline><polyline fill="none" points="79.85398058255669,139.68086893550935 80.04970873787533,139.48616075204336 79.85398058255669,139.68086893550935 78.93126213585492,138.90203548106365 78.9033009710256,138.02584554778878 78.73553398065269,137.92849096065038 78.67961165041197,138.15565161730046 78.5677669903962,138.28545763337752 78.51184466015548,138.5775209745916 78.59572815534193,139.42125799754285 78.70757281559054,139.5510634931852 78.9033009710256,140.0053823077178 78.87533980584703,140.23254146974068 78.93126213585492,140.49215174053097 79.29475728154648,141.14117648324464 79.26679611648433,141.5630418503133 79.15495145635214,141.7577487527742 78.5677669903962,142.04980888121645 78.42796116508543,142.2120643912058 78.40000000002328,142.471673033986 78.84737864078488,143.41275257404777 79.01514563104138,143.93196767105837 79.26679611648433,144.19157489936333 79.63029126217589,144.61343618991668 79.93786407762673,145.29490323751816 80.55300970876124,146.13862230593804 80.77669902914204,146.49557969442685 80.86058252432849,146.75518481439212 81.00038834940642,146.94988851429662 81.05631067976356,147.17704267901718 81.55961165041663,148.11810819164384 81.95106796105392,148.8969189080235 82.39844660204835,149.90287990649813 82.76194174750708,150.5843355357356 82.81786407763138,150.9412878974108 82.95766990294214,151.200889361382 83.18135922332294,151.42804046728997 83.23728155333083,151.6876415310544 83.23728155333083,151.94724238137132 83.37708737864159,152.0770427263924 83.57281553396024,152.49889347932185 83.9922330097761,153.27769338843063 84.3836893204134,154.2836404274276 84.831067961175,155.25713451005868 85.13864077674225,156.10082695356687 85.47417475725524,157.00941629422596 85.78174757270608,157.85310405489872 86.08932038838975,158.85903651508852 86.42485436890274,159.7676179179689 86.73242718435358,160.87089182029013 86.8442718447186,161.06558681465685 87.0120388349751,161.19538341084262 87.2357281553559,161.19538341084262 87.76699029130396,160.87089182029013 88.71766990295146,160.44905225402908 89.61242718447465,159.92986432177713 90.56310679600574,159.5080234981724 91.3739805824589,159.18353017346817 91.56970873777755,159.15108082265942 92.3246601941064,158.7616883525916 93.30330097093247,158.30739653061028 94.17009708739351,157.9180030200223 94.44970873789862,157.75575558212586 94.70135922322515,157.65840707943426 95.51223300967831,157.23656322076567 96.3510679610772,156.84716838947497 96.77048543689307,156.65247079366236 97.02213592233602,156.65247079366236 97.41359223308973,156.39287381252507 98.22446601942647,156.03592761489563 99.23106796119828,155.61408158828272 100.15378640778363,155.2895842611033 100.99262135929894,155.02998615932302 101.80349514563568,154.70548823176068 102.27883495134301,154.6405886062712 102.50252427184023,154.3160902785894 102.92194174753968,154.21874071512138 103.62097087374423,154.15384098966024 104.65553398057818,153.82934216153808 105.66213592234999,153.6021927834663 106.08155339816585,153.50484300000244 106.69669902918395,153.37504324194742 106.92038834956475,153.37504324194742 107.81514563108794,153.0829935913207 108.93359223310836,152.88829367409926 109.9122330097016,152.6935936367663 110.9188349514734,152.5637935451523 111.3102912621107,152.46644344145898 111.67378640780225,152.46644344145898 112.12116504856385,152.3041932018241 113.01592233020347,152.23929308273364 113.6590291261673,152.10949280427303 114.6656310679391,152.0445926451648 115.1130097087007,152.0445926451648 116.06368932046462,151.91479228669778 116.67883495159913,151.91479228669778 117.71339805831667,151.84989208748448 118.77592232997995,151.78499187491252 119.83844660199247,151.78499187491252 120.48155339807272,151.81744198288652 120.78912621363997,151.7525417636498 121.43223300972022,151.81744198288652 121.59999999997672,151.94724238137132 121.51611650490668,152.14194287892315 121.59999999997672,152.36909330778872 121.57203883491457,152.5313435138669 121.18058252427727,152.5637935451523 121.12466019426938,152.75849366246257 121.23650485428516,152.95319365974865 121.23650485428516,153.11544356585364 121.04077669908293,153.31014334291103 120.90097087377217,153.2452434305451 120.09009708743542,153.2127934693999 119.22330097097438,153.3425932941318 118.32854368933477,153.47239306551637 117.32194174756296,153.63464270465192 116.2314563106047,153.73199244812713 115.97980582516175,153.7644423559832 115.75611650478095,153.73199244812713 114.74951456312556,153.82934216153808 113.7708737864159,154.02404149842914 113.5471844660351,154.15384098966024 112.54058252437972,154.38098997081397 111.4780582524836,154.6405886062712 110.49941747565754,154.8352874428092 109.5207766990643,154.93263681605458 108.5141747572925,155.1273354724981 107.5075728156371,155.45183296641335 106.64077669905964,155.6465313026565 106.2213592233602,155.74388042575447 105.63417475728784,156.06837728596292 105.52233009703923,156.23062559086247 105.4943689320935,156.45777307773824 105.4943689320935,156.68492040134151 105.9976699029794,157.65840707943426 106.08155339816585,157.88555353909032 106.5568932039896,158.72923895844724 107.1161165048834,159.60537143054535 107.4516504855128,160.02721212411416 108.15067961160094,160.5788491036801 109.10135922324844,161.06558681465685 109.9681553398259,161.454976443114 110.83495145628694,161.81191651400877 111.72970873792656,162.07150903937872 112.76427184476051,162.0066109279578 113.63106796122156,161.74701834929874 114.58174757286906,161.55232377516222 115.56038834957872,161.3576290809433 116.48310679604765,161.26028168894118 117.48970873793587,161.1304851193563 118.21669902920257,161.06558681465685 118.46834951452911,160.96823933246196 118.8598058251664,160.7410950907506 119.16737864085007,160.3841538092529 119.55883495160379,159.57292212318862 119.8104854368139,159.18353017346817 120.14601941744331,159.02128338598413 120.31378640781622,158.85903651508852 120.59339805820491,157.9180030200223 120.67728155339137,156.976966719958 120.70524271845352,156.49022270546993 121.01281553402077,155.5167324251379 121.23650485428516,154.8352874428092 121.23650485428516,154.3160902785894 121.32038834958803,154.12139112179284 121.34834951453377,153.63464270465192 121.15262135921512,153.43994312762516 120.9289320387179,153.27769338843063 120.67728155339137,153.2452434305451 119.72660194174387,153.4074931864161 119.27922330098227,153.43994312762516 118.80388349515852,153.53729293114156 118.55223300971556,153.53729293114156 117.57359223300591,153.73199244812713 116.73475728160702,153.73199244812713 115.81203883490525,153.82934216153808 114.83339805831201,153.86179205941153 113.82679611654021,154.08894125069492 112.8201941747684,154.34854012640426 111.81359223311301,154.6405886062712 110.83495145628694,154.8352874428092 109.77242718439084,154.99753638161928 108.68194174754899,155.19223499804502 107.8431067961501,155.48428269743454 107.36776699032634,155.5167324251379 106.80854368931614,155.6465313026565 105.88582524273079,156.0034779405105 105.69009708741214,156.06837728596292 105.55029126210138,156.26307524187723 105.52233009703923,156.49022270546993 105.8299029127229,157.3339118535514 106.08155339816585,157.7233060846047 106.16543689323589,158.08025037447806 106.16543689323589,158.08025037447806" stroke="#4dd2ff" stroke-linecap="round" stroke-linejoin="round" stroke-width="0.5"><title>2024-06-18 4.3km</title><desc>9223370318140349607</desc></polyline><polyline fill="none" points="144.40000000002328,139.71419696783414 144.67131891148165,140.13403809131705 145.00293091416825,141.04369208205026 145.0632240055129,141.25361188841634 145.51542219123803,142.16326288689743 145.9073272853857,143.14288432031753 145.99776692246087,143.35280283211614 146.29923237964977,143.73765310068848 146.29923237964977,143.982557590527 146.32937892526388,144.19247558442294 146.51025819953065,144.36740714713233 146.7815771108726,145.06713249877794 147.0830425680615,145.66189791672514 147.59553384501487,146.60652320904774 148.04773203074,147.5511458797555 148.37934403354302,148.5657376801537 148.77124912769068,149.44038335661753 149.13300767622422,150.41998384598992 149.37418004183564,151.32961034757318 149.67564549902454,152.2392344183463 149.7660851359833,152.554103722563 149.88667131890543,152.79900186901796 150.1579902303638,153.603665966657 150.1881367759779,153.84856335792574 150.45945568731986,154.058475267404 150.79106769000646,154.0934605730581 151.0322400558507,154.0234899581992 151.18297278438695,153.9185340088152 151.90648988133762,153.53369525104063 152.2079553384101,153.46372452104697 153.17264480120502,152.97392900846899 154.04689462669194,152.48413279117085 154.40865317510907,152.34419088542927 154.95129099790938,152.2042489220912 155.22260990936775,152.0293213869736 156.2475924633909,151.609494935954 156.7600837404607,151.39958151624887 157.09169574314728,151.11969675522414 158.14682484301738,150.62989786980324 158.29755757155363,150.55992654303554 158.44829029997345,150.45496952565736 159.0210746686207,150.31502678565448 159.17180739715695,150.35001247603213 159.38283321703784,150.83981176419184 160.13649685971905,150.55992654303554 160.67913468240295,150.31502678565448 160.98060013959184,150.21006969278096 161.2519190510502,150.03514113277197 161.8849965108093,149.79024099785602 162.15631542215124,149.65029798453907 162.48792742495425,149.54534068671637 163.42247034201864,149.1604969847249 164.50774598750286,148.74066699526156 164.71877180738375,148.5657376801537 165.532728541526,148.28585058898898 165.77390090713743,148.320836488012 166.2562456385931,148.11092104014824 167.37166782969143,147.8310335749702 167.79371946968604,147.62111782515422 168.00474528956693,147.58613185421564 168.2760642010253,147.69108975617564 168.66796929528937,148.5657376801537 169.09002093516756,149.40539757272927 169.662805303582,150.3849981628009 170.0848569435766,151.3645959336427 170.5069085834548,152.2392344183463 170.92896022333298,153.18384145732853 171.32086531759705,154.12844587504514 171.50174459186383,154.7231954599556 171.65247732040007,154.93310683008167 172.0142358688172,155.94767662737286 172.46643405442592,157.1371684008045 172.73775296588428,158.11674674029928 173.06936496857088,159.0613374694076 173.37083042564336,160.14586433352088 173.55170969991013,160.28580303213676 173.79288206563797,160.28580303213676 174.6972784368554,160.0758949627343 174.96859734819736,159.7610326159338 175.93328681099229,159.3412157006387 176.86782972794026,159.20127661380684 177.89281228196342,159.02635267440928 178.58618283329997,158.81644382837112 179.24940683878958,158.95638307344052 180.06336357304826,158.64151969130035 180.18394975585397,158.501580316748 180.06336357304826,157.80188258149428 180.2140963014681,157.6969277971075 180.51556175854057,157.62695792291197 180.756734124152,157.45203317451524 180.99790648999624,157.38206324994098 181.9324494068278,156.71734824945452 182.20376831828617,156.40248279628577 182.3545010468224,156.05263195102452 182.41479413828347,155.66779560607392 182.32435450109188,155.17800326491124 182.0228890440194,154.82815116117126 181.3898115841439,154.54826921937638 181.45010467548855,154.33835761193768 182.47508722974453,154.19841646845452 183.59050942095928,154.058475267404 184.2537334264489,153.98850464529824 184.67578506632708,153.84856335792574 184.8868108864408,153.70862201310229 185.51988834608346,152.72903098797542 185.881646894617,152.09929241178907 186.3941381716868,151.78442268678918 186.66545708314516,151.11969675522414 186.66545708314516,150.59491220820928 186.78604326595087,149.68528374328162 186.9367759944871,149.19548279375886 187.0272156316787,149.0555395358242 187.29853454290424,147.93599140146398 187.5698534543626,146.7464674737712 187.60000000009313,146.25666229525814 187.4794138170546,146.01175944172428 187.32868108863477,145.83682872416102 187.11765526863746,145.69688408536604 185.91179344046395,145.69688408536604 184.94710397778545,145.90680102200713 184.10300069791265,146.11671782913618 183.13831123523414,146.18669006947312 182.1434752268251,146.25666229525814 181.54054431268014,146.25666229525814 181.14863921841606,146.18669006947312 180.03321702720132,146.3266345068114 179.30969993025064,146.5015649725974 178.58618283329997,146.8164395846834 177.53105373342987,147.1313139052363 176.56636427075136,147.30624395757332 175.90314026514534,147.41120194579707 175.45094207965303,147.41120194579707 174.51639916258864,147.58613185421564 173.76273551990744,147.6561037924257 173.3105373341823,147.86601952079218 173.06936496857088,147.90100546285976 172.04438241454773,148.21587878029095 170.98925331479404,148.4607800479862 170.6274947662605,148.63570941699436 170.47676203760784,148.8456245411071 170.38632240053266,149.26545440111659 170.77822749479674,150.21006969278096 171.35101186321117,151.1896679670608 171.95394277735613,152.16926342225634 172.58702023734804,152.93894358779653 173.15980460576247,153.46372452104697 174.06420097697992,153.8835486851167 175.08918353100307,154.40832816209877 176.02372644806746,154.7931659310707 176.89797627355438,155.1430180707539 177.92295882757753,155.21298845554702 178.91779483598657,154.93310683008167 179.94277739012614,154.6882102190575 180.15380321012344,154.6882102190575 180.63614794134628,154.51328396049212 180.93761339853518,154.44331343189697 181.9324494068278,154.6182397264056 181.75157013256103,154.47829869796988 181.87215631548315,154.58325447465177 182.0228890440194,154.65322497460875 182.29420795547776,154.93310683008167 182.41479413828347,155.17800326491124 182.41479413828347,155.17800326491124" stroke="#4dd2ff" stroke-linecap="round" stroke-linejoin="round" stroke-width="0.5"><title>2024-06-17 3.4km</title><desc>9223370318224643007</desc></polyline><polyline fill="none" points="13.355006501893513,186.3625346609333 13.495448634610511,186.29733630246483 13.186475942726247,186.10174114673282 12.708972691791132,186.0039435235376 12.652795838657767,186.19953873971826 12.540442132623866,186.39513383508893 12.512353706057183,186.78632366412785 12.596618985640816,186.98191839762148 12.540442132623866,187.17751301050885 12.877503250958398,188.09028627516818 12.961768530542031,188.35107815387892 13.27074122230988,188.87266126801842 13.298829648876563,189.1008536106092 13.242652795859613,189.52463895411347 13.130299089709297,189.65503433041158 12.961768530542031,189.68763316614786 12.484265279606916,190.01362133902148 12.42808842647355,190.241812860535 12.400000000023283,190.53520171827404 12.540442132623866,190.92638643991086 12.79323797125835,191.15457730463822 12.933680103975348,191.38276800513268 13.15838751627598,191.51316261742613 13.607802340644412,192.29552916504326 13.86059817939531,192.94749981359928 13.86059817939531,193.14309074680205 14.16957087116316,193.6972644024063 14.647074122098275,194.28403545267065 15.096488946583122,195.2619847904134 15.517815344617702,196.0117439070309 15.911053315969184,196.85929555632174 16.191937581286766,197.31566858309088 16.641352405655198,198.26101062074304 16.72561768523883,198.39140240481356 16.753706111805514,198.61958789784694 16.92223667097278,199.04336052079452 17.146944083156995,199.36933907616185 17.203120936173946,199.82570849070908 17.51209362805821,200.15168624196667 17.905331599409692,200.96662915399065 18.35474642389454,201.91196030841093 18.74798439524602,202.88988612350659 19.000780234113336,203.50923758005956 19.337841352331452,204.42196383763803 19.47828348504845,204.68274228594964 19.759167750366032,205.53027076195576 20.0400520155672,206.54078252310865 20.377113134018146,207.42090304661542 20.657997399102896,208.3988118749403 20.742262678802945,208.82257143076276 21.02314694400411,209.05074941858766 21.44447334203869,209.01815257326234 22.427568270475604,208.52919949087664 23.185955786844715,208.30102112778695 23.747724317247048,208.0402456545853 24.758907672250643,207.5512910646794 25.629648894653656,207.02973867105902 26.500390116940252,206.67117090304964 27.286866059643216,206.24740847258363 28.298049414879642,205.79104829893913 28.887906371848658,205.4976735546952 29.084525357582606,205.3346874684794 29.89908972696867,204.97611778395367 30.7136540961219,204.6175476939825 31.584395318641327,204.25897719868226 32.146163849160075,203.96560103722732 32.42704811436124,203.90040629782015 33.213524057064205,203.5418349916581 34.08426527958363,203.1832632800797 35.011183355003595,202.88988612350659 35.48868660593871,202.7594961891009 35.68530559167266,202.62910620105686 36.162808842607774,202.49871615946176 36.41560468135867,202.53131367481546 36.86501950584352,203.02027600436122 37.06163849146105,203.0854709246778 37.34252275689505,203.02027600436122 37.6234070219798,203.05287346622208 38.0166449934477,203.1832632800797 38.21326397918165,203.1832632800797 38.99973992188461,203.5744323999097 39.61768530542031,203.83521154511254 39.78621586470399,203.86780892312527 39.67386215867009,204.3241718642821 39.67386215867009,204.5197557809297 39.84239271772094,204.97611778395367 40.319895968888886,205.7584511184541 40.797399219824,206.67117090304964 41.24681404419243,207.45350005617365 41.836671001277864,208.13803648218163 42.763589076697826,208.72478081428562 43.63433029898442,209.11594309919747 44.505071521387435,209.4745081033907 45.31963589065708,209.8004759371106 46.02184655389283,209.9960564764915 47.08920676202979,209.8004759371106 47.98803641088307,209.50710490180063 48.999219765886664,209.31152406078763 49.98231469443999,209.11594309919747 50.20702210662421,209.05074941858766 51.10585175547749,208.95295887242537 52.28556566964835,208.82257143076276 52.7349804941332,208.78997456192155 53.156306891934946,208.56179638643516 53.633810142986476,207.94245479698293 53.80234070215374,207.5186940652493 54.05513654090464,207.1927238861681 54.61690507142339,206.80155922917766 54.81352405715734,206.41039408973302 54.8697009102907,206.11701991851442 54.8697009102907,205.85624264957733 54.92587776319124,205.62806236339384 54.982054616324604,204.87832598146633 55.15058517549187,204.03079576330492 55.375292587676086,203.34625047197915 55.571911573410034,202.368326064141 55.59999999997672,201.8467651468527 55.54382314684335,201.58598436662578 55.375292587676086,201.39039864068036 55.1224967490416,201.22741044362192 54.22366710007191,201.22741044362192 53.184395318618044,201.32520337190363 52.173211963498034,201.52078913804144 51.58335500652902,201.65117958179326 50.712613784126006,201.71637478360208 50.29128738620784,201.71637478360208 50.12275682692416,201.65117958179326 49.055396618903615,201.71637478360208 48.0723016904667,201.94455788424239 47.201560468180105,202.17274082056247 46.30273081921041,202.40092359288246 45.37581274379045,202.6617037030228 44.3084525357699,202.85728864496923 43.66241872566752,202.88988612350659 42.707412223680876,203.1506658316939 41.80858257471118,203.47664016514318 41.61196358909365,203.50923758005956 40.60078023397364,203.7374193907308 40.17945383617189,203.83521154511254 39.98283485043794,203.90040629782015 39.75812743813731,204.25897719868226 39.73003901168704,204.45456115546403 40.17945383617189,205.3346874684794 40.68504551355727,206.14961706200847 41.1625487646088,207.09493276724243 41.80858257471118,207.9098578376579 42.14564369316213,208.23582727953908 43.15682704804931,208.72478081428562 43.746684005251154,209.05074941858766 44.6736020805547,209.40931449641357 45.62860858242493,209.8004759371106 46.471261378377676,209.86566946367384 47.48244473338127,209.6374920621165 48.54980494151823,209.34412087596138 49.476723016938195,209.14853993454017 50.51599479839206,208.95295887242537 51.47100130026229,208.82257143076276 52.51027308194898,208.72478081428562 53.128218465601094,208.52919949087664 53.40910273080226,208.30102112778695 53.94278283487074,207.38830603376846 54.64499349810649,206.7037679895584 54.92587776319124,205.66065955717932 55.010143042891286,204.74793686452904 55.262938881642185,203.67222460443736 55.43146944080945,203.21586072508944 55.54382314684335,203.0854709246778 55.54382314684335,202.368326064141 55.59999999997672,201.68377718434203 55.4876462938264,201.45559389606933 55.06631989579182,201.26000808971003 54.083224967471324,201.16221514131757 53.49336801038589,201.22741044362192 52.5945383614162,201.45559389606933 51.77997399214655,201.71637478360208 51.52717815339565,201.65117958179326 51.077763328910805,201.74897237939877 49.95422626787331,201.71637478360208 49.42054616380483,201.68377718434203 49.055396618903615,201.78156997187762 48.83068920660298,201.78156997187762 47.903771131299436,201.9771554565814 47.42626788036432,202.04235059136408 46.75214564357884,202.33572853190708 45.79713914170861,202.53131367481546 45.01066319888923,202.7594961891009 43.94330299086869,202.9550810707151 42.84785435628146,203.1832632800797 41.7804941481445,203.5418349916581 41.44343302992638,203.5418349916581" stroke="#4dd2ff" stroke-linecap="round" stroke-linejoin="round" stroke-width="0.5"><title>2024-06-16 4.3km</title><desc>9223370318313038607</desc></polyline><polyline fill="none" points="82.07863757712767,178.35968089388916 81.15762537578121,178.18152845159057 81.65650698472746,178.04791407191078 80.5436172413174,177.64707068525604 80.85062130843289,176.75630627624923 80.31336419098079,177.2907651415444 80.15986215742305,176.39999999999418 80.31336419098079,176.80084454029566 80.1214866489172,176.66722973485594 79.96798461535946,176.88992105441866 79.89123359858058,177.2907651415444 80.35173969925381,177.91429965090356 80.46686622453853,178.18152845159057 80.62036825809628,179.16136597740115 80.85062130843289,179.65128390918835 80.85062130843289,179.8294357470586 81.11924986727536,180.00758751152898 81.19600088405423,180.18573920286144 81.15762537578121,180.58658024051692 80.35173969925381,181.61095009627752 80.0063601238653,181.70002562148147 79.81448258156888,181.96725208696444 79.9296091068536,182.72439284430584 80.58199274959043,183.65968254129984 81.38787842611782,184.2386703893717 81.8867600352969,185.17395681753987 82.15538859413937,185.9310919707641 82.76939672860317,186.73276304383762 83.38340486283414,188.0688782024954 83.53690689639188,188.3806378133013 84.26604155590758,189.49406316346722 84.88004969037138,190.87470662395936 85.45568231656216,192.07719895621995 85.87781290896237,193.01246846289723 86.06969045102596,193.1906148068374 86.3383190096356,194.12588191009127 86.56857205997221,194.30402779611177 86.64532307698391,194.61578292038757 86.64532307698391,194.92753782030195 86.72207409376279,195.19475612748647 86.9523271440994,195.37290157392272 87.60471078706905,196.7535263011232 88.18034341279417,198.2232187570189 88.64084951370023,199.4256906947994 89.10135561460629,200.58362348089577 89.63861273229122,202.00876727720606 90.09911883296445,203.38937085997895 90.52124942536466,204.5918284607469 90.75150247570127,205.43800032755826 91.25038408488035,206.7295226227434 91.36551061016507,207.3530147667916 91.55738815222867,207.75383067133953 91.74926569405943,208.02104106845218 91.94114323612303,208.11011116407462 92.17139628645964,207.88743589050137 93.39941255538724,207.30847964342684 94.47392679052427,206.7740578057419 95.77869407623075,206.1060295815987 96.81483280286193,205.6606768600759 97.0834613617044,205.48253564318293 97.35208992054686,205.43800032755826 98.50335517246276,204.85904080769978 99.04061229014769,204.54729305350338 99.30924084899016,204.50275764177786 100.65238364296965,203.79019043102744 101.68852236983366,203.2557642539614 102.95491414703429,202.85494418840972 104.06780389044434,202.32051685781335 105.33419566764496,201.74155317241093 105.56444871821441,201.5634103443299 106.86921600392088,200.98444564727833 107.75185269699432,200.71723091090098 107.98210574733093,200.53908766168752 108.28910981467925,200.49455183796817 108.51936286501586,200.31640849719406 109.86250565899536,199.82651393249398 111.32077497825958,199.3811547566438 112.54879124718718,198.89125913433963 113.31630141520873,199.82651393249398 113.7384320073761,200.1382650831656 114.50594217539765,201.42980317526963 115.19670132664032,202.72133741763537 115.35020336019807,202.98855091814767 116.04096251144074,204.36915137906908 116.4247175953351,205.17078833759297 116.61659513739869,205.6606768600759 117.15385225508362,206.95219849143177 117.53760733897798,207.70929558915668 117.53760733897798,207.9319709543779 117.8446114063263,208.37732134148246 118.34349301550537,209.6242999904207 118.8039991161786,210.91580980806611 119.22612970881164,212.2073157763225 119.609884792706,213.45428340355284 119.91688885982148,214.79031616516295 120.18551741866395,215.9036736530834 120.1471419101581,216.17087902448839 119.26450521708466,216.30448164851987 118.9958766582422,216.1263448074169 117.76786038954742,216.17087902448839 117.15385225508362,216.34901584731415 116.77009717095643,216.52715259697288 115.58045641053468,216.7498234307859 114.3524401418399,216.70528927323176 113.16279938141815,217.10609652716084 112.24178717983887,217.23969886274426 111.05214641941711,217.23969886274426 110.55326481023803,217.4178352461604 109.67062811693177,217.81864184106234 108.51936286501586,217.90770992296166 107.0994690542575,217.72957374100224 106.14008134417236,217.86317588423844 104.60506100812927,218.30851606477518 103.3770447394345,218.7093218358932 101.95715092867613,218.442118029634 101.4198938109912,218.7093218358932 100.57563262619078,218.442118029634 100.2686285590753,218.62025391875068 99.73137144139037,218.57571995339822 99.04061229014769,218.7093218358932 98.81035923957825,218.88745761520113 98.8487347480841,219.24372895408305 98.61848169774748,219.37733063058113 98.311477630632,219.37733063058113 96.92995932814665,219.5109322659555 95.58681653416716,219.60000000000582 94.70417984109372,219.60000000000582 94.3971757737454,219.5109322659555 93.74479213100858,218.84292367726448 93.66804111399688,217.90770992296166 93.39941255538724,217.01702828056295 93.43778806366026,216.17087902448839 93.16915950505063,215.01298789156135 92.78540442092344,213.76602474963875 92.74702891265042,213.09800730471034 92.36327382852323,211.895573308866 91.97951874462888,210.47046202982892 91.8260167108383,209.89150923394482 91.94114323612303,209.35709058202337 92.32489832025021,208.91174120188225 93.47616357216612,208.33278632341535 93.7831676392816,208.2437162734277 94.05179619812407,208.0655761185335 94.32042475696653,208.0655761185335 95.24143695854582,207.4866201094119 96.27757568540983,207.04126880690455 96.62295526103117,206.8185929840256 97.85097152972594,206.28417054197052 99.19411432393827,205.57160626072437 100.42213059263304,205.0371822809393 101.68852236983366,204.36915137906908 102.7630366049707,203.8347259159782 104.06780389044434,203.2557642539614 105.37257117615081,202.6322662141174 106.67733846185729,202.0978386088682 107.7134771887213,201.6079460582696 108.55773837328888,201.38526744299452 108.78799142385833,201.20712446855032 108.97986896568909,201.25166021901532 110.36138726840727,200.67269510540063 111.2440239614807,200.31640849719406 112.66391777223907,199.87104982484016 113.16279938141815,199.7374421338609 113.16279938141815,199.7374421338609" stroke="#4dd2ff" stroke-linecap="round" stroke-linejoin="round" stroke-width="0.5"><title>2024-06-15 3.6km</title><desc>9223370318394354007</desc></polyline></svg>