<?xml version="1.0" encoding="utf-8" ?>
<svg baseProfile="full" height="300mm" version="1.1" viewBox="0,0,200,300" width="200mm" xmlns="http://www.w3.org/2000/svg" xmlns:ev="http://www.w3.org/2001/xml-events" xmlns:xlink="http://www.w3.org/1999/xlink"><defs /><rect fill="#222222" height="300" width="200" x="0" y="0" /><text fill="#FFFFFF" style="font-size:12px; font-family:Arial; font-weight:bold;" x="10" y="20">Over 3km Runs</text><text fill="#FFFFFF" style="font-size:4px; font-family:Arial" x="10" y="280">ATHLETE</text><text fill="#FFFFFF" style="font-size:9px; font-family:Arial" x="10" y="290">SunHao</text><text fill="#FFFFFF" style="font-size:4px; font-family:Arial" x="120" y="280">STATISTICS</text><text fill="#FFFFFF" style="font-size:3px; font-family:Arial" x="120" y="285">Number: 16</text><text fill="#FFFFFF" style="font-size:3px; font-family:Arial" x="120" y="290">Weekly: 2.3</text><text fill="#FFFFFF" style="font-size:3px; font-family:Arial" x="141" y="285">Total: 71.8 km</text><text fill="#FFFFFF" style="font-size:3px; font-family:Arial" x="141" y="290">Avg: 4.5 km</text><text fill="#FFFFFF" style="font-size:3px; font-family:Arial" x="167" y="285">Min: 3.0 km</text><text fill="#FFFFFF" style="font-size:3px; font-family:Arial" x="167" y="290">Max: 7.0 km</text><polyline fill="none" points="13.26720930240117,35.79806460192776 13.493255814071745,35.22964703507023 13.41790697677061,34.398881532397354 13.643953488441184,35.79806460192776 13.154186046682298,33.69928827154217 12.25,32.781070370285306 12.589069767622277,33.34949120960664 12.476046511670575,33.961635879124515 12.890465116361156,34.83612673598691 12.852790697710589,35.22964703507023 12.928139535011724,35.49199369881535 13.11651162803173,35.71061579481466 13.229534883750603,36.060410914884415 13.41790697677061,36.191584010841325 13.493255814071745,36.49765441054478 13.380232558352873,36.80372458990314 13.56860465137288,37.15351881086826 13.870000000111759,37.3721400530485 13.870000000111759,37.63448539513047 13.643953488441184,37.809382199979154 13.756976744160056,38.15917559401714 13.606279069790617,38.42152045070543 12.739767441991717,38.81503743235953 12.513720930553973,38.98993375163991 12.513720930553973,39.55834629305173 12.928139535011724,39.8644142698904 13.154186046682298,40.345377788558835 13.870000000111759,41.21985551994294 14.548139535123482,42.312950155872386 14.962558139581233,43.05625290356693 15.263953488552943,43.75583077376359 15.866744186263531,44.58657800013316 16.243488372303545,45.548493813868845 16.431860465090722,45.81083411286818 16.695581395644695,46.33551422535675 17.03465116280131,46.77274715795647 17.110000000102445,47.12253318057628 17.298372093122452,47.38487250878825 17.48674418614246,48.04072012114921 17.78813953488134,48.6528436470835 17.825813953531906,48.91518203148735 18.50395348854363,50.00825689107296 18.65465116291307,50.66410045843804 19.144418604671955,51.451111404574476 19.182093023555353,52.06323002272984 19.445813953643665,52.41301169464714 19.558837209362537,52.806515731761465 20.161627906840295,54.07447070846683 20.651395349064842,55.167532309977105 21.216511627892032,56.522924794961 21.781627907184884,57.92203508829698 22.346744186012074,59.23369680880569 22.384418604895473,59.53975062826066 22.911860465304926,60.89512918199762 23.250930232694373,62.03189496163395 23.476976744364947,62.731441623705905 23.665348837384954,63.124936115636956 23.816046511754394,64.04308851467795 23.929069767473266,64.30541740759509 24.644883721135557,64.52402469469234 25.134651162894443,64.26169593664235 25.549069767352194,64.13053149683401 25.88813953497447,63.8682024962327 26.34023255831562,63.69331640584278 26.830000000074506,63.34354400949087 28.035581395495683,62.81888487559627 29.165813953615725,62.29422509478172 30.40906976745464,61.682121199090034 30.97418604674749,61.46351245150436 32.17976744193584,60.807685534644406 32.782558139646426,60.589076337666484 33.12162790703587,60.37046702828957 33.68674418609589,60.195579499879386 34.32720930245705,59.8020822982071 34.59093023254536,59.75836036444525 35.49511627922766,59.27741879640962 35.834186046617106,59.18997481651604 36.88906976743601,58.62158850909327 38.13232558150776,58.09692355126026 39.300232558045536,57.65970225882484 40.58116279076785,57.22248051685165 40.95790697680786,57.09131390665425 41.14627906982787,57.13503611451597 41.29697674419731,56.916425030096434 41.71139534888789,56.69781383336522 42.954651162726805,56.30431339601637 44.34860465116799,55.823367922683246 44.61232558148913,55.692200880963355 45.02674418617971,55.73592323277262 45.89325581397861,56.87270279970835 46.571395348990336,58.14064565577428 47.24953488400206,59.452306702325586 47.81465116282925,60.589076337666484 48.342093023238704,61.682121199090034 48.86953488364816,62.81888487559627 49.359302325639874,63.955645514448406 49.924418604699895,65.31100999817136 50.45186046510935,66.57892770273611 50.82860465138219,67.75939940978424 51.28069767449051,69.11475177441025 51.35604651179165,69.4207984849636 51.808139535132796,70.6449831254431 52.18488372093998,72.00032629683847 52.33558139554225,72.2189296297147 52.63697674428113,72.13148831014405 52.63697674428113,71.82544354960555 52.14720930252224,70.47009982107556 51.7704651162494,69.33335659021395 51.31837209290825,68.19661032178556 50.9039534884505,66.9286974388815 50.41418604669161,65.66078077684506 49.84906976763159,64.30541740759509 49.321627906989306,63.037492926756386 48.79418604657985,61.76956466672709 48.15372093045153,60.4579107654572 47.55093023274094,59.10253081875271 47.437906976789236,58.75275464751758 46.722093023359776,57.57225794636179 46.11930232564919,56.61036932319985 45.81790697691031,56.435480248968815 45.704883720958605,56.61036932319985 46.458372093271464,57.96575721076806 46.75976744201034,58.49042233036016 47.06116279074922,58.84019871728378 47.21186046511866,59.40858473259141 48.00302325584926,60.676520029839594 48.455116279190406,61.988173257006565 49.057906976668164,63.16865770344157 49.58534883731045,64.52402469469234 49.623023255961016,64.83007470800658 50.075116279069334,65.96682997234166 50.60255813971162,67.23474572208943 50.790930232498795,67.89056273049209 51.28069767449051,69.02730981676723 51.657441860530525,70.16405386550468 52.071860464988276,71.56311929406365 52.260232558241114,72.17520897218492 52.561627907212824,72.08776764350478 52.75,71.91288493221509 52.63697674428113,71.65056073051528 52.63697674428113,71.65056073051528" stroke="#4dd2ff" stroke-linecap="round" stroke-linejoin="round" stroke-width="0.5"><title>2024-07-13 3.0km</title><desc>9223370315981622807</desc></polyline><polyline fill="none" points="58.1453185955761,40.38285992972669 57.93465539673343,40.26061338465661 58.092652795952745,40.04668180985027 58.1453185955761,39.89387344784336 58.82997399230953,39.160392216959735 57.98732119635679,39.52713305866928 57.64499349810649,39.46600961635704 57.46066319895908,39.49657133908477 57.72399219777435,40.41342155815801 57.82932379725389,40.78016085398849 57.98732119635679,41.024653466563905 57.90832249680534,41.20802279395866 57.90832249680534,41.452515054668766 58.092652795952745,41.544199600524735 58.32964889483992,41.75813009767444 58.35598179453518,41.94149897270836 58.092652795952745,42.247113513119984 57.88198959699366,42.39992066548439 57.671326397918165,42.70553473450127 57.486996098887175,42.76665751062683 57.381664499407634,42.88890302518848 57.40799739933573,43.19451659152401 57.539661898626946,43.37788458057912 57.59232769836672,43.62237505670055 57.69765929784626,43.80574278178392 58.11898569576442,44.26416159979999 58.197984395432286,44.416967715340434 58.64564369316213,45.02819139222265 58.698309493018314,45.2421193823393 58.96163849160075,45.669974900520174 59.19863459037151,46.12839084380539 59.567295188549906,46.58680608033319 59.80429128743708,47.106342493818374 59.988621586584486,47.38139081565896 60.35728218476288,48.175973427452845 60.72594278282486,48.97055391554022 61.0419375813799,49.64288959282567 61.43693107936997,50.25410252556321 61.64759427832905,50.77363253044314 61.83192457747646,51.354282637970755 62.016254876507446,51.62932702989201 62.016254876507446,51.84325026994338 62.06892067624722,52.05717335603549 62.226918075582944,52.27109628825565 62.56924577371683,53.03510550397914 62.96423927182332,53.89079349464737 63.35923276981339,54.74647902266588 63.701560468180105,55.69384227038245 64.0702210663585,56.580082575732376 64.09655396628659,56.82456219510641 64.41254876472522,57.71079912999994 64.49154746427666,57.95527781965211 64.5968790637562,58.10807689855574 64.83387516264338,59.05542943516048 64.9655396619346,59.269347332185134 65.22886866074987,60.15557697994518 65.30786736030132,60.46117279783357 65.54486345907208,60.644530137768015 65.75552665814757,60.675089683471015 66.51918075431604,60.3083749281941 66.99317295185756,60.125017380923964 67.15117035119329,60.125017380923964 67.57249674911145,59.75830194717855 68.44148244487587,59.48326507525053 68.67847854364663,59.3304667029297 69.0734720416367,59.17766825223225 69.86345903784968,58.74983217249974 70.65344603394624,58.383115042728605 70.83777633297723,58.32199547710479 71.65409622888546,57.89415816607652 71.86475942784455,57.83303849992808 72.04908972699195,57.71079912999994 72.81274382327683,57.40520048534381 72.97074122249614,57.46632023941493 73.04973992204759,57.64967942627845 73.234070221195,57.95527781965211 73.47106631996576,57.89415816607652 74.28738621599041,57.43576036399463 75.18270481156651,57.069041613372974 76.0780234070262,56.73288236136432 76.34135240584146,56.61064253910445 76.57834850461222,56.54952260912978 77.52633290004451,56.1522427580494 78.3953185955761,55.7855224244413 79.39596879074816,55.44936172122834 80.15962288703304,55.235441075783456 80.39661898592021,55.235441075783456 80.60728218476288,55.35768146350165 81.10760728234891,56.18280276548467 81.50260078033898,56.9773618550098 81.76592977903783,57.34408071869984 81.84492847858928,57.588559709780384 82.23992197669577,58.32199547710479 82.21358907688409,58.474794367619324 82.7139141743537,59.29990701918723 83.02990897279233,59.88054047542391 83.26690507156309,60.73620876533096 83.6092327699298,61.53075568677741 83.9778933681082,62.35585985795478 84.24122236680705,63.211521024408285 84.37288686621469,63.425435931334505 84.63621586479712,64.31165319189313 84.92587776342407,65.1978678110172 85.0575422628317,65.62569461291423 85.16287386219483,65.80904876810382 85.34720416145865,65.83960778301116 85.399869961082,65.68681267712964 85.24187256186269,65.50345844659023 84.92587776342407,64.61724473821232 84.63621586479712,63.761587616987526 84.37288686621469,62.93648734665476 83.9778933681082,62.01970658314531 83.6092327699298,61.10292299295543 83.31957087141927,60.27781534483074 83.10890767246019,59.75830194717855 83.02990897279233,59.39158606127603 83.13524057227187,59.23878764195251 83.84622886881698,59.02486972298357 83.9778933681082,58.90263084313483 84.1622236672556,58.994310007750755 84.530884265434,59.36102638367447 84.76788036420476,59.697182664385764 85.21553966216743,60.00277895331965 85.34720416145865,60.15557697994518 86.11085825762711,60.55285148185794 86.53218465554528,60.73620876533096 87.11150845256634,61.072363491228316 88.05949284799863,61.43907730423962 88.77048114442732,61.5918745927338 89.40247074130457,61.53075568677741 89.61313394038007,61.43907730423962 90.69278283498716,61.194601479161065 91.00877763330936,61.10292299295543 91.16677503264509,61.16404198683449 91.3511053317925,61.072363491228316 92.29908972699195,60.8890064151492 92.50975292606745,60.82788736463408 93.37873862183187,60.766768301517004 93.77373211982194,60.675089683471015 94.59005201573018,60.6139705889218 94.95871261390857,60.55285148185794 95.66970091033727,60.27781534483074 95.98569570889231,59.849980848055566 96.24902470759116,59.29990701918723 96.80201560480054,58.74983217249974 96.98634590383153,58.19975630816771 97.11801040323917,57.221841147722444 97.17067620297894,56.76344230902032 97.2760078025749,56.51896263944218 97.19700910290703,56.24392277083825 97.48667100141756,55.32712137125782 97.64466840063687,54.777039174572565 97.75,53.95191397119197 97.5920026008971,53.524070371640846 97.40767230186611,53.43238952025422 96.61768530588597,53.55463064921787 95.64336801052559,53.64631146291504 94.80071521480568,53.707431989721954 94.61638491554186,53.79911275632912 93.6684005203424,53.92135373450583 92.79941482446156,53.95191397119197 92.19375812762883,53.92135373450583 91.93042912892997,53.8602332516748 91.6934330300428,53.89079349464737 91.50910273089539,54.04359466247843 91.24577373219654,54.07415488656261 91.03511053335387,54.226955960155465 90.56111833557952,54.28807636749116 90.11345903784968,54.50199769451865 89.82379713922273,54.50199769451865 89.27080624189693,54.654798548144754 88.40182054624893,54.80759932327783 88.1121586477384,54.80759932327783 87.87516254885122,54.89927975067985 87.69083224982023,54.89927975067985 87.32217165164184,55.021520276524825 86.97984395327512,55.021520276524825 86.16352405736689,55.174320863210596 85.50520156056155,55.296561275958084 85.13654096238315,55.418801638443256 84.97854356328025,55.38824155248585 84.03055916784797,55.66328221268486 83.21423927182332,55.93832261839998 83.00357607298065,56.06056271708803 82.8982444733847,56.24392277083825 82.84557867376134,56.457842690637335 82.87191157368943,56.67176245650626 83.29323797149118,57.61911956957192 83.79356306907721,58.50535413622856 83.9778933681082,58.87207111532916 83.89889466855675,59.05542943516048 83.55656697019003,59.23878764195251 82.92457737331279,59.422145735734375 83.056241872604,59.60550371641875 83.24057217186783,59.911100099561736 83.24057217186783,59.75830194717855 83.10890767246019,59.72774230732466 82.97724317305256,59.78886158406385 82.7402470742818,59.819421217631316 82.55591677513439,59.72774230732466 82.50325097539462,59.54438440207741 82.10825747740455,58.68871268228395 82.0029258778086,58.383115042728605 81.92392717814073,58.26087589899544 81.76592977903783,58.016397460654844 81.42360208078753,57.221841147722444 81.00227568286937,56.4272827115783 80.9232769832015,56.274482768785674 80.65994798450265,55.87720255024033 80.31762028613593,55.26600117739872 80.1859557867283,55.174320863210596 79.81729518866632,54.68535870951018 79.07997399230953,54.62423838372342 78.7639791937545,54.71591886758688 78.60598179476801,54.80759932327783 77.60533159959596,54.80759932327783 77.42100130044855,54.89927975067985 76.47301690513268,54.960400019888766 76.0780234070262,55.11320063789026 75.55136540962849,55.35768146350165 75.26170351111796,55.57160202093655 74.36638491554186,55.81608246953692 73.86605981795583,56.12168274758733 73.49739921989385,56.12168274758733 72.57574772438966,56.580082575732376 72.20708712632768,56.73288236136432 72.10175552673172,56.85512213333277 72.10175552673172,57.221841147722444 72.20708712632768,57.588559709780384 72.10175552673172,57.74135897724773 71.46976592985447,58.07751708908472 70.94310793245677,58.19975630816771 70.15312093636021,58.59703342337161 69.31046814052388,59.02486972298357 68.83647594298236,59.23878764195251 68.33615084539633,59.54438440207741 67.94115734728985,59.72774230732466 67.75682704814244,59.75830194717855 66.91417425230611,60.125017380923964 66.12418725632597,60.49173236236675 65.75552665814757,60.675089683471015 65.57119635900017,60.70564922594349 65.07087126153056,60.49173236236675 64.93920676212292,60.36949408549117 64.6232119636843,59.36102638367447 64.2545513655059,58.32199547710479 64.14921976602636,57.89415816607652 63.96488946687896,57.49688011169201 63.701560468180105,56.73288236136432 63.35923276981339,55.93832261839998 62.96423927182332,55.021520276524825 62.64824447338469,54.19639575170004 62.30591677501798,53.31014834099915 62.12158647598699,52.943424501805566 62.09525357617531,52.72950205334928 62.12158647598699,52.515579450991936 62.042587776319124,52.30165669461712 61.7265929778805,51.72100843739463 61.70026007818524,51.53764559418778 61.51592977892142,51.38484313854133 61.120936280931346,50.65139025801909 60.778608582681045,49.82625360452221 60.38361508457456,49.001114661077736 59.988621586584486,48.175973427452845 59.593628088478,47.38139081565896 59.172301690559834,46.64792805843172 58.803641092265025,45.88390242870082 58.32964889483992,45.02819139222265 57.88198959699366,44.14191665081307 57.75032509758603,43.92798786907224 57.618660598178394,43.80574278178392 57.539661898626946,43.62237505670055 57.51332899869885,43.439007218461484 57.381664499407634,43.3167619301239 57.25,43.102832554635825 57.32899869966786,42.88890302518848 57.72399219777435,42.674973341752775" stroke="#4dd2ff" stroke-linecap="round" stroke-linejoin="round" stroke-width="0.5"><title>2024-07-10 5.4km</title><desc>9223370316238414607</desc></polyline><polyline fill="none" points="103.1637554585468,38.57737993900082 103.22270742361434,38.782635932875564 103.34061135374941,38.885263882402796 103.45851528388448,39.12472897479893 103.45851528388448,39.36419389490038 103.22270742361434,39.501030914718285 103.0753275109455,39.80891400354449 102.48580786027014,40.185215169767616 102.33842794771772,40.356261013715994 102.25,40.69835243787384 102.39737991266884,40.76677068055142 102.60371179040521,41.07465259823948 102.7216157206567,41.38253423117567 103.1637554585468,41.75883361781598 103.75327510922216,42.61405791415018 103.98908296960872,43.127191437000874 104.04803493455984,43.366653476812644 104.49017467256635,44.085038562567206 104.6375545852352,44.25608240196016 105.10917030577548,45.24813493707916 105.37445414846297,45.727055792172905 105.55131004366558,45.89809878752567 105.72816593886819,46.411227246542694 105.87554585153703,46.58226989037939 105.99344978178851,46.85593793756561 106.14082969434094,47.06118882534793 106.19978165929206,47.36906491959235 106.34716157207731,47.54010707119596 106.49454148474615,48.01902462763246 106.78930130996741,48.46373317015241 106.96615720517002,48.94264939753339 107.11353711795527,49.11369074034155 107.23144104809035,49.35314847249538 107.26091703062411,49.6268142410845 107.52620087354444,50.105728794645984 107.49672489089426,50.37939394442947 107.70305676863063,50.96093164049671 107.85043668129947,51.131971945927944 108.29257641918957,51.987172154535074 108.5578602621099,52.63712284323992 108.79366812238004,53.08182521475828 109.11790393013507,54.03964368897141 109.53056768572424,55.10008235555142 109.9137554585468,55.98947992225294 110.2085152840009,56.98149748102878 110.53275109175593,58.00771943028667 110.650655021891,58.212963440455496 110.82751091697719,58.965523727965774 110.94541484722868,59.17076714738505 111.0043668121798,59.6154607887147 111.18122270749882,60.09436096865102 111.44650655030273,60.231189465062926 111.74126637552399,60.29960369208129 112.36026200873312,60.02594669951941 112.80240174685605,59.752289481897606 113.33296943234745,59.54704642112483 113.80458515288774,59.44442484318279 114.8362445414532,58.89710922676022 115.69104803493246,58.45241462561535 116.54585152841173,58.07613411435159 117.4890829694923,57.563023640803294 117.81331877724733,57.46040145109873 118.81550218339544,56.9472900282708 119.02183406124823,56.81046018184861 119.72925764182582,56.60521530688857 120.43668122275267,56.126310106163146 120.76091703062411,56.057895021222066 121.7631004366558,55.6816118027491 122.26419213972986,55.51057383554871 122.44104803493246,55.37374339843518 123.08951965055894,55.06587470942759 124.09170305682346,54.65538268099772 124.85807860258501,54.313305603776826 125.09388646297157,54.176474674459314 125.71288209606428,53.90281264713849 126.18449781672098,53.83439710512175 126.71506550221238,53.62915039472864 126.92139738006517,53.4923191840644 127.21615720517002,53.35548791717156 127.42248908302281,53.35548791717156 127.62882096064277,53.42390355770476 127.89410480344668,53.83439710512175 128.2478165939683,54.176474674459314 128.7194323145086,54.96325174978119 129.1615720523987,55.818442113290075 129.63318777293898,56.67363027919782 130.04585152841173,57.563023640803294 130.51746724895202,58.62345108090085 130.9890829693759,59.58125360668055 131.37227074243128,60.57326045958325 131.8144104804378,61.63367830871721 131.93231441045646,62.07836865930585 132.3744541485794,63.10457489299006 132.7281659388682,63.993951069394825 133.02292576420587,64.81491158463177 133.0818777292734,65.2595976847515 133.43558951967862,66.42262006099918 133.61244541488122,66.42262006099918 133.75982532743365,66.21738111341256 133.43558951967862,65.32801087820553 133.11135371180717,64.3018114999577 132.75764192140196,63.37822935427539 132.4334061135305,62.42043775541242 132.05021834070794,61.42843640805222 131.8144104804378,60.846917002258124 131.3427947597811,59.752289481897606 131.04803493455984,59.10235268838005 130.93013100442477,58.76028018188663 130.48799126630183,57.80247529357439 130.0753275109455,56.9472900282708 129.54475982533768,55.852649682055926 129.04366812226363,54.89483642578125 128.60152838437352,54.176474674459314 128.66048034932464,54.03964368897141 128.80786026199348,54.00543593373732 128.80786026199348,54.176474674459314 128.8962882095948,54.313305603776826 128.68995633197483,54.34751332734595 128.9847161573125,54.55275959477876 129.45633187773637,55.51057383554871 129.92794759827666,56.399970305210445 130.48799126630183,57.39198664040305 130.87117903935723,58.349792710185284 131.28384279482998,59.204974371619755 131.69650655030273,60.231189465062926 132.13864628830925,61.2916084039025 132.31550218339544,61.7362992115668 132.4334061135305,61.9073339793249 132.87554585165344,61.87312703282805 133.28820960700978,62.0441617303004 133.49454148474615,62.24940325130592 133.8187772926176,62.8651270547125 134.34934497822542,63.44664293437381 134.93886462878436,63.72029711442883 135.61681222706102,63.822917373880045 135.8231441049138,63.78871062427061 136.41266375558916,63.617676823283546 137.26746724895202,63.48084971922799 137.53275109175593,63.51505650047329 138.41703056776896,63.92553760181181 139.09497816604562,64.09657124461955 140.008733624476,64.0281577980204 141.09934497822542,63.651883590529906 142.0131004366558,63.10457489299006 142.36681222717743,62.8651270547125 142.63209606998134,62.488851532456465 142.75,62.11257558470243 142.72052401758265,61.599471334018745 142.45524017477874,61.1547803436697 142.16048034944106,60.91533110264572 141.27620087342802,60.67588168947259 140.7456331877038,60.607467539724894 139.86135371192358,60.846917002258124 138.94759825337678,61.086366292409366 138.71179039310664,61.188987363973865 138.47598253272008,61.22319438078557 138.32860262016766,61.2916084039025 137.62117903924081,61.36002241302049 136.94323144108057,61.188987363973865" stroke="#4dd2ff" stroke-linecap="round" stroke-linejoin="round" stroke-width="0.5"><title>2024-07-08 3.2km</title><desc>9223370316411520207</desc></polyline><polyline fill="none" points="148.09375,42.52431764663197 147.408203125,41.973490886215586 147.90917968738358,41.973490886215586 147.7509765625,41.94288936955854 147.6455078125,41.75928020410356 147.8828125,41.60627247963566 148.0673828125,41.51446780722472 148.27832031238358,41.269655208976474 148.19921874988358,40.90243593411287 148.462890625,41.545069367828546 148.7001953125,41.88168632713496 148.72656249988358,42.00409239967121 149.359375,42.922136339650024 149.41210937488358,43.16694757877849 149.5439453125,43.350555876037106 149.9921875,43.77897479577223 150.07128906238358,43.99318402443896 149.62304687488358,44.14619052200578 149.49121093738358,44.29919694084674 149.306640625,44.2379943827691 148.8583984375,44.39100075440365 148.2255859375,44.911221829854185 147.98828124988358,44.97242424954311 147.8037109375,45.15603143314365 147.25,45.46204315405339 147.59277343738358,46.012863458978245 147.7509765625,46.16586891838233 147.7509765625,46.31887429908966 148.2255859375,47.14510199602228 148.35742187488358,47.29810687340796 148.462890625,47.512313569604885 148.4892578125,47.78772195256897 149.0166015625,48.61394557254971 149.0693359375,48.828151321882615 149.4384765625,49.16476004518336 149.62304687488358,49.86857705478906 149.78124999988358,49.99097984324908 150.0185546875,50.419389206013875 150.1767578125,50.57239240044146 150.38769531238358,51.153803822089685 150.51953125,51.3068066391279 150.7041015625,51.82701562863076 150.8095703125,52.01061858428875 150.9677734375,52.408424599911086 151.099609375,52.56142677200842 151.310546875,53.02043281661463 151.3896484375,53.51003848394612 151.46875,53.72424071026035 151.626953125,53.90784249585704 151.7060546875,54.366846464487026 151.943359375,54.764649331365945 152.0224609375,55.00945083156694 152.54980468738358,55.927454663906246 152.9716796875,56.84545566549059 153.1298828125,57.365654976456426 153.26171875,57.64105424378067 153.2880859375,57.82465361370123 153.68359375,58.74264876509551 153.8154296875,58.95684722645092 153.84179687488358,59.201645279244985 153.9208984375,59.35464396010502 153.9736328125,59.59944168580114 154.2373046875,60.0890365333762 154.3427734375,60.578630575939314 154.6328125,61.4048186968721 154.7119140625,61.64961473675794 154.791015625,62.10860676920856 154.9228515625,62.35340223045205 154.97558593738358,62.812393177853664 155.107421875,62.96539000305347 155.58203125,63.05718806036748 156.24121093738358,62.68999566102866 156.84765624988358,62.567598094028654 157.7177734375,62.292203384044115 158.53515625,61.863811106595676 158.69335937488358,61.74141319983755 158.79882812488358,61.61901524281711 159.642578125,61.19062199673499 160.38085937488358,60.792827716330066 161.013671875,60.42563252412947 161.224609375,60.36443328144378 161.69921875,60.0890365333762 162.54296875,59.75244016220677 163.0966796875,59.5076425622683 163.22851562488358,59.385243686818285 164.177734375,58.98744699402596 164.70507812488358,58.68144917639438 165.17968749988358,58.49785033491207 165.39062500011642,58.34485121371108 165.8388671875,58.191852013987955 165.9970703125,58.06945259755594 166.99902343738358,57.76345383626176 167.18359375,57.67165414665942 167.39453125,57.64105424378067 167.9482421875,57.33505504214554 168.42285156238358,57.27385516415234 169.134765625,57.12085541393026 169.556640625,56.93725560998428 169.7412109375,57.05965549193206 169.92578125,57.365654976456426 170.1103515625,57.4574547605589 170.7958984375,57.426854835648555 170.98046874988358,57.549254516285146 171.34960937488358,57.579854428593535 172.1142578125,58.03885273553897 172.2724609375,58.100052456371486 172.3515625,58.191852013987955 173.01074218738358,58.4672505169292 172.7998046875,58.77324855470215 172.77343749988358,58.92624745576177 172.93164062488358,59.44644313081517 173.1953125,59.813639530708315 173.30078125,60.150235832843464 173.43261718761642,60.333833655313356 173.8017578125,61.129422911209986 173.90722656238358,61.435418212844525 174.2763671875,61.894410575449 174.830078125,62.38400164898485 175.673828125,62.842992549121846 176.5439453125,63.24078409030335 177.30859375,63.546777221839875 177.5458984375,63.66917438633391 177.677734375,63.66917438633391 178.33691406238358,63.944567822647514 178.78515624988358,64.09756406591623 178.9697265625,63.97516707755858 179.576171875,63.82217077128007 180.630859375,63.48557862060261 180.9208984375,63.363181380642345 181.42187499988358,63.27138341756654 181.685546875,63.30198274174472 181.94921874988358,63.21018475986784 182.16015625,63.21018475986784 182.37109375011642,63.148986089538084 182.634765625,63.179585426318226 182.845703125,63.08778740663547 183.478515625,62.96539000305347 183.794921875,62.995989358692896 184.79687499988358,62.87359191739233 185.1923828125,62.68999566102866 185.6142578125,62.4452004765044 186.0625,61.680214227584656 186.16796875,61.46601772564463 186.37890624988358,61.25182106959983 186.5634765625,61.129422911209986 186.853515625,60.67042936923099 186.9326171875,60.27263439371018 186.90624999988358,60.058436879044166 187.0908203125,59.59944168580114 187.064453125,59.385243686818285 187.3017578125,58.58964976973948 187.27539062488358,58.3754510442086 187.5126953125,57.67165414665942 187.5390625,57.426854835648555 187.697265625,57.24325522038271 187.75,57.02905552604352 187.75,56.4782556045393 187.64453125,56.29465540422825 187.1962890625,55.95805474289227 186.80078125,55.8968545817479 186.0888671875,55.95805474289227 185.640625,56.08045502740424 184.84960937511642,56.14165515080094 184.375,56.23345531229279 184.1376953125,56.17225520775537 183.87402343761642,56.264055359817576 183.00390624988358,56.23345531229279 182.740234375,56.32525544552482 182.2919921875,56.32525544552482 181.87011718738358,56.417055550351506 181.1845703125,56.53945564618334 180.7099609375,56.63125568497344 180.4990234375,56.75365569262067 179.5498046875,57.05965549193206 179.23339843738358,57.12085541393026 178.8642578125,57.15145537024364 178.5478515625,57.24325522038271 177.625,57.33505504214554 177.36132812488358,57.33505504214554 177.1240234375,57.4574547605589 176.5966796875,57.4574547605589 175.568359375,57.73285394284176 174.619140625,58.00825287043699 174.3818359375,58.13065231204382 173.775390625,58.25305170333013 173.5380859375,58.3754510442086 172.9052734375,58.52845014966442" stroke="#4dd2ff" stroke-linecap="round" stroke-linejoin="round" stroke-width="0.5"><title>2024-07-04 3.2km</title><desc>9223370316754174107</desc></polyline><polyline fill="none" points="12.877906976733357,107.73826705123065 12.773255813983269,107.82936014380539 13.034883721033111,109.43866681359941 12.511627907049842,108.77065378875704 12.956395348883234,108.07227491994854 12.799418604699895,107.98118190234527 12.616279069683515,108.01154624469928 12.511627907049842,108.43664670965518 12.354651162866503,108.40628241107333 12.380813953466713,108.61883243595366 12.433139534899965,108.77065378875704 12.40697674418334,108.37591810940648 12.485465116216801,108.16336790961213 12.773255813983269,107.82936014380539 13.061046511633322,107.82936014380539 13.244186046533287,107.98118190234527 13.21802325581666,108.13300358285778 13.061046511633322,108.04191058391007 13.139534883783199,108.16336790961213 13.270348837249912,108.22409655363299 13.322674418683164,107.98118190234527 13.53197674418334,108.10263925298932 13.662790697650053,108.28482518534292 13.688953488366678,108.43664670965518 14.159883721033111,109.13502471687389 14.604651162866503,109.62085192181985 14.68313953501638,109.83340107268305 14.997093023266643,110.28886302383034 15.023255813983269,110.50141169392737 14.369186046533287,110.80505238601472 14.081395348883234,110.80505238601472 13.924418604699895,110.92650857541594 13.375,111.07832874185988 12.851744186016731,111.4730608095997 12.563953488366678,111.77670050278539 12.354651162866503,111.92852023226442 12.25,112.08033988368697 12.302325581433252,112.29288726462983 12.537790697650053,112.3839789525664 12.563953488366678,112.56616224406753 12.642441860516556,112.77870927541517 13.16569767438341,113.38598566508153 13.296511627850123,113.56816833850462 13.636627907049842,114.4183526620327 13.924418604699895,114.81308026611805 14.002906976849772,115.02562568057328 14.316860465100035,115.51144319647574 14.68313953501638,116.36162192650954 15.154069767449982,117.15107141336193 15.59883720939979,118.03160873637535 15.677325581316836,118.30487840637215 15.834302325500175,118.54778456740314 16.200581395300105,119.30686503328616 16.619186046649702,120.06594354854315 16.723837209283374,120.39993747728295 16.880813953466713,120.5213897213107 16.933139534899965,120.70356799382716 16.854651162866503,120.91610916968784 16.95930232561659,121.03756120154867 17.32558139541652,121.97881275520194 17.744186046649702,122.79861005186103 18.110465116333216,123.67913053993834 18.476744186133146,124.55964840337401 18.816860465100035,125.40980109135853 19.18313953478355,126.47248851071345 19.52325581398327,127.44408509155619 19.837209302349947,128.35495398391504 20.072674418683164,129.17473358553252 20.15116279060021,129.50871721561998 20.569767441949807,129.66052783164196 21.40697674418334,129.26582006757963 22.113372093066573,128.87111177609768 22.845930232550018,128.59785188073874 23.238372093066573,128.3853162318992 23.578488372149877,128.26386722101597 24.44186046521645,127.80843298550462 25.305232558166608,127.38336039887508 26.011627907049842,127.07973674827372 26.48255813959986,126.8064751958591 26.71802325581666,126.74575037209434 26.92732558143325,126.59393825812731 27.136627906933427,126.5332133906777 27.424418604699895,126.32067625634954 28.340116279083304,125.95632652734639 29.308139534899965,125.50088873429922 30.066860465100035,125.1365379941708 30.799418604699895,124.83291203420958 31.531976744299755,124.55964840337401 31.95058139541652,124.46856047023903 32.892441860516556,124.04348307766486 33.23255813959986,123.98275768585154 33.938953488483094,123.70949326854316 34.540697674499825,123.52731684988248 34.77616279083304,123.34514031891013 35.32558139541652,123.13260089070536 35.56104651174974,123.19332645725808 36.058139534899965,123.07187531181262 37.026162790716626,122.76824722954188 37.83720930234995,122.52534453911358 38.80523255816661,122.31280452114879 39.69476744183339,122.13062724110205 40.610465116333216,121.94844984868541 41.500000000116415,121.7359094156127 42.44186046521645,121.55373177977162 43.54069767461624,121.40191699756542 44.09011627919972,121.31082809064537 44.7441860466497,121.28046511547291 45.058139534899965,121.21973915575654 45.947674418683164,121.1286501926661 46.889534883899614,121.06792420169222 47.125000000116415,121.06792420169222 48.014534883899614,120.97683519186103 48.9040697675664,120.94647218228783 49.81976744194981,120.91610916968784 50.68313953501638,120.85538313505822 51.70348837214988,120.88574615397374 51.938953488483094,120.82502011305769 52.383720930316485,120.91610916968784 52.540697674499825,120.85538313505822 52.67151162796654,120.4606636055687 52.67151162796654,120.27848518322571 52.75,120.03558044534293 52.72383720939979,119.2461386678915 52.6191860466497,118.88178021271597 52.6191860466497,118.03160873637535 52.59302325581666,117.66724878319656 52.6191860466497,117.4547052695998 52.46220930246636,116.48307583102724 52.2790697675664,115.60253389170975 52.0436046513496,114.78271662292536 51.781976744299755,113.90216961453552 51.598837209516205,113.2341666847351 51.258720930316485,112.35361505977926 50.84011627919972,111.4730608095997 50.68313953501638,111.13905678666197 50.55232558154967,110.7443242725567 50.21220930234995,110.19777068981784 49.950581395532936,109.59048774492112 49.71511627919972,109.25648159306729 49.34883720939979,108.52773958689068 48.93023255828302,107.73826705123065 48.851744186133146,107.49535200026003 48.642441860516556,107.22207232919754 48.06686046521645,106.79697011600365 47.308139534899965,106.49332530336687 46.758720930316485,106.28077374878922 46.601744186133146,106.12895111611579 46.41860465123318,105.6127535814012 46.026162790716626,105.33947216838715 45.60755813959986,105.43056600083946 45.476744186133146,105.52165980517748 45.65988372103311,105.369836782309 45.11046511644963,105.79494104962214 44.456395348883234,106.03785749911913 44.24709302326664,106.28077374878922 44.063953488483094,106.4022317986819 43.46220930246636,106.61478326586075 43.12209302326664,106.91842795355478 42.70348837214988,106.94879240522278 42.52034883736633,107.0702501804335 42.415697674499825,107.22207232919754 42.415697674499825,107.22207232919754" stroke="#4dd2ff" stroke-linecap="round" stroke-linejoin="round" stroke-width="0.5"><title>2024-07-03 3.3km</title><desc>9223370316842663807</desc></polyline><polyline fill="none" points="58.79660194180906,104.37308732391102 58.61310679616872,104.16012517164927 58.37718446610961,104.46435677085537 58.08883495151531,104.61647245316999 58.036407767096534,104.46435677085537 57.98398058267776,103.8558932596934 57.72184466035105,103.55166103487136 58.08883495151531,103.21700522647006 57.354854368953966,102.36515236983541 57.25,102.57811581387068 57.45970873802435,103.39954480525921 57.59077669912949,103.52123779535759 57.8529126214562,104.25139468428097 57.879126213723794,104.61647245316999 57.98398058267776,104.9511266790505 58.01019417482894,105.1945113328402 58.246116505004466,105.5900109684153 58.40339805826079,105.65085701929638 58.53446601948235,105.7725490835146 58.246116505004466,106.16804794655764 57.98398058267776,106.35058570510591 57.45970873802435,106.92862119755591 57.485922330175526,107.08073561318452 57.407281553489156,107.20242708941805 57.72184466035105,107.71961530507542 58.246116505004466,108.26722537176101 58.40339805826079,108.60187546917587 58.61310679616872,108.75398902481538 58.74417475727387,109.02779322778224 58.92766990303062,109.24075187719427 59.08495145640336,109.72751392898499 59.39951456314884,110.30554282560479 59.47815533983521,110.48807803212549 59.63543689320795,110.67061312604346 59.74029126227833,110.85314810732962 59.897572815651074,111.49201965538668 60.369417475769296,112.16131217888324 60.55291262140963,112.31342390496866 60.89368932042271,113.1956703744363 61.02475728164427,113.40862602472771 61.2344660195522,113.83453686555731 61.33932038838975,113.95622556467424 61.39174757292494,114.16918066772632 61.60145631071646,114.59509041419369 61.65388349513523,114.80804505755077 61.81116504862439,115.08184365948546 61.863592233043164,115.29479795254883 62.07330097106751,115.50775209255517 62.099514563102275,115.96408187635825 62.25679611659143,116.1466135928058 62.62378640775569,116.90716119983699 63.04320388357155,117.8198157485458 63.43640776711982,118.64120243609068 63.82961165055167,119.61469481769018 64.17038834956475,120.49691952276044 64.43252427189145,121.40956300206017 64.74708737875335,122.2309397275094 65.03543689323124,123.08273540544906 65.29757281567436,123.93452863197308 65.40242718451191,124.36042432597606 65.37621359224431,124.5733719432028 65.53349514561705,125.06010877873632 65.55970873800106,125.27305589258322 65.7169902913738,125.455581868242 65.66456310683861,125.91189631490852 65.74320388352498,126.18568464514101 66.05776699027047,127.09831058385316 66.24126213602722,127.88925078796456 66.37233009713236,128.5280855637102 66.60825242730789,128.6193475619657 66.89660194178578,129.59280712611508 66.97524271847215,129.80575097899418 66.94902912620455,129.9882741595502 67.21116504864767,130.96172922174446 67.21116504864767,131.17467208986636 67.28980582533404,131.3876148047566 67.15873786411248,131.5397166501789 67.10631067957729,131.93518108254648 67.1325242719613,132.17854354757583 67.42087378643919,132.5435868698114 67.81407766998746,132.63484763013548 68.73155339807272,132.57400712641538 69.22961165057495,132.60442737984704 70.12087378650904,132.48274634740665 70.35679611668456,132.45232608146034 70.4616504854057,132.23938413249562 70.4616504854057,131.96560140157817 70.61893203889485,131.99602171755396 70.85485436895397,131.93518108254648 71.71990291273687,131.90476076031337 71.95582524267957,131.96560140157817 72.84708737861365,131.75265910246526 73.55485436902381,131.81349977498758 73.94805825245567,131.75265910246526 74.36747572827153,131.60055736647337 75.23252427193802,131.32677404468996 75.62572815536987,131.2355128811032 76.49077669903636,131.32677404468996 77.11990291264374,131.418035180046 77.74902912636753,131.3876148047566 78.35194174770731,131.14425168946036 78.53543689323124,131.11383128594025 78.71893203898799,130.99214964083512 79.53155339811929,130.96172922174446 80.02961165062152,130.93130879948149 80.97330097085796,130.6575248587178 81.28786407771986,130.50542255997425 82.3101941748755,130.5662634888431 83.30631067964714,130.20121772793937 83.67330097092781,130.10995621740585 84.38106796122156,130.20121772793937 84.56456310697831,130.29247921035858 85.40339805826079,130.04911519473535 85.58689320401754,130.01869467869983 85.21990291273687,129.10607774421806 85.06262135936413,128.7714508298959 85.03640776698012,128.55850623300648 84.74805825250223,127.76756781720906 84.48592233017553,126.94620645616669 84.17135922343004,126.12484281591605 84.17135922343004,125.94231725294958 84.72184466023464,125.94231725294958 84.95776699029375,126.03358004847541 85.37718446610961,126.58115623070626 85.79660194180906,127.1591522131057 86.05873786413576,127.40251860473654 86.74029126216192,127.70672631304478 87.50048543699086,127.61546403338434 88.4703883494949,127.3416770256008 88.68009708740283,127.3416770256008 89.46650485449936,127.70672631304478 90.01699029142037,127.85883004995412 91.01310679607559,127.82840930877137 91.82572815543972,127.5242017256096 92.37621359224431,127.28083543395041 92.92669902916532,126.8853647832293 93.18883495149203,126.58115623070626 93.34611650486477,125.94231725294958 93.2674757281784,125.42516088005505 92.82184466021135,125.06010877873632 92.4286407767795,124.87758255924564 92.61213592241984,124.75589835032588 93.13640776707325,124.75589835032588 94.08009708754253,124.60379301890498 94.9713592233602,124.48210869752802 95.36456310690846,124.29958212157362 95.81019417475909,123.75200171832694 96.09854368935339,123.23484151848243 96.38689320383128,122.83936546181212 96.83252427191474,122.53515275099198 97.12087378650904,121.59209136027494 97.22572815534659,120.61860548259574 97.27815533976536,120.19270440420951 97.40922330098692,119.55385163764004 97.54029126220848,119.18879229476443 97.56650485447608,118.91499749207287 97.69757281569764,118.70204580371501 97.75,117.97192456634366 97.7237864077324,117.7589721995173 97.59271844662726,117.45475426677149 97.38300970883574,117.27222335708211 96.96359223301988,117.21137969547999 95.99368932039943,117.33306700608227 95.05000000004657,117.48517607411486 93.94902912632097,117.60686327223084 92.87427184474654,117.60686327223084 92.4286407767795,117.72855042025913 91.98300970869604,117.7589721995173 91.74708737863693,117.69812863794505 91.01310679607559,117.85023751831613 90.20048543694429,118.18487677999656 89.67621359229088,118.36740712678875 88.68009708740283,118.4586722580716 88.18203883501701,118.51951566326898 87.94611650484148,118.61078074760735 87.55291262140963,118.5803590559226 87.31699029135052,118.6716241214599 86.42572815553285,118.8541541681916 85.9538834951818,118.9758408034395 85.29854368942324,119.0975273885997 84.95776699029375,119.31047879238031 84.09271844674367,119.55385163764004 83.93543689325452,119.55385163764004 83.77815533988178,119.61469481769018 83.62087378639262,119.61469481769018 83.4111650486011,119.64511640305864 83.07038834958803,119.85806741280248 82.8868932039477,120.25354745303048 82.91310679621529,120.46649802499451 83.25388349522837,121.19661310862284 83.69951456319541,121.92672639127704 84.14514563104603,122.74810168144177 84.72184466023464,123.53905351017602 85.1412621360505,123.9649497732753 85.66553398070391,124.26916101461393 86.45194174756762,124.63421409149305 86.81893203884829,124.84716151174507 87.71019417478237,125.18179286250961 88.2082524272846,125.3643188944261 89.15194174763747,125.54684481382719 89.44029126211535,125.51642383509898 90.4364077670034,125.21221387569676 91.40631067962386,124.93842464490444 92.24514563113917,124.78631940719788 93.21504854375962,124.6646351608797 94.05388349515852,124.51252978254342 94.28980582533404,124.48210869752802 94.76165048545226,124.48210869752802 95.2334951456869,124.39084542362252 95.62669902923517,124.1170554330456 96.01990291266702,123.47821113688406 96.12475728162099,123.17399908258813 96.88495145644993,122.29178235726431 97.09466019424144,121.531248586718 97.04223300970625,121.31829878079589 97.14708737866022,120.8011343285034 97.14708737866022,120.61860548259574 97.22572815534659,120.40565502006211 97.22572815534659,120.40565502006211" stroke="#4dd2ff" stroke-linecap="round" stroke-linejoin="round" stroke-width="0.5"><title>2024-07-02 4.3km</title><desc>9223370316930743707</desc></polyline><polyline fill="none" points="102.41863289382309,107.37240459420718 102.27810548234265,107.43764077842934 102.25,107.6007311802241 102.47484385827556,108.15523791950545 102.64347675221507,108.54665385786211 103.14937543356791,109.39472006793949 103.34611380973365,109.81875232304446 103.4866412213305,110.24278401149786 103.96443442057353,111.09084568853723 103.99253990268335,111.38440497172996 104.10496183205396,111.67796398323844 104.35791117267217,111.93890509897028 104.38601665501483,112.29769878264051 104.66707147809211,112.8195797802473 104.75138792500366,113.08051995708956 104.9481263011694,113.3088424357993 105.34160305326805,114.18951331501012 105.73507980559953,115.1027990525472 106.0723455932457,116.08131656894693 106.38150589866564,116.96197975383257 106.74687716865446,117.94049153727246 107.02793199149892,118.85376647967496 107.39330326160416,119.79965561343124 107.70246356690768,120.74554192781216 107.92730742529966,121.62619216891471 108.0116238722112,121.78927527877386 108.18025676603429,121.88712510437472 108.03972935467027,121.78927527877386 108.29267869528849,121.75665866356576 109.02342123514973,121.49572562079993 109.97900763351936,121.00647558737546 110.85027758486103,120.58245828171493 111.55291464261245,120.25629073797609 112.0026023593964,120.06059005076531 112.17123525321949,119.9301228588447 113.04250520456117,119.60395464472822 113.52029840380419,119.4082535552152 114.39156835514586,118.95161721049226 115.26283830660395,118.52759715917637 115.82494795275852,118.29927843532641 116.1060027758358,118.13619353191461 116.94916724495124,117.74478942202404 117.23022206791211,117.58170423365664 118.12959750159644,117.22291652447893 118.94465648848563,116.86412840956473 119.84403192216996,116.44010556893772 120.12508674524724,116.40748840384185 120.91204024979379,116.01608216171735 121.89573213050608,115.68990992452018 122.12057598889805,115.55944093572907 122.31731436494738,115.5920581879036 123.16047883406281,115.23326822914532 123.35721721022855,115.16803364749649 122.96374045801349,115.1027990525472 122.82321304641664,114.9397125064861 122.65458015259355,114.87447786467965 122.51405274111312,114.80924320936901 122.65458015259355,114.9397125064861 122.79510756407399,114.9397125064861 122.8513185287593,115.13541635178262 123.04805690480862,115.13541635178262 123.24479528097436,115.20065094000893 123.61016655084677,115.20065094000893 123.75069396244362,115.33112007626914 123.8631158915814,115.52682368012029 124.0317487855209,115.68990992452018 124.20038167934399,115.75514439871768 124.62196391390171,116.63580848879064 125.09975711314473,117.41861896167393 125.4932338653598,118.20142750331433 125.9148160998011,119.01685101419571 126.39260929904412,120.06059005076531 126.61745315755252,120.68030847943737 126.89850798039697,121.23479236353887 127.26387925050221,122.08282466523815 127.65735600271728,122.99608768662438 127.99462179036345,124.00719725171803 128.3037820957834,124.9204547353147 128.58483691862784,125.86632578700664 128.89399722404778,126.9426583822642 129.09073560021352,127.46451529613114 129.1469465647824,127.62759540582192 129.56852879934013,127.49713132478064 129.82147814019118,127.56236337198061 130.18684940994717,127.46451529613114 130.63653712684754,127.36666719021741 131.45159611373674,126.81219401964336 131.9012838306371,126.64911349094473 132.57581540592946,126.58388125602505 132.7725537819788,126.51864900777582 133.67192921577953,126.42080061006709 134.62751561414916,126.127255236177 134.73993754317053,126.42080061006709 134.5994101316901,126.06202289406792 134.6556210963754,126.2577198803192 134.45888272032607,126.38818447085214 133.50329632195644,126.64911349094473 132.40718251210637,126.91004229657119 131.33917418459896,127.20358694644528 130.43979875079822,127.36666719021741 129.65284524625167,127.5297473500541 129.45610687008593,127.39928322887863 129.17505204712506,126.48603287851438 129.1469465647824,126.2577198803192 128.8377862594789,125.3444662449765 128.55673143651802,124.39859363800497 128.19136016641278,123.42010176740587 128.1351492019603,123.19178656351869 128.24757113109808,123.09393714013277 128.64104788331315,123.09393714013277 129.03452463564463,123.28963595678215 129.45610687008593,123.97458086450933 129.06263011787087,123.38748531969031 128.78157529491,123.15917009234545 128.10704371950123,123.09393714013277 127.93841082567815,122.93085470073856 127.57303955580574,121.98497489994043 127.20766828570049,121.1043256544217 126.81419153348543,120.19105718890205 126.33639833435882,119.17993546501384 126.1396599583095,118.52759715917637 125.68997224129271,117.71217239100952 125.2121790421661,116.76627703511622 124.87491325463634,116.14655096275965 124.84680777229369,115.91823052577092 124.95922970154788,115.82037885958562 125.40891741844825,115.88561330703669 126.42071478127036,116.40748840384185 126.56124219286721,116.50533988900133 126.92661346285604,116.60319134392194 126.7860860513756,116.99459686194314 126.8422970159445,117.35338482927182 127.29198473272845,118.13619353191461 127.79788341419771,119.11470169475069 128.35999306023587,120.09320684021804 128.86589174182154,120.77815864700824 129.3717904231744,121.13694233671413 130.15874392772093,121.56095890159486 130.55222068005241,121.75665866356576 130.97380291449372,121.91974170631147 131.22675225522835,122.05020808009431 132.1261276890291,122.3763737801346 133.02550312282983,122.70253914486966 133.70003469812218,122.70253914486966 134.20593337947503,122.57207303924952 134.85235947254114,122.34375722525874 135.75173490634188,122.14805782533949 136.62300485768355,121.91974170631147 137.26943095074967,121.85450849914923 137.43806384457275,121.91974170631147 138.36554476048332,121.7240420448943 139.4054476057645,121.59357553694281 140.1080846633995,121.46310897532385 140.55777238029987,120.97385889163706 141.00746009708382,120.06059005076531 141.2323039554758,119.70180514408275 141.42904233164154,119.53872096157284 141.71009715471882,119.4734872650588 141.8787300484255,119.2125523450377 141.90683553076815,118.78853264235659 141.9911519777961,118.65806492752745 142.04736294224858,117.61432127805892 142.1035739069339,117.32076775815221 142.21599583618809,117.05983106791973 142.30031228309963,116.47272273059934 142.55326162383426,115.46158915897831 142.72189451765735,115.00494713510852 142.75,114.2873654840223 142.6375780707458,113.92857405010727 142.24410131853074,113.7328694605385 141.09177654399537,113.83072177038412 140.0518736987142,114.02642629956244 139.15249826491345,114.12427851889515 138.14070090209134,114.18951331501012 137.83154059678782,114.25474809770822 137.49427480902523,114.22213070807629 136.93216516298708,114.25474809770822 136.6511103399098,114.2873654840223 136.28573907003738,114.2873654840223 135.66741845931392,114.45045236541773 135.33015267166775,114.58092181009124 134.40267175575718,114.77662587663508 133.4751908396138,115.07018175008125 133.19413601665292,115.13541635178262 134.0091950034257,114.97232982236892 134.96478140167892,114.64615651243366 135.83605135325342,114.38521762291202 136.98837612767238,114.31998286701855 137.5785912560532,114.25474809770822 137.8877515613567,114.2873654840223 138.19691186666023,114.18951331501012 139.20870922959875,114.1568959186261 139.9394517695764,114.05904370933422 140.19240111019462,114.05904370933422 140.83882720314432,113.92857405010727 141.79441360151395,113.83072177038412 142.3565232475521,113.96119146991987 142.55326162383426,114.1568959186261 142.66568355285563,114.8418605386687 142.6375780707458,115.55944093572907 142.44083969458006,116.2117853431846 142.30031228309963,116.50533988900133 142.13167938916013,117.45123602275271 142.01925746002235,118.42974629753735 141.9349410131108,119.04946791101247 142.04736294224858,118.88638339322642 142.01925746002235,118.59283105001668 142.1035739069339,117.67955535673536 142.1597848716192,117.41861896167393 142.24410131853074,117.19029943985515 142.32841776532587,116.53795704405638 142.46894517692272,116.30963688858901 142.55326162383426,115.88561330703669 142.27220680075698,117.02721396661946 142.07546842470765,117.9078745264851 141.9911519777961,118.88638339322642 141.85062456619926,119.24516922174371 141.65388619003352,119.4734872650588 141.48525329621043,119.57133780480945 140.72640527412295,119.66918831435032 139.65839694649912,120.02797325787833 138.7028105481295,119.89750605251174 138.50607217208017,119.89750605251174 138.22501734900288,119.73442197058466 138.22501734900288,119.53872096157284 139.09628730046097,119.14731858152663 139.48976405267604,119.01685101419571 140.13619014562573,118.46236325471546 140.50156141561456,117.94049153727246 140.75451075623278,116.76627703511622 140.89503816782963,115.88561330703669 140.83882720314432,115.5920581879036 140.72640527412295,115.49420642122277 140.24861207499634,115.33112007626914 139.60218598193023,115.49420642122277 139.236814711825,115.68990992452018 138.5341776543064,115.85299608504283 137.52238029136788,115.91823052577092 136.56679389299825,115.9508477411 136.28573907003738,116.04869936700561 135.92036780004855,116.08131656894693 135.61120749486145,116.27701971016359 135.3020471893251,116.24440252830391 134.37456627329811,116.53795704405638 133.3627689103596,116.73365990351886 132.7163428175263,116.8315112880664 131.98560027754866,116.79889416325022 131.64833448990248,116.73365990351886 130.69274809153285,116.92936264234595 130.41169326845556,117.02721396661946 130.15874392772093,117.05983106791973 129.87768910464365,117.19029943985515 129.56852879934013,117.25553360569756 129.3155794586055,117.45123602275271 129.17505204712506,117.74478942202404 129.23126301169395,118.103576541238 129.48421235242859,118.26666146126809 129.70905621082056,118.52759715917637 129.99011103389785,118.72329879167955 130.21495489240624,118.984234114032 131.05811936152168,119.57133780480945 131.39538514905144,119.66918831435032 132.35097154742107,120.12582362649846 133.16603053431027,120.45199130440596 133.53140180418268,120.51722479969612 134.26214434404392,120.54984154229169 135.4144691185793,120.28890750740538 135.80794587079436,120.09320684021804 136.17331714078318,120.02797325787833 136.48247744620312,119.86488924291916 137.55048577359412,119.60395464472822 137.80343511444516,119.57133780480945 138.0563844551798,119.44087041181047 138.36554476048332,119.4082535552152 139.46165857033338,118.91900030354736 139.74271339341067,118.7559157187352 140.0518736987142,118.46236325471546 140.47345593338832,117.77740644957521 140.6982997917803,116.79889416325022 140.83882720314432,116.01608216171735 140.6982997917803,115.68990992452018 140.33292852179147,115.52682368012029 139.236814711825,115.72252716327785 138.0563844551798,115.85299608504283 137.26943095074967,115.98346495305304 136.73542678693775,116.01608216171735 136.03278972918633,116.17916815460194 135.7236294238828,116.2117853431846 134.99288688402157,116.37487123545725 134.7680430256296,116.47272273059934 133.64382373343688,116.66842563042883 132.51960444124416,116.79889416325022 131.73265093681403,116.73365990351886 130.63653712684754,116.89674552762881 130.27116585697513,117.02721396661946 129.90579458710272,117.05983106791973 129.56852879934013,117.19029943985515 129.2593684940366,117.38600189713179 129.11884108243976,117.71217239100952 129.17505204712506,117.9731085448002 129.48421235242859,118.33189540589228 130.18684940994717,119.01685101419571 130.6646426091902,119.4082535552152 131.3110687021399,119.73442197058466 132.15423317137174,120.09320684021804 133.02550312282983,120.45199130440596 133.3627689103596,120.61507501761662 133.64382373343688,120.58245828171493 134.1778278972488,120.64769175017136 134.7680430256296,120.51722479969612 135.4144691185793,120.32152427345864 136.31384455238003,119.99535646146978 136.96027064532973,119.73442197058466 137.60669673839584,119.73442197058466 138.7028105481295,119.99535646146978 139.4054476057645,120.02797325787833 139.85513532254845,119.96273966188892 140.44535045092925,119.70180514408275 140.89503816782963,119.70180514408275 141.11988202633802,119.76703879362321 140.92314365017228,120.48460805378272 140.44535045092925,121.16955901563051" stroke="#4dd2ff" stroke-linecap="round" stroke-linejoin="round" stroke-width="0.5"><title>2024-06-29 6.8km</title><desc>9223370317186179507</desc></polyline><polyline fill="none" points="147.5394736842718,104.30651874566684 147.51315789471846,104.52031142351916 147.72368421056308,105.22277199607925 147.8289473685436,105.40602230699733 148.0394736842718,106.20010568169528 148.11842105269898,106.50552179903025 147.98684210528154,106.87202072553919 147.77631578955334,107.11635309192934 147.3552631578641,107.39122676395345 147.25,107.69664165689028 147.51315789471846,108.0325976764143 147.93421052629128,108.73504994419636 148.30263157887384,109.49858313403092 148.77631578943692,110.323196775018 149.22368421056308,111.08672588338959 149.30263157899026,111.30051368215936 149.48684210528154,111.75862987557775 149.93421052629128,112.52215529498062 150.32894736831076,113.37730143524823 150.77631578943692,114.14082269484061 151.14473684201948,115.02650489777443 151.51315789471846,115.85110319615342 151.72368421056308,116.21759059428587 151.82894736831076,116.64515865393332 152.27631578943692,117.43921198952012 152.67105263157282,118.32488436024869 153.03947368415538,119.14947350462899 153.38157894730102,120.00460057056625 153.72368421056308,120.9513455228007 154.06578947370872,121.86754744313657 154.3552631578641,122.78374653830542 154.67105263157282,123.69994280845276 154.90789473673794,124.37181827772292 154.9605263157282,124.79937460357905 155.0394736842718,125.07423191677663 155.3552631578641,125.2880096512381 155.59210526314564,125.2574699842371 156.38157894730102,124.82991431758273 157.25,124.40235803570249 158.01315789471846,124.03588073293213 158.69736842100974,123.69994280845276 159.59210526326206,123.30292477158946 160.38157894730102,122.93644611281343 161.22368421056308,122.53942705574445 161.64473684201948,122.41726723924512 162.40789473673794,122.02024748845724 163.17105263157282,121.62322720725206 163.61842105258256,121.4399868985638 163.8552631578641,121.28728655492887 164.8552631578641,120.82918505335692 165.72368421056308,120.46270334348083 166.48684210528154,120.09622118165134 166.72368421056308,120.0351407773851 167.61842105269898,119.57703734526876 168.6447368421359,119.3632555018412 169.51315789471846,119.08839290574542 169.72368421056308,119.027312294289 169.88157894730102,119.08839290574542 169.9605263157282,119.30217494690442 170.51315789471846,120.12676137904054 170.98684210528154,120.92080541013274 171.1447368421359,121.19566631113412 171.5394736842718,121.98970748562715 171.93421052629128,122.81428645952838 172.30263157887384,123.60832330852281 172.69736842100974,124.40235803570249 173.01315789471846,125.22693031418021 173.38157894741744,126.08203988979221 173.75,127.21200234029675 174.06578947370872,128.0060274376592 174.3552631578641,128.76951110729715 174.5394736842718,129.31921813476947 174.90789473697077,129.56353204272455 175.19736842112616,130.3880899992655 175.27631578955334,130.57132479004213 175.40789473685436,130.69348125436227 175.59210526326206,130.69348125436227 175.80263157887384,130.60186391079333 176.38157894741744,130.47970740875462 177.22368421056308,129.9910808983841 178.11842105269898,129.68568892142503 178.98684210528154,129.56353204272455 179.85526315798052,129.3497573842178 180.11842105258256,129.2886788821197 180.27631578943692,129.50245358454413 181.19736842112616,129.16652184026316 181.3552631578641,128.95274689616053 181.25,128.67789317047573 181.27631578955334,128.37249984391383 182.0394736842718,127.9754880501132 182.82894736842718,127.51739685965003 183.1447368421359,126.99822599004256 183.27631578943692,126.4790542134142 183.25,126.23473776935134 183.11842105258256,125.99042112435563 182.8552631578641,125.80718350887764 182.48684210528154,125.68502503569471 182.3289473685436,125.56286651233677 182.4342105264077,125.4101682875189 182.59210526314564,125.31854931500857 183.48684210528154,125.2574699842371 184.32894736842718,125.13531128512113 185.01315789471846,125.01315253574285 185.22368421056308,124.89099373621866 185.56578947370872,124.5855965175142 186.03947368415538,123.8221020976489 186.22368421056308,123.45562407930265 186.69736842112616,123.08914560891571 186.88157894741744,122.72266668648808 187.01315789483488,121.86754744313657 187.09210526314564,121.3789067704638 187.06578947370872,121.13458613288822 187.22368421044666,120.3405426730751 187.53947368415538,119.4854165740253 187.56578947370872,119.14947350462899 187.75,118.477586226305 187.69736842100974,118.20272281090729 187.56578947370872,117.98893997867708 187.30263157899026,117.89731871773256 186.59210526326206,117.89731871773256 185.67105263157282,118.01948039268609 185.17105263168924,118.11110161594115 184.90789473673794,118.08056121130357 183.98684210528154,118.20272281090729 183.77631578955334,118.23326320300112 182.88157894730102,118.23326320300112 181.98684210528154,118.26380359183531 181.32894736842718,118.38596511611831 180.3552631578641,118.69136870693183 180.17105263157282,118.84407038468635 179.27631578955334,119.027312294289 178.80263157899026,119.08839290574542 178.6447368421359,119.14947350462899 177.80263157899026,119.2105540909397 176.77631578955334,119.33271522590076 175.82894736842718,119.57703734526876 175.6447368421359,119.60757759600529 175.6447368421359,119.60757759600529" stroke="#4dd2ff" stroke-linecap="round" stroke-linejoin="round" stroke-width="0.5"><title>2024-06-26 3.2km</title><desc>9223370317445915207</desc></polyline><polyline fill="none" points="13.467647058772855,170.28880002201186 12.858823529444635,170.28880002201186 12.435294117662124,169.3671559097129 12.620588235324249,168.75272492226213 12.647058823611587,169.24426981335273 12.488235294120386,169.30571286770282 12.382352941203862,169.42859893897548 12.276470588287339,169.85869978999835 12.59411764703691,170.4116856889159 12.59411764703691,170.90322785108583 12.673529411898926,171.24116261859308 12.991176470648497,171.57909700390883 13.070588235277683,171.76342468935763 12.832352941157296,172.0399160044326 12.673529411898926,172.4392918967642 12.461764705833048,172.50073429429904 12.302941176458262,172.71578258648515 12.25,172.99227302026702 12.276470588287339,173.63741637123167 12.620588235324249,173.97534804677707 13.044117646990344,174.62048927534488 13.441176470601931,175.48067541365162 13.547058823518455,175.75716328952694 13.997058823588304,176.21797584730666 14.447058823541738,177.20104026261833 14.552941176574677,177.47752654668875 14.711764705949463,177.72329191787867 15.002941176528111,178.0304983476526 15.18823529407382,178.4605868187209 15.347058823565021,178.6449102597253 15.53235294111073,179.19787990051555 15.717647058772855,179.41292337348568 16.141176470555365,180.36525689356495 16.114705882384442,180.5495791597641 16.30000000016298,180.76462166005513 16.32647058821749,180.94894367991947 16.723529411829077,181.59406985458918 16.776470588170923,182.02415319741704 16.855882352916524,182.20847444050014 17.041176470695063,182.39279556990368 17.09411764703691,182.57711658571498 17.46470588236116,183.34511959459633 17.782352941227145,184.14384063027683 18.100000000093132,184.97327944639255 18.417647058842704,185.864155610936 18.788235294166952,186.75502912004595 19.02647058828734,187.4308624244295 19.0794117647456,187.6766196108365 19.185294117662124,187.891656983149 19.211764705949463,188.10669420074555 19.555882352986373,188.99756102543324 19.794117646990344,189.82698637177236 19.979411764768884,190.44137403328205 20.085294117568992,190.68712874423363 20.48235294118058,190.7792867087701 21.435294117662124,190.34921596458298 22.229411764768884,190.01130280285724 22.997058823588304,189.58123095351039 23.18235294125043,189.45835316868033 23.605882352916524,189.27403639652766 23.791176470578648,189.1511584854161 24.029411764699034,189.12043899970013 24.400000000023283,188.93612201930955 24.47941176465247,188.8132439692563 25.273529411759228,188.50604862291948 26.226470588240772,188.13741379056592 27.047058823518455,187.73805887580966 27.920588235370815,187.3079837554833 28.79411764710676,186.90862773242407 29.66764705872629,186.50927117586252 30.620588235440664,186.1713536726602 31.573529411805794,185.7412762978929 31.78529411763884,185.61839693426737 32.050000000046566,185.55695723349345 32.20882352953777,185.46479765867116 32.420588235370815,185.43407779408153 32.95000000006985,185.219038653624 33.188235294190235,185.18831876368495 34.16764705895912,184.78895990835736 34.591176470625214,184.6660801532562 34.75,184.57392030369374 34.9882352942368,184.6660801532562 35.279411764699034,185.18831876368495 35.65000000002328,185.5876770854229 36.04705882363487,186.47855141857872 36.47058823541738,187.21582472065347 36.70882352942135,187.58446068968624 37.0794117647456,188.53676817173255 37.47647058835719,189.33547533323872 37.82058823527768,190.16489974188153 38.24411764717661,191.17863756004954 38.56176470592618,192.03877604269655 38.90588235296309,192.9910693326383 39.250000000116415,193.88192159918253 39.54117647057865,194.8342090168153 39.673529411898926,195.1413978592318 40.09705882356502,195.29499216203112 40.30882352939807,196.03224371682154 40.41470588243101,196.1858375618176 40.60000000020955,196.24727507773787 41.5,196.062962492113 41.844117647153325,195.75577459690976 42.50588235293981,195.41786754748318 43.32647058821749,195.32571101316717 43.9088235294912,195.20283558982192 44.75588235305622,194.95708459167508 44.94117647060193,194.92636570273316 45.126470588264056,194.92636570273316 45.25882352946792,195.07996011601062 45.497058823588304,195.0185223601875 45.68235294125043,195.0185223601875 46.000000000116415,194.8342090168153 46.21176470594946,194.7727712104679 46.29117647057865,194.61917663936038 46.21176470594946,194.15839245237294 46.21176470594946,193.97407857867074 47.00588235293981,193.6976075549901 47.69411764713004,193.26754100990365 48.11764705891255,192.80675473916926 48.25,192.06949522849754 48.19705882365815,191.82374165407964 48.091176470625214,191.60870711080497 47.95882352953777,191.39367241278524 47.77352941175923,191.3015146376274 47.50882352946792,191.20935683415155 47.37647058838047,191.0557604318601 48.276470588403754,190.8100060239376 49.20294117659796,190.7178480688599 49.970588235300966,190.59497075132094 50.341176470625214,190.5028127298865 50.76470588252414,190.01130280285724 51.214705882477574,189.1511584854161 51.61176470608916,188.8439634865208 51.79705882363487,188.62892679934157 51.98235294118058,188.04525501147145 52.08823529421352,187.0929459632316 52.167647058842704,186.93934744549915 52.247058823588304,186.2942328088684 52.511764705879614,185.31119830414536 52.670588235370815,184.6660801532562 52.75,184.45104046008782 52.72352941182908,183.80592045251979 52.64411764719989,183.59088014057488 52.22058823541738,183.34511959459633 51.34705882356502,183.43727982300334 50.341176470625214,183.5601600833761 49.652941176551394,183.68304029325373 48.80588235310279,183.71376033782144 47.90588235296309,183.74448037927505 47.24411764717661,183.77520041746902 47.058823529514484,183.83664048451465 46.63529411773197,183.83664048451465 45.70882352953777,184.02096060977783 44.80882352939807,184.29744058471988 44.20000000006985,184.51248038827907 43.32647058821749,184.6660801532562 42.479411764768884,184.81967983930372 41.55294117657468,184.94255953130778 40.60000000020955,185.219038653624 39.779411764699034,185.46479765867116 38.79999999993015,185.71055646167952 38.24411764717661,185.894875431346 37.92647058831062,186.1713536726602 37.82058823527768,186.57071068085497 37.92647058831062,186.93934744549915 38.32352941192221,187.70733924489468 38.77352941187564,188.475329070905 39.30294117657468,189.3969142572896 39.80588235298637,189.9805834055005 40.41470588243101,190.34921596458298 41.050000000046566,190.7792867087701 41.89705882349517,191.20935683415155 42.532352941227145,191.33223389912746 42.902941176551394,191.57798787762295 43.85588235303294,191.7623032289266 44.83529411768541,191.57798787762295 45.814705882337876,191.3015146376274 46.71470588236116,191.08647971859318 47.37647058838047,190.9943218488479 47.95882352953777,190.8714446448721 48.170588235370815,190.8714446448721 49.15000000002328,190.74856739040115 49.78529411775526,190.68712874423363 50.36764705891255,190.47209338314133 50.63235294120386,190.19561912020436 51.08235294127371,189.36619479683577 51.71764705888927,188.65964633552358 51.876470588264056,188.50604862291948 52.00882352946792,188.01453541216324 52.00882352946792,187.76877850361052 52.14117647067178,186.75502912004595 52.167647058842704,186.38639212798444 52.45882352942135,185.4033579263196 52.69705882354174,184.4203204913647 52.75,183.99024059681688 52.69705882354174,183.74448037927505 52.511764705879614,183.46799989289138 52.29999999993015,183.3758396738849 51.26764705881942,183.46799989289138 50.26176470599603,183.59088014057488 49.62647058838047,183.74448037927505 49.44117647060193,183.71376033782144 49.229411764768884,183.80592045251979 48.38235294120386,183.77520041746902 47.455882353009656,183.86736051327898 47.27058823534753,183.83664048451465 46.90000000002328,183.83664048451465 46.688235294190235,183.9288005613489 46.47647058824077,183.8980805389292 45.86764705891255,184.02096060977783 45.52352941175923,184.05168061965378 44.782352941227145,184.29744058471988 44.59705882356502,184.29744058471988 44.43823529430665,184.4203204913647 43.564705882337876,184.6046402567299 42.532352941227145,184.78895990835736 41.47352941182908,184.9118396130798 40.652941176551394,185.15759887071908 40.44117647060193,185.15759887071908 40.04411764710676,185.34191818139516 39.435294117662124,185.52623737842077 39.22352941182908,185.49551752011757 38.42941176472232,185.7412762978929 38.08529411768541,185.9255952486419 37.952941176481545,186.07919428727473 37.873529411735944,186.50927117586252 37.90000000002328,186.785748848808 38.27058823534753,187.40014276199508 38.48235294118058,187.8302177496953 38.64117647067178,188.04525501147145 38.72058823541738,188.32173126359703 39.14411764719989,189.08971951087005 39.488235294120386,189.61195039187442 39.488235294120386,189.61195039187442" stroke="#4dd2ff" stroke-linecap="round" stroke-linejoin="round" stroke-width="0.5"><title>2024-06-25 4.9km</title><desc>9223370317535602707</desc></polyline><polyline fill="none" points="58.61310679616872,172.82581462702365 58.79660194169264,172.64327570504975 58.61310679616872,172.82581462702365 57.74805825238582,172.09565826348262 57.72184466023464,171.27423020103015 57.5645631068619,171.18296027558972 57.51213592221029,171.39592339121737 57.407281553489156,171.51761653125868 57.354854368953966,171.79142591365962 57.433495145640336,172.58242937267642 57.5383495145943,172.70412202485022 57.72184466023464,173.13004591345089 57.69563106796704,173.3430076278746 57.74805825238582,173.58639225675142 58.088834951398894,174.19485295302002 58.062621359247714,174.59035173465963 57.95776699029375,174.77288945569308 57.407281553489156,175.0466958261386 57.276213592267595,175.19881036676816 57.25,175.4421934693528 57.66941747581586,176.32445553815342 57.82669902907219,176.81121969158994 58.062621359247714,177.05460146811674 58.40339805826079,177.45009642801597 58.69174757273868,178.08897178515326 59.26844660192728,178.8799584117951 59.47815533983521,179.2146059634979 59.55679611652158,179.45798576346715 59.68786407762673,179.64052048212034 59.74029126227833,179.85347751155496 60.21213592228014,180.73572642964427 60.57912621356081,181.4658614762593 60.998543689376675,182.408949912322 61.339320388273336,183.0478145647503 61.39174757280853,183.38245740381535 61.52281553403009,183.6258337762847 61.7325242718216,183.8387879380898 61.78495145624038,184.08216393535258 61.78495145624038,184.32553973252652 61.91601941746194,184.4472275559965 62.099514563102275,184.84271263686242 62.49271844665054,185.57283755164826 62.859708737931214,186.51591290070792 63.279126213514246,187.42856360317091 63.56747572822496,188.21952526897076 63.882038834970444,189.0713277758041 64.17038834944833,189.86228505146573 64.45873786404263,190.80534673287184 64.77330097078811,191.65714179808856 65.06165048538242,192.69146108150017 65.16650485433638,192.8739876387117 65.32378640782554,192.99567194766132 65.53349514561705,192.99567194766132 66.03155339811929,192.69146108150017 66.92281553393696,192.29598648814135 67.76165048533585,191.80924780166242 68.65291262126993,191.41377202951116 69.41310679609887,191.10955953761004 69.59660194173921,191.07913827124867 70.30436893203296,190.71408283052733 71.22184466023464,190.28818424744532 72.03446601936594,189.92312783128 72.29660194169264,189.77102085822844 72.53252427175175,189.67975663696416 73.2927184465807,189.2842780194478 74.07912621356081,188.91922036511824 74.47233009710908,188.73669136903482 74.7082524272846,188.73669136903482 75.07524271844886,188.4933191992459 75.83543689316139,188.1586821389501 76.77912621363066,187.76320148899686 77.64417475729715,187.45898524476797 78.43058252427727,187.21561202435987 79.1907766989898,186.9113952172629 79.63640776695684,186.85055181835196 79.84611650486477,186.54633463616483 80.23932038829662,186.45506942042266 80.89466019417159,186.39422592779738 81.86456310679205,186.0900082764274 82.80825242726132,185.8770557344833 83.20145631080959,185.78579031248228 83.77815533988178,185.66410303930752 83.9878640776733,185.66410303930752 84.8266990291886,185.39030649187043 85.87524271849543,185.20777531946078 86.7927184465807,185.0252440344484 87.73640776704997,184.9035564485821 88.10339805821422,184.81229072637507 88.44417475734372,184.81229072637507 88.86359223304316,184.6601811267028 89.70242718455847,184.59933726507006 90.30533980578184,184.4776495039987 91.24902912625112,184.416805604822 91.66844660183415,184.416805604822 92.55970873788465,184.29511776875006 93.13640776707325,184.29511776875006 94.1063106796937,184.23427383200033 95.10242718434893,184.17342988270684 96.09854368935339,184.17342988270684 96.70145631069317,184.20385185893974 96.98980582517106,184.14300790341804 97.59271844662726,184.20385185893974 97.75,184.32553973252652 97.67135922331363,184.50807144897408 97.75,184.72102497602464 97.7237864077324,184.87313454423565 97.35679611645173,184.9035564485821 97.30436893203296,185.08608780853683 97.40922330087051,185.26861905600526 97.40922330087051,185.42072834298597 97.22572815534659,185.60325938396272 97.09466019412503,185.54241571610328 96.3344660194125,185.5119938775315 95.5218446602812,185.63368121325038 94.6830097087659,185.75536849891068 93.73932038829662,185.90747753559845 92.71699029125739,185.99874292011373 92.48106796108186,186.02916470874334 92.27135922329035,185.99874292011373 91.32766990293749,186.0900082764274 90.4101941747358,186.27253890477004 90.20048543694429,186.39422592779738 89.25679611659143,186.607178097649 88.26067961170338,186.85055181835196 87.3432038835017,187.03308197762817 86.42572815530002,187.12434701502207 85.48203883494716,187.30687700543785 84.5383495145943,187.6110934059834 83.72572815534659,187.7936230962223 83.33252427191474,187.88488789912662 82.78203883487731,188.1891037055757 82.67718446603976,188.34121149140992 82.65097087377217,188.55416226037778 82.65097087377217,188.76711287623039 83.1228155340068,189.67975663696416 83.20145631080959,189.89270644288626 83.64708737866022,190.683661523537 84.17135922331363,191.50503571610898 84.48592233005911,191.9005113663443 85.14126213593408,192.41767103469465 86.03252427175175,192.8739876387117 86.84514563111588,193.2390404154139 87.65776699024718,193.57367173186503 88.49660194176249,193.81703972441028 89.46650485438295,193.75619774495135 90.27912621363066,193.51282970246393 91.17038834956475,193.33030353920185 92.08786407776643,193.14777726336615 92.9529126213165,193.05651408337872 93.89660194178578,192.93482979937107 94.57815533981193,192.8739876387117 94.81407766987104,192.78272437414853 95.18106796115171,192.5697766475787 95.46941747574601,192.2351441961655 95.8364077671431,191.47461449049297 96.07233009696938,191.10955953761004 96.38689320383128,190.95745317434194 96.54417475732043,190.80534673287184 96.80631067964714,189.92312783128 96.88495145633351,189.04090629992425 96.91116504848469,188.58458378634532 97.19951456319541,187.67193664854858 97.40922330087051,187.03308197762817 97.40922330087051,186.54633463616483 97.4878640776733,186.3638041766826 97.51407766994089,185.90747753559845 97.33058252430055,185.72494668213767 97.12087378639262,185.57283755164826 96.88495145633351,185.54241571610328 95.99368932039943,185.69452486225055 95.57427184469998,185.72494668213767 95.12864077673294,185.81621212293976 94.89271844655741,185.81621212293976 93.97524271847215,185.99874292011373 93.18883495149203,185.99874292011373 92.32378640770912,186.0900082764274 91.40631067962386,186.12043005568557 90.462621359271,186.33338242251193 89.51893203880172,186.57675636850763 88.57524271856528,186.85055181835196 87.65776699024718,187.03308197762817 86.66165048535913,187.18519035773352 85.6393203883199,187.36772031063447 84.85291262133978,187.6415150288376 84.40728155337274,187.67193664854858 83.88300970871933,187.7936230962223 83.01796116505284,188.1282605692104 82.8344660194125,188.1891037055757 82.70339805819094,188.37163303923444 82.67718446603976,188.58458378634532 82.96553398063406,189.37554236268625 83.20145631080959,189.74059945429326 83.28009708737954,190.07523472604225 83.28009708737954,190.07523472604225" stroke="#4dd2ff" stroke-linecap="round" stroke-linejoin="round" stroke-width="0.5"><title>2024-06-18 4.3km</title><desc>9223370318140349607</desc></polyline><polyline fill="none" points="102.25,172.85705965736997 102.50436147942673,173.25066071061883 102.81524773209821,174.10346132694394 102.87177250522655,174.30026114542852 103.2957083042711,175.15305895649362 103.6631193299545,176.07145405033953 103.74790648976341,176.26825265513617 104.03053035587072,176.62904978191364 104.03053035587072,176.85864774114452 104.05879274243489,177.05544586040196 104.22836706205271,177.21944420045475 104.48272854147945,177.87543671761523 104.76535240747035,178.43302929695346 105.24581297975965,179.31861550849862 105.6697487788042,180.2041992623126 105.98063503135927,181.15537907517864 106.34804605715908,181.9753593968344 106.68719469651114,182.89373485563556 106.9132937892573,183.74650970086805 107.1959176552482,184.5992822672124 107.28070481494069,184.89447223994648 107.39375436143018,185.12406425221707 107.64811584085692,185.8784368437773 107.67637822742108,186.10802814806812 107.93073970684782,186.3048205632076 108.24162595940288,186.3376192872529 108.46772505226545,186.2720218358154 108.60903698531911,186.17362563329516 109.2873342637904,185.81283929786878 109.5699581297813,185.74724173851428 110.47435450111516,185.28805844546878 111.29396371240728,184.82887449173722 111.63311235164292,184.69767895509722 112.14183531049639,184.5664833644987 112.39619678992312,184.40248880031868 113.35711793438531,184.00890150247142 113.83757850667462,183.81210767151788 114.14846475922968,183.549715708039 115.13764829037245,183.09052925294964 115.2789602233097,183.0249311341031 115.42027215624694,182.92653393032379 115.95725750178099,182.79533761157654 116.09856943471823,182.8281366963056 116.29640614101663,183.28732352895895 117.00296580593567,183.0249311341031 117.51168876478914,182.79533761157654 117.79431263089646,182.6969403370167 118.04867411032319,182.53294481200282 118.64218422875274,182.30335093548638 118.89654570829589,182.17215436053812 119.20743196085095,182.0737568938348 120.08356594562065,181.71296592321596 121.10101186321117,181.319375308085 121.29884856939316,181.15537907517864 122.06193300767336,180.89298492719536 122.28803210041951,180.92578420753125 122.74023028614465,180.72898847516626 123.78593859029934,180.46659397656913 124.18161200277973,180.26979796111118 124.37944870896172,180.23699861337082 124.63381018838845,180.33539664643467 125.00122121430468,181.15537907517864 125.39689462666865,181.9425602244737 125.93387997208629,182.8609357776295 126.32955338456668,183.77930868780822 126.72522679693066,184.5992822672124 127.12090020929463,185.48485136625823 127.48831123521086,186.37041800789302 127.65788555482868,186.92799574372475 127.79919748788234,187.1247876532434 128.13834612700157,188.07594683818752 128.56228192604613,189.19109537577606 128.81664340547286,190.1094500690524 129.12752965802792,190.995003877586 129.41015352401882,192.01174781267764 129.57972784363665,192.14294034263003 129.80582693649922,192.14294034263003 130.6536985344719,191.94615152760525 130.90806001389865,191.65096807744703 131.8124563852325,191.25738971936516 132.6885903698858,191.12619682546938 133.64951151434798,190.96220563226962 134.2995464061387,190.7654160891252 134.92131891136523,190.89660913136322 135.68440334964544,190.60142471062136 135.7974528960185,190.47023154696217 135.68440334964544,189.8142649201909 135.82571528258268,189.7158698097919 136.10833914869,189.6502730527718 136.33443824143615,189.48628110112622 136.56053733429871,189.4206842968415 137.436671318952,188.7975139838818 137.69103279837873,188.5023276215652 137.83234473131597,188.17434245412005 137.88886950456072,187.81355838073068 137.8040823447518,187.3543780608743 137.5214584787609,187.02639171361807 136.92794836009853,186.76400239317445 136.98447313322686,186.56721026121522 137.94539427780546,186.43601543919067 138.99110258207656,186.3048205632076 139.6128750871867,186.23922310498892 140.00854849966709,186.10802814806812 140.2063852059655,185.97683313730522 140.79989532439504,185.05846655127243 141.1390439637471,184.46808663607226 141.61950453592,184.17289626886486 141.87386601534672,183.549715708039 141.87386601534672,183.05773019522894 141.9869155617198,182.2049535093538 142.12822749488987,181.74576511917985 142.21301465469878,181.6145683148643 142.4673761340091,180.56499193888158 142.72173761343583,179.4498132566805 142.75,178.99062090183725 142.6369504535105,178.76102447664016 142.49563852057327,178.59702692893916 142.29780181439128,178.46582883005613 141.16730635042768,178.46582883005613 140.26290997909382,178.6626259581535 139.47156315424945,178.85942296485882 138.567166783032,178.92502194014378 137.63450802513398,178.99062090183725 137.06926029303577,178.99062090183725 136.70184926723596,178.92502194014378 135.65614096296486,179.05621985014295 134.97784368460998,179.220217161841 134.2995464061387,179.5154121106607 133.31036287499592,179.81060678619542 132.4059665038949,179.97460371025954 131.78419399855193,180.07300182423205 131.3602581996238,180.07300182423205 130.4841242148541,180.23699861337082 129.77756454981863,180.3025973054173 129.35362875077408,180.4993933007645 129.12752965802792,180.5321926214674 128.16660851356573,180.82738635654096 127.17742498253938,181.05698129499797 126.83827634330373,181.22097757845768 126.69696441025008,181.41777300729882 126.61217725044116,181.8113635010668 126.97958827635739,182.6969403370167 127.51657362177502,183.61531371914316 128.08182135375682,184.53368445837987 128.67533147253562,185.2552596135647 129.21231681783684,185.74724173851428 130.06018841592595,186.14082689231145 131.02110956038814,186.63280765200034 131.89724354504142,186.9935930603824 132.71685275644995,187.32157944136998 133.67777390091214,187.38717667708988 134.61043265869375,187.1247876532434 135.57135380315594,186.89519708039006 135.76919050945435,186.89519708039006 136.22138869506307,186.73120371298864 136.50401256105397,186.6656063424016 137.436671318952,186.82959974353435 137.26709699933417,186.6984050293686 137.38014654582366,186.79680107001332 137.5214584787609,186.86239841370843 137.77581995818764,187.1247876532434 137.88886950456072,187.3543780608743 137.88886950456072,187.3543780608743" stroke="#4dd2ff" stroke-linecap="round" stroke-linejoin="round" stroke-width="0.5"><title>2024-06-17 3.4km</title><desc>9223370318224643007</desc></polyline><polyline fill="none" points="148.1453185955761,171.58987624460133 148.27698309498373,171.52875278354622 147.98732119624037,171.3453823250602 147.53966189851053,171.2536970532965 147.48699609877076,171.43706756844767 147.38166449929122,171.62043797038496 147.35533159947954,171.98717843508348 147.434330299031,172.1705484977574 147.38166449929122,172.35391844733385 147.69765929772984,173.20964338295744 147.7766579973977,173.45413576925057 148.06631989590824,173.94311993874726 148.0926527957199,174.1570502599352 148.03998699609656,174.5543490194832 147.9346553965006,174.6765946847445 147.7766579973977,174.70715609323815 147.32899869955145,175.01277000529808 147.27633289981168,175.2266995567188 147.25,175.50175161086372 147.38166449929122,175.86848728740006 147.61866059806198,176.08241622307105 147.7503250974696,176.29634500481188 147.9609882964287,176.4185899537988 148.38231469434686,177.1520585922117 148.61931079311762,177.76328107522568 148.61931079311762,177.946647575096 148.90897269174457,178.46618537724135 149.3566319894744,179.01628323688055 149.77795838739257,179.9331107409962 150.17295188549906,180.63600991282146 150.54161248367745,181.43058958405163 150.8049414823763,181.8584392966295 151.22626788017806,182.7446974569175 151.30526657984592,182.86693975448725 151.331599479774,183.08086365420604 151.48959687899332,183.47815048822667 151.7002600779524,183.78375538389082 151.75292587757576,184.2116017100052 152.04258777631912,184.51720585182193 152.4112483743811,185.2812148318335 152.83257477241568,186.16746278913342 153.20123537047766,187.08426824078197 153.43823146936484,187.66491023130948 153.75422626780346,188.52059109776746 153.8858907672111,188.76507089304505 154.14921976590995,189.55962883931352 154.4125487646088,190.5069836153998 154.72854356304742,191.33209660620196 154.99187256162986,192.24888613272924 155.07087126129773,192.64616071630735 155.33420025999658,192.8600775799132 155.72919375810307,192.82951803741162 156.65084525349084,192.3711245226732 157.36183355003595,192.15720730728935 157.88849154731724,191.91273030114826 158.83647594274953,191.45433537312783 159.65279583865777,190.96538000411238 160.469115734566,190.62922272158903 161.2064369309228,190.23194544305443 162.15442132635508,189.80410778024816 162.70741222356446,189.52906895751948 162.89174252271187,189.37626950169215 163.65539661899675,189.04011042244383 164.4190507151652,188.7039509630995 165.23537061118986,188.36779112374643 165.76202860858757,188.09275097236969 166.02535760717,188.03163090421003 166.7626788035268,187.69547030463582 167.57899869955145,187.3593093250529 168.44798439531587,187.08426824078197 168.8956436930457,186.96202767724753 169.0799739920767,186.8397870634799 169.52763328992296,186.71754639947903 169.76462938881014,186.74810657012858 170.1859557867283,187.2065087540832 170.37028608564287,187.26762899185997 170.63361508445814,187.2065087540832 170.89694408304058,187.23706887458684 171.2656046813354,187.3593093250529 171.4499349804828,187.3593093250529 172.18725617672317,187.72603037490626 172.76657997386064,187.97051082350663 172.92457737307996,188.00107086542994 172.81924577371683,188.42891112275538 172.81924577371683,188.61227104460704 172.97724317281973,189.04011042244383 173.4249024707824,189.77354792354163 173.87256176851224,190.62922272158903 174.293888166314,191.3626563026628 174.8468790636398,192.00440920202527 175.7158647592878,192.5544820133946 176.53218465531245,192.9211966554576 177.34850455122069,193.25735134689603 178.11215864750557,193.56294619102846 178.7704811441945,193.7463029467035 179.77113133936655,193.56294619102846 180.61378413520288,193.28791084542172 181.56176853040233,193.10455380697385 182.48342002590653,192.9211966554576 182.6940832248656,192.8600775799132 183.53673602070194,192.7683989428915 184.64271781523712,192.64616071630735 185.06404421315528,192.61560115177417 185.45903771114536,192.40168411226477 185.9066970089916,191.82105137215694 186.06469440821093,191.42377568615484 186.3016905070981,191.11817864325712 186.8283485044958,190.75146177734132 187.0126788035268,190.38474445912289 187.06534460338298,190.1097061735927 187.06534460338298,189.86522748394054 187.11801040300634,189.6513084656617 187.1706762027461,188.94843060759013 187.32867360208184,188.153871028102 187.5393368009245,187.51210981747136 187.7236671000719,186.59530568512855 187.75,186.10634232516168 187.6973342000274,185.86186034369166 187.5393368009245,185.67849872561055 187.30234070215374,185.52569729086827 186.4596879063174,185.52569729086827 185.48537061107345,185.61737816114328 184.53738621575758,185.80073981688474 183.9843953185482,185.92298085789662 183.16807542263996,185.98410135961603 182.77308192453347,185.98410135961603 182.61508452519774,185.92298085789662 181.61443433025852,185.98410135961603 180.69278283487074,186.19802301644813 179.8764629388461,186.41194451926276 179.03381014300976,186.62586586832185 178.16482444724534,186.87034722155659 177.1641742521897,187.05370810464956 176.55851755524054,187.08426824078197 175.66319895966444,187.3287492171803 174.8205461638281,187.6343501547817 174.6362158646807,187.66491023130948 173.68823146936484,187.8788306787901 173.29323797137477,187.97051082350663 173.10890767222736,188.03163090421003 172.89824447326828,188.36779112374643 172.8719115734566,188.55115108322934 173.29323797137477,189.37626950169215 173.76723016891629,190.14026599560748 174.21488946676254,191.02649946926977 174.8205461638281,191.7904917227861 175.13654096226674,192.09608807455515 176.0845253574662,192.5544820133946 176.637516254792,192.8600775799132 177.50650195044,193.1962323403859 178.4018205460161,193.56294619102846 179.19180754222907,193.62406512215966 180.13979193742853,193.41014880820876 181.14044213260058,193.1351133211865 182.009427828365,192.95175618861686 182.98374512337614,192.7683989428915 183.87906371895224,192.64616071630735 184.85338101431262,192.5544820133946 185.4327048114501,192.3711245226732 185.69603381003253,192.15720730728935 186.19635890761856,191.301536906627 186.8546814044239,190.65978249019827 187.11801040300634,189.68186833482469 187.1970091026742,188.82619081047596 187.43400520144496,187.81771056665457 187.5920026007807,187.38986942975316 187.6973342000274,187.26762899185997 187.6973342000274,186.59530568512855 187.75,185.95354111029883 187.64466840040404,185.73961927753408 187.24967490229756,185.55625758407405 186.3280234070262,185.46457669496886 185.7750325097004,185.52569729086827 184.93237971374765,185.73961927753408 184.16872561757918,185.98410135961603 183.931729518692,185.92298085789662 183.51040312077384,186.0146616056736 182.45708712609485,185.98410135961603 181.95676202850882,185.95354111029883 181.61443433025852,186.04522184861708 181.40377113118302,186.04522184861708 180.534785435535,186.22858324053232 180.08712613780517,186.28970367938746 179.4551365408115,186.56474549864652 178.5598179452354,186.74810657012858 177.82249674899504,186.96202767724753 176.8218465539394,187.14538850376266 175.79486345895566,187.3593093250529 174.7942132637836,187.69547030463582 174.4782184655778,187.69547030463582" stroke="#4dd2ff" stroke-linecap="round" stroke-linejoin="round" stroke-width="0.5"><title>2024-06-16 4.3km</title><desc>9223370318313038607</desc></polyline><polyline fill="none" points="15.698722728295252,229.08720083799562 14.83527378947474,228.92018292334978 15.302975297905505,228.79491944238544 14.25964116351679,228.41912876741844 14.54745747637935,227.5840371339582 14.043778928695247,228.08509232019424 13.899870772147551,227.25 14.043778928695247,227.62579175652354 13.863893732894212,227.50052787640016 13.719985576579347,227.7093009884993 13.6480314983055,228.08509232019424 14.079755967715755,228.669655922713 14.187687085242942,228.92018292334978 14.331595241557807,229.838780603779 14.54745747637935,230.29807866486954 14.54745747637935,230.4650960128347 14.799296750221401,230.6321132920566 14.87125082849525,230.79913050268078 14.83527378947474,231.17491897547734 14.079755967715755,232.13526571524562 13.755962615832686,232.21877402011887 13.576077420031652,232.46929883150733 13.684008537326008,233.1791182915331 14.295618202537298,234.0559523824486 15.051136024296284,234.5987534900196 15.518837532727048,235.47558451644727 15.7706768065691,236.18539872256224 16.34630943275988,236.93696535358322 16.921942058485,238.1895733148267 17.065850215265527,238.48184794996632 17.749413958517835,239.5256842157396 18.325046584475785,240.82003745995462 18.864702171413228,241.94737402143073 19.260449601802975,242.8241891839425 19.44033479760401,242.9912013814028 19.69217407121323,243.868014290696 19.908036306034774,244.0350260588457 19.979990384541452,244.32729648787063 19.979990384541452,244.61956670653308 20.05194446258247,244.8700838694931 20.267806697404012,245.03709522553254 20.879416362615302,246.331430907303 21.419071949319914,247.70926758469432 21.850796418963,248.8365850263508 22.282520888373256,249.92214701333432 22.78619943629019,251.25821932239342 23.217923905700445,252.5525351811957 23.61367133585736,253.6798391819175 23.829533570678905,254.47312530706404 24.2972350793425,255.68392745879828 24.405166196636856,256.2684513438726 24.58505139243789,256.6442162543826 24.764936588006094,256.89472600165755 24.944821783574298,256.97822921629995 25.16068401839584,256.7694711473305 26.311949270311743,256.22669966571266 27.31930636591278,255.72567919286666 28.54252569610253,255.0994027327397 29.513905752450228,254.68188455631025 29.76574502629228,254.514877165464 30.01758430036716,254.47312530706404 31.096895474009216,253.930350757204 31.60057402169332,253.63808723763213 31.8524132957682,253.59633528915583 33.11160966497846,252.92830352907185 34.08298972132616,252.42727898806334 35.2702320124954,252.05151017662138 36.313566147116944,251.55048455420183 37.500808438286185,251.0077060991316 37.71667067310773,250.84069719779654 38.93989000329748,250.2979177943198 39.76736190309748,250.04740397896967 39.983224137919024,249.88039468281204 40.271040451014414,249.8386423480988 40.48690268560313,249.67163296611398 41.746099055046216,249.21235681170947 43.11322654178366,248.79483258433174 44.26449179393239,248.33555543844705 44.98403257643804,249.21235681170947 45.37978000682779,249.5046235154732 46.09932078933343,250.715440476808 46.7469074933324,251.92625382900587 46.890815649880096,252.17676648576162 47.538402354344726,253.47107941785362 47.89817274548113,254.22261406647158 48.07805794104934,254.68188455631025 48.58173648896627,255.8926860857173 48.94150688010268,256.6024646148144 48.94150688010268,256.81122276969836 49.22932319319807,257.22873875763617 49.697024701861665,258.39778124101576 50.12874917127192,259.60857169504743 50.52449660166167,260.81935854029143 50.884266992798075,261.9883906908217 51.172083305893466,263.2409214048239 51.42392257973552,264.2846940497402 51.38794554048218,264.5351990854542 50.560473640682176,264.66045154546737 50.308634366840124,264.4934482569224 49.15736911492422,264.5351990854542 48.58173648896627,264.702202356857 48.22196609759703,264.869205559633 47.10667788470164,265.07795946634724 45.95541263255291,265.0362086936366 44.840124419890344,265.41196549418964 43.976675480837,265.5372176837991 42.86138726794161,265.5372176837991 42.393685759278014,265.7042205432663 41.56621385947801,266.0799767259741 40.48690268560313,266.16347805276746 39.15575223811902,265.99647538218414 38.25632626004517,266.12172739146627 36.81724469503388,266.5392338107049 35.665979442885146,266.9149892211426 34.33482899540104,266.6644856527564 33.831150447484106,266.9149892211426 33.03965558670461,266.6644856527564 32.75183927384205,266.8314880488324 32.24816072592512,266.78973745630356 31.60057402169332,266.9149892211426 31.384711786871776,267.08199151422014 31.420688826125115,267.4159958944365 31.204826591303572,267.5412474661716 30.917010278441012,267.5412474661716 29.621836869744584,267.6664989993151 28.362640500534326,267.75 27.535168600734323,267.75 27.247352287638932,267.6664989993151 26.635742622660473,267.0402409474191 26.563788544153795,266.16347805276746 26.311949270311743,265.3284640130005 26.347926309565082,264.5351990854542 26.09608703572303,263.4496761483024 25.73631664412096,262.28064820278087 25.700339605333284,261.6543818481441 25.340569213964045,260.5270999770437 24.980798822827637,259.19105815296643 24.836890666279942,258.64828990682145 24.944821783574298,258.14727242063964 25.304592174943537,257.7297573767428 26.38390334858559,257.1869871781673 26.67171966144815,257.10348400633666 26.923558935523033,256.9364776111033 27.175398209365085,256.9364776111033 28.038847148418427,256.39370635256637 29.010227204766124,255.97618950647302 29.334020556882024,255.76743092251127 30.485285808797926,255.2664098830719 31.744482178241014,254.5983808694291 32.895747430156916,254.0973583883606 34.08298972132616,253.47107941785362 35.090346816927195,252.9700555462332 36.313566147116944,252.42727898806334 37.536785477306694,251.84274957570597 38.760004807729274,251.34172369577573 39.73138486407697,250.88244942959864 40.522879724623635,250.67368822777644 40.73874195944518,250.50667918924592 40.91862715501338,250.54843145530322 42.21380056370981,250.00565166131128 43.041272463742644,249.67163296611398 44.37242291122675,249.25410921077128 44.840124419890344,249.12885200048913 44.840124419890344,249.12885200048913" stroke="#4dd2ff" stroke-linecap="round" stroke-linejoin="round" stroke-width="0.5"><title>2024-06-15 3.6km</title><desc>9223370318394354007</desc></polyline></svg>