<?xml version="1.0" encoding="utf-8" ?>
<svg baseProfile="full" height="300mm" version="1.1" viewBox="0,0,200,300" width="200mm" xmlns="http://www.w3.org/2000/svg" xmlns:ev="http://www.w3.org/2001/xml-events" xmlns:xlink="http://www.w3.org/1999/xlink"><defs /><rect fill="#222222" height="300" width="200" x="0" y="0" /><text fill="#FFFFFF" style="font-size:12px; font-family:Arial; font-weight:bold;" x="10" y="20">Over 3km Runs</text><text fill="#FFFFFF" style="font-size:4px; font-family:Arial" x="10" y="280">ATHLETE</text><text fill="#FFFFFF" style="font-size:9px; font-family:Arial" x="10" y="290">SunHao</text><text fill="#FFFFFF" style="font-size:4px; font-family:Arial" x="120" y="280">STATISTICS</text><text fill="#FFFFFF" style="font-size:3px; font-family:Arial" x="120" y="285">Number: 5</text><text fill="#FFFFFF" style="font-size:3px; font-family:Arial" x="120" y="290">Weekly: 1.7</text><text fill="#FFFFFF" style="font-size:3px; font-family:Arial" x="141" y="285">Total: 26.6 km</text><text fill="#FFFFFF" style="font-size:3px; font-family:Arial" x="141" y="290">Avg: 5.3 km</text><text fill="#FFFFFF" style="font-size:3px; font-family:Arial" x="167" y="285">Min: 3.6 km</text><text fill="#FFFFFF" style="font-size:3px; font-family:Arial" x="167" y="290">Max: 7.0 km</text><polyline fill="none" points="15.59167750319466,50.60422443487914 15.825747724389657,50.495560504088644 15.310793237760663,50.16956857783953 14.514954486163333,50.006572539161425 14.421326397685334,50.332564566109795 14.234070220962167,50.658556391776074 14.187256176723167,51.31053944013547 14.327698309440166,51.63653066265397 14.234070220962167,51.9625216841232 14.79583875159733,53.48381045856513 14.936280884314328,53.918463589739986 15.451235370477661,54.78776877996279 15.498049414716661,55.168089350976516 15.404421326238662,55.87439825682668 15.217165149282664,56.0917238839902 14.936280884314328,56.146055276854895 14.140442132484168,56.68936889828183 14.046814044006169,57.069688100833446 14.0,57.55866953043733 14.234070220962167,58.210644066450186 14.6553966186475,58.59096217434853 14.889466839842498,58.97128000849625 15.263979193754494,59.18860436230898 16.013003900879994,60.49254860833753 16.43433029903099,61.57916635595029 16.43433029903099,61.905151244602166 16.949284785194322,62.828774003952276 17.745123536791652,63.80672575440258 18.494148244382814,65.43664131732658 19.196358907502145,66.686239845003 19.851755526615307,68.0988259271835 20.31989596877247,68.859447638446 21.06892067589797,70.43501770118019 21.20936280861497,70.65233734127833 21.25617685285397,71.03264649637276 21.537061118287966,71.7389342013048 21.91157347196713,72.28223179356428 22.0052015602123,73.04284748446662 22.520156046608463,73.58614373655291 23.175552665721625,74.94438192324014 23.924577373079956,76.51993384730304 24.579973991960287,78.1498102057958 25.001300390111282,79.1820626333938 25.563068920513615,80.70327306265244 25.797139141708612,81.13790380989667 26.265279583865777,82.55045126989717 26.73342002602294,84.2346375384368 27.295188556658104,85.70150507765356 27.763328998582438,87.33135312481318 27.903771131066605,88.03761905123247 28.37191157322377,88.41791569761699 29.07412223657593,88.3635876220651 30.71261378400959,87.54866581805982 31.976592977996916,87.16836854629219 32.91287386207841,86.73374275758397 34.59817945375107,85.91881844110321 36.049414824228734,85.04956445173593 37.500650194939226,84.45195150503423 38.81144343269989,83.74568078760058 40.49674902460538,82.98508049821248 41.479843952925876,82.49612259113928 41.80754226259887,82.22447911411291 43.165149544831365,81.62686297320761 44.52275682683103,81.02924615656957 45.97399219754152,80.43162866443163 46.91027308185585,79.94266839534976 47.37841352378018,79.83401049632812 48.689206761773676,79.2363916527247 50.14044213248417,78.63877213338856 51.68530559167266,78.1498102057958 52.48114434326999,77.93249364843359 52.808842652710155,77.71517700172262 53.604681404307485,77.4978602657211 54.02600780222565,77.55218945798697 54.77503250958398,78.36712667392567 55.102730819024146,78.47578487440478 55.57087126141414,78.36712667392567 56.039011703338474,78.4214557770174 56.694408322451636,78.63877213338856 57.0221066318918,78.63877213338856 58.332899869885296,79.29072066646768 59.36280884244479,79.72535257512936 59.64369310764596,79.77968153852271 59.45643693115562,80.54028644046048 59.45643693115562,80.86625963484403 59.73732119612396,81.62686297320761 60.53315994795412,82.93075186404167 61.32899869955145,84.45195150503423 62.07802340690978,85.75583342689788 63.061118335230276,86.89672747027362 64.60598179441877,87.87463469046634 66.05721716489643,88.52657183195697 67.50845253537409,89.12418017227901 68.86605981783941,89.66745989513583 70.03641092288308,89.99342746078037 71.81534460326657,89.66745989513583 73.31339401821606,89.17850816959981 74.99869960965589,88.85254010127392 76.63719115732238,88.52657183195697 77.01170351076871,88.41791569761699 78.5097529257182,88.25493145402288 80.47594278259203,88.03761905123247 81.22496749018319,87.98329093650682 81.92717815306969,87.60299397737253 82.72301690489985,86.57075799489394 83.00390117010102,85.86449010868091 83.42522756801918,85.32120647688862 84.36150845233351,84.66926538193366 84.68920676177368,84.01732348283986 84.78283485025167,83.52836653083796 84.78283485025167,83.09373774920823 84.87646293872967,82.71343727229396 84.97009102720767,81.46387663570931 85.25097529240884,80.05132627213607 85.625487646088,78.91041745326947 85.95318595552817,77.2805434401962 86.0,76.4112752447254 85.90637191128917,75.97664061095566 85.625487646088,75.65066440106602 85.20416124840267,75.37901740596863 83.70611183345318,75.37901740596863 81.97399219754152,75.54200561979087 80.28868660586886,75.86798189667752 79.30559167731553,76.08529930294026 77.85435630683787,76.19395797263132 77.15214564348571,76.19395797263132 76.87126137828454,76.08529930294026 75.09232769813389,76.19395797263132 73.45383615070023,76.57426314032637 72.00260078022256,76.95456803421257 70.50455136527307,77.3348726547556 68.95968790631741,77.76950617163675 67.18075422616675,78.09548107488081 66.10403120936826,78.1498102057958 64.51235370594077,78.58444305276498 63.01430429122411,79.12773360853316 62.68660598155111,79.1820626333938 61.00130038987845,79.56236565118888 60.29908972675912,79.72535257512936 59.971391417318955,79.83401049632812 59.59687906363979,80.43162866443163 59.55006501940079,80.75760192569578 60.29908972675912,82.22447911411291 61.14174252259545,83.58269510330865 61.93758127419278,85.15822127868887 63.01430429122411,86.51642972941045 63.57607282185927,87.05971213255543 65.2613784132991,87.87463469046634 66.24447334185243,88.41791569761699 67.78933680080809,89.01552416064078 69.38101430400275,89.66745989513583 70.78543563070707,89.77611577272182 72.4707412221469,89.3958201034693 74.24967490229756,88.90686812653439 75.79453836148605,88.58089989086147 77.52665799716488,88.25493145402288 79.11833550035954,88.03761905123247 80.85045513650402,87.87463469046634 81.88036410929635,87.54866581805982 82.34850455122069,87.16836854629219 83.23797139129601,85.64717672287952 84.40832249680534,84.50627998256823 84.87646293872967,82.76776592858369 85.01690507121384,81.24656144081382 85.43823146936484,79.45370767405257 85.719115734566,78.6931012084824 85.90637191128917,78.47578487440478 85.90637191128917,77.2805434401962 86.0,76.13962864055065 85.812743823044,75.75932316004764 85.11053315969184,75.43334681616398 83.47204161249101,75.27035856881412 82.48894668393768,75.37901740596863 80.99089726898819,75.75932316004764 79.6332899867557,76.19395797263132 79.21196358883753,76.08529930294026 78.4629388814792,76.24828729894944 76.59037711308338,76.19395797263132 75.70091027300805,76.13962864055065 75.09232769813389,76.30261661973782 74.71781534422189,76.30261661973782 73.17295188549906,76.62859242758714 72.37711313390173,76.7372509855195 71.2535760726314,77.22621421981603 69.66189856943674,77.55218945798697 68.35110533144325,77.93249364843359 66.57217165129259,78.25846845115302 64.74642392690293,78.63877213338856 62.96749024675228,79.2363916527247 62.405721716582775,79.2363916527247" stroke="#4dd2ff" stroke-linecap="round" stroke-linejoin="round" stroke-width="0.5"><title>2024-06-16 4.3km</title><desc>9223370318313038607</desc></polyline><polyline fill="none" points="120.1310626284685,37.266134823148604 118.59604229265824,36.96921408601338 119.42751164105721,36.74652345315553 117.57269540196285,36.0784511421225 118.08436884707771,34.59384379372932 117.18894031783566,35.48460856924066 116.93310359516181,34.0 117.18894031783566,34.66807423380669 116.86914441431873,34.44538289139746 116.61330769187771,34.81653509067837 116.4853893306572,35.48460856924066 117.25289949844591,36.52383275149623 117.4447770405095,36.96921408601338 117.70061376318336,38.602276628953405 118.08436884707771,39.41880651534302 118.08436884707771,39.71572624507826 118.53208311181515,40.01264585257741 118.6600014732685,40.309565338131506 118.59604229265824,40.97763373417547 117.25289949844591,42.6849168271292 116.67726687272079,42.83337603579275 116.35747096920386,43.27875347825466 116.54934851126745,44.54065474047093 117.6366545825731,46.09947090217611 118.97979737678543,47.06445064896252 119.8112667251844,48.62326136260526 120.25898098968901,49.88515328458743 121.28232788061723,51.221271739690565 122.3056747710798,53.448130337521434 122.56151149398647,53.96772968885489 123.7767359262798,55.82343860575929 124.80008281720802,58.12451103993226 125.75947052729316,60.12866492703324 126.46302151447162,61.68744743813295 126.78281741798855,61.98435801139567 127.23053168226033,63.54313651681878 127.61428676638752,63.84004632686265 127.74220512807369,64.35963820066536 127.74220512807369,64.87922970048385 127.8701234892942,65.32459354581079 128.2538785734214,65.62150262319483 129.34118464472704,67.92254383518593 130.30057235457934,70.37203126167879 131.0680825226009,72.37615115800872 131.83559269062243,74.30603913485538 132.73102122009732,76.68127879535314 133.49853138788603,78.98228476662189 134.20208237529732,80.98638076789211 134.58583745919168,82.3966672125971 135.4173068080563,84.54920437122928 135.60918434988707,85.58835794468177 135.928980253404,86.25638445228105 136.2487761566881,86.70173511403846 136.5685720599722,86.850185273448 136.95232714386657,86.47905981750228 138.99902092525735,85.51413273904473 140.7898779839743,84.6234296762268 142.9644901265856,83.5100493026548 144.69138800469227,82.76779476681259 145.13910226919688,82.47089273866732 145.58681653416716,82.3966672125971 147.50559195387177,81.43173467949964 148.40102048311383,80.9121550891432 148.8487347480841,80.8379294029437 151.08730607130565,79.65031738503603 152.81420394941233,78.75960708991624 154.92485691141337,78.09157364733983 156.77967315050773,77.20086142967921 158.89032611250877,76.23592195403762 159.27408119663596,75.93901724054012 161.4486933394801,74.97407607879722 162.9197544946801,74.52871818485437 163.30350957880728,74.2318127694889 163.81518302415498,74.15758639661362 164.19893810804933,73.86068082862766 166.43750943127088,73.04418988747057 168.86795829678886,72.30192459438695 170.91465207817964,71.48543189058546 172.19383569154888,73.04418988747057 172.89738667872734,73.56377513863845 174.17657029209659,75.71633862546878 175.3278355440125,77.86889569606865 175.58367226668634,78.31425153027521 176.73493751883507,80.61525229841936 177.37452932540327,81.95131389598828 177.69432522868738,82.76779476681259 178.5897537583951,84.92033081909176 179.22934556473047,86.18215931527084 179.22934556473047,86.55328492395347 179.741019010311,87.29553556913743 180.5724883589428,89.37383331736783 181.3399985267315,91.526349680149 182.04354951437563,93.67885962722357 182.683141320711,95.7571390059311 183.19481476629153,97.98386027524248 183.64252903079614,99.83945608843351 183.57856984995306,100.28479837416671 182.10750869498588,100.50746941420948 181.65979443024844,100.21057467901846 179.61310064885765,100.28479837416671 178.5897537583951,100.58169307885692 177.95016195136122,100.87858766160207 175.96742735081352,101.24970571795711 173.92073356942274,101.17548212205293 171.9379989686422,101.84349421190564 170.40297863283195,102.06616477121133 168.42024403205141,102.06616477121133 167.58877468341962,102.36305874359095 166.11771352798678,103.0310697350651 164.19893810804933,103.17951653827913 161.83244842337444,102.8826229016413 160.2334689067211,103.10529314039741 157.67510168021545,103.8475267746253 155.62840789859183,104.51553639315534 153.26191821414977,104.07019671605667 152.3664896846749,104.51553639315534 150.9593877098523,104.07019671605667 150.44771426473744,104.36708986456506 149.55228573526256,104.29286658897763 148.40102048311383,104.51553639315534 148.01726539921947,104.81242935865885 148.08122458006255,105.40621492348146 147.69746949593537,105.62888438429218 147.18579605058767,105.62888438429218 144.88326554652303,105.85155377659248 142.64469422330149,106.0 141.17363306810148,106.0 140.66195962275378,105.85155377659248 139.57465355144814,104.73820612876443 139.44673518976197,103.17951653827913 138.99902092525735,101.69504713424249 139.0629801058676,100.28479837416671 138.615265841363,98.35497981926892 137.97567403432913,96.27670791605487 137.9117148539517,95.16334550781175 137.27212304715067,93.15928884811001 136.6325312408153,90.78410338307731 136.37669451790862,89.8191820565844 136.5685720599722,88.92848430335289 137.20816386677325,88.18623533647042 139.12693928647786,87.22131053899648 139.63861273182556,87.07286045572255 140.08632699679583,86.77596019755583 140.53404126130044,86.77596019755583 142.06906159734353,85.81103351572528 143.7959594752174,85.06878134486033 144.37159210140817,84.6976549733663 146.41828588256612,83.8069509032648 148.6568572060205,82.61934376787394 150.70355098717846,81.72863713488914 152.81420394941233,80.61525229841936 154.60506100789644,79.724543193297 156.77967315050773,78.75960708991624 158.95428529311903,77.72044369019568 161.12889743619598,76.8297310147318 162.85579531406984,76.01324343041051 164.2628972886596,75.64211240498116 164.64665237255394,75.34520744759357 164.96644827583805,75.41943369834917 167.2689787801355,74.4544918423635 168.74003993556835,73.86068082862766 171.10652962024324,73.11841637472389 171.9379989686422,72.89573688973906 171.9379989686422,72.89573688973906" stroke="#4dd2ff" stroke-linecap="round" stroke-linejoin="round" stroke-width="0.5"><title>2024-06-15 3.6km</title><desc>9223370318394354007</desc></polyline></svg>