<?xml version="1.0" encoding="utf-8" ?>
<svg baseProfile="full" height="300mm" version="1.1" viewBox="0,0,200,300" width="200mm" xmlns="http://www.w3.org/2000/svg" xmlns:ev="http://www.w3.org/2001/xml-events" xmlns:xlink="http://www.w3.org/1999/xlink"><defs /><rect fill="#222222" height="300" width="200" x="0" y="0" /><text fill="#FFFFFF" style="font-size:12px; font-family:Arial; font-weight:bold;" x="10" y="20">Over 3km Runs</text><text fill="#FFFFFF" style="font-size:4px; font-family:Arial" x="10" y="280">ATHLETE</text><text fill="#FFFFFF" style="font-size:9px; font-family:Arial" x="10" y="290">SunHao</text><text fill="#FFFFFF" style="font-size:4px; font-family:Arial" x="120" y="280">STATISTICS</text><text fill="#FFFFFF" style="font-size:3px; font-family:Arial" x="120" y="285">Number: 7</text><text fill="#FFFFFF" style="font-size:3px; font-family:Arial" x="120" y="290">Weekly: 1.8</text><text fill="#FFFFFF" style="font-size:3px; font-family:Arial" x="141" y="285">Total: 34.4 km</text><text fill="#FFFFFF" style="font-size:3px; font-family:Arial" x="141" y="290">Avg: 4.9 km</text><text fill="#FFFFFF" style="font-size:3px; font-family:Arial" x="167" y="285">Min: 3.4 km</text><text fill="#FFFFFF" style="font-size:3px; font-family:Arial" x="167" y="290">Max: 7.0 km</text><polyline fill="none" points="14.817475728224963,47.10108616942307 15.062135922256857,46.85770094007603 14.817475728224963,47.10108616942307 13.664077669847757,46.12754435132956 13.629126213723794,45.03230693473597 13.419417475815862,44.9106137008057 13.34951456298586,45.19456452166196 13.209708737907931,45.356822041707346 13.13980582531076,45.72190121826134 13.24466019414831,46.77657249692129 13.384466019459069,46.938829366496066 13.629126213723794,47.506727884639986 13.594174757367,47.79067683717585 13.664077669847757,48.115189675678266 14.118446601903997,48.926470604055794 14.083495145663619,49.453802312898915 13.943689320469275,49.697185940953204 13.209708737907931,50.06226110152784 13.034951456356794,50.26508048904361 13.0,50.589591292489786 13.559223301010206,51.76594071756699 13.768932038801722,52.41495958881569 14.083495145663619,52.739468624204164 14.53786407771986,53.26679523740313 14.922330097062513,54.11862904689042 15.69126213598065,55.17327788242255 15.970873786369339,55.61947461802629 16.075728155323304,55.943981018004706 16.250485436874442,56.18736064285622 16.32038834958803,56.47130334877875 16.949514563078992,57.6476352395548 17.43883495137561,58.62114863505121 17.998058252502233,59.878599883115385 18.452427184442058,60.730419419676764 18.522330097155645,61.1766098717635 18.697087378706783,61.501111701712944 18.976699029211886,61.785050584119745 19.046601941692643,62.10955191383255 19.046601941692643,62.43405297672143 19.221359223360196,62.59630340800504 19.466019417508505,63.12361684915959 19.990291262161918,64.09711673553102 20.479611650574952,65.35455053427722 21.038834951352328,66.57141813758062 21.423300970927812,67.62603369198041 21.84271844662726,68.7617703677679 22.227184465969913,69.81638006863068 22.61165048542898,71.07379564386792 23.03106796112843,72.20952239749022 23.415533980471082,73.58861477536266 23.555339805898257,73.83198351832107 23.765048543689772,73.99422926356783 24.044660194194876,73.99422926356783 24.708737864159048,73.58861477536266 25.897087378660217,73.0613153175509 27.015533980564214,72.41233040223597 28.203883495065384,71.88502937273006 29.21747572813183,71.47941271681339 29.46213592228014,71.43885102833156 30.405825242633,70.95211044073221 31.62912621360738,70.38424566327012 32.712621359271,69.8975037750497 33.06213592237327,69.69469447765732 33.37669902900234,69.57300884931465 34.390291262068786,69.04570402597892 35.43883495137561,68.55896048684372 35.96310679614544,68.31558849205612 36.277669903007336,68.31558849205612 36.766990291303955,67.99109226567089 37.78058252425399,67.54490951861953 39.03883495146874,67.01760198536795 40.192233009729534,66.6119803263864 41.24077669903636,66.2874826991756 42.25436893198639,65.88186028972268 42.848543689236976,65.80073575783172 43.128155339858495,65.39511284825858 43.65242718439549,65.27342589391628 44.526213592267595,65.19230123708257 45.81941747572273,64.7866777019517 47.07766990293749,64.50274097934016 47.601941747707315,64.38105374999577 48.37087378650904,64.21880405244883 48.650485436897725,64.21880405244883 49.76893203891814,63.85374198917998 51.16699029132724,63.610367092624074 52.3902912621852,63.36699204595061 53.64854368939996,63.204741931462195 54.13786407769658,63.083054301852826 54.59223300975282,63.083054301852826 55.151456310763024,62.880241502280114 56.26990291278344,62.79911635344615 57.07378640782554,62.63686600534129 58.332038835040294,62.55574080644874 58.89126213581767,62.55574080644874 60.07961165055167,62.39349035837222 60.84854368946981,62.39349035837222 62.14174757292494,62.31236510936287 63.46990291250404,62.23123984364793 64.79805825243238,62.23123984364793 65.6019417475909,62.27180247861543 65.98640776693355,62.19067720457679 66.79029126209207,62.27180247861543 67.0,62.43405297672143 66.89514563104603,62.67742859866121 67.0,62.96136663472862 66.9650485436432,63.16417939233361 66.47572815534659,63.204741931462195 66.40582524274942,63.44811707807821 66.54563106782734,63.69149207469309 66.54563106782734,63.894304457324324 66.30097087379545,64.13767917864607 66.12621359224431,64.05655428816681 65.11262135929428,64.01599183675717 64.02912621363066,64.17824161768658 62.910679611726664,64.34049133191002 61.65242718451191,64.54330338083673 60.289320388343185,64.66499056018074 59.97475728148129,64.70555294500082 59.695145630976185,64.66499056018074 58.43689320399426,64.7866777019517 57.21359223301988,65.03005187303643 56.93398058251478,65.19230123708257 55.67572815541644,65.47623746353202 54.34757281560451,65.80073575783172 53.12427184463013,66.04410930353333 51.90097087377217,66.16579602006823 50.64271844655741,66.40916934062261 49.38446601945907,66.81479120801669 48.30097087379545,67.05816412833519 47.77669902914204,67.17985053220764 47.04271844658069,67.58547160745366 46.90291262138635,67.78828198855626 46.867961165029556,68.07221634718007 46.867961165029556,68.35615050166962 47.49708737875335,69.57300884931465 47.601941747707315,69.85694192384835 48.1961165049579,70.91154869805905 48.895145631046034,72.00671428817441 49.3145631068619,72.53401515513542 50.18834951450117,73.22356137962197 51.376699029118754,73.83198351832107 52.46019417478237,74.31872055391432 53.54368932044599,74.76489564249641 54.662135922466405,75.0893862992234 55.95533980592154,75.00826365995454 57.03883495146874,74.68377293663798 58.22718446608633,74.4404047189746 59.45048543694429,74.19703635119367 60.60388349508867,74.07535211119102 61.86213592230342,73.91310639918083 62.770873786415905,73.83198351832107 63.085436893161386,73.71029916557018 63.574757281458005,73.42636886346736 63.95922330103349,72.9801922615734 64.44854368944652,71.96615265400033 64.76310679607559,71.47941271681339 65.18252427177504,71.27660423249472 65.39223300968297,71.07379564386792 65.74174757278524,69.8975037750497 65.84660194173921,68.7212083999475 65.88155339797959,68.11277838182286 66.26601941755507,66.89591553140781 66.54563106782734,66.04410930353333 66.54563106782734,65.39511284825858 66.65048543689772,65.15173890226288 66.68543689325452,64.54330338083673 66.4407766989898,64.299928909546 66.16116504848469,64.09711673553102 65.84660194173921,64.05655428816681 64.65825242723804,64.25936648302013 64.09902912622783,64.299928909546 63.50485436897725,64.42161616394878 63.19029126211535,64.42161616394878 61.96699029125739,64.66499056018074 60.91844660195056,64.66499056018074 59.76504854368977,64.7866777019517 58.54174757283181,64.82724007425713 57.28349514561705,65.11117656339775 56.025242718402296,65.43567515801988 54.766990291303955,65.80073575783172 53.54368932044599,66.04410930353333 52.21553398051765,66.24692047701683 50.85242718446534,66.49029374754173 49.803883495158516,66.85535337182228 49.20970873790793,66.89591553140781 48.51067961170338,67.05816412833519 47.35728155344259,67.50434742565267 47.112621359177865,67.58547160745366 46.93786407762673,67.82884405233199 46.90291262138635,68.11277838182286 47.28737864084542,69.1673898169247 47.601941747707315,69.65413260576315 47.706796116544865,70.10031296807574 47.706796116544865,70.10031296807574" stroke="#4dd2ff" stroke-linecap="round" stroke-linejoin="round" stroke-width="0.5"><title>2024-06-18 4.3km</title><desc>9223370318140349607</desc></polyline><polyline fill="none" points="133.0,47.14274620983633 133.33914863923565,47.66754761416814 133.75366364279762,48.804615102591924 133.82903000689112,49.06701486057136 134.39427773910575,50.204078608658165 134.8841591065284,51.4286054004624 134.99720865301788,51.691003540181555 135.37404047464952,52.17206637587515 135.37404047464952,52.4781969882024 135.41172365657985,52.74059448056505 135.637822749326,52.95925893392996 135.97697138856165,53.83391562348697 136.35380320996046,54.57737239592825 136.9944173062686,55.7581540113315 137.55966503848322,56.93893234973075 137.97418004181236,58.20717210022849 138.46406140970066,59.30047919580829 138.91625959519297,60.52497980752378 139.21772505226545,61.66201293448103 139.59455687366426,62.79904302296927 139.70760641992092,63.192629653261974 139.85833914857358,63.49875233627972 140.19748778780922,64.50458245835034 140.2351709699724,64.81070419744356 140.5743196089752,65.07309408427682 140.98883461253718,65.11682571633719 141.29030006960966,65.02936244776356 141.47871598042548,64.89816751106991 142.38311235164292,64.41711906384444 142.75994417304173,64.32965565135237 143.96580600133166,63.717411260615336 145.05861828336492,63.10516598899267 145.51081646885723,62.93023860681569 146.18911374732852,62.755311152664945 146.52826238656417,62.53665173376794 147.80949057918042,62.01186866997159 148.45010467548855,61.74947689534747 148.86461967905052,61.39962094408111 150.18353105382994,60.78737233727588 150.37194696441293,60.699908178823534 150.56036287499592,60.56871190710808 151.27634333563037,60.39378348211176 151.4647592464462,60.43751559508382 151.7285415213555,61.049764705298 152.6706210745033,60.699908178823534 153.34891835297458,60.39378348211176 153.7257501743734,60.26258711601258 154.06489881384186,60.043926415994065 154.856245638337,59.73780124733457 155.19539427757263,59.56287248071749 155.6099092811346,59.4316758584464 156.7780879274942,58.950621230964316 158.13468248443678,58.42583374411333 158.39846475911327,58.20717210022849 159.4159106768202,57.85731323627988 159.71737613389269,57.90104561008047 160.32030704827048,57.63865130022168 161.71458478691056,57.28879196877824 162.24214933696203,57.02639728150098 162.50593161187135,56.982664817827754 162.84508025133982,57.11386219525593 163.3349616189953,58.20717210022849 163.86252616881393,59.256746965955244 164.57850662944838,60.48124770351569 165.10607117926702,61.705744917097036 165.63363572931848,62.79904302296927 166.16120027913712,63.97980182169704 166.6510816467926,65.16055734385736 166.87718073977157,65.90399432499544 167.0655966505874,66.16638353766757 167.5177948360797,67.43459578423062 168.0830425680615,68.92146050106385 168.42219120729715,70.1459334254032 168.8367062106263,71.32667183681042 169.2135380320251,72.68233041692292 169.43963712500408,72.85725379019277 169.74110258207656,72.85725379019277 170.87159804604016,72.59486870348337 171.2107466852758,72.20129076993908 172.41660851356573,71.67651962582022 173.58478715992533,71.5015957673022 174.86601535230875,71.28294084302615 175.73272854159586,71.02055478550028 176.56175854848698,71.19547884183703 177.57920446619391,70.80189961416181 177.72993719484657,70.62697539594956 177.57920446619391,69.75235322691151 177.7676203767769,69.62115974639892 178.1444521981757,69.53369740370545 178.4459176552482,69.3150414681877 178.74738311232068,69.22757906248444 179.91556175844744,68.3966853118327 180.25471039791591,68.00310349540086 180.4431263084989,67.56578993881703 180.51849267282523,67.08474450765061 180.40544312633574,66.47250408117543 180.02861130493693,66.03518895150046 179.23726448020898,65.6853365242423 179.31263084430248,65.42294701494393 180.59385903715156,65.24802058562636 181.98813677602448,65.07309408427682 182.8171667829156,64.985630806681 183.34473133296706,64.81070419744356 183.60851360787638,64.63577751643606 184.39986043260433,63.41128873502021 184.85205861832947,62.624115514801815 185.4926727146376,62.230528358515585 185.83182135387324,61.39962094408111 185.83182135387324,60.743640260305256 185.98255408229306,59.6066046791384 186.17096999310888,58.9943534922495 186.28401953959838,58.819424419809366 186.6231681786012,57.4199892518518 186.96231681783684,55.93308434225037 187.0,55.32082786911633 186.84926727134734,55.01469930220628 186.66085136076435,54.79603590525221 186.39706908585504,54.6211051067512 184.88974180049263,54.6211051067512 183.6838799722027,54.883501277538016 182.6287508723326,55.14589728647843 181.42288904404268,55.233362586877774 180.1793440335896,55.32082786911633 179.42568039079197,55.32082786911633 178.93579902290367,55.233362586877774 177.54152128403075,55.40829313354334 176.6371249128133,55.62695621579769 175.73272854159586,56.02054948089062 174.41381716681644,56.4141423816036 173.20795533852652,56.632804947003024 172.37892533140257,56.76400243229 171.81367759942077,56.76400243229 170.64549895306118,56.982664817827754 169.7034193999134,57.070129740575794 169.13817166769877,57.33252440101933 168.8367062106263,57.376256828632904 167.55547801801004,57.76984847540734 166.23656664346345,58.07597505999729 165.7843684577383,58.294636771286605 165.5959525469225,58.55703067642753 165.48290300066583,59.08181800143211 165.97278436855413,60.26258711601258 166.68876482895575,61.487084958847845 167.44242847175337,62.71157927784952 168.23377529671416,63.67367948475294 168.94975575711578,64.32965565135237 170.08025122107938,64.85443585642497 171.36147941369563,65.51041020266712 172.52965806005523,65.99145741388202 173.62247034185566,66.4287725884933 174.9036985344719,66.51623556946288 176.147243544925,66.16638353766757 177.42847173754126,65.86026277387282 177.6922540126834,65.86026277387282 178.29518492659554,65.64160495065153 178.67201674799435,65.55414178990759 179.91556175844744,65.7727996580652 179.68946266570129,65.59787337249145 179.84019539435394,65.72906809335109 180.02861130493693,65.81653121829731 180.36775994417258,66.16638353766757 180.51849267282523,66.47250408117543 180.51849267282523,66.47250408117543" stroke="#4dd2ff" stroke-linecap="round" stroke-linejoin="round" stroke-width="0.5"><title>2024-06-17 3.4km</title><desc>9223370318224643007</desc></polyline><polyline fill="none" points="14.193758127395995,105.4531683261448 14.369310793234035,105.37167037805193 13.983094928436913,105.1271764334233 13.386215864680707,105.00492940441472 13.315994798322208,105.249423424626 13.175552665721625,105.49391729384661 13.140442132600583,105.98290458013071 13.245773732080124,106.22739799699048 13.175552665721625,106.4718912631215 13.59687906363979,107.61285784395295 13.702210663119331,107.9388476923341 14.088426527916454,108.59082658501575 14.123537061037496,108.87606701324694 14.053315994795412,109.40579869263456 13.912873861961998,109.56879291302175 13.702210663119331,109.60954145767028 13.105331599479541,110.01702667374047 13.035110533121042,110.30226607565419 13.0,110.669002147828 13.175552665721625,111.15798304986674 13.491547464043833,111.4432216307614 13.667100129881874,111.72846000641584 13.94798439531587,111.89145327176084 14.509752925718203,112.86941145628225 14.825747724156827,113.68437476697727 14.825747724156827,113.92886343348073 15.21196358895395,114.62158050297876 15.80884265259374,115.35504431583104 16.370611183228903,116.57748098802404 16.897269180743024,117.51467988378135 17.388816644903272,118.57411944540218 17.739921976462938,119.14458572887816 18.301690506981686,120.32626327589969 18.407022106461227,120.4892530060024 18.442132639698684,120.77448487229412 18.652795838657767,121.3042006509786 18.933680103975348,121.71167384518776 19.003901170217432,122.28213561337907 19.390117035014555,122.68960780245834 19.88166449929122,123.70828644247376 20.443433029809967,124.88995038552093 20.93498049408663,126.11235765437596 21.250975292525254,126.886546975089 21.672301690327004,128.027454797033 21.84785435628146,128.3534278574225 22.198959687841125,129.41283845243743 22.55006501940079,130.6759781538567 22.97139141743537,131.77612880826928 23.32249674887862,132.998514843639 23.42782834835816,133.5282142884389 23.778933680034243,133.8134367732273 24.30559167743195,133.77269071657793 25.534460337948985,133.16149936357397 26.48244473338127,132.87627640971914 27.184655396500602,132.55030706821708 28.448634590255097,131.9391138308565 29.53706111817155,131.2871733388165 30.625487646088004,130.83896362880478 31.608582574524917,130.30926059072954 32.87256176851224,129.7388103736739 33.6098829646362,129.372091943369 33.855656696949154,129.16835933559923 34.873862158623524,128.7201472299348 35.89206762018148,128.27193461745628 36.98049414821435,127.82372149833827 37.682704811450094,127.45700129651232 38.033810142893344,127.37550787226064 39.01690507133026,126.92729373954353 40.105331599363126,126.47907910007052 41.26397919363808,126.11235765437596 41.860858257394284,125.94937023636885 42.10663198947441,125.78638275130652 42.70351105323061,125.62339519930538 43.01950585166924,125.66414209350478 43.5812743823044,126.27534500544425 43.82704811426811,126.35683865583269 44.17815344594419,126.27534500544425 44.529258777503856,126.31609183279215 45.02080624178052,126.47907910007052 45.266579973860644,126.47907910007052 46.249674902297556,126.96804049986531 47.02210663177539,127.29401443136157 47.23276983073447,127.33476115390658 47.0923276982503,127.90521483035991 47.0923276982503,128.14969472616212 47.30299089709297,128.7201472299348 47.89986996096559,129.6980638980749 48.496749024721794,130.83896362880478 49.058517555124126,131.81687507021707 49.795838751480915,132.67254560271977 50.95448634575587,133.40597601784975 52.04291287367232,133.89492887398228 53.131339401588775,134.3431351292238 54.149544863263145,134.75059492138098 55.02730819222052,134.99507059561438 56.361508452449925,134.75059492138098 57.485045513603836,134.38388112722896 58.749024707241915,134.13940507598454 59.97789336787537,133.89492887398228 60.25877763319295,133.8134367732273 61.38231469434686,133.6911985905317 62.85695708694402,133.5282142884389 63.418725617579184,133.48746820239467 63.945383614860475,133.2022454830294 64.54226267861668,132.42806849619956 64.75292587757576,131.8983675815398 65.0689206761308,131.49090485769557 65.77113133925013,131.0019490364648 66.01690507144667,130.51299261217355 66.08712613780517,130.14627489814302 66.08712613780517,129.82030331194983 66.15734720404726,129.53507795420592 66.22756827040575,128.59790747679654 66.43823146936484,127.5384947041166 66.719115734566,126.6828130899521 66.96488946664613,125.4604075801617 67.0,124.8084564335586 66.92977893340867,124.48248045824585 66.719115734566,124.23799830081407 66.4031209362438,124.03426305452012 65.27958387508988,124.03426305452012 63.98049414821435,124.1565042148577 62.71651495434344,124.40098642252269 61.97919375798665,124.56397447720519 60.890767230070196,124.64546847948804 60.36410923267249,124.64546847948804 60.15344603371341,124.56397447720519 58.819245773600414,124.64546847948804 57.59037711308338,124.93069735527388 56.501950585166924,125.21592602570308 55.37841352401301,125.5011544910958 54.21976592973806,125.82712962877122 52.885565669625066,126.07161080618971 52.07802340690978,126.11235765437596 50.884265279513784,126.43833228960284 49.76072821835987,126.84580020641442 49.51495448627975,126.886546975089 48.25097529240884,127.17177423840621 47.72431729512755,127.29401443136157 47.478543563047424,127.37550787226064 47.19765929761343,127.82372149833827 47.162548764492385,128.0682014443155 47.72431729512755,129.16835933559923 48.356306892004795,130.18702132749604 48.953185955644585,131.36866595904576 49.76072821835987,132.38732229705784 50.18205461639445,132.79478409941657 51.44603381003253,133.40597601784975 52.183355006505735,133.8134367732273 53.34200260066427,134.26164312052424 54.53576072806027,134.75059492138098 55.589076722972095,134.83208682958502 56.853055916610174,134.54686507763108 58.18725617683958,134.18015109494445 59.345903771114536,133.9356749181461 60.64499349787366,133.6911985905317 61.83875162526965,133.5282142884389 63.13784135237802,133.40597601784975 63.910273081972264,133.16149936357397 64.26137841341551,132.87627640971914 64.9284785434138,131.73538254218874 65.80624187248759,130.87970998694072 66.15734720404726,129.57582444645232 66.2626788035268,128.43492108065402 66.57867360196542,127.09028075553942 66.7893368009245,126.51982590637635 66.92977893340867,126.35683865583269 66.92977893340867,125.4604075801617 67.0,124.60472148042754 66.85955786716659,124.31949237006484 66.33289986976888,124.07501011210843 65.10403120936826,123.95276892665424 64.36671001289506,124.03426305452012 63.243172951741144,124.31949237006484 62.22496749018319,124.64546847948804 61.90897269162815,124.56397447720519 61.3472041611094,124.68621547421208 59.942782834754325,124.64546847948804 59.275682704756036,124.60472148042754 58.819245773600414,124.72696246483247 58.53836150828283,124.72696246483247 57.379713914124295,124.97144432071946 56.78283485036809,125.05293823918328 55.940182054415345,125.41966066489113 54.74642392701935,125.66414209350478 53.76332899858244,125.94937023636885 52.42912873858586,126.19385133837932 51.05981794523541,126.47907910007052 49.725617685122415,126.92729373954353 49.30429128743708,126.92729373954353" stroke="#4dd2ff" stroke-linecap="round" stroke-linejoin="round" stroke-width="0.5"><title>2024-06-16 4.3km</title><desc>9223370318313038607</desc></polyline><polyline fill="none" points="137.59829697106034,95.4496011172887 136.44703171937726,95.22691056446638 137.07063373061828,95.05989258986665 135.67952155135572,94.55883835651912 136.06327663525008,93.44538284529699 135.39170523826033,94.11345642688684 135.19982769619673,93.0 135.39170523826033,93.50105567532592 135.15185831068084,93.33403716853354 134.95998076861724,93.61240131797967 134.86404199781828,94.11345642688684 135.43967462377623,94.89287456357852 135.58358278032392,95.22691056446638 135.7754603221547,96.45170747168595 136.06327663525008,97.0641048864345 136.06327663525008,97.28679468377959 136.39906233362854,97.5094843893894 136.49500110466033,97.73217400355497 136.44703171937726,98.23322530061705 135.43967462377623,99.5136876203469 135.00795015436597,99.62503202678636 134.76810322678648,99.95906510867644 134.91201138333417,100.90549105533864 135.7274909366388,102.07460317661753 136.73484803247266,102.79833798669279 137.35845004371367,103.96744602191029 137.69423574209213,104.91386496339692 138.4617459103465,105.91595380473882 139.22925607813522,107.58609775308287 139.42113362019882,107.97579726658296 140.33255194453523,109.36757895426126 141.1000621127896,111.09338327992009 141.81960289529525,112.59649869520217 142.3472661357373,113.76558557857061 142.5871130633168,113.98826850851765 142.92289876169525,115.15735238755587 143.2107150745578,115.38003474514699 143.30665384582244,115.76972865045536 143.30665384582244,116.15942227531923 143.40259261685424,116.49344515928533 143.69040892994963,116.71612696739612 144.50588848325424,118.441907876404 145.22542926575989,120.27902344620088 145.80106189195067,121.78211336844834 146.3766945176758,123.22952935111243 147.04826591489837,125.01095909648575 147.62389854085632,126.73671357490821 148.15156178129837,128.23978557588998 148.43937809439376,129.29750040941872 149.0629801058676,130.9119032783783 149.2068882624153,131.69126845843857 149.4467351899948,132.19228833913803 149.68658211734146,132.5263013355434 149.92642904468812,132.6376389550278 150.2142453577835,132.3592948631267 151.7492656938266,131.63559955422534 153.0924084878061,130.96757225715555 154.72336759488098,130.13253697694745 156.01854100334458,129.57584607508034 156.35432670172304,129.35316955397138 156.69011240056716,129.29750040941872 158.12919396534562,128.57380100956652 158.80076536233537,128.18411631684285 159.13655106094666,128.12844705220778 160.8154795533046,127.23773803876247 162.1106529617682,126.56970531743718 163.6936426833272,126.06868023547577 165.0847548628226,125.4006460722303 166.66774458438158,124.67694146547001 166.95556089724414,124.45426293037599 168.58652000455186,123.73055705905426 169.68981587095186,123.39653863856802 169.97763218381442,123.17385957704391 170.3613872679416,123.11818979744567 170.64920358080417,122.8955106214853 172.32813207339495,122.28314241557382 174.15096872253343,121.72644344577566 175.68598905857652,121.11407391790999 176.64537676842883,122.28314241557382 177.17304000887088,122.67283135390608 178.13242771895602,124.28725396905793 178.99587665800937,125.90167177200783 179.18775419984013,126.23568864766276 180.0512031391263,127.96143922378542 180.53089699381962,128.9634854219621 180.77074392139912,129.57584607508034 181.4423153186217,131.19024811428972 181.92200917331502,132.13661948643858 181.92200917331502,132.41496369295055 182.3057642574422,132.97165167680942 182.9293662691489,134.5303749879822 183.504998894874,136.14476226008264 184.0326621355489,137.75914472038858 184.51235599047504,139.3178542543901 184.89611107460223,140.98789520643186 185.2318967729807,142.37959206628148 185.1839273874648,142.71359878056683 184.0806315210648,142.88060206058435 183.7448458224535,142.6579310092493 182.2098254864104,142.71359878056683 181.4423153186217,142.93626980908448 180.9626214634627,143.1589407461579 179.47557051293552,143.43727928842418 177.94055017689243,143.38161159149604 176.45349922636524,143.88262065890012 175.30223397444934,144.0496235783794 173.81518302392215,144.0496235783794 173.1915810124483,144.27229405764956 172.08828514581546,144.77330230129883 170.64920358080417,144.88463740365114 168.87433631741442,144.66196717618732 167.67510167998262,144.82896985526895 165.75632625981234,145.38564508093987 164.22130592376925,145.8866522948374 162.44643866061233,145.55264753702795 161.77486726338975,145.8866522948374 160.71954078227282,145.55264753702795 160.33578569837846,145.7753173984238 159.6642143013887,145.71964994171867 158.80076536233537,145.8866522948374 158.51294904923998,146.10932201897958 158.56091843475588,146.554661192582 158.27310212189332,146.72166328819003 157.88934703776613,146.72166328819003 156.16244915989228,146.8886653324007 154.4835206673015,147.0 153.3802248009015,147.0 152.99646971700713,146.8886653324007 152.1809901634697,146.05365459655877 152.08505139220506,144.88463740365114 151.7492656938266,143.7712853506673 151.7972350793425,142.71359878056683 151.4614493807312,141.2662348644226 150.98175552557223,139.70753093704116 150.93378614028916,138.87250913085882 150.45409228513017,137.36946663603885 149.97439843043685,135.58807753724977 149.78252088814043,134.8643865424092 149.92642904468812,134.19636322750011 150.4061228998471,133.6396765023237 151.8452044648584,132.9159829042037 152.22895954875275,132.8046453417628 152.56474524736404,132.58197014813777 152.9005309457425,132.58197014813777 154.05179619789124,131.85827513673576 155.34696960635483,131.30158600857249 155.77869407599792,131.02324122999562 157.31371441180818,130.3552131774486 158.99264290439896,129.46450782584725 160.52766324020922,128.79647785110865 162.1106529617682,127.96143922378542 163.4537957557477,127.2934073949582 165.0847548628226,126.56970531743718 166.71571396966465,125.79033276758855 168.34667307697237,125.1222982610343 169.64184648543596,124.50993257277878 170.69717296632007,124.23158430372132 170.98498927941546,124.00890558562241 171.22483620676212,124.06457527371822 172.95173408510163,123.34086888172897 174.05502995150164,122.8955106214853 175.82989721512422,122.33881228102837 176.45349922636524,122.17180266731884 176.45349922636524,122.17180266731884" stroke="#4dd2ff" stroke-linecap="round" stroke-linejoin="round" stroke-width="0.5"><title>2024-06-15 3.6km</title><desc>9223370318394354007</desc></polyline></svg>