<?xml version="1.0" encoding="utf-8" ?>
<svg baseProfile="full" height="300mm" version="1.1" viewBox="0,0,200,300" width="200mm" xmlns="http://www.w3.org/2000/svg" xmlns:ev="http://www.w3.org/2001/xml-events" xmlns:xlink="http://www.w3.org/1999/xlink"><defs /><rect fill="#222222" height="300" width="200" x="0" y="0" /><text fill="#FFFFFF" style="font-size:12px; font-family:Arial; font-weight:bold;" x="10" y="20">Over 3km Runs</text><text fill="#FFFFFF" style="font-size:4px; font-family:Arial" x="10" y="280">ATHLETE</text><text fill="#FFFFFF" style="font-size:9px; font-family:Arial" x="10" y="290">SunHao</text><text fill="#FFFFFF" style="font-size:4px; font-family:Arial" x="120" y="280">STATISTICS</text><text fill="#FFFFFF" style="font-size:3px; font-family:Arial" x="120" y="285">Number: 6</text><text fill="#FFFFFF" style="font-size:3px; font-family:Arial" x="120" y="290">Weekly: 1.5</text><text fill="#FFFFFF" style="font-size:3px; font-family:Arial" x="141" y="285">Total: 30.1 km</text><text fill="#FFFFFF" style="font-size:3px; font-family:Arial" x="141" y="290">Avg: 5.0 km</text><text fill="#FFFFFF" style="font-size:3px; font-family:Arial" x="167" y="285">Min: 3.4 km</text><text fill="#FFFFFF" style="font-size:3px; font-family:Arial" x="167" y="290">Max: 7.0 km</text><polyline fill="none" points="14.0,52.85699494642904 14.452198185492307,53.55673015216598 15.004884856985882,55.072820136731025 15.105373342521489,55.42268648074241 15.859036985319108,56.938771478191484 16.51221214211546,58.571473867224995 16.662944870768115,58.9213380535366 17.16538729937747,59.56275516777532 17.16538729937747,59.97092931752559 17.21563154202886,60.32079264067579 17.51709699910134,60.61234524520114 17.96929518482648,61.778554164629895 18.471737613203004,62.76982986117946 19.32588974153623,64.3442053484032 20.07955338433385,65.91857646626886 20.632240055594593,67.60956280026585 21.285415212623775,69.06730559433345 21.88834612700157,70.69997307664016 22.290300069609657,72.2160172459553 22.792742498219013,73.73205736390082 22.943475226406008,74.25683953764383 23.144452197942883,74.66500311502023 23.59665038366802,76.00610994442832 23.64689462655224,76.41427226318046 24.099092812044546,76.76412544568302 24.65177948330529,76.82243428839138 25.05373342614621,76.70581659697928 25.304954640567303,76.53089001472108 26.51081646885723,75.88949208508711 27.013258897233754,75.77287420176435 28.62107466859743,74.9565483474289 30.078157710842788,74.14022131863749 30.68108862498775,73.90698480902938 31.585484996438026,73.67374820349505 32.037683182163164,73.38220231165178 33.745987438829616,72.68249155994272 34.60013956716284,72.33263586042449 35.152826238423586,71.8661612587166 36.91137473820709,71.04982978303451 37.16259595239535,70.93321090505924 37.41381716658361,70.75828254275257 38.368457780918106,70.52504464273807 38.61967899510637,70.58335412672022 38.97138869483024,71.39968627365306 40.227494766004384,70.93321090505924 41.13189113722183,70.52504464273807 41.634333565831184,70.35011615464464 42.08653175155632,70.05856855463935 43.14166085119359,69.65040166309336 43.59385903691873,69.41716330760391 44.146545708179474,69.24223447788972 45.7041172364261,68.60082830791362 47.51290997909382,67.90111165877897 47.86461967881769,67.60956280026585 49.22121423576027,67.14308431500103 49.62316817860119,67.20139414671576 50.4270760640502,66.85153506690403 52.286113049369305,66.38505595829338 52.989532449282706,66.03519637527643 53.341242149239406,65.97688642371213 53.793440334964544,66.15181626030244 54.446615491993725,67.60956280026585 55.150034891674295,69.00899595458759 56.10467550600879,70.64166360464878 56.80809490568936,72.27432655607117 57.51151430560276,73.73205736390082 58.21493370528333,75.30640242889058 58.86810886231251,76.88074312510435 59.16957431961782,77.87199243326904 59.420795533806086,78.22184471681248 60.02372644795105,79.91279437893536 60.77739009051584,81.89528066804633 61.229588276240975,83.52791123383213 61.78227494750172,85.10222911566962 62.284717375878245,86.90977388917236 62.58618283318356,87.14300505357096 62.988136776024476,87.14300505357096 64.49546406115405,86.79315827123355 64.94766224687919,86.2683876932133 66.55547801824287,85.56869283440756 68.11304954625666,85.3354610230308 69.82135380315594,85.04392112401547 70.97697138856165,84.6940730473143 72.08234473108314,84.92730512237176 73.43893928825855,84.40253281884361 73.6399162595626,84.16930052789394 73.43893928825855,83.0031376358238 73.69016050244682,82.82821299514035 74.19260293082334,82.71159653819632 74.59455687343143,82.42005529085873 74.99651081650518,82.30343874992104 76.5540823447518,81.19558041571872 77.00628053024411,80.67080466053449 77.25750174443237,80.08771991840331 77.35799023020081,79.44632601016201 77.20725750178099,78.63000544148963 76.70481507317163,78.0469186019618 75.64968597353436,77.58044869895093 75.75017445906997,77.23059601988643 77.45847871596925,76.99736078077694 79.31751570128836,76.76412544568302 80.42288904380985,76.64750774216373 81.12630844372325,76.41427226318046 81.47801814391278,76.18103668850381 82.53314724331722,74.54838498000754 83.13607815769501,73.49882068636362 83.99023028602824,72.97403781133471 84.44242847175337,71.8661612587166 84.44242847175337,70.99152034701547 84.64340544305742,69.47547290544026 84.89462665747851,68.6591379896272 85.04535938589834,68.42589922639308 85.49755757139064,66.55998566909693 85.94975575711578,64.57744578958955 86.0,63.761103825469036 85.79902302846313,63.3529324028641 85.54780181427486,63.06138120696414 85.19609211431816,62.82814014231553 83.18632240057923,62.82814014231553 81.57850662944838,63.17800170334522 80.17166782985441,63.5278630485991 78.56385205849074,63.64448344911216 76.90579204447567,63.761103825469036 75.90090718772262,63.761103825469036 75.24773203069344,63.64448344911216 73.3886950451415,63.87772417801898 72.18283321685158,64.16927495435812 70.97697138856165,64.69406597450143 69.21842288877815,65.21885650872719 67.61060711788014,65.51040659594582 66.50523377512582,65.68533657636726 65.75157013256103,65.68533657636726 64.19399860408157,65.97688642371213 62.937892532907426,66.09350632072892 62.18422889010981,66.44336586800637 61.78227494750172,66.50167577143293 60.07397069083527,67.02646463381825 58.315422191051766,67.43463341332972 57.7124912769068,67.72618236165727 57.46127006248571,68.07604090182576 57.310537334065884,68.77575733518461 57.9637124913279,70.35011615464464 58.91835310519673,71.98277994507225 59.92323796218261,73.61543903709389 60.97836706205271,74.89823931298451 61.933007676154375,75.77287420176435 63.44033496151678,76.47258114186116 65.14863921818323,77.34721360349795 66.70621074666269,77.98860988509841 68.16329378914088,78.57169678463833 69.87159804580733,78.68831409257837 71.5296580598224,78.22184471681248 73.23796231672168,77.81368369847769 73.58967201667838,77.81368369847769 74.39357990212739,77.52213993418263 74.89602233073674,77.40552238648525 76.5540823447518,77.69706621067598 76.2526168874465,77.46383116324432 76.45359385898337,77.63875745778205 76.70481507317163,77.75537495769095 77.15701325889677,78.22184471681248 77.35799023020081,78.63000544148963 77.35799023020081,78.63000544148963" stroke="#4dd2ff" stroke-linecap="round" stroke-linejoin="round" stroke-width="0.5"><title>2024-06-17 3.4km</title><desc>9223370318224643007</desc></polyline><polyline fill="none" points="115.59167750319466,50.60422443487914 115.82574772438966,50.495560504088644 115.31079323776066,50.16956857783953 114.51495448616333,50.006572539161425 114.42132639768533,50.332564566109795 114.23407022096217,50.658556391776074 114.18725617672317,51.31053944013547 114.32769830944017,51.63653066265397 114.23407022096217,51.9625216841232 114.79583875159733,53.48381045856513 114.93628088431433,53.918463589739986 115.45123537047766,54.78776877996279 115.49804941471666,55.168089350976516 115.40442132623866,55.87439825682668 115.21716514928266,56.0917238839902 114.93628088431433,56.146055276854895 114.14044213248417,56.68936889828183 114.04681404400617,57.069688100833446 114.0,57.55866953043733 114.23407022096217,58.210644066450186 114.6553966186475,58.59096217434853 114.8894668398425,58.97128000849625 115.2639791937545,59.18860436230898 116.01300390088,60.49254860833753 116.43433029903099,61.57916635595029 116.43433029903099,61.905151244602166 116.94928478519432,62.828774003952276 117.74512353679165,63.80672575440258 118.49414824438281,65.43664131732658 119.19635890750214,66.686239845003 119.8517555266153,68.0988259271835 120.31989596877247,68.859447638446 121.06892067589797,70.43501770118019 121.20936280861497,70.65233734127833 121.25617685285397,71.03264649637276 121.53706111828797,71.7389342013048 121.91157347196713,72.28223179356428 122.0052015602123,73.04284748446662 122.52015604660846,73.58614373655291 123.17555266572163,74.94438192324014 123.92457737307996,76.51993384730304 124.57997399196029,78.1498102057958 125.00130039011128,79.1820626333938 125.56306892051362,80.70327306265244 125.79713914170861,81.13790380989667 126.26527958386578,82.55045126989717 126.73342002602294,84.2346375384368 127.2951885566581,85.70150507765356 127.76332899858244,87.33135312481318 127.9037711310666,88.03761905123247 128.37191157322377,88.41791569761699 129.07412223657593,88.3635876220651 130.7126137840096,87.54866581805982 131.97659297799692,87.16836854629219 132.9128738620784,86.73374275758397 134.59817945375107,85.91881844110321 136.04941482422873,85.04956445173593 137.50065019493923,84.45195150503423 138.8114434326999,83.74568078760058 140.49674902460538,82.98508049821248 141.47984395292588,82.49612259113928 141.80754226259887,82.22447911411291 143.16514954483137,81.62686297320761 144.52275682683103,81.02924615656957 145.97399219754152,80.43162866443163 146.91027308185585,79.94266839534976 147.37841352378018,79.83401049632812 148.68920676177368,79.2363916527247 150.14044213248417,78.63877213338856 151.68530559167266,78.1498102057958 152.48114434327,77.93249364843359 152.80884265271015,77.71517700172262 153.60468140430748,77.4978602657211 154.02600780222565,77.55218945798697 154.77503250958398,78.36712667392567 155.10273081902415,78.47578487440478 155.57087126141414,78.36712667392567 156.03901170333847,78.4214557770174 156.69440832245164,78.63877213338856 157.0221066318918,78.63877213338856 158.3328998698853,79.29072066646768 159.3628088424448,79.72535257512936 159.64369310764596,79.77968153852271 159.45643693115562,80.54028644046048 159.45643693115562,80.86625963484403 159.73732119612396,81.62686297320761 160.53315994795412,82.93075186404167 161.32899869955145,84.45195150503423 162.07802340690978,85.75583342689788 163.06111833523028,86.89672747027362 164.60598179441877,87.87463469046634 166.05721716489643,88.52657183195697 167.5084525353741,89.12418017227901 168.8660598178394,89.66745989513583 170.03641092288308,89.99342746078037 171.81534460326657,89.66745989513583 173.31339401821606,89.17850816959981 174.9986996096559,88.85254010127392 176.63719115732238,88.52657183195697 177.0117035107687,88.41791569761699 178.5097529257182,88.25493145402288 180.47594278259203,88.03761905123247 181.2249674901832,87.98329093650682 181.9271781530697,87.60299397737253 182.72301690489985,86.57075799489394 183.00390117010102,85.86449010868091 183.42522756801918,85.32120647688862 184.3615084523335,84.66926538193366 184.68920676177368,84.01732348283986 184.78283485025167,83.52836653083796 184.78283485025167,83.09373774920823 184.87646293872967,82.71343727229396 184.97009102720767,81.46387663570931 185.25097529240884,80.05132627213607 185.625487646088,78.91041745326947 185.95318595552817,77.2805434401962 186.0,76.4112752447254 185.90637191128917,75.97664061095566 185.625487646088,75.65066440106602 185.20416124840267,75.37901740596863 183.70611183345318,75.37901740596863 181.97399219754152,75.54200561979087 180.28868660586886,75.86798189667752 179.30559167731553,76.08529930294026 177.85435630683787,76.19395797263132 177.1521456434857,76.19395797263132 176.87126137828454,76.08529930294026 175.0923276981339,76.19395797263132 173.45383615070023,76.57426314032637 172.00260078022256,76.95456803421257 170.50455136527307,77.3348726547556 168.9596879063174,77.76950617163675 167.18075422616675,78.09548107488081 166.10403120936826,78.1498102057958 164.51235370594077,78.58444305276498 163.0143042912241,79.12773360853316 162.6866059815511,79.1820626333938 161.00130038987845,79.56236565118888 160.29908972675912,79.72535257512936 159.97139141731896,79.83401049632812 159.5968790636398,80.43162866443163 159.5500650194008,80.75760192569578 160.29908972675912,82.22447911411291 161.14174252259545,83.58269510330865 161.93758127419278,85.15822127868887 163.0143042912241,86.51642972941045 163.57607282185927,87.05971213255543 165.2613784132991,87.87463469046634 166.24447334185243,88.41791569761699 167.7893368008081,89.01552416064078 169.38101430400275,89.66745989513583 170.78543563070707,89.77611577272182 172.4707412221469,89.3958201034693 174.24967490229756,88.90686812653439 175.79453836148605,88.58089989086147 177.52665799716488,88.25493145402288 179.11833550035954,88.03761905123247 180.85045513650402,87.87463469046634 181.88036410929635,87.54866581805982 182.34850455122069,87.16836854629219 183.237971391296,85.64717672287952 184.40832249680534,84.50627998256823 184.87646293872967,82.76776592858369 185.01690507121384,81.24656144081382 185.43823146936484,79.45370767405257 185.719115734566,78.6931012084824 185.90637191128917,78.47578487440478 185.90637191128917,77.2805434401962 186.0,76.13962864055065 185.812743823044,75.75932316004764 185.11053315969184,75.43334681616398 183.472041612491,75.27035856881412 182.48894668393768,75.37901740596863 180.9908972689882,75.75932316004764 179.6332899867557,76.19395797263132 179.21196358883753,76.08529930294026 178.4629388814792,76.24828729894944 176.59037711308338,76.19395797263132 175.70091027300805,76.13962864055065 175.0923276981339,76.30261661973782 174.7178153442219,76.30261661973782 173.17295188549906,76.62859242758714 172.37711313390173,76.7372509855195 171.2535760726314,77.22621421981603 169.66189856943674,77.55218945798697 168.35110533144325,77.93249364843359 166.5721716512926,78.25846845115302 164.74642392690293,78.63877213338856 162.96749024675228,79.2363916527247 162.40572171658278,79.2363916527247" stroke="#4dd2ff" stroke-linecap="round" stroke-linejoin="round" stroke-width="0.5"><title>2024-06-16 4.3km</title><desc>9223370318313038607</desc></polyline><polyline fill="none" points="20.1310626284685,117.2661348231486 18.59604229265824,116.96921408601338 19.427511641057208,116.74652345315553 17.572695401962847,116.0784511421225 18.084368847077712,114.59384379372932 17.18894031783566,115.48460856924066 16.93310359516181,114.0 17.18894031783566,114.66807423380669 16.869144414318725,114.44538289139746 16.613307691877708,114.81653509067837 16.4853893306572,115.48460856924066 17.252899498445913,116.52383275149623 17.444777040509507,116.96921408601338 17.700613763183355,118.6022766289534 18.084368847077712,119.41880651534302 18.084368847077712,119.71572624507826 18.532083111815155,120.0126458525774 18.660001473268494,120.3095653381315 18.59604229265824,120.97763373417547 17.252899498445913,122.6849168271292 16.677266872720793,122.83337603579275 16.35747096920386,123.27875347825466 16.549348511267453,124.54065474047093 17.6366545825731,126.09947090217611 18.979797376785427,127.06445064896252 19.811266725184396,128.62326136260526 20.258980989689007,129.88515328458743 21.28232788061723,131.22127173969056 22.305674771079794,133.44813033752143 22.561511493986472,133.9677296888549 23.776735926279798,135.8234386057593 24.800082817208022,138.12451103993226 25.75947052729316,140.12866492703324 26.46302151447162,141.68744743813295 26.782817417988554,141.98435801139567 27.230531682260334,143.54313651681878 27.614286766387522,143.84004632686265 27.742205128073692,144.35963820066536 27.742205128073692,144.87922970048385 27.8701234892942,145.32459354581079 28.25387857342139,145.62150262319483 29.341184644727036,147.92254383518593 30.300572354579344,150.37203126167879 31.06808252260089,152.37615115800872 31.835592690622434,154.30603913485538 32.73102122009732,156.68127879535314 33.49853138788603,158.9822847666219 34.20208237529732,160.98638076789211 34.58583745919168,162.3966672125971 35.41730680805631,164.54920437122928 35.60918434988707,165.58835794468177 35.928980253404006,166.25638445228105 36.24877615668811,166.70173511403846 36.56857205997221,166.850185273448 36.95232714386657,166.47905981750228 38.999020925257355,165.51413273904473 40.78987798397429,164.6234296762268 42.96449012658559,163.5100493026548 44.69138800469227,162.76779476681259 45.13910226919688,162.47089273866732 45.586816534167156,162.3966672125971 47.50559195387177,161.43173467949964 48.401020483113825,160.9121550891432 48.8487347480841,160.8379294029437 51.08730607130565,159.65031738503603 52.81420394941233,158.75960708991624 54.92485691141337,158.09157364733983 56.77967315050773,157.2008614296792 58.890326112508774,156.23592195403762 59.27408119663596,155.93901724054012 61.44869333948009,154.97407607879722 62.91975449468009,154.52871818485437 63.30350957880728,154.2318127694889 63.815183024154976,154.15758639661362 64.19893810804933,153.86068082862766 66.43750943127088,153.04418988747057 68.86795829678886,152.30192459438695 70.91465207817964,151.48543189058546 72.19383569154888,153.04418988747057 72.89738667872734,153.56377513863845 74.17657029209659,155.71633862546878 75.32783554401249,157.86889569606865 75.58367226668634,158.31425153027521 76.73493751883507,160.61525229841936 77.37452932540327,161.95131389598828 77.69432522868738,162.76779476681259 78.58975375839509,164.92033081909176 79.22934556473047,166.18215931527084 79.22934556473047,166.55328492395347 79.74101901031099,167.29553556913743 80.57248835894279,169.37383331736783 81.3399985267315,171.526349680149 82.04354951437563,173.67885962722357 82.683141320711,175.7571390059311 83.19481476629153,177.98386027524248 83.64252903079614,179.8394560884335 83.57856984995306,180.2847983741667 82.10750869498588,180.50746941420948 81.65979443024844,180.21057467901846 79.61310064885765,180.2847983741667 78.58975375839509,180.58169307885692 77.95016195136122,180.87858766160207 75.96742735081352,181.2497057179571 73.92073356942274,181.17548212205293 71.9379989686422,181.84349421190564 70.40297863283195,182.06616477121133 68.42024403205141,182.06616477121133 67.58877468341962,182.36305874359095 66.11771352798678,183.0310697350651 64.19893810804933,183.17951653827913 61.832448423374444,182.8826229016413 60.2334689067211,183.1052931403974 57.67510168021545,183.8475267746253 55.62840789859183,184.51553639315534 53.26191821414977,184.07019671605667 52.36648968467489,184.51553639315534 50.95938770985231,184.07019671605667 50.44771426473744,184.36708986456506 49.55228573526256,184.29286658897763 48.401020483113825,184.51553639315534 48.01726539921947,184.81242935865885 48.08122458006255,185.40621492348146 47.697469495935366,185.62888438429218 47.18579605058767,185.62888438429218 44.883265546523035,185.85155377659248 42.644694223301485,186.0 41.17363306810148,186.0 40.661959622753784,185.85155377659248 39.57465355144814,184.73820612876443 39.44673518976197,183.17951653827913 38.999020925257355,181.6950471342425 39.06298010586761,180.2847983741667 38.615265841363,178.35497981926892 37.97567403432913,176.27670791605487 37.91171485395171,175.16334550781175 37.27212304715067,173.15928884811 36.6325312408153,170.7841033830773 36.37669451790862,169.8191820565844 36.56857205997221,168.9284843033529 37.20816386677325,168.18623533647042 39.126939286477864,167.22131053899648 39.63861273182556,167.07286045572255 40.08632699679583,166.77596019755583 40.534041261300445,166.77596019755583 42.069061597343534,165.81103351572528 43.79595947521739,165.06878134486033 44.37159210140817,164.6976549733663 46.418285882566124,163.8069509032648 48.656857206020504,162.61934376787394 50.70355098717846,161.72863713488914 52.81420394941233,160.61525229841936 54.60506100789644,159.724543193297 56.77967315050773,158.75960708991624 58.95428529311903,157.72044369019568 61.128897436195984,156.8297310147318 62.85579531406984,156.0132434304105 64.26289728865959,155.64211240498116 64.64665237255394,155.34520744759357 64.96644827583805,155.41943369834917 67.26897878013551,154.4544918423635 68.74003993556835,153.86068082862766 71.10652962024324,153.1184163747239 71.9379989686422,152.89573688973906 71.9379989686422,152.89573688973906" stroke="#4dd2ff" stroke-linecap="round" stroke-linejoin="round" stroke-width="0.5"><title>2024-06-15 3.6km</title><desc>9223370318394354007</desc></polyline></svg>