<?xml version="1.0" encoding="utf-8" ?>
<svg baseProfile="full" height="300mm" version="1.1" viewBox="0,0,200,300" width="200mm" xmlns="http://www.w3.org/2000/svg" xmlns:ev="http://www.w3.org/2001/xml-events" xmlns:xlink="http://www.w3.org/1999/xlink"><defs /><rect fill="#222222" height="300" width="200" x="0" y="0" /><text fill="#FFFFFF" style="font-size:12px; font-family:Arial; font-weight:bold;" x="10" y="20">Over 3km Runs</text><text fill="#FFFFFF" style="font-size:4px; font-family:Arial" x="10" y="280">ATHLETE</text><text fill="#FFFFFF" style="font-size:9px; font-family:Arial" x="10" y="290">SunHao</text><text fill="#FFFFFF" style="font-size:4px; font-family:Arial" x="120" y="280">STATISTICS</text><text fill="#FFFFFF" style="font-size:3px; font-family:Arial" x="120" y="285">Number: 4</text><text fill="#FFFFFF" style="font-size:3px; font-family:Arial" x="120" y="290">Weekly: 1.3</text><text fill="#FFFFFF" style="font-size:3px; font-family:Arial" x="141" y="285">Total: 22.3 km</text><text fill="#FFFFFF" style="font-size:3px; font-family:Arial" x="141" y="290">Avg: 5.6 km</text><text fill="#FFFFFF" style="font-size:3px; font-family:Arial" x="167" y="285">Min: 3.6 km</text><text fill="#FFFFFF" style="font-size:3px; font-family:Arial" x="167" y="290">Max: 7.0 km</text><polyline fill="none" points="21.397445456590503,38.17440167599125 19.67054757894948,37.84036584669957 20.60595059581101,37.58983888477087 18.51928232703358,36.838257534836885 19.0949149527587,35.16807426791638 18.087557857390493,36.17018464038847 17.799741544295102,34.5 18.087557857390493,35.25158351304708 17.727787465788424,35.00105575280031 17.439971153158695,35.418601976998616 17.296062996611,36.17018464038847 18.15951193543151,37.33931184542598 18.375374170485884,37.84036584669957 18.663190483115613,39.67756120755803 19.0949149527587,40.59615732973907 19.0949149527587,40.930192025669385 19.598593500442803,41.2642265841132 19.7425016569905,41.598261005361564 19.67054757894948,42.34983795095468 18.15951193543151,44.270531430491246 17.511925231665373,44.43754804023774 17.152154840063304,44.93859766301466 17.368017074652016,46.35823658306617 18.591236405074596,48.11190476489719 20.102272048592567,49.19750698003918 21.037675065454096,50.95116903289454 21.5413536131382,52.37079744512448 22.692618865519762,53.87393070716644 23.843884116970003,56.379146629653405 24.131700430531055,56.963695899932645 25.49882791703567,59.051368431479204 26.65009316895157,61.64007491990924 27.729404342826456,63.894748042861465 28.52089920360595,65.64837836788502 28.88066959520802,65.98240276280558 29.38434814242646,67.73602858139202 29.816072612069547,68.07005211769138 29.959980769082904,68.65459297574125 29.959980769082904,69.23913341306616 30.103888925164938,69.7401677389862 30.535613394808024,70.07419045106508 31.758832725230604,72.662861814606 32.83814389863983,75.41853516938863 33.701592837926,77.67317005270161 34.56504177674651,79.84429402666865 35.57239887258038,82.51643864478683 36.43584781140089,85.10507036239142 37.22734267171472,87.35967836383497 37.65906714135781,88.94625061412808 38.594470158685,91.36785491759656 38.81033239327371,92.53690268774517 39.17010278487578,93.28843250876525 39.52987317601219,93.78945200331509 39.889643567148596,93.9564584325999 40.32136803679168,93.53894229466096 42.623898540623486,92.45339933142532 44.63861273182556,91.45135838573333 47.08505139220506,90.19880546547938 49.027811504900455,89.3637691126205 49.53149005258456,89.02975433092797 50.03516860073432,88.94625061412808 52.19379094801843,87.86070151440799 53.20114804338664,87.27617447526427 53.7048265915364,87.19267057831166 56.22321932995692,85.85660705814371 58.165979442652315,84.85455797612667 60.5404640249908,84.10302035324275 62.62713229423389,83.10096910840366 65.00161687657237,82.01541219826322 65.43334134621546,81.68139439559309 67.87978000659496,80.5958355886396 69.53472380619496,80.09480795793934 69.96644827583805,79.76078936562408 70.54208090202883,79.6772846961976 70.97380537120625,79.34326593222795 73.49219811009243,78.42471362341894 76.22645308356732,77.58966516866349 78.52898358786479,76.67111087689409 79.96806515287608,78.42471362341894 80.75956001365557,79.00924703094643 82.19864157866687,81.430880953616 83.4938149866648,83.85250765801175 83.78163129976019,84.35353297152324 85.07680470868945,86.94215883570723 85.79634549096227,88.44522813294316 86.15611588209867,89.3637691126205 87.16347297793254,91.78537217143457 87.88301376020536,93.20492922962876 87.88301376020536,93.62244553939672 88.45864638639614,94.45747751527233 89.39404940372333,96.79556248203153 90.25749834254384,99.21714339009486 91.04899320332333,101.63871708058286 91.76853398559615,103.97678138164338 92.34416661178693,106.48184280964779 92.84784515947104,108.56938809948042 92.77589108096436,109.07039817090845 91.12094728136435,109.32090309093473 90.61726873368025,108.98689651384484 88.31473822984844,109.07039817090845 87.16347297793254,109.40440471371403 86.44393219519407,109.73841111926595 84.21335576940328,110.15591893269448 81.91082526510581,110.07241738727316 79.68024883978069,110.82393098837929 77.953350961674,111.0744353675982 75.72277453588322,111.0744353675982 74.78737151855603,111.40844108653255 73.13242771895602,112.15995345194824 70.97380537120625,112.32695610553492 68.31150447623804,111.99295076436829 66.51265252009034,112.24345478293253 63.634489390067756,113.0784676214098 61.33195888577029,113.82997844228521 58.66965799080208,113.32897130551282 57.66230089496821,113.82997844228521 56.079311173409224,113.32897130551282 55.5036785476841,113.6629760976648 54.496321451850235,113.57947491260711 53.20114804338664,113.82997844228521 52.76942357374355,114.16398302844027 52.84137765225023,114.83199178887298 52.409653182607144,115.08249493234325 51.834020556882024,115.08249493234325 49.24367373948917,115.33299799863016 46.72528100106865,115.5 45.07033720146865,115.5 44.494704575277865,115.33299799863016 43.271485245320946,114.08048189483816 43.12757708830759,112.32695610553492 42.623898540623486,110.65692802600097 42.695852619130164,109.07039817090845 42.19217407144606,106.89935229660477 41.47263328824192,104.56129640556173 41.40067921066657,103.30876369628822 40.68113842792809,101.05419995408738 39.961597645655274,98.38211630593287 39.673781332559884,97.2965798136429 39.889643567148596,96.29454484127928 40.60918434988707,95.45951475348556 42.76780669717118,94.37397435633466 43.3434393228963,94.20696801267331 43.847117871046066,93.87295522220666 44.35079641873017,93.87295522220666 46.07769429683685,92.78741270513274 48.02045440953225,91.95237901294604 48.66804111376405,91.53486184502253 50.97057161759585,90.5328197661438 53.48896435648203,89.19676173885819 55.79149486031383,88.19471677672118 58.165979442652315,86.94215883570723 60.18069363385439,85.9401110924664 62.62713229423389,84.85455797612667 65.07357095461339,83.68549915141193 67.52000961545855,82.68344739155145 69.46276972815394,81.76489885919727 71.04575944924727,81.34737645555288 71.47748391889036,81.01335837849183 71.83725431002676,81.09686291060643 74.42760112741962,80.01130332262255 76.08254492748529,79.34326593222795 78.7448458224535,78.50821842154255 79.68024883978069,78.25770400097826 79.68024883978069,78.25770400097826" stroke="#4dd2ff" stroke-linecap="round" stroke-linejoin="round" stroke-width="0.5"><title>2024-06-15 3.6km</title><desc>9223370318394354007</desc></polyline></svg>