<?xml version="1.0" encoding="utf-8" ?>
<svg baseProfile="full" height="300mm" version="1.1" viewBox="0,0,200,300" width="200mm" xmlns="http://www.w3.org/2000/svg" xmlns:ev="http://www.w3.org/2001/xml-events" xmlns:xlink="http://www.w3.org/1999/xlink"><defs /><rect fill="#222222" height="300" width="200" x="0" y="0" /><text fill="#FFFFFF" style="font-size:12px; font-family:Arial; font-weight:bold;" x="10" y="20">Over 3km Runs</text><text fill="#FFFFFF" style="font-size:4px; font-family:Arial" x="10" y="280">ATHLETE</text><text fill="#FFFFFF" style="font-size:9px; font-family:Arial" x="10" y="290">SunHao</text><text fill="#FFFFFF" style="font-size:4px; font-family:Arial" x="120" y="280">STATISTICS</text><text fill="#FFFFFF" style="font-size:3px; font-family:Arial" x="120" y="285">Number: 8</text><text fill="#FFFFFF" style="font-size:3px; font-family:Arial" x="120" y="290">Weekly: 1.6</text><text fill="#FFFFFF" style="font-size:3px; font-family:Arial" x="141" y="285">Total: 39.3 km</text><text fill="#FFFFFF" style="font-size:3px; font-family:Arial" x="141" y="290">Avg: 4.9 km</text><text fill="#FFFFFF" style="font-size:3px; font-family:Arial" x="167" y="285">Min: 3.4 km</text><text fill="#FFFFFF" style="font-size:3px; font-family:Arial" x="167" y="290">Max: 7.0 km</text><polyline fill="none" points="14.62352941185236,43.71840002932004 13.81176470592618,43.71840002932004 13.24705882370472,42.489541212969925 13.494117647176608,41.67029989633011 13.52941176481545,42.32569308448001 13.317647058865987,42.4076171569468 13.176470588310622,42.57146525196731 13.035294117755257,43.14493305332144 13.458823529421352,43.882247585221194 13.458823529421352,44.53763713478111 13.564705882570706,44.988216824800475 13.988235294236802,45.438796005240874 14.09411764703691,45.684566252457444 13.776470588287339,46.053221339243464 13.564705882570706,46.58572252903832 13.28235294111073,46.66764572574175 13.070588235394098,46.9543767819996 13.0,47.32303069368936 13.035294117755257,48.18322182830889 13.494117647176608,48.63379739571246 14.058823529514484,49.49398570047924 14.588235294213519,50.6409005515452 14.729411764768884,51.00955105270259 15.3294117647456,51.62396779641858 15.929411764838733,52.93472035016748 16.070588235510513,53.303368728928035 16.28235294134356,53.63105589049519 16.67058823548723,54.040664463536814 16.917647058842704,54.61411575830425 17.129411764792167,54.85988034631009 17.376470588264056,55.59717320068739 17.62352941185236,55.88389783131424 18.188235294190235,57.153675858076895 18.152941176551394,57.399438879685476 18.400000000256114,57.68616221341654 18.435294117662124,57.93192490658839 18.964705882477574,58.792093139432836 19.03529411763884,59.365537596546346 19.14117647067178,59.61129925400019 19.388235294260085,59.857060759852175 19.458823529537767,60.10282211427693 19.95294117659796,61.126826126128435 20.37647058838047,62.19178750703577 20.80000000016298,63.297705928533105 21.223529411829077,64.48554081458133 21.71764705888927,65.67337216006126 22.035294117755257,66.57448323260178 22.105882353149354,66.90215948113473 22.247058823588304,67.188875977532 22.28235294134356,67.47559226764133 22.741176470764913,68.66341470056796 23.058823529514484,69.76931516235345 23.30588235310279,70.58849871103303 23.447058823541738,70.91617165895877 23.976470588357188,71.03904894503648 25.24705882370472,70.46562128610094 26.30588235310279,70.01507040380966 27.329411764862016,69.44164127134718 27.57647058845032,69.27780422492651 28.14117647067178,69.03204852872295 28.38823529414367,68.86821131390752 28.705882353009656,68.82725199960987 29.20000000006985,68.58149602575577 29.305882352986373,68.41765862566535 30.364705882500857,68.0080648305593 31.635294117731974,67.51655172073515 32.729411764768884,66.98407850106014 33.89411764719989,66.41064500730135 35.058823529514484,65.87817030990846 36.22352941182908,65.34569490115973 37.494117647293024,64.89513823023299 38.764705882407725,64.32170173051418 39.047058823518455,64.15786257904256 39.4000000001397,64.07594297800097 39.61176470608916,63.95306354487548 39.89411764719989,63.91210372545174 40.60000000020955,63.62538487149868 40.917647059075534,63.5844250182563 42.22352941194549,63.05194654449588 42.78823529416695,62.88810687101795 43.000000000116415,62.76522707159165 43.3176470589824,62.88810687101795 43.70588235312607,63.5844250182563 44.20000000006985,64.11690278057358 44.7294117648853,65.30473522478133 45.294117647223175,66.28776629420463 45.611764705972746,66.77928091958165 46.10588235303294,68.04902422896703 46.63529411784839,69.11396711098496 47.094117647153325,70.219866322499 47.658823529607616,71.57151674674242 48.08235294127371,72.71836805692874 48.54117647069506,73.98809244349832 49.00000000023283,75.17589546559611 49.388235294260085,76.44561202242039 49.564705882570706,76.8551971456618 50.12941176479217,77.05998954936513 50.4117647059029,78.04299162243842 50.55294117669109,78.24778341577621 50.8000000002794,78.3297001036699 52.000000000116415,78.0839499894937 52.45882352953777,77.67436612921301 53.341176470625214,77.22382339663454 54.435294117662124,77.10094801755622 55.21176470594946,76.93711411976255 56.34117647074163,76.60944612225285 56.588235294329934,76.56848760365392 56.83529411780182,76.56848760365392 57.011764706112444,76.77328015468083 57.329411764862016,76.69136314690695 57.576470588333905,76.69136314690695 58.00000000023283,76.44561202242039 58.28235294134356,76.36369494727114 58.388235294260085,76.15890218579443 58.28235294134356,75.54452326981118 58.28235294134356,75.29877143821795 59.34117647074163,74.93014340667287 60.25882352958433,74.3567213465285 60.82352941192221,73.74233965223539 61.000000000116415,72.75932697133976 60.92941176495515,72.43165553876315 60.78823529416695,72.14494281439693 60.61176470608916,71.85822988368454 60.36470588238444,71.73535285016987 60.011764706112444,71.61247577887843 59.83529411791824,71.40768057582318 61.03529411787167,71.0800080319168 62.27058823546395,70.95713075847016 63.29411764710676,70.79329433507519 63.78823529428337,70.670416973182 64.35294117673766,70.01507040380966 64.95294117671438,68.86821131390752 65.48235294141341,68.45861798201804 65.7294117648853,68.17190239910269 65.97647058835719,67.39367334864801 66.11764705902897,66.12392795097549 66.22352941182908,65.9191299273516 66.32941176486202,65.0589770784718 66.68235294136684,63.74826440552715 66.89411764719989,62.88810687101795 67.0,62.6013872801268 66.96470588259399,61.74122727004578 66.85882352956105,61.45450685409014 66.29411764722317,61.126826126128435 65.12941176490858,61.24970643068082 63.78823529428337,61.41354677785421 62.870588235440664,61.57738705765223 61.74117647088133,61.618347117095254 60.54117647069506,61.659307172347326 59.658823529607616,61.70026722326293 59.41176470601931,61.782187312695896 58.84705882368144,61.782187312695896 57.61176470608916,62.02794747968437 56.41176470601931,62.396587446302874 55.60000000020955,62.6833071843721 54.435294117662124,62.88810687101795 53.30588235310279,63.09290645242436 52.07058823551051,63.25674604176311 50.8000000002794,63.62538487149868 49.705882353009656,63.95306354487548 48.40000000002328,64.28074194892542 47.658823529607616,64.52650057512801 47.235294117825106,64.89513823023299 47.094117647153325,65.42761424113996 47.235294117825106,65.9191299273516 47.764705882640556,66.94311899319291 48.36470588261727,67.96710542787332 49.07058823551051,69.19588567639585 49.74117647076491,69.97411120735342 50.55294117669109,70.46562128610094 51.4000000001397,71.03904894503648 52.52941176481545,71.61247577887843 53.37647058838047,71.77631186548388 53.870588235440664,72.10398383680149 55.141176470788196,72.34973763857852 56.44705882354174,72.10398383680149 57.75294117652811,71.73535285016987 58.952941176481545,71.44863962481031 59.83529411791824,71.32576246510143 60.61176470608916,71.1619261931628 60.89411764719989,71.1619261931628 62.20000000006985,70.9980898538488 63.047058823751286,70.91617165895877 63.82352941192221,70.62945784418844 64.17647058842704,70.2608254935767 64.77647058840375,69.15492639577133 65.62352941185236,68.2128617806884 65.83529411780182,68.0080648305593 66.01176470599603,67.35271388289402 66.01176470599603,67.02503800479462 66.18823529430665,65.67337216006126 66.22352941182908,65.18185617064591 66.61176470597275,63.87114390177885 66.92941176483873,62.56042732181959 67.0,61.9869874624419 66.92941176483873,61.659307172347326 66.68235294136684,61.29066652385518 66.40000000002328,61.16778623184655 65.02352941187564,61.29066652385518 63.682352941366844,61.45450685409014 62.83529411780182,61.659307172347326 62.58823529421352,61.618347117095254 62.30588235310279,61.74122727004578 61.17647058831062,61.70026722326293 59.94117647071835,61.82314735100954 59.69411764724646,61.782187312695896 59.200000000186265,61.782187312695896 58.917647059075534,61.90506741515128 58.63529411773197,61.86410738521954 57.823529412038624,62.02794747968437 57.36470588250086,62.06890749288141 56.37647058838047,62.396587446302874 56.12941176490858,62.396587446302874 55.917647059075534,62.56042732181959 54.75294117652811,62.806187009002315 53.37647058838047,63.05194654449588 51.964705882477574,63.215786150773056 50.87058823555708,63.54346516093938 50.58823529421352,63.54346516093938 50.0588235296309,63.78922424186021 49.24705882370472,64.0349831712083 48.96470588259399,63.994023360166466 47.90588235296309,64.32170173051418 47.44705882377457,64.56746033151285 47.27058823546395,64.77225904967054 47.16470588243101,65.34569490115973 47.20000000006985,65.71433179843007 47.69411764724646,66.53352368265041 47.97647058835719,67.10695699960343 48.18823529430665,67.39367334864801 48.294117647223175,67.7623083514627 48.85882352956105,68.78629268115037 49.31764705886599,69.48260052251862 49.31764705886599,69.48260052251862" stroke="#4dd2ff" stroke-linecap="round" stroke-linejoin="round" stroke-width="0.5"><title>2024-06-25 4.9km</title><desc>9223370317535602707</desc></polyline><polyline fill="none" points="134.81747572822496,47.10108616942307 135.06213592225686,46.85770094007603 134.81747572822496,47.10108616942307 133.66407766984776,46.12754435132956 133.6291262137238,45.03230693473597 133.41941747581586,44.9106137008057 133.34951456298586,45.19456452166196 133.20970873790793,45.356822041707346 133.13980582531076,45.72190121826134 133.2446601941483,46.77657249692129 133.38446601945907,46.938829366496066 133.6291262137238,47.506727884639986 133.594174757367,47.79067683717585 133.66407766984776,48.115189675678266 134.118446601904,48.926470604055794 134.08349514566362,49.453802312898915 133.94368932046928,49.697185940953204 133.20970873790793,50.06226110152784 133.0349514563568,50.26508048904361 133.0,50.589591292489786 133.5592233010102,51.76594071756699 133.76893203880172,52.41495958881569 134.08349514566362,52.739468624204164 134.53786407771986,53.26679523740313 134.9223300970625,54.11862904689042 135.69126213598065,55.17327788242255 135.97087378636934,55.61947461802629 136.0757281553233,55.943981018004706 136.25048543687444,56.18736064285622 136.32038834958803,56.47130334877875 136.949514563079,57.6476352395548 137.4388349513756,58.62114863505121 137.99805825250223,59.878599883115385 138.45242718444206,60.730419419676764 138.52233009715565,61.1766098717635 138.69708737870678,61.501111701712944 138.9766990292119,61.785050584119745 139.04660194169264,62.10955191383255 139.04660194169264,62.43405297672143 139.2213592233602,62.59630340800504 139.4660194175085,63.12361684915959 139.99029126216192,64.09711673553102 140.47961165057495,65.35455053427722 141.03883495135233,66.57141813758062 141.4233009709278,67.62603369198041 141.84271844662726,68.7617703677679 142.2271844659699,69.81638006863068 142.61165048542898,71.07379564386792 143.03106796112843,72.20952239749022 143.41553398047108,73.58861477536266 143.55533980589826,73.83198351832107 143.76504854368977,73.99422926356783 144.04466019419488,73.99422926356783 144.70873786415905,73.58861477536266 145.89708737866022,73.0613153175509 147.01553398056421,72.41233040223597 148.20388349506538,71.88502937273006 149.21747572813183,71.47941271681339 149.46213592228014,71.43885102833156 150.405825242633,70.95211044073221 151.62912621360738,70.38424566327012 152.712621359271,69.8975037750497 153.06213592237327,69.69469447765732 153.37669902900234,69.57300884931465 154.39029126206879,69.04570402597892 155.4388349513756,68.55896048684372 155.96310679614544,68.31558849205612 156.27766990300734,68.31558849205612 156.76699029130396,67.99109226567089 157.780582524254,67.54490951861953 159.03883495146874,67.01760198536795 160.19223300972953,66.6119803263864 161.24077669903636,66.2874826991756 162.2543689319864,65.88186028972268 162.84854368923698,65.80073575783172 163.1281553398585,65.39511284825858 163.6524271843955,65.27342589391628 164.5262135922676,65.19230123708257 165.81941747572273,64.7866777019517 167.0776699029375,64.50274097934016 167.60194174770731,64.38105374999577 168.37087378650904,64.21880405244883 168.65048543689772,64.21880405244883 169.76893203891814,63.85374198917998 171.16699029132724,63.610367092624074 172.3902912621852,63.36699204595061 173.64854368939996,63.204741931462195 174.13786407769658,63.083054301852826 174.59223300975282,63.083054301852826 175.15145631076302,62.880241502280114 176.26990291278344,62.79911635344615 177.07378640782554,62.63686600534129 178.3320388350403,62.55574080644874 178.89126213581767,62.55574080644874 180.07961165055167,62.39349035837222 180.8485436894698,62.39349035837222 182.14174757292494,62.31236510936287 183.46990291250404,62.23123984364793 184.79805825243238,62.23123984364793 185.6019417475909,62.27180247861543 185.98640776693355,62.19067720457679 186.79029126209207,62.27180247861543 187.0,62.43405297672143 186.89514563104603,62.67742859866121 187.0,62.96136663472862 186.9650485436432,63.16417939233361 186.4757281553466,63.204741931462195 186.40582524274942,63.44811707807821 186.54563106782734,63.69149207469309 186.54563106782734,63.894304457324324 186.30097087379545,64.13767917864607 186.1262135922443,64.05655428816681 185.11262135929428,64.01599183675717 184.02912621363066,64.17824161768658 182.91067961172666,64.34049133191002 181.6524271845119,64.54330338083673 180.28932038834319,64.66499056018074 179.9747572814813,64.70555294500082 179.69514563097619,64.66499056018074 178.43689320399426,64.7866777019517 177.21359223301988,65.03005187303643 176.93398058251478,65.19230123708257 175.67572815541644,65.47623746353202 174.3475728156045,65.80073575783172 173.12427184463013,66.04410930353333 171.90097087377217,66.16579602006823 170.6427184465574,66.40916934062261 169.38446601945907,66.81479120801669 168.30097087379545,67.05816412833519 167.77669902914204,67.17985053220764 167.0427184465807,67.58547160745366 166.90291262138635,67.78828198855626 166.86796116502956,68.07221634718007 166.86796116502956,68.35615050166962 167.49708737875335,69.57300884931465 167.60194174770731,69.85694192384835 168.1961165049579,70.91154869805905 168.89514563104603,72.00671428817441 169.3145631068619,72.53401515513542 170.18834951450117,73.22356137962197 171.37669902911875,73.83198351832107 172.46019417478237,74.31872055391432 173.543689320446,74.76489564249641 174.6621359224664,75.0893862992234 175.95533980592154,75.00826365995454 177.03883495146874,74.68377293663798 178.22718446608633,74.4404047189746 179.4504854369443,74.19703635119367 180.60388349508867,74.07535211119102 181.86213592230342,73.91310639918083 182.7708737864159,73.83198351832107 183.0854368931614,73.71029916557018 183.574757281458,73.42636886346736 183.9592233010335,72.9801922615734 184.44854368944652,71.96615265400033 184.7631067960756,71.47941271681339 185.18252427177504,71.27660423249472 185.39223300968297,71.07379564386792 185.74174757278524,69.8975037750497 185.8466019417392,68.7212083999475 185.8815533979796,68.11277838182286 186.26601941755507,66.89591553140781 186.54563106782734,66.04410930353333 186.54563106782734,65.39511284825858 186.65048543689772,65.15173890226288 186.68543689325452,64.54330338083673 186.4407766989898,64.299928909546 186.1611650484847,64.09711673553102 185.8466019417392,64.05655428816681 184.65825242723804,64.25936648302013 184.09902912622783,64.299928909546 183.50485436897725,64.42161616394878 183.19029126211535,64.42161616394878 181.9669902912574,64.66499056018074 180.91844660195056,64.66499056018074 179.76504854368977,64.7866777019517 178.5417475728318,64.82724007425713 177.28349514561705,65.11117656339775 176.0252427184023,65.43567515801988 174.76699029130396,65.80073575783172 173.543689320446,66.04410930353333 172.21553398051765,66.24692047701683 170.85242718446534,66.49029374754173 169.80388349515852,66.85535337182228 169.20970873790793,66.89591553140781 168.51067961170338,67.05816412833519 167.3572815534426,67.50434742565267 167.11262135917787,67.58547160745366 166.93786407762673,67.82884405233199 166.90291262138635,68.11277838182286 167.28737864084542,69.1673898169247 167.60194174770731,69.65413260576315 167.70679611654487,70.10031296807574 167.70679611654487,70.10031296807574" stroke="#4dd2ff" stroke-linecap="round" stroke-linejoin="round" stroke-width="0.5"><title>2024-06-18 4.3km</title><desc>9223370318140349607</desc></polyline><polyline fill="none" points="13.0,107.14274620983633 13.339148639235646,107.66754761416814 13.753663642797619,108.80461510259192 13.829030006891116,109.06701486057136 14.394277739105746,110.20407860865816 14.884159106528386,111.4286054004624 14.997208653017879,111.69100354018155 15.374040474649519,112.17206637587515 15.374040474649519,112.4781969882024 15.411723656579852,112.74059448056505 15.637822749326006,112.95925893392996 15.976971388561651,113.83391562348697 16.35380320996046,114.57737239592825 16.994417306268588,115.7581540113315 17.559665038483217,116.93893234973075 17.97418004181236,118.20717210022849 18.464061409700662,119.3004791958083 18.91625959519297,120.52497980752378 19.21772505226545,121.66201293448103 19.59455687366426,122.79904302296927 19.70760641992092,123.19262965326197 19.858339148573577,123.49875233627972 20.197487787809223,124.50458245835034 20.235170969972387,124.81070419744356 20.574319608975202,125.07309408427682 20.988834612537175,125.11682571633719 21.290300069609657,125.02936244776356 21.478715980425477,124.89816751106991 22.38311235164292,124.41711906384444 22.75994417304173,124.32965565135237 23.965806001331657,123.71741126061534 25.058618283364922,123.10516598899267 25.51081646885723,122.93023860681569 26.18911374732852,122.75531115266494 26.528262386564165,122.53665173376794 27.80949057918042,122.01186866997159 28.450104675488546,121.74947689534747 28.86461967905052,121.39962094408111 30.183531053829938,120.78737233727588 30.371946964412928,120.69990817882353 30.560362874995917,120.56871190710808 31.276343335630372,120.39378348211176 31.464759246446192,120.43751559508382 31.72854152135551,121.049764705298 32.67062107450329,120.69990817882353 33.34891835297458,120.39378348211176 33.72575017437339,120.26258711601258 34.064898813841864,120.04392641599406 34.856245638336986,119.73780124733457 35.19539427757263,119.56287248071749 35.609909281134605,119.4316758584464 36.7780879274942,118.95062123096432 38.13468248443678,118.42583374411333 38.39846475911327,118.20717210022849 39.415910676820204,117.85731323627988 39.717376133892685,117.90104561008047 40.32030704827048,117.63865130022168 41.714584786910564,117.28879196877824 42.24214933696203,117.02639728150098 42.50593161187135,116.98266481782775 42.84508025133982,117.11386219525593 43.334961618995294,118.20717210022849 43.86252616881393,119.25674696595524 44.578506629448384,120.48124770351569 45.10607117926702,121.70574491709704 45.633635729318485,122.79904302296927 46.16120027913712,123.97980182169704 46.65108164679259,125.16055734385736 46.877180739771575,125.90399432499544 47.065596650587395,126.16638353766757 47.5177948360797,127.43459578423062 48.0830425680615,128.92146050106385 48.422191207297146,130.1459334254032 48.83670621062629,131.32667183681042 49.2135380320251,132.68233041692292 49.43963712500408,132.85725379019277 49.741102582076564,132.85725379019277 50.87159804604016,132.59486870348337 51.21074668527581,132.20129076993908 52.416608513565734,131.67651962582022 53.58478715992533,131.5015957673022 54.86601535230875,131.28294084302615 55.73272854159586,131.02055478550028 56.56175854848698,131.19547884183703 57.579204466193914,130.8018996141618 57.72993719484657,130.62697539594956 57.579204466193914,129.7523532269115 57.767620376776904,129.62115974639892 58.14445219817571,129.53369740370545 58.445917655248195,129.3150414681877 58.747383112320676,129.22757906248444 59.91556175844744,128.3966853118327 60.254710397915915,128.00310349540086 60.443126308498904,127.56578993881703 60.51849267282523,127.08474450765061 60.40544312633574,126.47250408117543 60.02861130493693,126.03518895150046 59.23726448020898,125.6853365242423 59.312630844302475,125.42294701494393 60.59385903715156,125.24802058562636 61.988136776024476,125.07309408427682 62.81716678291559,124.985630806681 63.34473133296706,124.81070419744356 63.608513607876375,124.63577751643606 64.39986043260433,123.41128873502021 64.85205861832947,122.62411551480182 65.49267271463759,122.23052835851558 65.83182135387324,121.39962094408111 65.83182135387324,120.74364026030526 65.98255408229306,119.6066046791384 66.17096999310888,118.9943534922495 66.28401953959838,118.81942441980937 66.62316817860119,117.4199892518518 66.96231681783684,115.93308434225037 67.0,115.32082786911633 66.84926727134734,115.01469930220628 66.66085136076435,114.79603590525221 66.39706908585504,114.6211051067512 64.88974180049263,114.6211051067512 63.6838799722027,114.88350127753802 62.6287508723326,115.14589728647843 61.42288904404268,115.23336258687777 60.17934403358959,115.32082786911633 59.42568039079197,115.32082786911633 58.935799022903666,115.23336258687777 57.54152128403075,115.40829313354334 56.637124912813306,115.62695621579769 55.73272854159586,116.02054948089062 54.41381716681644,116.4141423816036 53.20795533852652,116.63280494700302 52.37892533140257,116.76400243229 51.81367759942077,116.76400243229 50.64549895306118,116.98266481782775 49.7034193999134,117.0701297405758 49.13817166769877,117.33252440101933 48.83670621062629,117.3762568286329 47.555478018010035,117.76984847540734 46.23656664346345,118.07597505999729 45.78436845773831,118.2946367712866 45.59595254692249,118.55703067642753 45.48290300066583,119.08181800143211 45.97278436855413,120.26258711601258 46.688764828955755,121.48708495884784 47.442428471753374,122.71157927784952 48.23377529671416,123.67367948475294 48.94975575711578,124.32965565135237 50.08025122107938,124.85443585642497 51.36147941369563,125.51041020266712 52.529658060055226,125.99145741388202 53.62247034185566,126.4287725884933 54.903698534471914,126.51623556946288 56.147243544925004,126.16638353766757 57.42847173754126,125.86026277387282 57.69225401268341,125.86026277387282 58.29518492659554,125.64160495065153 58.67201674799435,125.55414178990759 59.91556175844744,125.7727996580652 59.689462665701285,125.59787337249145 59.84019539435394,125.72906809335109 60.02861130493693,125.81653121829731 60.367759944172576,126.16638353766757 60.51849267282523,126.47250408117543 60.51849267282523,126.47250408117543" stroke="#4dd2ff" stroke-linecap="round" stroke-linejoin="round" stroke-width="0.5"><title>2024-06-17 3.4km</title><desc>9223370318224643007</desc></polyline><polyline fill="none" points="134.193758127396,105.4531683261448 134.36931079323404,105.37167037805193 133.9830949284369,105.1271764334233 133.3862158646807,105.00492940441472 133.3159947983222,105.249423424626 133.17555266572163,105.49391729384661 133.14044213260058,105.98290458013071 133.24577373208012,106.22739799699048 133.17555266572163,106.4718912631215 133.5968790636398,107.61285784395295 133.70221066311933,107.9388476923341 134.08842652791645,108.59082658501575 134.1235370610375,108.87606701324694 134.0533159947954,109.40579869263456 133.912873861962,109.56879291302175 133.70221066311933,109.60954145767028 133.10533159947954,110.01702667374047 133.03511053312104,110.30226607565419 133.0,110.669002147828 133.17555266572163,111.15798304986674 133.49154746404383,111.4432216307614 133.66710012988187,111.72846000641584 133.94798439531587,111.89145327176084 134.5097529257182,112.86941145628225 134.82574772415683,113.68437476697727 134.82574772415683,113.92886343348073 135.21196358895395,114.62158050297876 135.80884265259374,115.35504431583104 136.3706111832289,116.57748098802404 136.89726918074302,117.51467988378135 137.38881664490327,118.57411944540218 137.73992197646294,119.14458572887816 138.30169050698169,120.32626327589969 138.40702210646123,120.4892530060024 138.44213263969868,120.77448487229412 138.65279583865777,121.3042006509786 138.93368010397535,121.71167384518776 139.00390117021743,122.28213561337907 139.39011703501455,122.68960780245834 139.88166449929122,123.70828644247376 140.44343302980997,124.88995038552093 140.93498049408663,126.11235765437596 141.25097529252525,126.886546975089 141.672301690327,128.027454797033 141.84785435628146,128.3534278574225 142.19895968784112,129.41283845243743 142.5500650194008,130.6759781538567 142.97139141743537,131.77612880826928 143.32249674887862,132.998514843639 143.42782834835816,133.5282142884389 143.77893368003424,133.8134367732273 144.30559167743195,133.77269071657793 145.53446033794899,133.16149936357397 146.48244473338127,132.87627640971914 147.1846553965006,132.55030706821708 148.4486345902551,131.9391138308565 149.53706111817155,131.2871733388165 150.625487646088,130.83896362880478 151.60858257452492,130.30926059072954 152.87256176851224,129.7388103736739 153.6098829646362,129.372091943369 153.85565669694915,129.16835933559923 154.87386215862352,128.7201472299348 155.89206762018148,128.27193461745628 156.98049414821435,127.82372149833827 157.6827048114501,127.45700129651232 158.03381014289334,127.37550787226064 159.01690507133026,126.92729373954353 160.10533159936313,126.47907910007052 161.26397919363808,126.11235765437596 161.86085825739428,125.94937023636885 162.1066319894744,125.78638275130652 162.7035110532306,125.62339519930538 163.01950585166924,125.66414209350478 163.5812743823044,126.27534500544425 163.8270481142681,126.35683865583269 164.1781534459442,126.27534500544425 164.52925877750386,126.31609183279215 165.02080624178052,126.47907910007052 165.26657997386064,126.47907910007052 166.24967490229756,126.96804049986531 167.0221066317754,127.29401443136157 167.23276983073447,127.33476115390658 167.0923276982503,127.90521483035991 167.0923276982503,128.14969472616212 167.30299089709297,128.7201472299348 167.8998699609656,129.6980638980749 168.4967490247218,130.83896362880478 169.05851755512413,131.81687507021707 169.79583875148091,132.67254560271977 170.95448634575587,133.40597601784975 172.04291287367232,133.89492887398228 173.13133940158878,134.3431351292238 174.14954486326315,134.75059492138098 175.02730819222052,134.99507059561438 176.36150845244993,134.75059492138098 177.48504551360384,134.38388112722896 178.74902470724192,134.13940507598454 179.97789336787537,133.89492887398228 180.25877763319295,133.8134367732273 181.38231469434686,133.6911985905317 182.85695708694402,133.5282142884389 183.41872561757918,133.48746820239467 183.94538361486048,133.2022454830294 184.54226267861668,132.42806849619956 184.75292587757576,131.8983675815398 185.0689206761308,131.49090485769557 185.77113133925013,131.0019490364648 186.01690507144667,130.51299261217355 186.08712613780517,130.14627489814302 186.08712613780517,129.82030331194983 186.15734720404726,129.53507795420592 186.22756827040575,128.59790747679654 186.43823146936484,127.5384947041166 186.719115734566,126.6828130899521 186.96488946664613,125.4604075801617 187.0,124.8084564335586 186.92977893340867,124.48248045824585 186.719115734566,124.23799830081407 186.4031209362438,124.03426305452012 185.27958387508988,124.03426305452012 183.98049414821435,124.1565042148577 182.71651495434344,124.40098642252269 181.97919375798665,124.56397447720519 180.8907672300702,124.64546847948804 180.3641092326725,124.64546847948804 180.1534460337134,124.56397447720519 178.81924577360041,124.64546847948804 177.59037711308338,124.93069735527388 176.50195058516692,125.21592602570308 175.378413524013,125.5011544910958 174.21976592973806,125.82712962877122 172.88556566962507,126.07161080618971 172.07802340690978,126.11235765437596 170.88426527951378,126.43833228960284 169.76072821835987,126.84580020641442 169.51495448627975,126.886546975089 168.25097529240884,127.17177423840621 167.72431729512755,127.29401443136157 167.47854356304742,127.37550787226064 167.19765929761343,127.82372149833827 167.16254876449239,128.0682014443155 167.72431729512755,129.16835933559923 168.3563068920048,130.18702132749604 168.95318595564459,131.36866595904576 169.76072821835987,132.38732229705784 170.18205461639445,132.79478409941657 171.44603381003253,133.40597601784975 172.18335500650574,133.8134367732273 173.34200260066427,134.26164312052424 174.53576072806027,134.75059492138098 175.5890767229721,134.83208682958502 176.85305591661017,134.54686507763108 178.18725617683958,134.18015109494445 179.34590377111454,133.9356749181461 180.64499349787366,133.6911985905317 181.83875162526965,133.5282142884389 183.13784135237802,133.40597601784975 183.91027308197226,133.16149936357397 184.2613784134155,132.87627640971914 184.9284785434138,131.73538254218874 185.8062418724876,130.87970998694072 186.15734720404726,129.57582444645232 186.2626788035268,128.43492108065402 186.57867360196542,127.09028075553942 186.7893368009245,126.51982590637635 186.92977893340867,126.35683865583269 186.92977893340867,125.4604075801617 187.0,124.60472148042754 186.8595578671666,124.31949237006484 186.33289986976888,124.07501011210843 185.10403120936826,123.95276892665424 184.36671001289506,124.03426305452012 183.24317295174114,124.31949237006484 182.2249674901832,124.64546847948804 181.90897269162815,124.56397447720519 181.3472041611094,124.68621547421208 179.94278283475433,124.64546847948804 179.27568270475604,124.60472148042754 178.81924577360041,124.72696246483247 178.53836150828283,124.72696246483247 177.3797139141243,124.97144432071946 176.7828348503681,125.05293823918328 175.94018205441535,125.41966066489113 174.74642392701935,125.66414209350478 173.76332899858244,125.94937023636885 172.42912873858586,126.19385133837932 171.0598179452354,126.47907910007052 169.72561768512242,126.92729373954353 169.30429128743708,126.92729373954353" stroke="#4dd2ff" stroke-linecap="round" stroke-linejoin="round" stroke-width="0.5"><title>2024-06-16 4.3km</title><desc>9223370318313038607</desc></polyline><polyline fill="none" points="17.598296971060336,155.4496011172887 16.447031719377264,155.22691056446638 17.070633730618283,155.05989258986665 15.67952155135572,154.55883835651912 16.063276635250077,153.445382845297 15.391705238260329,154.11345642688684 15.199827696196735,153.0 15.391705238260329,153.50105567532592 15.151858310680836,153.33403716853354 14.959980768617243,153.61240131797967 14.864041997818276,154.11345642688684 15.439674623776227,154.89287456357852 15.583582780323923,155.22691056446638 15.775460322154686,156.45170747168595 16.063276635250077,157.0641048864345 16.063276635250077,157.2867946837796 16.399062333628535,157.5094843893894 16.495001104660332,157.73217400355497 16.447031719377264,158.23322530061705 15.439674623776227,159.5136876203469 15.007950154365972,159.62503202678636 14.76810322678648,159.95906510867644 14.912011383334175,160.90549105533864 15.727490936638787,162.07460317661753 16.734848032472655,162.7983379866928 17.358450043713674,163.9674460219103 17.694235742092133,164.91386496339692 18.461745910346508,165.91595380473882 19.229256078135222,167.58609775308287 19.421133620198816,167.97579726658296 20.332551944535226,169.36757895426126 21.1000621127896,171.0933832799201 21.819602895295247,172.59649869520217 22.3472661357373,173.7655855785706 22.587113063316792,173.98826850851765 22.92289876169525,175.15735238755587 23.21071507455781,175.380034745147 23.30665384582244,175.76972865045536 23.30665384582244,176.15942227531923 23.402592616854236,176.49344515928533 23.690408929949626,176.71612696739612 24.50588848325424,178.441907876404 25.225429265759885,180.27902344620088 25.801061891950667,181.78211336844834 26.376694517675787,183.22952935111243 27.048265914898366,185.01095909648575 27.623898540856317,186.7367135749082 28.15156178129837,188.23978557588998 28.43937809439376,189.29750040941872 29.06298010586761,190.9119032783783 29.206888262415305,191.69126845843857 29.446735189994797,192.19228833913803 29.68658211734146,192.5263013355434 29.92642904468812,192.6376389550278 30.21424535778351,192.3592948631267 31.7492656938266,191.63559955422534 33.0924084878061,190.96757225715555 34.72336759488098,190.13253697694745 36.01854100334458,189.57584607508034 36.35432670172304,189.35316955397138 36.69011240056716,189.29750040941872 38.12919396534562,188.57380100956652 38.80076536233537,188.18411631684285 39.13655106094666,188.12844705220778 40.81547955330461,187.23773803876247 42.11065296176821,186.56970531743718 43.6936426833272,186.06868023547577 45.08475486282259,185.4006460722303 46.66774458438158,184.67694146547 46.95556089724414,184.454262930376 48.58652000455186,183.73055705905426 49.68981587095186,183.39653863856802 49.97763218381442,183.1738595770439 50.36138726794161,183.11818979744567 50.64920358080417,182.8955106214853 52.328132073394954,182.28314241557382 54.150968722533435,181.72644344577566 55.685989058576524,181.11407391791 56.64537676842883,182.28314241557382 57.173040008870885,182.67283135390608 58.13242771895602,184.28725396905793 58.995876658009365,185.90167177200783 59.18775419984013,186.23568864766276 60.0512031391263,187.96143922378542 60.530896993819624,188.9634854219621 60.77074392139912,189.57584607508034 61.442315318621695,191.19024811428972 61.92200917331502,192.13661948643858 61.92200917331502,192.41496369295055 62.305764257442206,192.97165167680942 62.929366269148886,194.5303749879822 63.50499889487401,196.14476226008264 64.03266213554889,197.75914472038858 64.51235599047504,199.3178542543901 64.89611107460223,200.98789520643186 65.23189677298069,202.37959206628148 65.18392738746479,202.71359878056683 64.08063152106479,202.88060206058435 63.7448458224535,202.6579310092493 62.20982548641041,202.71359878056683 61.442315318621695,202.93626980908448 60.96262146346271,203.1589407461579 59.47557051293552,203.43727928842418 57.94055017689243,203.38161159149604 56.45349922636524,203.88262065890012 55.30223397444934,204.0496235783794 53.815183023922145,204.0496235783794 53.191581012448296,204.27229405764956 52.08828514581546,204.77330230129883 50.64920358080417,204.88463740365114 48.87433631741442,204.66196717618732 47.67510167998262,204.82896985526895 45.75632625981234,205.38564508093987 44.22130592376925,205.8866522948374 42.44643866061233,205.55264753702795 41.77486726338975,205.8866522948374 40.719540782272816,205.55264753702795 40.33578569837846,205.7753173984238 39.66421430138871,205.71964994171867 38.80076536233537,205.8866522948374 38.51294904923998,206.10932201897958 38.56091843475588,206.554661192582 38.27310212189332,206.72166328819003 37.88934703776613,206.72166328819003 36.162449159892276,206.8886653324007 34.48352066730149,207.0 33.38022480090149,207.0 32.99646971700713,206.8886653324007 32.18099016346969,206.05365459655877 32.08505139220506,204.88463740365114 31.7492656938266,203.7712853506673 31.7972350793425,202.71359878056683 31.46144938073121,201.2662348644226 30.981755525572225,199.70753093704116 30.933786140289158,198.87250913085882 30.454092285130173,197.36946663603885 29.97439843043685,195.58807753724977 29.782520888140425,194.8643865424092 29.92642904468812,194.19636322750011 30.406122899847105,193.6396765023237 31.845204464858398,192.9159829042037 32.228959548752755,192.8046453417628 32.564745247364044,192.58197014813777 32.9005309457425,192.58197014813777 34.051796197891235,191.85827513673576 35.34696960635483,191.30158600857249 35.77869407599792,191.02324122999562 37.31371441180818,190.3552131774486 38.99264290439896,189.46450782584725 40.52766324020922,188.79647785110865 42.11065296176821,187.96143922378542 43.453795755747706,187.2934073949582 45.08475486282259,186.56970531743718 46.71571396966465,185.79033276758855 48.346673076972365,185.1222982610343 49.64184648543596,184.50993257277878 50.69717296632007,184.23158430372132 50.98498927941546,184.00890558562241 51.22483620676212,184.06457527371822 52.951734085101634,183.34086888172897 54.05502995150164,182.8955106214853 55.82989721512422,182.33881228102837 56.45349922636524,182.17180266731884 56.45349922636524,182.17180266731884" stroke="#4dd2ff" stroke-linecap="round" stroke-linejoin="round" stroke-width="0.5"><title>2024-06-15 3.6km</title><desc>9223370318394354007</desc></polyline></svg>