<?xml version="1.0" encoding="utf-8" ?>
<svg baseProfile="full" height="200mm" version="1.1" viewBox="0,0,200,200" width="200mm" xmlns="http://www.w3.org/2000/svg" xmlns:ev="http://www.w3.org/2001/xml-events" xmlns:xlink="http://www.w3.org/1999/xlink"><defs /><rect fill="#1a1a1a" height="200" width="200" x="0" y="0" /><text alignment-baseline="middle" fill="#e1ed5e" style="dominant-baseline: central; font-size:9.0px; font-family:Arial;" text-anchor="middle" x="100.0" y="100.0">2024</text><line stroke="#e1ed5e" stroke-width="0.3" x1="100.0" x2="100.0" y1="15.0" y2="10.0" /><path d="M 100.0 14.0 a86.0,86.0 0 0,1 42.35913384403234,11.155469271406648" fill="none" id="id1" stroke="none" /><text fill="#e1ed5e" style="font-size:6.75px; font-family:Arial;" text-anchor="middle"><textPath startOffset="22.145653131862478" xlink:href="#id1">January</textPath></text><line stroke="#e1ed5e" stroke-width="0.3" x1="143.13028292997686" x2="145.6673583964461" y1="26.7553504044142" y2="22.446841604673864" /><path d="M 143.63769802327073 25.89364864446614 a86.0,86.0 0 0,1 29.32050498858742,28.57503671076993" fill="none" id="id2" stroke="none" /><text fill="#e1ed5e" style="font-size:6.75px; font-family:Arial;" text-anchor="middle"><textPath startOffset="20.669276256404974" xlink:href="#id2">February</textPath></text><line stroke="#e1ed5e" stroke-width="0.3" x1="172.87174338648825" x2="177.1583165268699" y1="56.24261187166439" y2="53.66864786411523" /><path d="M 173.72905801456457 55.72781907015455 a86.0,86.0 0 0,1 12.242430191666344,42.057860355516425" fill="none" id="id3" stroke="none" /><text fill="#e1ed5e" style="font-size:6.75px; font-family:Arial;" text-anchor="middle"><textPath startOffset="22.145653131862474" xlink:href="#id3">March</textPath></text><line stroke="#e1ed5e" stroke-width="0.3" x1="184.99686870605535" x2="189.99668451229388" y1="99.2704041080226" y2="99.22748670261217" /><path d="M 185.99683186730306 99.26182062694052 a86.0,86.0 0 0,1 -10.086455211305974,41.156179273409016" fill="none" id="id4" stroke="none" /><text fill="#e1ed5e" style="font-size:6.75px; font-family:Arial;" text-anchor="middle"><textPath startOffset="21.40746469413373" xlink:href="#id4">April</textPath></text><line stroke="#e1ed5e" stroke-width="0.3" x1="174.33088141563837" x2="178.70328620479359" y1="141.23008692659167" y2="143.65538615756765" /><path d="M 175.20536237346943 141.71514677278685 a86.0,86.0 0 0,1 -30.301960400862466,31.631185727798858" fill="none" id="id5" stroke="none" /><text fill="#e1ed5e" style="font-size:6.75px; font-family:Arial;" text-anchor="middle"><textPath startOffset="22.145653131862474" xlink:href="#id5">May</textPath></text><line stroke="#e1ed5e" stroke-width="0.3" x1="143.1302829299769" x2="145.66735839644613" y1="173.24464959558577" y2="177.55315839532614" /><path d="M 143.63769802327073 174.10635135553383 a86.0,86.0 0 0,1 -40.68552437913181,11.842963189579606" fill="none" id="id6" stroke="none" /><text fill="#e1ed5e" style="font-size:6.75px; font-family:Arial;" text-anchor="middle"><textPath startOffset="21.407464694133747" xlink:href="#id6">June</textPath></text><path d="M 110.34350942703117 118.27599006163325 l 25.768118611077625 45.52979653233731 a73.3159469858914,73.3159469858914 0 0,0 -1.100632304197235,0.6105021857943345 l -24.982742118724296 -45.96543163356479" fill="#35ff67" stroke="none" /><path d="M 110.02825361518725 118.45085714620011 l 25.051340689841446 46.091645278002254 a73.45959811885422,73.45959811885422 0 0,0 -1.11312693853545,0.5926773976459789 l -24.25642493551944 -46.5148931433708" fill="#35ff6a" stroke="none" /><path d="M 109.3889696526874 118.78422872680471 l 28.166908958062173 56.352686180414125 a84.0,84.0 0 0,0 -1.2953590029517223,0.6336249996111061 l -27.19538970584838 -56.82790493012245" fill="#4dd2ff" stroke="none" /><path d="M 106.0420521117495 120.11202640906438 l 9.31973175414825 31.022355931079826 a53.39203555635062,53.39203555635062 0 0,0 -0.880053263161715,0.2561706788726894 l -8.785818478604927 -31.177770304255034" fill="#ff6309" stroke="none" /><path d="M 105.69591212413111 120.21278271476187 l 10.558943708363053 37.469966218466126 a59.92929052332411,59.92929052332411 0 0,0 -0.9925962796571545,0.27053652990015603 l -9.914166027771204 -37.64570324251043" fill="#fffb17" stroke="none" /><path d="M 105.3480935250658 120.30758222061773 l 7.883733968861831 29.935821994842293 a51.956529194964176,51.956529194964176 0 0,0 -0.8644445849095519,0.2197384330997509 l -7.368684090726882 -30.06674565977731" fill="#ff3f05" stroke="none" /><path d="M 104.9986988182912 120.39639698878246 l 9.2468910910564 37.73047116083218 a59.84705199713676,59.84705199713676 0 0,0 -0.9999241066310876,0.2359793665127527 l -8.597834830685432 -37.883646670991155" fill="#fff917" stroke="none" /><path d="M 102.51750503828377 120.84855314841334 l 5.28525712210231 43.76951082024403 a65.08745876425849,65.08745876425849 0 0,0 -1.110404749108201,0.12442316822024053 l -4.53311647139331 -43.85378974897124" fill="#98ff23" stroke="none" /><path d="M 102.15924093988457 120.88869738790638 l 5.491390863363551 53.124225214832904 a74.40729049755774,74.40729049755774 0 0,0 -1.2716575736624514,0.12042729436322924 l -4.578633726316085 -53.21066426470132" fill="#38ff7d" stroke="none" /><path d="M 101.08105385017728 120.97215588758144 l 3.162827670411404 61.35801184977638 a82.43947507124405,82.43947507124405 0 0,0 -1.4139321538215333,0.060720330460708793 l -2.109069755989041 -61.40326474866292" fill="#4aecff" stroke="none" /><line stroke="#e1ed5e" stroke-width="0.3" x1="101.45913802915013" x2="101.54496967792366" y1="184.9874750549273" y2="189.98673829345242" /><path d="M 101.47630435890484 185.9873277026323 a86.0,86.0 0 0,1 -42.54439059252881,-10.42667462771756" fill="none" id="id7" stroke="none" /><text fill="#e1ed5e" style="font-size:6.75px; font-family:Arial;" text-anchor="middle"><textPath startOffset="22.145653131862474" xlink:href="#id7">July</textPath></text><path d="M 100.0 121.0 l 4.77966429246835e-15 39.02892079411091 a60.02892079411091,60.02892079411091 0 0,0 -1.0304762491709105,-0.008845399243770147 l 0.6699833243220538 -39.02316979306158" fill="#fffd17" stroke="none" /><path d="M 99.63950707515114 120.99690560180557 l -0.5088994732567206 29.640843035297195 a50.64521132522093,50.64521132522093 0 0,0 -0.8691361841753904,-0.022385865066060925 l 1.017648971502855 -29.627739452881084" fill="#ff1d03" stroke="none" /><path d="M 99.27912038922189 120.98762331915562 l -0.9788047721464669 28.496832971359026 a49.51363793309285,49.51363793309285 0 0,0 -0.8492160420208179,-0.036468990796114834 l 1.4678465747681235 -28.475831412137083" fill="#ff0000" stroke="none" /><path d="M 97.84075906011543 120.88869738790638 l -2.9687185810167613 28.71965926694084 a49.87268810523979,49.87268810523979 0 0,0 -0.8508377923222988,-0.09533814930751866 l 3.461292274939859 -28.664465357126353" fill="#ff0901" stroke="none" /><path d="M 97.12497278360702 120.80226474461374 l -6.624157557598258 47.929104266384755 a69.3846928183477,69.3846928183477 0 0,0 -1.1784656182584472,-0.17319386319164418 l 7.445948281464389 -47.808329329894235" fill="#47ff2c" stroke="none" /><path d="M 96.05791012581884 120.62667999033965 l -8.36705722065353 43.77997896030451 a65.57234797829699,65.57234797829699 0 0,0 -1.103812164872141,-0.22079334703705597 l 9.117365871056629 -43.62989621660459" fill="#8eff24" stroke="none" /><path d="M 95.70440661134978 120.55596938700252 l -12.637834422674642 60.47661266005839 a82.78297126012697,82.78297126012697 0 0,0 -1.3885368448454574,-0.30262514261896256 l 13.674133684139235 -60.250756059305715" fill="#4ae6ff" stroke="none" /><path d="M 90.6110303473126 118.78422872680471 l -18.502162805761902 37.01671971903027 a62.383179762412695,62.383179762412695 0 0,0 -0.95378765926947,-0.4870107748291241 l 19.134877686744954 -36.69365099252831" fill="#cfff1d" stroke="none" /><path d="M 90.28995756902619 118.62028667847754 l -13.228752440971919 25.367877081954532 a49.60994720005045,49.60994720005045 0 0,0 -0.7517352403473425,-0.4002566738291614 l 13.662276497105822 -25.1370499404028" fill="#ff0300" stroke="none" /><line stroke="#e1ed5e" stroke-width="0.3" x1="58.13341422392154" x2="55.67067388415222" y1="173.97424548756322" y2="178.32567169271397" /><path d="M 57.64086615596768 174.84453072859336 a86.0,86.0 0 0,1 -31.369924170532247,-30.572349798747897" fill="none" id="id8" stroke="none" /><text fill="#e1ed5e" style="font-size:6.75px; font-family:Arial;" text-anchor="middle"><textPath startOffset="22.145653131862474" xlink:href="#id8">August</textPath></text><path d="M 89.65649057296885 118.27599006163327 l -23.67508706849783 41.83161034700777 a69.06655148775332,69.06655148775332 0 0,0 -1.0268141711135286,-0.5928314381001227 l 24.38969370747176 -41.41903201163147" fill="#4dff2c" stroke="none" /><path d="M 89.34428304082925 118.09573695890944 l -17.837848049446425 30.292565714029475 a56.154350521293004,56.154350521293004 0 0,0 -0.826450967758287,-0.49626006027383407 l 18.35523177376214 -29.981891653219723" fill="#ffa50f" stroke="none" /><path d="M 89.03521579738668 117.91015095944536 l -18.391765311930723 30.041566442216123 a56.22432037089182,56.22432037089182 0 0,0 -0.8188292382780005,-0.511010005034086 l 18.904758678998437 -29.72142064034049" fill="#ffa70f" stroke="none" /><path d="M 88.72937992617639 117.7192867562869 l -22.64000276279164 35.59384474761519 a63.18401959292815,63.18401959292815 0 0,0 -0.9101939875531131,-0.589976746080149 l 23.247682382601763 -35.199954159831144" fill="#beff1f" stroke="none" /><path d="M 88.1277618465304 117.32195027204791 l -20.105750281900985 29.33489052892037 a56.56370336089738,56.56370336089738 0 0,0 -0.7962146845177261,-0.555819686942001 l 20.606360057592475 -28.98542602617324" fill="#ffaf10" stroke="none" /><path d="M 86.68645165197938 116.24036423190432 l -24.099906244911175 29.397967028849454 a59.013759961924684,59.013759961924684 0 0,0 -0.7779296854795257,-0.6489766116550476 l 24.601010264552592 -28.979928233282536" fill="#ffe715" stroke="none" /><line stroke="#e1ed5e" stroke-width="0.3" x1="26.387840678322732" x2="22.057713659400548" y1="142.50000000000003" y2="145.00000000000006" /><path d="M 25.521815274538298 143.00000000000003 a86.0,86.0 0 0,1 -11.493303480769221,-40.785679425670985" fill="none" id="id9" stroke="none" /><text fill="#e1ed5e" style="font-size:6.75px; font-family:Arial;" text-anchor="middle"><textPath startOffset="21.40746469413373" xlink:href="#id9">September</textPath></text><line stroke="#e1ed5e" stroke-width="0.3" x1="15.003131293944662" x2="10.003315487706104" y1="100.72959589197737" y2="100.7725132973878" /><path d="M 14.003168132696942 100.73817937305945 a86.0,86.0 0 0,1 10.791469493833604,-42.45332614584628" fill="none" id="id10" stroke="none" /><text fill="#e1ed5e" style="font-size:6.75px; font-family:Arial;" text-anchor="middle"><textPath startOffset="22.145653131862435" xlink:href="#id10">October</textPath></text><line stroke="#e1ed5e" stroke-width="0.3" x1="26.387840678322718" x2="22.05771365940052" y1="57.49999999999999" y2="54.99999999999999" /><path d="M 25.521815274538284 56.99999999999999 a86.0,86.0 0 0,1 29.574782752854787,-30.34633250058573" fill="none" id="id11" stroke="none" /><text fill="#e1ed5e" style="font-size:6.75px; font-family:Arial;" text-anchor="middle"><textPath startOffset="21.40746469413373" xlink:href="#id11">November</textPath></text><line stroke="#e1ed5e" stroke-width="0.3" x1="56.869717070023135" x2="54.33264160355391" y1="26.7553504044142" y2="22.446841604673864" /><path d="M 56.362301976729285 25.89364864446614 a86.0,86.0 0 0,1 42.16139366436587,-11.88097634709845" fill="none" id="id12" stroke="none" /><text fill="#e1ed5e" style="font-size:6.75px; font-family:Arial;" text-anchor="middle"><textPath startOffset="22.145653131862474" xlink:href="#id12">December</textPath></text></svg>